<?xml version="1.0" encoding="UTF-8" standalone="no"?>
<svg
   xml:space="preserve"
   width="1000pt"
   height="2000pt"
   viewBox="0 0 1000 2000"
   version="1.1"
   id="svg362"
   xmlns="http://www.w3.org/2000/svg"
   xmlns:svg="http://www.w3.org/2000/svg"><defs
   id="defs362" />
<g
   font-family="sans-serif"
   font-weight="bold"
   id="g362"
   transform="translate(-1.4306755,-96.884048)">
<g
   transform="matrix(0.50448523,0,0,0.49658037,3521.0039,2946.6336)"
   stroke="#773dde"
   fill="none"
   id="g1">
<path
   d="M -4994.9323,-1711.488 H -6975.58 v -4026.1836 h 1980.6477 z"
   fill="#773dde"
   stroke="none"
   id="path1" />
</g><g
   transform="matrix(0.50448523,0,0,0.49658037,3521.0039,2946.6336)"
   stroke="#fff6e8"
   fill="none"
   id="g2">
<path
   d="M -5010.1723,-1726.728 V -5722.4316 H -6960.34 v 1314.7938 h -15.24 v 1396.1461 h 15.24 v 1284.7637 z"
   fill="#fff6e8"
   stroke="none"
   id="path2" />
</g><g
   transform="matrix(0.50448523,0,0,0.49658037,3521.0039,2946.6336)"
   stroke="#773dde"
   stroke-width="1.8017"
   fill="none"
   id="g64">
<path
   d="m -6073.0653,-3066.575 h -12.002 v -1260.3439 h 12.002 z"
   fill="#773dde"
   stroke="none"
   id="path3" />

<path
   d="m -6416.9238,-4326.5801 -4.0448,1260.0051 -12.002,-0.039 4.0449,-1260.0051 z"
   fill="#773dde"
   stroke="none"
   id="path4" />

<path
   d="m -5647.9639,-5142.9319 h -12.002 v -191.9825 h 12.002 z m 0,-290.001 h -12.002 v -290.001 h 12.002 z"
   fill="#773dde"
   stroke="none"
   id="path5" />

<path
   d="m -5010.162,-5154.4326 -0.01,12.002 -649.7946,-0.5013 0.01,-12.002 z"
   fill="#773dde"
   stroke="none"
   id="path6" />

<path
   d="m -5010.1713,-4409.383 h -649.7939 v -50.002 h 649.7939 z"
   fill="#773dde"
   stroke="none"
   id="path7" />

<path
   d="m -5647.9639,-4604.383 -12.002,6e-4 -0.028,-539.3688 12.002,-7e-4 z"
   fill="#773dde"
   stroke="none"
   id="path8" />

<path
   d="m -5647.9632,-3806.4306 h -12.002 v -80.002 h 12.002 z"
   fill="#773dde"
   stroke="none"
   id="path9" />

<path
   d="m -5359.9632,-4268.4306 h -300.002 v -12.002 h 300.002 z"
   fill="#773dde"
   stroke="none"
   id="path10" />

<path
   d="m -5500.0712,-4459.383 h -12.002 v -17.0129 h 12.002 z m 0,-114.6234 h -12.002 v -30.3786 h 12.002 z"
   fill="#773dde"
   stroke="none"
   id="path11" />

<path
   d="m -5633.2646,-4592.383 h -26.7006 v -12.002 h 26.7006 z m 623.2519,0 h -526.966 v -12.002 h 526.966 z"
   fill="#773dde"
   stroke="none"
   id="path12" />

<path
   d="m -5359.9632,-3886.4306 h -300.002 v -12.002 h 300.002 z"
   fill="#773dde"
   stroke="none"
   id="path13" />

<path
   d="m -5647.9632,-3205.4306 h -12.002 v -53.194 h 12.002 z m 0,-153.1938 h -12.002 v -211.8082 h 12.002 z"
   fill="#773dde"
   stroke="none"
   id="path14" />

<path
   d="m -5468.4754,-4280.4306 h -12.002 v -2.7923 h 12.002 z m 0,-126.1621 h -12.002 v -2.7923 h 12.002 z"
   fill="#773dde"
   stroke="none"
   id="path15" />

<path
   d="m -5647.9632,-3898.4306 h -12.002 v -370.002 h 12.002 z"
   fill="#773dde"
   stroke="none"
   id="path16" />

<path
   d="m -5359.9632,-3794.4306 h -300.002 v -12.002 h 300.002 z"
   fill="#773dde"
   stroke="none"
   id="path17" />

<path
   d="m -5359.9329,-3806.4306 h -12.002 v -80.002 h 12.002 z"
   fill="#773dde"
   stroke="none"
   id="path18" />

<path
   d="m -5647.9632,-3674.4306 h -12.002 v -120.002 h 12.002 z"
   fill="#773dde"
   stroke="none"
   id="path19" />

<path
   d="m -5359.9632,-3662.4306 h -300.002 v -12.002 h 300.002 z"
   fill="#773dde"
   stroke="none"
   id="path20" />

<path
   d="m -5359.9632,-3570.4306 h -300.002 v -12.002 h 300.002 z"
   fill="#773dde"
   stroke="none"
   id="path21" />

<path
   d="m -5647.9632,-3582.4306 h -12.002 v -80.002 h 12.002 z"
   fill="#773dde"
   stroke="none"
   id="path22" />

<path
   d="m -5359.9632,-3582.4306 h -12.002 v -80.002 h 12.002 z"
   fill="#773dde"
   stroke="none"
   id="path23" />

<path
   d="m -5559.9632,-3357.1841 h -100.002 v -12.002 h 100.002 z"
   fill="#773dde"
   stroke="none"
   id="path24" />

<path
   d="m -5559.9632,-3257.1841 h -12.002 v -100.002 h 12.002 z"
   fill="#773dde"
   stroke="none"
   id="path25" />

<path
   d="m -5359.0865,-3207.1841 h -300.002 v -50.002 h 300.002 z"
   fill="#773dde"
   stroke="none"
   id="path26" />

<path
   d="m -5647.9632,-2827.176 h -12.002 v -202.8933 h 12.002 z"
   fill="#773dde"
   stroke="none"
   id="path27" />

<path
   d="m -5359.9632,-3030.0673 h -300.002 v -50.002 h 300.002 z"
   fill="#773dde"
   stroke="none"
   id="path28" />

<path
   d="m -5010.1713,-2815.1841 h -649.7939 v -12.002 h 649.7939 z"
   fill="#773dde"
   stroke="none"
   id="path29" />

<path
   d="m -5650.152,-1913.514 -0.4475,186.8157 -12.002,-0.029 0.4475,-186.8158 z m 2.1887,-913.6434 -1.855,774.3351 -12.0019,-0.029 1.855,-774.3349 z"
   fill="#773dde"
   stroke="none"
   id="path30" />

<path
   d="m -5359.9632,-3898.4306 h -12.002 v -370.002 h 12.002 z"
   fill="#773dde"
   stroke="none"
   id="path31" />

<path
   d="m -5359.0865,-3225.4518 -12.002,0.017 -0.8767,-601.8168 12.0019,-0.017 z"
   fill="#773dde"
   stroke="none"
   id="path32" />

<path
   d="m -4998.0467,-2185.9164 h -649.794 v -12.002 h 649.794 z"
   fill="#773dde"
   stroke="none"
   id="path33" />

<path
   d="m -6085.0653,-3066.575 h -335.8715 v -12.002 h 335.8715 z"
   fill="#773dde"
   stroke="none"
   id="path34" />

<path
   d="m -6083.5946,-4314.917 -343.5927,0.3291 -0.012,-12.002 343.5927,-0.3291 z"
   fill="#773dde"
   stroke="none"
   id="path35" />

<path
   d="m -6822.3198,-3011.485 h -10.002 v -1396.2023 h 10.002 z"
   fill="#773dde"
   stroke="none"
   id="path36" />

<path
   d="m -6822.3198,-3001.485 h -152.5851 v -10.002 h 152.5851 z"
   fill="#773dde"
   stroke="none"
   id="path37" />

<path
   d="m -6822.3198,-4407.6853 h -138.0212 v -10.002 h 138.0212 z"
   fill="#773dde"
   stroke="none"
   id="path38" />

<path
   d="m -6085.0653,-3682.5854 h -334.2098 v -10.002 h 334.2098 z"
   fill="#773dde"
   stroke="none"
   id="path39" />

<path
   d="m -6085.0653,-3376.0275 h -334.8798 v -10.002 h 334.8798 z"
   fill="#773dde"
   stroke="none"
   id="path40" />

<path
   d="m -6085.0653,-3999.1433 h -332.8795 v -10.002 h 332.8795 z"
   fill="#773dde"
   stroke="none"
   id="path41" />

<path
   d="m -5468.0218,-3068.3285 h -10.002 v -14.4916 h 10.002 z m 0,-136.6426 h -10.002 v -2.215 h 10.002 z"
   fill="#773dde"
   stroke="none"
   id="path42" />

<path
   d="m -6274.0898,-4402.2905 h -88.7582 v -10.002 h 88.7582 z"
   fill="#773dde"
   stroke="none"
   id="path43" />

<path
   d="m -6352.846,-4317.5555 h -10.002 v -94.737 h 10.002 z"
   fill="#773dde"
   stroke="none"
   id="path44" />

<path
   d="m -6274.0898,-4326.1196 h -10.002 v -86.173 h 10.002 z"
   fill="#773dde"
   stroke="none"
   id="path45" />

<path
   d="m -6274.0898,-5071.1723 h -90.3574 v -10.002 h 90.3574 z"
   fill="#773dde"
   stroke="none"
   id="path46" />

<path
   d="m -6354.4452,-4990.2187 h -10.002 v -90.9556 h 10.002 z"
   fill="#773dde"
   stroke="none"
   id="path47" />

<path
   d="m -6275.4021,-4990.2187 h -89.0451 v -10.002 h 89.0451 z"
   fill="#773dde"
   stroke="none"
   id="path48" />

<path
   d="m -6274.5138,-5081.1743 -0.8883,90.9556 -10.0015,-0.098 0.8883,-90.9557 z"
   fill="#773dde"
   stroke="none"
   id="path49" />

<path
   d="m -6690.1973,-4990.2187 h -90.002 v -10.002 h 90.002 z"
   fill="#773dde"
   stroke="none"
   id="path50" />

<path
   d="m -6690.1973,-5075.2318 h -90.002 v -10.002 h 90.002 z"
   fill="#773dde"
   stroke="none"
   id="path51" />

<path
   d="m -6690.1973,-4995.2318 h -10.002 v -90.002 h 10.002 z"
   fill="#773dde"
   stroke="none"
   id="path52" />

<path
   d="m -6770.1973,-4995.2318 h -10.002 v -90.002 h 10.002 z"
   fill="#773dde"
   stroke="none"
   id="path53" />

<path
   d="m -6274.0898,-2977.8743 h -10.002 v -88.2312 h 10.002 z"
   fill="#773dde"
   stroke="none"
   id="path54" />

<path
   d="m -6352.846,-2977.8743 h -10.002 v -88.2312 h 10.002 z"
   fill="#773dde"
   stroke="none"
   id="path55" />

<path
   d="m -6274.0898,-2977.8743 h -88.7582 v -10.002 h 88.7582 z"
   fill="#773dde"
   stroke="none"
   id="path56" />

<path
   d="m -6273.9758,-2230.1266 h -10.002 v -90.002 h 10.002 z"
   fill="#773dde"
   stroke="none"
   id="path57" />

<path
   d="m -6352.846,-2230.1266 h -10.002 v -90.002 h 10.002 z"
   fill="#773dde"
   stroke="none"
   id="path58" />

<path
   d="m -6273.9758,-2310.1266 h -88.8722 v -10.002 h 88.8722 z"
   fill="#773dde"
   stroke="none"
   id="path59" />

<path
   d="m -6273.9758,-2230.1266 h -88.8722 v -10.002 h 88.8722 z"
   fill="#773dde"
   stroke="none"
   id="path60" />

<path
   d="m -6693.5918,-2230.1266 h -86.6075 v -10.002 h 86.6075 z"
   fill="#773dde"
   stroke="none"
   id="path61" />

<path
   d="m -6693.5918,-2305.7501 h -86.6075 v -10.002 h 86.6075 z"
   fill="#773dde"
   stroke="none"
   id="path62" />

<path
   d="m -6693.5918,-2230.1266 h -10.002 v -85.6255 h 10.002 z"
   fill="#773dde"
   stroke="none"
   id="path63" />

<path
   d="m -6770.1973,-2230.1266 h -10.002 v -85.6255 h 10.002 z"
   fill="#773dde"
   stroke="none"
   id="path64" />
</g><g
   transform="matrix(0.50448523,0,0,0.49658037,3521.0039,2946.6336)"
   stroke="#111111"
   stroke-width="1.8017"
   fill="none"
   id="g65">
<path
   d="M -4994.9323,-1711.488 H -6975.58 v -1300.0037 h 15.24 v 0 h 128.0182 V -4407.6853 H -6960.34 v 0.047 h -15.24 v -1330.0338 h 1980.6477 z M -6960.34,-3001.485 v 1274.757 h 1297.7385 l 0.4475,-186.8148 12.002,0.029 -0.4474,186.786 h 640.4271 v -459.1884 h -637.6684 v -12.002 h 637.6684 v -617.2657 h -637.8197 l -1.8263,762.3618 -12.0019,-0.029 1.855,-774.3349 v -252.8832 h 181.9414 v -2.7508 h 10.002 v 2.7508 h 108.0586 v 50.002 h -288 v 202.8812 h 637.7909 v -1582.197 h -458.3031 v 2.7903 h -12.002 v -2.7903 h -179.4878 v -50.002 h 147.892 v -17.0109 h 12.002 v 17.0109 h 489.8989 v -132.998 h -489.8989 v 18.3766 h -12.002 v -18.3766 h -24.9055 v -12.002 h 526.8064 v -538.0456 l -637.8195,-0.4921 0.028,538.5377 h 14.6993 v 12.002 h -26.7006 v -11.9994 h -7e-4 l -0.028,-539.3688 h 0.028 v -191.1632 h 12.002 v 179.9898 l 637.7916,0.492 v -567.999 h -637.7916 v 289.4987 h -12.002 v -289.4987 H -6960.34 v 1304.7443 h 138.0202 v 1416.2023 z m 180.1407,771.3584 v -85.6255 h 86.6075 v 85.6255 z m 417.3513,0 v -90.002 h 88.8722 v 90.002 z m 10.002,-80 v 69.998 h 68.8682 v -69.998 z m -417.3513,4.3765 v 65.6215 h 66.6035 v -65.6215 z m 407.3493,-672.1242 v -88.2312 h 10.002 v 78.2292 h 68.7542 v -78.2292 h 10.002 v 88.2312 z m 277.7807,-1349.0433 v 0 h 1.3568 l 0.1044,-1e-4 v 1e-4 h 10.5408 v 1260.3439 h -347.8715 v -9.9061 l -0.032,9.9061 -12.002,-0.039 4.0449,-1260.0051 7.2868,0.023 58.7909,-0.056 v -85.641 h 78.7562 v -1e-4 h 10.002 v 85.556 z m -335.8628,1248.3406 h 335.8628 v -297.4505 h -334.8778 v -9.3804 z m 1060.9972,-807.8556 v 80.002 l 0.8002,549.2445 h 0.046 v 50.002 h -108.9353 v 2.213 h -10.002 v -2.213 h -169.9394 v 1.7535 h -12.002 v -53.194 h 12.002 v 1.4385 h 75.998 v -99.998 h -88 v -923.2485 h 179.4878 v -2.7903 h 12.002 v 2.7903 h 108.5122 v 394 z m -11.2019,629.2465 -0.4563,-313.2445 h -276.3721 v 201.2445 h 88 v 112 z m -1047.8563,-425.3993 -0.952,296.5559 h 334.8758 v -296.5559 z m 771.0279,20.1548 v 79.998 h 275.998 v -79.998 z m 0,-132 v 119.998 h 276.2206 l -0.1748,-119.998 z m -770.9958,101.8432 h 333.8917 v -306.5559 h -332.8775 v -9.3827 z m 770.9958,-193.8432 v 79.998 h 276.0283 l -0.03,-20.8185 h 0.03 v -59.1795 z m 0,-382 v 369.998 h 275.998 v -369.998 z m -768.9991,-46.1671 -0.9805,305.4524 h 332.8755 v -305.7703 z m 64.1163,-87.6928 v 75.6294 l 68.7542,-0.066 v -75.5635 z m -427.3533,-587.9282 v -95.0151 h 90.002 v 95.0151 z m 415.7521,-90.9556 h 79.9309 v -0.098 l 10.0015,0.098 h 0.424 v 10.002 h -0.5217 l -0.7906,80.9536 h -89.0451 z m 10.002,10.002 v 70.9516 h 69.1383 l 0.693,-70.9516 z m -415.7521,-4.0595 v 75.0111 h 69.998 v -75.0111 z"
   id="path65" />
</g><g
   transform="matrix(0.50448523,0,0,0.49658037,3521.0039,2946.6336)"
   stroke="#ffffff"
   stroke-width="0.60057"
   opacity="1"
   fill="none"
   id="g69">
<path
   d="m -6427.9107,-2375.9174 c -2.2091,0 -4,1.7909 -4,4 v 7 c 0,2.2091 1.7909,4 4,4 h 56.0637 c 2.2091,0 4,-1.7909 4,-4 v -7 c 0,-2.2091 -1.7909,-4 -4,-4 z"
   fill="#ffffff"
   stroke="none"
   id="path67" />

<path
   d="m -6427.9107,-2200.9174 c -2.2091,0 -4,1.7909 -4,4 v 7 c 0,2.2091 1.7909,4 4,4 h 56.0637 c 2.2091,0 4,-1.7909 4,-4 v -7 c 0,-2.2091 -1.7909,-4 -4,-4 z"
   fill="#ffffff"
   stroke="none"
   id="path68" />

<path
   d="m -6430.9107,-2360.9174 c -3.866,0 -7,3.134 -7,7 v 146 c 0,3.866 3.134,7 7,7 h 68.0637 v -160 z"
   fill="#ffffff"
   stroke="none"
   id="path69" />
</g><g
   transform="matrix(0.50448523,0,0,0.49658037,3521.0039,2946.6336)"
   stroke="#000000"
   stroke-width="0.60057"
   opacity="1"
   fill="none"
   id="g73">
<path
   d="m -6427.9107,-2375.9174 c -2.2091,0 -4,1.7909 -4,4 v 7 c 0,2.2091 1.7909,4 4,4 h 56.0637 c 2.2091,0 4,-1.7909 4,-4 v -7 c 0,-2.2091 -1.7909,-4 -4,-4 z"
   id="path70" />

<path
   d="m -6427.9107,-2200.9174 c -2.2091,0 -4,1.7909 -4,4 v 7 c 0,2.2091 1.7909,4 4,4 h 56.0637 c 2.2091,0 4,-1.7909 4,-4 v -7 c 0,-2.2091 -1.7909,-4 -4,-4 z"
   id="path71" />

<path
   d="m -6430.9107,-2360.9174 c -3.866,0 -7,3.134 -7,7 v 146 c 0,3.866 3.134,7 7,7 h 68.0637 v -160 z"
   id="path72" />

<line
   x1="-6387.8472"
   y1="-2360.9175"
   x2="-6387.8472"
   y2="-2200.9175"
   id="line72" />

<line
   x1="-6387.8472"
   y1="-2280.9175"
   x2="-6437.9106"
   y2="-2280.9175"
   id="line73" />
</g><g
   transform="matrix(0.50448523,0,0,0.49658037,3521.0039,2946.6336)"
   stroke="#ffffff"
   stroke-width="0.60057"
   opacity="1"
   fill="none"
   id="g75">
<path
   d="m -6538.961,-2168.3549 c 2.2091,0 4,-1.7909 4,-4 v -7 c 0,-2.2091 -1.7909,-4 -4,-4 h -45.6318 c -2.2092,0 -4,1.7909 -4,4 v 7 c 0,2.2091 1.7908,4 4,4 z"
   fill="#ffffff"
   stroke="none"
   id="path73" />

<path
   d="m -6538.961,-2360.9174 c 2.2091,0 4,-1.7909 4,-4 v -7 c 0,-2.2091 -1.7909,-4 -4,-4 h -45.6318 c -2.2092,0 -4,1.7909 -4,4 v 7 c 0,2.2091 1.7908,4 4,4 z"
   fill="#ffffff"
   stroke="none"
   id="path74" />

<path
   d="m -6535.961,-2183.3549 c 3.8659,0 7,-3.134 7,-7 v -163.5625 c 0,-3.866 -3.1341,-7 -7,-7 h -57.6318 v 177.5625 z"
   fill="#ffffff"
   stroke="none"
   id="path75" />
</g><g
   transform="matrix(0.50448523,0,0,0.49658037,3521.0039,2946.6336)"
   stroke="#000000"
   stroke-width="0.60057"
   opacity="1"
   fill="none"
   id="g79">
<path
   d="m -6538.961,-2168.3549 c 2.2091,0 4,-1.7909 4,-4 v -7 c 0,-2.2091 -1.7909,-4 -4,-4 h -45.6318 c -2.2092,0 -4,1.7909 -4,4 v 7 c 0,2.2091 1.7908,4 4,4 z"
   id="path76" />

<path
   d="m -6538.961,-2360.9174 c 2.2091,0 4,-1.7909 4,-4 v -7 c 0,-2.2091 -1.7909,-4 -4,-4 h -45.6318 c -2.2092,0 -4,1.7909 -4,4 v 7 c 0,2.2091 1.7908,4 4,4 z"
   id="path77" />

<path
   d="m -6535.961,-2183.3549 c 3.8659,0 7,-3.134 7,-7 v -163.5625 c 0,-3.866 -3.1341,-7 -7,-7 h -57.6318 v 177.5625 z"
   id="path78" />

<line
   x1="-6568.5928"
   y1="-2183.355"
   x2="-6568.5928"
   y2="-2360.9175"
   id="line78" />

<line
   x1="-6568.5928"
   y1="-2272.1362"
   x2="-6528.9609"
   y2="-2272.1362"
   id="line79" />
</g><g
   transform="matrix(0.50448523,0,0,0.49658037,3521.0039,2946.6336)"
   stroke="#ffffff"
   stroke-width="0.60057"
   opacity="1"
   fill="none"
   id="g81">
<path
   d="m -6418.8072,-5125.2792 c -2.2092,0 -4,1.7908 -4,4 v 7 c 0,2.2091 1.7908,4 4,4 h 45.361 c 2.2091,0 4,-1.7909 4,-4 v -7 c 0,-2.2092 -1.7909,-4 -4,-4 z"
   fill="#ffffff"
   stroke="none"
   id="path79" />

<path
   d="m -6418.8072,-4950.2792 c -2.2092,0 -4,1.7908 -4,4 v 7 c 0,2.2091 1.7908,4 4,4 h 45.361 c 2.2091,0 4,-1.7909 4,-4 v -7 c 0,-2.2092 -1.7909,-4 -4,-4 z"
   fill="#ffffff"
   stroke="none"
   id="path80" />

<path
   d="m -6421.8072,-5110.2792 c -3.866,0 -7,3.134 -7,7 v 146 c 0,3.866 3.134,7 7,7 h 57.361 v -160 z"
   fill="#ffffff"
   stroke="none"
   id="path81" />
</g><g
   transform="matrix(0.50448523,0,0,0.49658037,3521.0039,2946.6336)"
   stroke="#000000"
   stroke-width="0.60057"
   opacity="1"
   fill="none"
   id="g85">
<path
   d="m -6418.8072,-5125.2792 c -2.2092,0 -4,1.7908 -4,4 v 7 c 0,2.2091 1.7908,4 4,4 h 45.361 c 2.2091,0 4,-1.7909 4,-4 v -7 c 0,-2.2092 -1.7909,-4 -4,-4 z"
   id="path82" />

<path
   d="m -6418.8072,-4950.2792 c -2.2092,0 -4,1.7908 -4,4 v 7 c 0,2.2091 1.7908,4 4,4 h 45.361 c 2.2091,0 4,-1.7909 4,-4 v -7 c 0,-2.2092 -1.7909,-4 -4,-4 z"
   id="path83" />

<path
   d="m -6421.8072,-5110.2792 c -3.866,0 -7,3.134 -7,7 v 146 c 0,3.866 3.134,7 7,7 h 57.361 v -160 z"
   id="path84" />

<line
   x1="-6389.4463"
   y1="-5110.2793"
   x2="-6389.4463"
   y2="-4950.2793"
   id="line84" />

<line
   x1="-6389.4463"
   y1="-5030.2793"
   x2="-6428.8071"
   y2="-5030.2793"
   id="line85" />
</g><g
   transform="matrix(0.50448523,0,0,0.49658037,3521.0039,2946.6336)"
   stroke="#ffffff"
   stroke-width="0.60057"
   opacity="1"
   fill="none"
   id="g87">
<path
   d="m -6538.9615,-4946.2421 c 2.2091,0 4,-1.7909 4,-4 v -7 c 0,-2.2091 -1.7909,-4 -4,-4 h -42.2368 c -2.2091,0 -4,1.7909 -4,4 v 7 c 0,2.2091 1.7909,4 4,4 z"
   fill="#ffffff"
   stroke="none"
   id="path85" />

<path
   d="m -6538.9615,-5121.2421 c 2.2091,0 4,-1.7909 4,-4 v -7 c 0,-2.2091 -1.7909,-4 -4,-4 h -42.2368 c -2.2091,0 -4,1.7909 -4,4 v 7 c 0,2.2091 1.7909,4 4,4 z"
   fill="#ffffff"
   stroke="none"
   id="path86" />

<path
   d="m -6535.9615,-4961.2421 c 3.866,0 7,-3.134 7,-7 v -146 c 0,-3.866 -3.134,-7 -7,-7 h -54.2368 v 160 z"
   fill="#ffffff"
   stroke="none"
   id="path87" />
</g><g
   transform="matrix(0.50448523,0,0,0.49658037,3521.0039,2946.6336)"
   stroke="#000000"
   stroke-width="0.60057"
   opacity="1"
   fill="none"
   id="g91">
<path
   d="m -6538.9615,-4946.2421 c 2.2091,0 4,-1.7909 4,-4 v -7 c 0,-2.2091 -1.7909,-4 -4,-4 h -42.2368 c -2.2091,0 -4,1.7909 -4,4 v 7 c 0,2.2091 1.7909,4 4,4 z"
   id="path88" />

<path
   d="m -6538.9615,-5121.2421 c 2.2091,0 4,-1.7909 4,-4 v -7 c 0,-2.2091 -1.7909,-4 -4,-4 h -42.2368 c -2.2091,0 -4,1.7909 -4,4 v 7 c 0,2.2091 1.7909,4 4,4 z"
   id="path89" />

<path
   d="m -6535.9615,-4961.2421 c 3.866,0 7,-3.134 7,-7 v -146 c 0,-3.866 -3.134,-7 -7,-7 h -54.2368 v 160 z"
   id="path90" />

<line
   x1="-6565.1982"
   y1="-4961.2422"
   x2="-6565.1982"
   y2="-5121.2422"
   id="line90" />

<line
   x1="-6565.1982"
   y1="-5041.2422"
   x2="-6528.9614"
   y2="-5041.2422"
   id="line91" />
</g><g
   transform="matrix(0.50448523,0,0,0.49658037,3521.0039,2946.6336)"
   stroke="#ffffff"
   stroke-width="0.60057"
   opacity="1"
   fill="none"
   id="g92">
<path
   d="m -6109.95,-5233.2554 v -185.3708 h -70 v 185.3708 z"
   fill="#ffffff"
   stroke="none"
   id="path91" />
</g><g
   transform="matrix(0.50448523,0,0,0.49658037,3521.0039,2946.6336)"
   stroke="#000000"
   stroke-width="0.60057"
   opacity="1"
   fill="none"
   id="g93">
<path
   d="m -6109.95,-5233.2554 v -185.3708 h -70 v 185.3708 z"
   id="path92" />
</g><g
   transform="matrix(0.50448523,0,0,0.49658037,3521.0039,2946.6336)"
   stroke="#ffffff"
   stroke-width="0.60057"
   opacity="1"
   fill="none"
   id="g94">
<path
   d="m -6109.95,-5071.1733 v -162.0821 h -70 v 162.0821 z"
   fill="#ffffff"
   stroke="none"
   id="path93" />
</g><g
   transform="matrix(0.50448523,0,0,0.49658037,3521.0039,2946.6336)"
   stroke="#000000"
   stroke-width="0.60057"
   opacity="1"
   fill="none"
   id="g95">
<path
   d="m -6109.95,-5071.1733 v -162.0821 h -70 v 162.0821 z"
   id="path94" />
</g><g
   transform="matrix(0.50448523,0,0,0.49658037,3521.0039,2946.6336)"
   stroke="#ffffff"
   stroke-width="0.60057"
   opacity="1"
   fill="none"
   id="g96">
<path
   d="m -6109.95,-4859.392 v -211.7813 h -70 v 211.7813 z"
   fill="#ffffff"
   stroke="none"
   id="path95" />
</g><g
   transform="matrix(0.50448523,0,0,0.49658037,3521.0039,2946.6336)"
   stroke="#000000"
   stroke-width="0.60057"
   opacity="1"
   fill="none"
   id="g97">
<path
   d="m -6109.95,-4859.392 v -211.7813 h -70 v 211.7813 z"
   id="path96" />
</g><g
   transform="matrix(0.50448523,0,0,0.49658037,3521.0039,2946.6336)"
   stroke="#ffffff"
   stroke-width="0.60057"
   opacity="1"
   fill="none"
   id="g98">
<path
   d="m -6109.95,-4673.3468 v -186.0452 h -70 v 186.0452 z"
   fill="#ffffff"
   stroke="none"
   id="path97" />
</g><g
   transform="matrix(0.50448523,0,0,0.49658037,3521.0039,2946.6336)"
   stroke="#000000"
   stroke-width="0.60057"
   opacity="1"
   fill="none"
   id="g99">
<path
   d="m -6109.95,-4673.3468 v -186.0452 h -70 v 186.0452 z"
   id="path98" />
</g><g
   transform="matrix(0.50448523,0,0,0.49658037,3521.0039,2946.6336)"
   stroke="#ffffff"
   stroke-width="0.60057"
   opacity="1"
   fill="none"
   id="g100">
<path
   d="m -6443.0996,-5253.2219 v -100 h -70 v 100 z"
   fill="#ffffff"
   stroke="none"
   id="path99" />
</g><g
   transform="matrix(0.50448523,0,0,0.49658037,3521.0039,2946.6336)"
   stroke="#000000"
   stroke-width="0.60057"
   opacity="1"
   fill="none"
   id="g101">
<path
   d="m -6443.0996,-5253.2219 v -100 h -70 v 100 z"
   id="path100" />
</g><g
   transform="matrix(0.50448523,0,0,0.49658037,3521.0039,2946.6336)"
   stroke="#ffffff"
   stroke-width="0.60057"
   opacity="1"
   fill="none"
   id="g102">
<path
   d="m -6443.0996,-5153.2219 v -100 h -70 v 100 z"
   fill="#ffffff"
   stroke="none"
   id="path101" />
</g><g
   transform="matrix(0.50448523,0,0,0.49658037,3521.0039,2946.6336)"
   stroke="#000000"
   stroke-width="0.60057"
   opacity="1"
   fill="none"
   id="g103">
<path
   d="m -6443.0996,-5153.2219 v -100 h -70 v 100 z"
   id="path102" />
</g><g
   transform="matrix(0.50448523,0,0,0.49658037,3521.0039,2946.6336)"
   stroke="#ffffff"
   stroke-width="0.60057"
   opacity="1"
   fill="none"
   id="g104">
<path
   d="m -6740.5601,-5397.0991 v -100 h -70 v 100 z"
   fill="#ffffff"
   stroke="none"
   id="path103" />
</g><g
   transform="matrix(0.50448523,0,0,0.49658037,3521.0039,2946.6336)"
   stroke="#000000"
   stroke-width="0.60057"
   opacity="1"
   fill="none"
   id="g105">
<path
   d="m -6740.5601,-5397.0991 v -100 h -70 v 100 z"
   id="path104" />
</g><g
   transform="matrix(0.50448523,0,0,0.49658037,3521.0039,2946.6336)"
   stroke="#ffffff"
   stroke-width="0.60057"
   opacity="1"
   fill="none"
   id="g106">
<path
   d="m -6740.5601,-5297.0991 v -100 h -70 v 100 z"
   fill="#ffffff"
   stroke="none"
   id="path105" />
</g><g
   transform="matrix(0.50448523,0,0,0.49658037,3521.0039,2946.6336)"
   stroke="#000000"
   stroke-width="0.60057"
   opacity="1"
   fill="none"
   id="g107">
<path
   d="m -6740.5601,-5297.0991 v -100 h -70 v 100 z"
   id="path106" />
</g><g
   transform="matrix(0.50448523,0,0,0.49658037,3521.0039,2946.6336)"
   stroke="#ffffff"
   stroke-width="0.60057"
   opacity="1"
   fill="none"
   id="g108">
<path
   d="m -6690.1983,-5000.2197 h 100 v -70 h -100 z"
   fill="#ffffff"
   stroke="none"
   id="path107" />
</g><g
   transform="matrix(0.50448523,0,0,0.49658037,3521.0039,2946.6336)"
   stroke="#000000"
   stroke-width="0.60057"
   opacity="1"
   fill="none"
   id="g109">
<path
   d="m -6690.1983,-5000.2197 h 100 v -70 h -100 z"
   id="path108" />
</g><g
   transform="matrix(0.50448523,0,0,0.49658037,3521.0039,2946.6336)"
   stroke="#ffffff"
   stroke-width="0.60057"
   opacity="1"
   fill="none"
   id="g110">
<path
   d="m -6890.34,-4722.0111 v -100 h -70 v 100 z"
   fill="#ffffff"
   stroke="none"
   id="path109" />
</g><g
   transform="matrix(0.50448523,0,0,0.49658037,3521.0039,2946.6336)"
   stroke="#000000"
   stroke-width="0.60057"
   opacity="1"
   fill="none"
   id="g111">
<path
   d="m -6890.34,-4722.0111 v -100 h -70 v 100 z"
   id="path110" />
</g><g
   transform="matrix(0.50448523,0,0,0.49658037,3521.0039,2946.6336)"
   stroke="#ffffff"
   stroke-width="0.60057"
   opacity="1"
   fill="none"
   id="g112">
<path
   d="m -6890.34,-4622.0111 v -100 h -70 v 100 z"
   fill="#ffffff"
   stroke="none"
   id="path111" />
</g><g
   transform="matrix(0.50448523,0,0,0.49658037,3521.0039,2946.6336)"
   stroke="#000000"
   stroke-width="0.60057"
   opacity="1"
   fill="none"
   id="g113">
<path
   d="m -6890.34,-4622.0111 v -100 h -70 v 100 z"
   id="path112" />
</g><g
   transform="matrix(0.50448523,0,0,0.49658037,3521.0039,2946.6336)"
   stroke="#ffffff"
   stroke-width="0.60057"
   opacity="1"
   fill="none"
   id="g114">
<path
   d="m -6734.9149,-4417.6863 h 143.9851 v -40.8484 h -143.9851 z"
   fill="#ffffff"
   stroke="none"
   id="path113" />
</g><g
   transform="matrix(0.50448523,0,0,0.49658037,3521.0039,2946.6336)"
   stroke="#000000"
   stroke-width="0.60057"
   opacity="1"
   fill="none"
   id="g115">
<path
   d="m -6734.9149,-4417.6863 h 143.9851 v -40.8484 h -143.9851 z"
   id="path114" />
</g><g
   transform="matrix(0.50448523,0,0,0.49658037,3521.0039,2946.6336)"
   stroke="#ffffff"
   stroke-width="0.60057"
   opacity="1"
   fill="none"
   id="g116">
<path
   d="m -6641.4224,-4458.5347 v -151.4078 h -46.9851 v 151.4078 z"
   fill="#ffffff"
   stroke="none"
   id="path115" />
</g><g
   transform="matrix(0.50448523,0,0,0.49658037,3521.0039,2946.6336)"
   stroke="#000000"
   stroke-width="0.60057"
   opacity="1"
   fill="none"
   id="g117">
<path
   d="m -6641.4224,-4458.5347 v -151.4078 h -46.9851 v 151.4078 z"
   id="path116" />
</g><g
   transform="matrix(0.50448523,0,0,0.49658037,3521.0039,2946.6336)"
   stroke="#ffffff"
   stroke-width="0.60057"
   opacity="1"
   fill="none"
   id="g118">
<path
   d="m -6518.4105,-4782.8124 50,86.6026 60.6217,-35 -50,-86.6026 z"
   fill="#ffffff"
   stroke="none"
   id="path117" />
</g><g
   transform="matrix(0.50448523,0,0,0.49658037,3521.0039,2946.6336)"
   stroke="#000000"
   stroke-width="0.60057"
   opacity="1"
   fill="none"
   id="g119">
<path
   d="m -6518.4105,-4782.8124 50,86.6026 60.6217,-35 -50,-86.6026 z"
   id="path118" />
</g><g
   transform="matrix(0.50448523,0,0,0.49658037,3521.0039,2946.6336)"
   stroke="#ffffff"
   stroke-width="0.60057"
   opacity="1"
   fill="none"
   id="g120">
<path
   d="m -6468.6041,-4696.545 50,86.6025 60.6218,-35 -50,-86.6025 z"
   fill="#ffffff"
   stroke="none"
   id="path119" />
</g><g
   transform="matrix(0.50448523,0,0,0.49658037,3521.0039,2946.6336)"
   stroke="#000000"
   stroke-width="0.60057"
   opacity="1"
   fill="none"
   id="g121">
<path
   d="m -6468.6041,-4696.545 50,86.6025 60.6218,-35 -50,-86.6025 z"
   id="path120" />
</g><g
   transform="matrix(0.50448523,0,0,0.49658037,3521.0039,2946.6336)"
   stroke="#ffffff"
   stroke-width="0.60057"
   opacity="1"
   fill="none"
   id="g122">
<path
   d="m -6700.1983,-4417.6863 v 100 h 70 v -100 z"
   fill="#ffffff"
   stroke="none"
   id="path121" />
</g><g
   transform="matrix(0.50448523,0,0,0.49658037,3521.0039,2946.6336)"
   stroke="#000000"
   stroke-width="0.60057"
   opacity="1"
   fill="none"
   id="g123">
<path
   d="m -6700.1983,-4417.6863 v 100 h 70 v -100 z"
   id="path122" />
</g><g
   transform="matrix(0.50448523,0,0,0.49658037,3521.0039,2946.6336)"
   stroke="#ffffff"
   stroke-width="0.60057"
   opacity="1"
   fill="none"
   id="g124">
<path
   d="m -6630.1983,-4217.6863 v -100 h -70 v 100 z"
   fill="#ffffff"
   stroke="none"
   id="path123" />
</g><g
   transform="matrix(0.50448523,0,0,0.49658037,3521.0039,2946.6336)"
   stroke="#000000"
   stroke-width="0.60057"
   opacity="1"
   fill="none"
   id="g125">
<path
   d="m -6630.1983,-4217.6863 v -100 h -70 v 100 z"
   id="path124" />
</g><g
   transform="matrix(0.50448523,0,0,0.49658037,3521.0039,2946.6336)"
   stroke="#ffffff"
   stroke-width="0.60057"
   opacity="1"
   fill="none"
   id="g126">
<path
   d="m -6630.1983,-4117.6863 v -100 h -70 v 100 z"
   fill="#ffffff"
   stroke="none"
   id="path125" />
</g><g
   transform="matrix(0.50448523,0,0,0.49658037,3521.0039,2946.6336)"
   stroke="#000000"
   stroke-width="0.60057"
   opacity="1"
   fill="none"
   id="g127">
<path
   d="m -6630.1983,-4117.6863 v -100 h -70 v 100 z"
   id="path126" />
</g><g
   transform="matrix(0.50448523,0,0,0.49658037,3521.0039,2946.6336)"
   stroke="#ffffff"
   stroke-width="0.60057"
   opacity="1"
   fill="none"
   id="g128">
<path
   d="m -6755.2721,-3204.9657 h 202.3284 v -38.7018 h -202.3284 z"
   fill="#ffffff"
   stroke="none"
   id="path127" />
</g><g
   transform="matrix(0.50448523,0,0,0.49658037,3521.0039,2946.6336)"
   stroke="#000000"
   stroke-width="0.60057"
   opacity="1"
   fill="none"
   id="g129">
<path
   d="m -6755.2721,-3204.9657 h 202.3284 v -38.7018 h -202.3284 z"
   id="path128" />
</g><g
   transform="matrix(0.50448523,0,0,0.49658037,3521.0039,2946.6336)"
   stroke="#ffffff"
   stroke-width="0.60057"
   opacity="1"
   fill="none"
   id="g130">
<path
   d="m -6630.1983,-3057.7111 v -147.2546 h -70 v 147.2546 z"
   fill="#ffffff"
   stroke="none"
   id="path129" />
</g><g
   transform="matrix(0.50448523,0,0,0.49658037,3521.0039,2946.6336)"
   stroke="#000000"
   stroke-width="0.60057"
   opacity="1"
   fill="none"
   id="g131">
<path
   d="m -6630.1983,-3057.7111 v -147.2546 h -70 v 147.2546 z"
   id="path130" />
</g><g
   transform="matrix(0.50448523,0,0,0.49658037,3521.0039,2946.6336)"
   stroke="#ffffff"
   stroke-width="0.60057"
   opacity="1"
   fill="none"
   id="g132">
<path
   d="m -6700.1983,-3343.6675 v 100 h 70 v -100 z"
   fill="#ffffff"
   stroke="none"
   id="path131" />
</g><g
   transform="matrix(0.50448523,0,0,0.49658037,3521.0039,2946.6336)"
   stroke="#000000"
   stroke-width="0.60057"
   opacity="1"
   fill="none"
   id="g133">
<path
   d="m -6700.1983,-3343.6675 v 100 h 70 v -100 z"
   id="path132" />
</g><g
   transform="matrix(0.50448523,0,0,0.49658037,3521.0039,2946.6336)"
   stroke="#ffffff"
   stroke-width="0.60057"
   opacity="1"
   fill="none"
   id="g134">
<path
   d="m -6700.1983,-3443.6675 v 100 h 70 v -100 z"
   fill="#ffffff"
   stroke="none"
   id="path133" />
</g><g
   transform="matrix(0.50448523,0,0,0.49658037,3521.0039,2946.6336)"
   stroke="#000000"
   stroke-width="0.60057"
   opacity="1"
   fill="none"
   id="g135">
<path
   d="m -6700.1983,-3443.6675 v 100 h 70 v -100 z"
   id="path134" />
</g><g
   transform="matrix(0.50448523,0,0,0.49658037,3521.0039,2946.6336)"
   stroke="#ffffff"
   stroke-width="0.60057"
   opacity="1"
   fill="none"
   id="g136">
<path
   d="m -6273.9768,-1726.728 h 100 v -70 h -100 z"
   fill="#ffffff"
   stroke="none"
   id="path135" />
</g><g
   transform="matrix(0.50448523,0,0,0.49658037,3521.0039,2946.6336)"
   stroke="#000000"
   stroke-width="0.60057"
   opacity="1"
   fill="none"
   id="g137">
<path
   d="m -6273.9768,-1726.728 h 100 v -70 h -100 z"
   id="path136" />
</g><g
   transform="matrix(0.50448523,0,0,0.49658037,3521.0039,2946.6336)"
   stroke="#ffffff"
   stroke-width="0.60057"
   opacity="1"
   fill="none"
   id="g138">
<path
   d="m -6855.4987,-1880.8281 137.833,115.6556 20.5443,-24.4837 -137.833,-115.6556 z"
   fill="#ffffff"
   stroke="none"
   id="path137" />
</g><g
   transform="matrix(0.50448523,0,0,0.49658037,3521.0039,2946.6336)"
   stroke="#000000"
   stroke-width="0.60057"
   opacity="1"
   fill="none"
   id="g139">
<path
   d="m -6855.4987,-1880.8281 137.833,115.6556 20.5443,-24.4837 -137.833,-115.6556 z"
   id="path138" />
</g><g
   transform="matrix(0.50448523,0,0,0.49658037,3521.0039,2946.6336)"
   stroke="#ffffff"
   stroke-width="0.60057"
   opacity="1"
   fill="none"
   id="g140">
<path
   d="m -6743.9156,-1828.9212 87.7308,-104.5535 -44.3126,-37.1827 -87.7308,104.5535 z"
   fill="#ffffff"
   stroke="none"
   id="path139" />
</g><g
   transform="matrix(0.50448523,0,0,0.49658037,3521.0039,2946.6336)"
   stroke="#000000"
   stroke-width="0.60057"
   opacity="1"
   fill="none"
   id="g141">
<path
   d="m -6743.9156,-1828.9212 87.7308,-104.5535 -44.3126,-37.1827 -87.7308,104.5535 z"
   id="path140" />
</g><g
   transform="matrix(0.50448523,0,0,0.49658037,3521.0039,2946.6336)"
   stroke="#ffffff"
   stroke-width="0.60057"
   opacity="1"
   fill="none"
   id="g142">
<path
   d="m -6693.5928,-2235.7511 h 100 v -70 h -100 z"
   fill="#ffffff"
   stroke="none"
   id="path141" />
</g><g
   transform="matrix(0.50448523,0,0,0.49658037,3521.0039,2946.6336)"
   stroke="#000000"
   stroke-width="0.60057"
   opacity="1"
   fill="none"
   id="g143">
<path
   d="m -6693.5928,-2235.7511 h 100 v -70 h -100 z"
   id="path142" />
</g><g
   transform="matrix(0.50448523,0,0,0.49658037,3521.0039,2946.6336)"
   stroke="#ffffff"
   stroke-width="0.60057"
   opacity="1"
   fill="none"
   id="g144">
<path
   d="m -6755.2721,-2531.8544 h 100 v -70 h -100 z"
   fill="#ffffff"
   stroke="none"
   id="path143" />
</g><g
   transform="matrix(0.50448523,0,0,0.49658037,3521.0039,2946.6336)"
   stroke="#000000"
   stroke-width="0.60057"
   opacity="1"
   fill="none"
   id="g145">
<path
   d="m -6755.2721,-2531.8544 h 100 v -70 h -100 z"
   id="path144" />
</g><g
   transform="matrix(0.50448523,0,0,0.49658037,3521.0039,2946.6336)"
   stroke="#ffffff"
   stroke-width="0.60057"
   opacity="1"
   fill="none"
   id="g146">
<path
   d="m -6855.2721,-2531.8544 h 100 v -70 h -100 z"
   fill="#ffffff"
   stroke="none"
   id="path145" />
</g><g
   transform="matrix(0.50448523,0,0,0.49658037,3521.0039,2946.6336)"
   stroke="#000000"
   stroke-width="0.60057"
   opacity="1"
   fill="none"
   id="g147">
<path
   d="m -6855.2721,-2531.8544 h 100 v -70 h -100 z"
   id="path146" />
</g><g
   transform="matrix(0.50448523,0,0,0.49658037,3521.0039,2946.6336)"
   stroke="#ffffff"
   stroke-width="0.60057"
   opacity="1"
   fill="none"
   id="g148">
<path
   d="m -6318.5843,-2494.9947 94.2218,-94.2218 -49.4975,-49.4975 -94.2218,94.2218 z"
   fill="#ffffff"
   stroke="none"
   id="path147" />
</g><g
   transform="matrix(0.50448523,0,0,0.49658037,3521.0039,2946.6336)"
   stroke="#000000"
   stroke-width="0.60057"
   opacity="1"
   fill="none"
   id="g149">
<path
   d="m -6318.5843,-2494.9947 94.2218,-94.2218 -49.4975,-49.4975 -94.2218,94.2218 z"
   id="path148" />
</g><g
   transform="matrix(0.50448523,0,0,0.49658037,3521.0039,2946.6336)"
   stroke="#ffffff"
   stroke-width="0.60057"
   opacity="1"
   fill="none"
   id="g150">
<path
   d="m -6389.295,-2424.284 70.7107,-70.7107 -49.4975,-49.4975 -70.7107,70.7107 z"
   fill="#ffffff"
   stroke="none"
   id="path149" />
</g><g
   transform="matrix(0.50448523,0,0,0.49658037,3521.0039,2946.6336)"
   stroke="#000000"
   stroke-width="0.60057"
   opacity="1"
   fill="none"
   id="g151">
<path
   d="m -6389.295,-2424.284 70.7107,-70.7107 -49.4975,-49.4975 -70.7107,70.7107 z"
   id="path150" />
</g><g
   transform="matrix(0.50448523,0,0,0.49658037,3521.0039,2946.6336)"
   stroke="#ffffff"
   stroke-width="0.60057"
   opacity="1"
   fill="none"
   id="g152">
<path
   d="m -6465.9309,-2119.4346 76.6044,64.2787 44.9951,-53.6231 -76.6044,-64.2788 z"
   fill="#ffffff"
   stroke="none"
   id="path151" />
</g><g
   transform="matrix(0.50448523,0,0,0.49658037,3521.0039,2946.6336)"
   stroke="#000000"
   stroke-width="0.60057"
   opacity="1"
   fill="none"
   id="g153">
<path
   d="m -6465.9309,-2119.4346 76.6044,64.2787 44.9951,-53.6231 -76.6044,-64.2788 z"
   id="path152" />
</g><g
   transform="matrix(0.50448523,0,0,0.49658037,3521.0039,2946.6336)"
   stroke="#ffffff"
   stroke-width="0.60057"
   opacity="1"
   fill="none"
   id="g154">
<path
   d="m -6389.3265,-2055.1559 76.6044,64.2788 44.9952,-53.6231 -76.6045,-64.2788 z"
   fill="#ffffff"
   stroke="none"
   id="path153" />
</g><g
   transform="matrix(0.50448523,0,0,0.49658037,3521.0039,2946.6336)"
   stroke="#000000"
   stroke-width="0.60057"
   opacity="1"
   fill="none"
   id="g155">
<path
   d="m -6389.3265,-2055.1559 76.6044,64.2788 44.9952,-53.6231 -76.6045,-64.2788 z"
   id="path154" />
</g><g
   transform="matrix(0.50448523,0,0,0.49658037,3521.0039,2946.6336)"
   stroke="#ffffff"
   stroke-width="0.60057"
   opacity="1"
   fill="none"
   id="g156">
<path
   d="m -6443.0996,-5040.2197 c 0,-27.6142 -15.6701,-50 -35,-50 -19.33,0 -35,22.3858 -35,50 0,27.6143 15.67,50 35,50 19.3299,0 35,-22.3857 35,-50"
   fill="#ffffff"
   stroke="none"
   id="path155" />
</g><g
   transform="matrix(0.50448523,0,0,0.49658037,3521.0039,2946.6336)"
   stroke="#000000"
   stroke-width="0.60057"
   opacity="1"
   fill="none"
   id="g157">
<path
   d="m -6443.0996,-5040.2197 c 0,-27.6142 -15.6701,-50 -35,-50 -19.33,0 -35,22.3858 -35,50 0,27.6143 15.67,50 35,50 19.3299,0 35,-22.3857 35,-50"
   id="path156" />
</g><g
   transform="matrix(0.50448523,0,0,0.49658037,3521.0039,2946.6336)"
   stroke="#ffffff"
   stroke-width="0.60057"
   opacity="1"
   fill="none"
   id="g158">
<path
   d="m -6446.0159,-2280.1276 c 0,-27.6142 -15.67,-50 -35,-50 -19.33,0 -35,22.3858 -35,50 0,27.6142 15.67,50 35,50 19.33,0 35,-22.3858 35,-50"
   fill="#ffffff"
   stroke="none"
   id="path157" />
</g><g
   transform="matrix(0.50448523,0,0,0.49658037,3521.0039,2946.6336)"
   stroke="#000000"
   stroke-width="0.60057"
   opacity="1"
   fill="none"
   id="g159">
<path
   d="m -6446.0159,-2280.1276 c 0,-27.6142 -15.67,-50 -35,-50 -19.33,0 -35,22.3858 -35,50 0,27.6142 15.67,50 35,50 19.33,0 35,-22.3858 35,-50"
   id="path158" />
</g><g
   transform="matrix(0.50448523,0,0,0.49658037,3521.0039,2946.6336)"
   stroke="#ffffff"
   stroke-width="0.60057"
   opacity="1"
   fill="none"
   id="g160">
<path
   d="m -5647.9642,-3886.4316 v 80 h 275.9137 v -80 z"
   fill="#ffffff"
   stroke="none"
   id="path159" />
</g><g
   transform="matrix(0.50448523,0,0,0.49658037,3521.0039,2946.6336)"
   stroke="#000000"
   stroke-width="0.60057"
   opacity="1"
   fill="none"
   id="g164">
<path
   d="m -5647.9642,-3886.4316 v 80 h 275.9137 v -80 z"
   id="path160" />

<path
   d="m -5647.9642,-3882.4316 h 275.9137"
   id="path161" />

<path
   d="m -5647.9642,-3810.4316 h 275.9137"
   id="path162" />

<line
   x1="-5647.9644"
   y1="-3846.4316"
   x2="-5372.0503"
   y2="-3846.4316"
   id="line162" />

<line
   x1="-5387.0503"
   y1="-3856.4316"
   x2="-5372.0503"
   y2="-3846.4316"
   id="line163" />

<line
   x1="-5387.0503"
   y1="-3836.4316"
   x2="-5372.0503"
   y2="-3846.4316"
   id="line164" />
</g><g
   transform="matrix(0.50448523,0,0,0.49658037,3521.0039,2946.6336)"
   stroke="#ffffff"
   stroke-width="0.60057"
   opacity="1"
   fill="none"
   id="g165">
<path
   d="m -5647.9642,-3662.4316 v 80 h 280 v -80 z"
   fill="#ffffff"
   stroke="none"
   id="path164" />
</g><g
   transform="matrix(0.50448523,0,0,0.49658037,3521.0039,2946.6336)"
   stroke="#000000"
   stroke-width="0.60057"
   opacity="1"
   fill="none"
   id="g188">
<path
   d="m -5647.9642,-3662.4316 v 80 h 280 v -80 z"
   id="path165" />

<path
   d="m -5647.9642,-3658.4316 h 280"
   id="path166" />

<path
   d="m -5647.9642,-3586.4316 h 280"
   id="path167" />

<line
   x1="-5647.9644"
   y1="-3622.4316"
   x2="-5367.9644"
   y2="-3622.4316"
   id="line167" />

<line
   x1="-5382.9644"
   y1="-3632.4316"
   x2="-5367.9644"
   y2="-3622.4316"
   id="line168" />

<line
   x1="-5382.9644"
   y1="-3612.4316"
   x2="-5367.9644"
   y2="-3622.4316"
   id="line169" />

<path
   d="m -5648.9649,-5432.9329 v 98.0185"
   id="path169" />

<path
   d="m -5658.9649,-5334.9144 v -5 h 10"
   id="path170" />

<path
   d="m -5658.9649,-5432.9329 v 5 h 10 88.0186 c 0,48.6113 -39.4073,88.0185 -88.0186,88.0185"
   id="path171" />

<line
   x1="-5648.9648"
   y1="-5422.9331"
   x2="-5561.0884"
   y2="-5422.9331"
   id="line171" />

<path
   d="m -5501.0722,-4476.3959 v -97.6104"
   id="path172" />

<path
   d="m -5511.0722,-4574.0063 v 5 h 10"
   id="path173" />

<path
   d="m -5511.0722,-4476.3959 v -5 h 10 87.6105 c 0,-48.3859 -39.2246,-87.6104 -87.6105,-87.6104"
   id="path174" />

<line
   x1="-5501.0723"
   y1="-4486.396"
   x2="-5413.6045"
   y2="-4486.396"
   id="line174" />

<path
   d="m -5633.2646,-4603.384 h 96.2859"
   id="path175" />

<path
   d="m -5536.9787,-4593.384 h -5 v -10"
   id="path176" />

<path
   d="m -5633.2646,-4593.384 h 5 v -10 -86.2859 c 47.6544,0 86.2859,38.6315 86.2859,86.2859"
   id="path177" />

<line
   x1="-5623.2646"
   y1="-4603.3838"
   x2="-5623.2646"
   y2="-4689.5249"
   id="line177" />

<path
   d="m -5658.9642,-3258.6246 v -5 h 49.9999 c 0,-24.8528 -17.9086,-44.9999 -39.9999,-44.9999 22.0913,0 39.9999,-20.1472 39.9999,-44.9999 h -49.9999 v -5"
   id="path178" />

<line
   x1="-5648.9644"
   y1="-3258.6245"
   x2="-5648.9644"
   y2="-3358.6245"
   id="line178" />

<line
   x1="-5648.9644"
   y1="-3268.6245"
   x2="-5609.2778"
   y2="-3268.6245"
   id="line179" />

<line
   x1="-5648.9644"
   y1="-3348.6245"
   x2="-5609.2778"
   y2="-3348.6245"
   id="line180" />

<path
   d="m -5479.4764,-4283.2229 v -5 h 61.6849 c 0,-31.3062 -23.1401,-56.6849 -51.6849,-56.6849 28.5448,0 51.6849,-25.3787 51.6849,-56.6849 h -61.6849 v -5"
   id="path180" />

<line
   x1="-5469.4766"
   y1="-4283.2227"
   x2="-5469.4766"
   y2="-4406.5928"
   id="line181" />

<line
   x1="-5469.4766"
   y1="-4293.2227"
   x2="-5418.0337"
   y2="-4293.2227"
   id="line182" />

<line
   x1="-5469.4766"
   y1="-4396.5928"
   x2="-5418.0337"
   y2="-4396.5928"
   id="line183" />

<path
   d="m -5651.153,-1913.5164 0.3337,-139.3084"
   id="path183" />

<path
   d="m -5660.8192,-2052.8487 -0.012,5 10,0.024"
   id="path184" />

<path
   d="m -5661.1529,-1913.5404 0.012,-5 10,0.024 129.3084,0.3098 c 0.1711,-71.4151 -57.5836,-129.4471 -128.9986,-129.6182"
   id="path185" />

<line
   x1="-5651.1289"
   y1="-1923.5164"
   x2="-5521.9175"
   y2="-1923.2069"
   id="line185" />

<path
   d="m -5478.0228,-3204.9711 v 5 h 61.0756 c 0,30.9696 -22.8673,56.0755 -51.0756,56.0755 28.2083,0 51.0756,25.1058 51.0756,56.0755 h -61.0756 v 5"
   id="path186" />

<line
   x1="-5468.0229"
   y1="-3204.9712"
   x2="-5468.0229"
   y2="-3082.8201"
   id="line186" />

<line
   x1="-5468.0229"
   y1="-3194.9712"
   x2="-5417.1924"
   y2="-3194.9712"
   id="line187" />

<line
   x1="-5468.0229"
   y1="-3092.8201"
   x2="-5417.1924"
   y2="-3092.8201"
   id="line188" />
</g><g
   transform="matrix(0.50448523,0,0,0.49658037,3521.0039,2946.6336)"
   stroke="#ffffff"
   stroke-width="0.60057"
   opacity="1"
   fill="none"
   id="g189">
<path
   d="m -5179.6876,-3357.1851 h -140 v 300 h 140 z"
   fill="#ffffff"
   stroke="none"
   id="path188" />
</g><g
   transform="matrix(0.50448523,0,0,0.49658037,3521.0039,2946.6336)"
   stroke="#000000"
   stroke-width="0.60057"
   opacity="1"
   fill="none"
   id="g204">
<path
   d="m -5179.6876,-3357.1851 h -140 v 300 h 140 z"
   id="path189" />

<path
   d="m -5183.6876,-3357.1851 v 300"
   id="path190" />

<path
   d="m -5315.6876,-3357.1851 v 300"
   id="path191" />

<line
   x1="-5179.6875"
   y1="-3082.1851"
   x2="-5319.6875"
   y2="-3082.1851"
   id="line191" />

<line
   x1="-5179.6875"
   y1="-3107.1851"
   x2="-5319.6875"
   y2="-3107.1851"
   id="line192" />

<line
   x1="-5179.6875"
   y1="-3132.1851"
   x2="-5319.6875"
   y2="-3132.1851"
   id="line193" />

<line
   x1="-5179.6875"
   y1="-3157.1851"
   x2="-5319.6875"
   y2="-3157.1851"
   id="line194" />

<line
   x1="-5179.6875"
   y1="-3182.1851"
   x2="-5319.6875"
   y2="-3182.1851"
   id="line195" />

<line
   x1="-5179.6875"
   y1="-3207.1851"
   x2="-5319.6875"
   y2="-3207.1851"
   id="line196" />

<line
   x1="-5179.6875"
   y1="-3232.1851"
   x2="-5319.6875"
   y2="-3232.1851"
   id="line197" />

<line
   x1="-5179.6875"
   y1="-3257.1851"
   x2="-5319.6875"
   y2="-3257.1851"
   id="line198" />

<line
   x1="-5179.6875"
   y1="-3282.1851"
   x2="-5319.6875"
   y2="-3282.1851"
   id="line199" />

<line
   x1="-5179.6875"
   y1="-3307.1851"
   x2="-5319.6875"
   y2="-3307.1851"
   id="line200" />

<line
   x1="-5179.6875"
   y1="-3332.1851"
   x2="-5319.6875"
   y2="-3332.1851"
   id="line201" />

<line
   x1="-5249.6875"
   y1="-3357.1851"
   x2="-5249.6875"
   y2="-3057.1851"
   id="line202" />

<line
   x1="-5239.6875"
   y1="-3072.1851"
   x2="-5249.6875"
   y2="-3057.1851"
   id="line203" />

<line
   x1="-5259.6875"
   y1="-3072.1851"
   x2="-5249.6875"
   y2="-3057.1851"
   id="line204" />
</g><g
   transform="matrix(0.50448523,0,0,0.49658037,3521.0039,2946.6336)"
   stroke="#ffffff"
   stroke-width="0.60057"
   opacity="1"
   fill="none"
   id="g205">
<path
   d="m -5039.6876,-4280.4316 h -140 v 301.8452 h 140 z"
   fill="#ffffff"
   stroke="none"
   id="path204" />
</g><g
   transform="matrix(0.50448523,0,0,0.49658037,3521.0039,2946.6336)"
   stroke="#000000"
   stroke-width="0.60057"
   opacity="1"
   fill="none"
   id="g220">
<path
   d="m -5039.6876,-4280.4316 h -140 v 301.8452 h 140 z"
   id="path205" />

<path
   d="m -5043.6876,-4280.4316 v 301.8452"
   id="path206" />

<path
   d="m -5175.6876,-4280.4316 v 301.8452"
   id="path207" />

<line
   x1="-5039.6875"
   y1="-4003.7402"
   x2="-5179.6875"
   y2="-4003.7402"
   id="line207" />

<line
   x1="-5039.6875"
   y1="-4028.8938"
   x2="-5179.6875"
   y2="-4028.8938"
   id="line208" />

<line
   x1="-5039.6875"
   y1="-4054.0476"
   x2="-5179.6875"
   y2="-4054.0476"
   id="line209" />

<line
   x1="-5039.6875"
   y1="-4079.2014"
   x2="-5179.6875"
   y2="-4079.2014"
   id="line210" />

<line
   x1="-5039.6875"
   y1="-4104.355"
   x2="-5179.6875"
   y2="-4104.355"
   id="line211" />

<line
   x1="-5039.6875"
   y1="-4129.5088"
   x2="-5179.6875"
   y2="-4129.5088"
   id="line212" />

<line
   x1="-5039.6875"
   y1="-4154.6626"
   x2="-5179.6875"
   y2="-4154.6626"
   id="line213" />

<line
   x1="-5039.6875"
   y1="-4179.8164"
   x2="-5179.6875"
   y2="-4179.8164"
   id="line214" />

<line
   x1="-5039.6875"
   y1="-4204.9702"
   x2="-5179.6875"
   y2="-4204.9702"
   id="line215" />

<line
   x1="-5039.6875"
   y1="-4230.124"
   x2="-5179.6875"
   y2="-4230.124"
   id="line216" />

<line
   x1="-5039.6875"
   y1="-4255.2778"
   x2="-5179.6875"
   y2="-4255.2778"
   id="line217" />

<line
   x1="-5109.6875"
   y1="-4280.4316"
   x2="-5109.6875"
   y2="-3978.5864"
   id="line218" />

<line
   x1="-5099.6875"
   y1="-3993.5864"
   x2="-5109.6875"
   y2="-3978.5864"
   id="line219" />

<line
   x1="-5119.6875"
   y1="-3993.5864"
   x2="-5109.6875"
   y2="-3978.5864"
   id="line220" />
</g><g
   transform="matrix(0.50448523,0,0,0.49658037,3521.0039,2946.6336)"
   stroke="#ffffff"
   stroke-width="0.60057"
   opacity="1"
   fill="none"
   id="g221">
<path
   d="m -5319.6876,-3978.5864 h 140 v -301.8452 h -140 z"
   fill="#ffffff"
   stroke="none"
   id="path220" />
</g><g
   transform="matrix(0.50448523,0,0,0.49658037,3521.0039,2946.6336)"
   stroke="#000000"
   stroke-width="0.60057"
   opacity="1"
   fill="none"
   id="g236">
<path
   d="m -5319.6876,-3978.5864 h 140 v -301.8452 h -140 z"
   id="path221" />

<path
   d="m -5315.6876,-3978.5864 v -301.8452"
   id="path222" />

<path
   d="m -5183.6876,-3978.5864 v -301.8452"
   id="path223" />

<line
   x1="-5319.6875"
   y1="-4255.2778"
   x2="-5179.6875"
   y2="-4255.2778"
   id="line223" />

<line
   x1="-5319.6875"
   y1="-4230.124"
   x2="-5179.6875"
   y2="-4230.124"
   id="line224" />

<line
   x1="-5319.6875"
   y1="-4204.9702"
   x2="-5179.6875"
   y2="-4204.9702"
   id="line225" />

<line
   x1="-5319.6875"
   y1="-4179.8164"
   x2="-5179.6875"
   y2="-4179.8164"
   id="line226" />

<line
   x1="-5319.6875"
   y1="-4154.6626"
   x2="-5179.6875"
   y2="-4154.6626"
   id="line227" />

<line
   x1="-5319.6875"
   y1="-4129.5088"
   x2="-5179.6875"
   y2="-4129.5088"
   id="line228" />

<line
   x1="-5319.6875"
   y1="-4104.355"
   x2="-5179.6875"
   y2="-4104.355"
   id="line229" />

<line
   x1="-5319.6875"
   y1="-4079.2014"
   x2="-5179.6875"
   y2="-4079.2014"
   id="line230" />

<line
   x1="-5319.6875"
   y1="-4054.0476"
   x2="-5179.6875"
   y2="-4054.0476"
   id="line231" />

<line
   x1="-5319.6875"
   y1="-4028.8938"
   x2="-5179.6875"
   y2="-4028.8938"
   id="line232" />

<line
   x1="-5319.6875"
   y1="-4003.7402"
   x2="-5179.6875"
   y2="-4003.7402"
   id="line233" />

<line
   x1="-5249.6875"
   y1="-3978.5864"
   x2="-5249.6875"
   y2="-4280.4316"
   id="line234" />

<line
   x1="-5259.6875"
   y1="-4265.4316"
   x2="-5249.6875"
   y2="-4280.4316"
   id="line235" />

<line
   x1="-5239.6875"
   y1="-4265.4316"
   x2="-5249.6875"
   y2="-4280.4316"
   id="line236" />
</g><g
   transform="matrix(0.50448523,0,0,0.49658037,3521.0039,2946.6336)"
   stroke="#ffffff"
   stroke-width="0.60057"
   opacity="1"
   fill="none"
   id="g237">
<path
   d="m -5179.6876,-3057.1851 h 140 v -300 h -140 z"
   fill="#ffffff"
   stroke="none"
   id="path236" />
</g><g
   transform="matrix(0.50448523,0,0,0.49658037,3521.0039,2946.6336)"
   stroke="#000000"
   stroke-width="0.60057"
   opacity="1"
   fill="none"
   id="g252">
<path
   d="m -5179.6876,-3057.1851 h 140 v -300 h -140 z"
   id="path237" />

<path
   d="m -5175.6876,-3057.1851 v -300"
   id="path238" />

<path
   d="m -5043.6876,-3057.1851 v -300"
   id="path239" />

<line
   x1="-5179.6875"
   y1="-3332.1851"
   x2="-5039.6875"
   y2="-3332.1851"
   id="line239" />

<line
   x1="-5179.6875"
   y1="-3307.1851"
   x2="-5039.6875"
   y2="-3307.1851"
   id="line240" />

<line
   x1="-5179.6875"
   y1="-3282.1851"
   x2="-5039.6875"
   y2="-3282.1851"
   id="line241" />

<line
   x1="-5179.6875"
   y1="-3257.1851"
   x2="-5039.6875"
   y2="-3257.1851"
   id="line242" />

<line
   x1="-5179.6875"
   y1="-3232.1851"
   x2="-5039.6875"
   y2="-3232.1851"
   id="line243" />

<line
   x1="-5179.6875"
   y1="-3207.1851"
   x2="-5039.6875"
   y2="-3207.1851"
   id="line244" />

<line
   x1="-5179.6875"
   y1="-3182.1851"
   x2="-5039.6875"
   y2="-3182.1851"
   id="line245" />

<line
   x1="-5179.6875"
   y1="-3157.1851"
   x2="-5039.6875"
   y2="-3157.1851"
   id="line246" />

<line
   x1="-5179.6875"
   y1="-3132.1851"
   x2="-5039.6875"
   y2="-3132.1851"
   id="line247" />

<line
   x1="-5179.6875"
   y1="-3107.1851"
   x2="-5039.6875"
   y2="-3107.1851"
   id="line248" />

<line
   x1="-5179.6875"
   y1="-3082.1851"
   x2="-5039.6875"
   y2="-3082.1851"
   id="line249" />

<line
   x1="-5109.6875"
   y1="-3057.1851"
   x2="-5109.6875"
   y2="-3357.1851"
   id="line250" />

<line
   x1="-5119.6875"
   y1="-3342.1851"
   x2="-5109.6875"
   y2="-3357.1851"
   id="line251" />

<line
   x1="-5099.6875"
   y1="-3342.1851"
   x2="-5109.6875"
   y2="-3357.1851"
   id="line252" />
</g><g
   transform="matrix(0.50448523,0,0,0.49658037,3521.0039,2946.6336)"
   stroke="#ffffff"
   stroke-width="0.60057"
   opacity="1"
   fill="none"
   id="g253">
<path
   d="m -5498.0228,-3093.5954 v -93.5173 h 30 v 93.5173 h -28.5 v -1.5 h 27 v -90.5173 h -27 v 92.0173 z"
   fill="#ffffff"
   stroke="none"
   id="path252" />
</g><g
   transform="matrix(0.50448523,0,0,0.49658037,3521.0039,2946.6336)"
   stroke="#ff0001"
   stroke-width="0.60057"
   opacity="1"
   fill="none"
   id="g254">
<path
   d="m -5496.5228,-3095.0954 v -90.5173 h 27 v 90.5173 z"
   fill="#ff0001"
   stroke="none"
   id="path253" />
</g><g
   transform="matrix(0.50448523,0,0,0.49658037,3521.0039,2946.6336)"
   stroke="#ffffff"
   stroke-width="0.60057"
   opacity="1"
   fill="none"
   id="g255">
<path
   d="m -5493.5228,-3123.2656 h 13.671 v 1.3504 l 2.877,1.6581 v -3.0085 h 2.562 l 1.89,2.1709 v -10.1025 l -1.428,-1.265 v -1.9316 l 1.428,1.4701 v -2.4274 l -1.932,-2 h -19.068 z"
   fill="#ffffff"
   stroke="none"
   id="path254" />
</g><g
   transform="matrix(0.50448523,0,0,0.49658037,3521.0039,2946.6336)"
   stroke="#ff0001"
   stroke-width="0.60057"
   opacity="1"
   fill="none"
   id="g256">
<path
   d="m -5488.8188,-3132.3083 v 6.1709 l 3.423,2.0342 0.714,-1.1624 -2.793,-1.6752 v -2.6496 l 3.78,2 4.41,0.8205 v 4.4616 l 1.701,1.0256 v -6.9231 l -4.788,-0.9743 7.875,-3.8462 v -1.9316 l -8.673,4.188 -3.213,-1.829 2.163,-2.0513 v -2.7009 h -1.386 v 2.1197 z"
   fill="#ff0001"
   stroke="none"
   id="path255" />

<circle
   cx="-5490.772"
   cy="-3132.5305"
   fill="#ff0001"
   id="ellipse255"
   r="1.638" />
</g><g
   transform="matrix(0.50448523,0,0,0.49658037,3521.0039,2946.6336)"
   stroke="#ffffff"
   stroke-width="0.60057"
   opacity="1"
   fill="none"
   id="g257">
<path
   d="m -5474.6228,-3148.62 v -11.8311 l -11.831,1e-4 -4.969,4.9689 8.4398,0.079 -8.2268,8.2268 3.3127,3.3127 8.2268,-8.2268 0.078,8.4397 z"
   fill="#ffffff"
   stroke="none"
   id="path256" />
</g><g
   transform="matrix(0,0.49658037,-0.50448523,0,662.57604,1304.6507)"
   stroke="#000000"
   stroke-width="0.60057"
   opacity="1"
   fill="none"
   id="g258">
<text
   y="-2"
   font-size="13px"
   stroke="none"
   fill="#8800cc"
   text-anchor="middle"
   id="text257">Fire hose door</text>
</g><g
   transform="matrix(0.50448523,0,0,0.49658037,842.40843,1993.9755)"
   stroke="#000000"
   stroke-width="0.60057"
   opacity="1"
   fill="none"
   id="g259">
<text
   y="-11"
   font-size="56px"
   stroke="none"
   fill="#8800cc"
   text-anchor="middle"
   id="text258">Dialog Box 3</text>
</g><g
   transform="matrix(0.50448523,0,0,0.49658037,841.1135,534.95963)"
   stroke="#000000"
   stroke-width="0.60057"
   opacity="1"
   fill="none"
   id="g260">
<text
   y="-11"
   font-size="56px"
   stroke="none"
   fill="#8800cc"
   text-anchor="middle"
   id="text259">Male Facility</text>
</g><g
   transform="matrix(0.50448523,0,0,0.49658037,869.86916,709.09946)"
   stroke="#000000"
   stroke-width="0.60057"
   opacity="1"
   fill="none"
   id="g261">
<text
   y="-11"
   font-size="56px"
   stroke="none"
   fill="#8800cc"
   text-anchor="middle"
   id="text260">Female Facility</text>
</g><g
   transform="matrix(0.50448523,0,0,0.49658037,726.92599,1161.1767)"
   stroke="#000000"
   stroke-width="0.60057"
   opacity="1"
   fill="none"
   id="g262">
<text
   y="-11"
   font-size="56px"
   stroke="none"
   fill="#8800cc"
   text-anchor="middle"
   id="text261">Lift 2</text>
</g><g
   transform="matrix(0,0.49658037,-0.50448523,0,695.77892,1387.9828)"
   stroke="#000000"
   stroke-width="0.60057"
   opacity="1"
   fill="none"
   id="g263">
<text
   y="-3"
   font-size="19px"
   stroke="none"
   fill="#8800cc"
   text-anchor="middle"
   id="text262">Fire Exit</text>
</g><g
   transform="matrix(0.50448523,0,0,0.49658037,871.461,803.17052)"
   stroke="#000000"
   stroke-width="0.60057"
   opacity="1"
   fill="none"
   id="g264">
<text
   y="-11"
   font-size="56px"
   stroke="none"
   fill="#8800cc"
   text-anchor="middle"
   id="text263">Way to Stairs</text>
</g><g
   transform="matrix(0,0.49658037,-0.50448523,0,475.16126,420.57462)"
   stroke="#000000"
   stroke-width="0.60057"
   opacity="1"
   fill="none"
   id="g265">
<text
   y="-50"
   font-size="250px"
   stroke="none"
   fill="#8800cc"
   text-anchor="middle"
   id="text264">Startups</text>
</g><g
   transform="matrix(0.50448523,0,0,0.49658037,369.30968,907.33033)"
   stroke="#000000"
   stroke-width="0.60057"
   opacity="1"
   fill="none"
   id="g266">
<text
   y="-6"
   font-size="31px"
   stroke="none"
   fill="#8800cc"
   text-anchor="middle"
   id="text265">Manish Singh</text>

<text
   y="-37"
   font-size="31px"
   stroke="none"
   fill="#8800cc"
   text-anchor="middle"
   id="text266">Mentor </text>
</g><g
   transform="matrix(0.50448523,0,0,0.49658037,369.30968,1051.4727)"
   stroke="#000000"
   stroke-width="0.60057"
   opacity="1"
   fill="none"
   id="g268">
<text
   y="-6"
   font-size="31px"
   stroke="none"
   fill="#8800cc"
   text-anchor="middle"
   id="text267">Rakesh Sharma</text>

<text
   y="-37"
   font-size="31px"
   stroke="none"
   fill="#8800cc"
   text-anchor="middle"
   id="text268">Mentor </text>
</g><g
   transform="matrix(0.50448523,0,0,0.49658037,362.75138,1212.0225)"
   stroke="#000000"
   stroke-width="0.60057"
   opacity="1"
   fill="none"
   id="g270">
<text
   y="-6"
   font-size="31px"
   stroke="none"
   fill="#8800cc"
   text-anchor="middle"
   id="text269">puneet Madaan</text>

<text
   y="-37"
   font-size="31px"
   stroke="none"
   fill="#8800cc"
   text-anchor="middle"
   id="text270">Mentor </text>
</g><g
   transform="matrix(0.50448523,0,0,0.49658037,362.75138,1353.3655)"
   stroke="#000000"
   stroke-width="0.60057"
   opacity="1"
   fill="none"
   id="g272">
<text
   y="-6"
   font-size="31px"
   stroke="none"
   fill="#8800cc"
   text-anchor="middle"
   id="text271">Nitika Choudhary</text>

<text
   y="-37"
   font-size="31px"
   stroke="none"
   fill="#8800cc"
   text-anchor="middle"
   id="text272">Mentor </text>
</g><g
   transform="matrix(0.50448523,0,0,0.49658037,837.15601,304.57513)"
   stroke="#000000"
   stroke-width="0.60057"
   opacity="1"
   fill="none"
   id="g275">
<text
   y="-11"
   font-size="56px"
   stroke="none"
   fill="#8800cc"
   text-anchor="middle"
   id="text273">Sandeep Banarwal</text>

<text
   y="-67"
   font-size="56px"
   stroke="none"
   fill="#8800cc"
   text-anchor="middle"
   id="text274">Chamkaur Singh </text>

<text
   y="-123"
   font-size="56px"
   stroke="none"
   fill="#8800cc"
   text-anchor="middle"
   id="text275">Admin Team </text>
</g><g
   transform="matrix(0,0.49658037,-0.50448523,0,475.16126,1785.5681)"
   stroke="#000000"
   stroke-width="0.60057"
   opacity="1"
   fill="none"
   id="g276">
<text
   y="-50"
   font-size="250px"
   stroke="none"
   fill="#8800cc"
   text-anchor="middle"
   id="text276">Startups</text>
</g><g
   transform="matrix(0.50448523,0,0,0.49658037,727.74777,1049.3972)"
   stroke="#000000"
   stroke-width="0.60057"
   opacity="1"
   fill="none"
   id="g277">
<text
   y="-11"
   font-size="56px"
   stroke="none"
   fill="#8800cc"
   text-anchor="middle"
   id="text277">Lift 1</text>
</g><g
   transform="matrix(0.50448523,0,0,0.49658037,3521.0039,2946.6336)"
   stroke="#006600"
   stroke-width="1.8017"
   opacity="1"
   fill="none"
   id="g278">
<line
   x1="-6978.0801"
   y1="-5752.1714"
   x2="-4992.4321"
   y2="-5752.1714"
   id="line277" />
</g><g
   transform="matrix(0.50448523,0,0,0.49658037,3521.0039,2946.6336)"
   stroke="#ffffff"
   stroke-width="0.60057"
   opacity="1"
   fill="none"
   id="g279">
<line
   x1="-6978.0801"
   y1="-5752.1714"
   x2="-4992.4321"
   y2="-5752.1714"
   id="line278" />
</g><g
   transform="matrix(0.50448523,0,0,0.49658037,3521.0039,2946.6336)"
   stroke="#006600"
   stroke-width="1.8017"
   opacity="1"
   fill="none"
   id="g280">
<line
   x1="-6975.5801"
   y1="-5742.1714"
   x2="-6975.5801"
   y2="-5754.6714"
   id="line279" />
</g><g
   transform="matrix(0.50448523,0,0,0.49658037,3521.0039,2946.6336)"
   stroke="#ffffff"
   stroke-width="0.60057"
   opacity="1"
   fill="none"
   id="g281">
<line
   x1="-6975.5801"
   y1="-5742.1714"
   x2="-6975.5801"
   y2="-5754.6714"
   id="line280" />
</g><g
   transform="matrix(0.50448523,0,0,0.49658037,3521.0039,2946.6336)"
   stroke="#006600"
   stroke-width="1.8017"
   opacity="1"
   fill="none"
   id="g282">
<line
   x1="-6976.8301"
   y1="-5753.4214"
   x2="-6974.3301"
   y2="-5750.9214"
   id="line281" />
</g><g
   transform="matrix(0.50448523,0,0,0.49658037,3521.0039,2946.6336)"
   stroke="#ffffff"
   stroke-width="0.60057"
   opacity="1"
   fill="none"
   id="g283">
<line
   x1="-6976.8301"
   y1="-5753.4214"
   x2="-6974.3301"
   y2="-5750.9214"
   id="line282" />
</g><g
   transform="matrix(0.50448523,0,0,0.49658037,3521.0039,2946.6336)"
   stroke="#006600"
   stroke-width="1.8017"
   opacity="1"
   fill="none"
   id="g284">
<line
   x1="-6960.3398"
   y1="-5742.1714"
   x2="-6960.3398"
   y2="-5754.6714"
   id="line283" />
</g><g
   transform="matrix(0.50448523,0,0,0.49658037,3521.0039,2946.6336)"
   stroke="#ffffff"
   stroke-width="0.60057"
   opacity="1"
   fill="none"
   id="g285">
<line
   x1="-6960.3398"
   y1="-5742.1714"
   x2="-6960.3398"
   y2="-5754.6714"
   id="line284" />
</g><g
   transform="matrix(0.50448523,0,0,0.49658037,3521.0039,2946.6336)"
   stroke="#006600"
   stroke-width="1.8017"
   opacity="1"
   fill="none"
   id="g286">
<line
   x1="-6961.5898"
   y1="-5753.4214"
   x2="-6959.0898"
   y2="-5750.9214"
   id="line285" />
</g><g
   transform="matrix(0.50448523,0,0,0.49658037,3521.0039,2946.6336)"
   stroke="#ffffff"
   stroke-width="0.60057"
   opacity="1"
   fill="none"
   id="g287">
<line
   x1="-6961.5898"
   y1="-5753.4214"
   x2="-6959.0898"
   y2="-5750.9214"
   id="line286" />
</g><g
   transform="matrix(0.50448523,0,0,0.49658037,5.7710109,89.597342)"
   stroke="#ffffff"
   stroke-width="0.60057"
   opacity="1"
   fill="none"
   id="g288">
<text
   y="-1"
   font-size="5px"
   stroke="#000000"
   stroke-width="0.30028"
   fill="#ffffff"
   text-anchor="middle"
   id="text287">0.2</text>
</g><g
   transform="matrix(0.50448523,0,0,0.49658037,3521.0039,2946.6336)"
   stroke="#006600"
   stroke-width="1.8017"
   opacity="1"
   fill="none"
   id="g289">
<line
   x1="-5010.1724"
   y1="-5742.1714"
   x2="-5010.1724"
   y2="-5754.6714"
   id="line288" />
</g><g
   transform="matrix(0.50448523,0,0,0.49658037,3521.0039,2946.6336)"
   stroke="#ffffff"
   stroke-width="0.60057"
   opacity="1"
   fill="none"
   id="g290">
<line
   x1="-5010.1724"
   y1="-5742.1714"
   x2="-5010.1724"
   y2="-5754.6714"
   id="line289" />
</g><g
   transform="matrix(0.50448523,0,0,0.49658037,3521.0039,2946.6336)"
   stroke="#006600"
   stroke-width="1.8017"
   opacity="1"
   fill="none"
   id="g291">
<line
   x1="-5011.4224"
   y1="-5753.4214"
   x2="-5008.9224"
   y2="-5750.9214"
   id="line290" />
</g><g
   transform="matrix(0.50448523,0,0,0.49658037,3521.0039,2946.6336)"
   stroke="#ffffff"
   stroke-width="0.60057"
   opacity="1"
   fill="none"
   id="g292">
<line
   x1="-5011.4224"
   y1="-5753.4214"
   x2="-5008.9224"
   y2="-5750.9214"
   id="line291" />
</g><g
   transform="matrix(0.50448523,0,0,0.49658037,501.53061,89.597342)"
   stroke="#ffffff"
   stroke-width="0.60057"
   opacity="1"
   fill="none"
   id="g293">
<text
   y="-1"
   font-size="5px"
   stroke="#000000"
   stroke-width="0.30028"
   fill="#ffffff"
   text-anchor="middle"
   id="text292">19.5</text>
</g><g
   transform="matrix(0.50448523,0,0,0.49658037,3521.0039,2946.6336)"
   stroke="#006600"
   stroke-width="1.8017"
   opacity="1"
   fill="none"
   id="g294">
<line
   x1="-4994.9321"
   y1="-5742.1714"
   x2="-4994.9321"
   y2="-5754.6714"
   id="line293" />
</g><g
   transform="matrix(0.50448523,0,0,0.49658037,3521.0039,2946.6336)"
   stroke="#ffffff"
   stroke-width="0.60057"
   opacity="1"
   fill="none"
   id="g295">
<line
   x1="-4994.9321"
   y1="-5742.1714"
   x2="-4994.9321"
   y2="-5754.6714"
   id="line294" />
</g><g
   transform="matrix(0.50448523,0,0,0.49658037,3521.0039,2946.6336)"
   stroke="#006600"
   stroke-width="1.8017"
   opacity="1"
   fill="none"
   id="g296">
<line
   x1="-4996.1821"
   y1="-5753.4214"
   x2="-4993.6821"
   y2="-5750.9214"
   id="line295" />
</g><g
   transform="matrix(0.50448523,0,0,0.49658037,3521.0039,2946.6336)"
   stroke="#ffffff"
   stroke-width="0.60057"
   opacity="1"
   fill="none"
   id="g297">
<line
   x1="-4996.1821"
   y1="-5753.4214"
   x2="-4993.6821"
   y2="-5750.9214"
   id="line296" />
</g><g
   transform="matrix(0.50448523,0,0,0.49658037,997.2902,89.597342)"
   stroke="#ffffff"
   stroke-width="0.60057"
   opacity="1"
   fill="none"
   id="g298">
<text
   y="-1"
   font-size="5px"
   stroke="#000000"
   stroke-width="0.30028"
   fill="#ffffff"
   text-anchor="middle"
   id="text297">0.2</text>
</g><g
   transform="matrix(0.50448523,0,0,0.49658037,3521.0039,2946.6336)"
   stroke="#006600"
   stroke-width="1.8017"
   opacity="1"
   fill="none"
   id="g299">
<line
   x1="-6978.0801"
   y1="-1696.988"
   x2="-4992.4321"
   y2="-1696.988"
   id="line298" />
</g><g
   transform="matrix(0.50448523,0,0,0.49658037,3521.0039,2946.6336)"
   stroke="#ffffff"
   stroke-width="0.60057"
   opacity="1"
   fill="none"
   id="g300">
<line
   x1="-6978.0801"
   y1="-1696.988"
   x2="-4992.4321"
   y2="-1696.988"
   id="line299" />
</g><g
   transform="matrix(0.50448523,0,0,0.49658037,3521.0039,2946.6336)"
   stroke="#006600"
   stroke-width="1.8017"
   opacity="1"
   fill="none"
   id="g301">
<line
   x1="-6975.5801"
   y1="-1706.988"
   x2="-6975.5801"
   y2="-1694.488"
   id="line300" />
</g><g
   transform="matrix(0.50448523,0,0,0.49658037,3521.0039,2946.6336)"
   stroke="#ffffff"
   stroke-width="0.60057"
   opacity="1"
   fill="none"
   id="g302">
<line
   x1="-6975.5801"
   y1="-1706.988"
   x2="-6975.5801"
   y2="-1694.488"
   id="line301" />
</g><g
   transform="matrix(0.50448523,0,0,0.49658037,3521.0039,2946.6336)"
   stroke="#006600"
   stroke-width="1.8017"
   opacity="1"
   fill="none"
   id="g303">
<line
   x1="-6976.8301"
   y1="-1698.238"
   x2="-6974.3301"
   y2="-1695.738"
   id="line302" />
</g><g
   transform="matrix(0.50448523,0,0,0.49658037,3521.0039,2946.6336)"
   stroke="#ffffff"
   stroke-width="0.60057"
   opacity="1"
   fill="none"
   id="g304">
<line
   x1="-6976.8301"
   y1="-1698.238"
   x2="-6974.3301"
   y2="-1695.738"
   id="line303" />
</g><g
   transform="matrix(0.50448523,0,0,0.49658037,3521.0039,2946.6336)"
   stroke="#006600"
   stroke-width="1.8017"
   opacity="1"
   fill="none"
   id="g305">
<line
   x1="-6960.3398"
   y1="-1706.988"
   x2="-6960.3398"
   y2="-1694.488"
   id="line304" />
</g><g
   transform="matrix(0.50448523,0,0,0.49658037,3521.0039,2946.6336)"
   stroke="#ffffff"
   stroke-width="0.60057"
   opacity="1"
   fill="none"
   id="g306">
<line
   x1="-6960.3398"
   y1="-1706.988"
   x2="-6960.3398"
   y2="-1694.488"
   id="line305" />
</g><g
   transform="matrix(0.50448523,0,0,0.49658037,3521.0039,2946.6336)"
   stroke="#006600"
   stroke-width="1.8017"
   opacity="1"
   fill="none"
   id="g307">
<line
   x1="-6961.5898"
   y1="-1698.238"
   x2="-6959.0898"
   y2="-1695.738"
   id="line306" />
</g><g
   transform="matrix(0.50448523,0,0,0.49658037,3521.0039,2946.6336)"
   stroke="#ffffff"
   stroke-width="0.60057"
   opacity="1"
   fill="none"
   id="g308">
<line
   x1="-6961.5898"
   y1="-1698.238"
   x2="-6959.0898"
   y2="-1695.738"
   id="line307" />
</g><g
   transform="matrix(0.50448523,0,0,0.49658037,5.7710109,2103.3218)"
   stroke="#ffffff"
   stroke-width="0.60057"
   opacity="1"
   fill="none"
   id="g309">
<text
   y="-1"
   font-size="5px"
   stroke="#000000"
   stroke-width="0.30028"
   fill="#ffffff"
   text-anchor="middle"
   id="text308">0.2</text>
</g><g
   transform="matrix(0.50448523,0,0,0.49658037,3521.0039,2946.6336)"
   stroke="#006600"
   stroke-width="1.8017"
   opacity="1"
   fill="none"
   id="g310">
<line
   x1="-5010.1724"
   y1="-1706.988"
   x2="-5010.1724"
   y2="-1694.488"
   id="line309" />
</g><g
   transform="matrix(0.50448523,0,0,0.49658037,3521.0039,2946.6336)"
   stroke="#ffffff"
   stroke-width="0.60057"
   opacity="1"
   fill="none"
   id="g311">
<line
   x1="-5010.1724"
   y1="-1706.988"
   x2="-5010.1724"
   y2="-1694.488"
   id="line310" />
</g><g
   transform="matrix(0.50448523,0,0,0.49658037,3521.0039,2946.6336)"
   stroke="#006600"
   stroke-width="1.8017"
   opacity="1"
   fill="none"
   id="g312">
<line
   x1="-5011.4224"
   y1="-1698.238"
   x2="-5008.9224"
   y2="-1695.738"
   id="line311" />
</g><g
   transform="matrix(0.50448523,0,0,0.49658037,3521.0039,2946.6336)"
   stroke="#ffffff"
   stroke-width="0.60057"
   opacity="1"
   fill="none"
   id="g313">
<line
   x1="-5011.4224"
   y1="-1698.238"
   x2="-5008.9224"
   y2="-1695.738"
   id="line312" />
</g><g
   transform="matrix(0.50448523,0,0,0.49658037,501.53061,2103.3218)"
   stroke="#ffffff"
   stroke-width="0.60057"
   opacity="1"
   fill="none"
   id="g314">
<text
   y="-1"
   font-size="5px"
   stroke="#000000"
   stroke-width="0.30028"
   fill="#ffffff"
   text-anchor="middle"
   id="text313">19.5</text>
</g><g
   transform="matrix(0.50448523,0,0,0.49658037,3521.0039,2946.6336)"
   stroke="#006600"
   stroke-width="1.8017"
   opacity="1"
   fill="none"
   id="g315">
<line
   x1="-4994.9321"
   y1="-1706.988"
   x2="-4994.9321"
   y2="-1694.488"
   id="line314" />
</g><g
   transform="matrix(0.50448523,0,0,0.49658037,3521.0039,2946.6336)"
   stroke="#ffffff"
   stroke-width="0.60057"
   opacity="1"
   fill="none"
   id="g316">
<line
   x1="-4994.9321"
   y1="-1706.988"
   x2="-4994.9321"
   y2="-1694.488"
   id="line315" />
</g><g
   transform="matrix(0.50448523,0,0,0.49658037,3521.0039,2946.6336)"
   stroke="#006600"
   stroke-width="1.8017"
   opacity="1"
   fill="none"
   id="g317">
<line
   x1="-4996.1821"
   y1="-1698.238"
   x2="-4993.6821"
   y2="-1695.738"
   id="line316" />
</g><g
   transform="matrix(0.50448523,0,0,0.49658037,3521.0039,2946.6336)"
   stroke="#ffffff"
   stroke-width="0.60057"
   opacity="1"
   fill="none"
   id="g318">
<line
   x1="-4996.1821"
   y1="-1698.238"
   x2="-4993.6821"
   y2="-1695.738"
   id="line317" />
</g><g
   transform="matrix(0.50448523,0,0,0.49658037,997.2902,2103.3218)"
   stroke="#ffffff"
   stroke-width="0.60057"
   opacity="1"
   fill="none"
   id="g319">
<text
   y="-1"
   font-size="5px"
   stroke="#000000"
   stroke-width="0.30028"
   fill="#ffffff"
   text-anchor="middle"
   id="text318">0.2</text>
</g><g
   transform="matrix(0.50448523,0,0,0.49658037,3521.0039,2946.6336)"
   stroke="#006600"
   stroke-width="1.8017"
   opacity="1"
   fill="none"
   id="g320">
<line
   x1="-6990.0801"
   y1="-5740.1714"
   x2="-6990.0801"
   y2="-1708.988"
   id="line319" />
</g><g
   transform="matrix(0.50448523,0,0,0.49658037,3521.0039,2946.6336)"
   stroke="#ffffff"
   stroke-width="0.60057"
   opacity="1"
   fill="none"
   id="g321">
<line
   x1="-6990.0801"
   y1="-5740.1714"
   x2="-6990.0801"
   y2="-1708.988"
   id="line320" />
</g><g
   transform="matrix(0.50448523,0,0,0.49658037,3521.0039,2946.6336)"
   stroke="#006600"
   stroke-width="1.8017"
   opacity="1"
   fill="none"
   id="g322">
<line
   x1="-6980.0801"
   y1="-5737.6714"
   x2="-6992.5801"
   y2="-5737.6714"
   id="line321" />
</g><g
   transform="matrix(0.50448523,0,0,0.49658037,3521.0039,2946.6336)"
   stroke="#ffffff"
   stroke-width="0.60057"
   opacity="1"
   fill="none"
   id="g323">
<line
   x1="-6980.0801"
   y1="-5737.6714"
   x2="-6992.5801"
   y2="-5737.6714"
   id="line322" />
</g><g
   transform="matrix(0.50448523,0,0,0.49658037,3521.0039,2946.6336)"
   stroke="#006600"
   stroke-width="1.8017"
   opacity="1"
   fill="none"
   id="g324">
<line
   x1="-6988.8301"
   y1="-5738.9214"
   x2="-6991.3301"
   y2="-5736.4214"
   id="line323" />
</g><g
   transform="matrix(0.50448523,0,0,0.49658037,3521.0039,2946.6336)"
   stroke="#ffffff"
   stroke-width="0.60057"
   opacity="1"
   fill="none"
   id="g325">
<line
   x1="-6988.8301"
   y1="-5738.9214"
   x2="-6991.3301"
   y2="-5736.4214"
   id="line324" />
</g><g
   transform="matrix(0.50448523,0,0,0.49658037,3521.0039,2946.6336)"
   stroke="#006600"
   stroke-width="1.8017"
   opacity="1"
   fill="none"
   id="g326">
<line
   x1="-6980.0801"
   y1="-5722.4316"
   x2="-6992.5801"
   y2="-5722.4316"
   id="line325" />
</g><g
   transform="matrix(0.50448523,0,0,0.49658037,3521.0039,2946.6336)"
   stroke="#ffffff"
   stroke-width="0.60057"
   opacity="1"
   fill="none"
   id="g327">
<line
   x1="-6980.0801"
   y1="-5722.4316"
   x2="-6992.5801"
   y2="-5722.4316"
   id="line326" />
</g><g
   transform="matrix(0.50448523,0,0,0.49658037,3521.0039,2946.6336)"
   stroke="#006600"
   stroke-width="1.8017"
   opacity="1"
   fill="none"
   id="g328">
<line
   x1="-6988.8301"
   y1="-5723.6816"
   x2="-6991.3301"
   y2="-5721.1816"
   id="line327" />
</g><g
   transform="matrix(0.50448523,0,0,0.49658037,3521.0039,2946.6336)"
   stroke="#ffffff"
   stroke-width="0.60057"
   opacity="1"
   fill="none"
   id="g329">
<line
   x1="-6988.8301"
   y1="-5723.6816"
   x2="-6991.3301"
   y2="-5721.1816"
   id="line328" />
</g><g
   transform="matrix(0,-0.49658037,0.50448523,0,-6.0188101,101.20243)"
   stroke="#ffffff"
   stroke-width="0.60057"
   opacity="1"
   fill="none"
   id="g330">
<text
   y="-1"
   font-size="5px"
   stroke="#000000"
   stroke-width="0.30028"
   fill="#ffffff"
   text-anchor="middle"
   id="text329">0.2</text>
</g><g
   transform="matrix(0.50448523,0,0,0.49658037,3521.0039,2946.6336)"
   stroke="#006600"
   stroke-width="1.8017"
   opacity="1"
   fill="none"
   id="g331">
<line
   x1="-6980.0801"
   y1="-1726.728"
   x2="-6992.5801"
   y2="-1726.728"
   id="line330" />
</g><g
   transform="matrix(0.50448523,0,0,0.49658037,3521.0039,2946.6336)"
   stroke="#ffffff"
   stroke-width="0.60057"
   opacity="1"
   fill="none"
   id="g332">
<line
   x1="-6980.0801"
   y1="-1726.728"
   x2="-6992.5801"
   y2="-1726.728"
   id="line331" />
</g><g
   transform="matrix(0.50448523,0,0,0.49658037,3521.0039,2946.6336)"
   stroke="#006600"
   stroke-width="1.8017"
   opacity="1"
   fill="none"
   id="g333">
<line
   x1="-6988.8301"
   y1="-1727.978"
   x2="-6991.3301"
   y2="-1725.478"
   id="line332" />
</g><g
   transform="matrix(0.50448523,0,0,0.49658037,3521.0039,2946.6336)"
   stroke="#ffffff"
   stroke-width="0.60057"
   opacity="1"
   fill="none"
   id="g334">
<line
   x1="-6988.8301"
   y1="-1727.978"
   x2="-6991.3301"
   y2="-1725.478"
   id="line333" />
</g><g
   transform="matrix(0,-0.49658037,0.50448523,0,-6.0188101,1097.0803)"
   stroke="#ffffff"
   stroke-width="0.60057"
   opacity="1"
   fill="none"
   id="g335">
<text
   y="-1"
   font-size="5px"
   stroke="#000000"
   stroke-width="0.30028"
   fill="#ffffff"
   text-anchor="middle"
   id="text334">40</text>
</g><g
   transform="matrix(0.50448523,0,0,0.49658037,3521.0039,2946.6336)"
   stroke="#006600"
   stroke-width="1.8017"
   opacity="1"
   fill="none"
   id="g336">
<line
   x1="-6980.0801"
   y1="-1711.488"
   x2="-6992.5801"
   y2="-1711.488"
   id="line335" />
</g><g
   transform="matrix(0.50448523,0,0,0.49658037,3521.0039,2946.6336)"
   stroke="#ffffff"
   stroke-width="0.60057"
   opacity="1"
   fill="none"
   id="g337">
<line
   x1="-6980.0801"
   y1="-1711.488"
   x2="-6992.5801"
   y2="-1711.488"
   id="line336" />
</g><g
   transform="matrix(0.50448523,0,0,0.49658037,3521.0039,2946.6336)"
   stroke="#006600"
   stroke-width="1.8017"
   opacity="1"
   fill="none"
   id="g338">
<line
   x1="-6988.8301"
   y1="-1712.738"
   x2="-6991.3301"
   y2="-1710.238"
   id="line337" />
</g><g
   transform="matrix(0.50448523,0,0,0.49658037,3521.0039,2946.6336)"
   stroke="#ffffff"
   stroke-width="0.60057"
   opacity="1"
   fill="none"
   id="g339">
<line
   x1="-6988.8301"
   y1="-1712.738"
   x2="-6991.3301"
   y2="-1710.238"
   id="line338" />
</g><g
   transform="matrix(0,-0.49658037,0.50448523,0,-6.0188101,2092.9583)"
   stroke="#ffffff"
   stroke-width="0.60057"
   opacity="1"
   fill="none"
   id="g340">
<text
   y="-1"
   font-size="5px"
   stroke="#000000"
   stroke-width="0.30028"
   fill="#ffffff"
   text-anchor="middle"
   id="text339">0.2</text>
</g><g
   transform="matrix(0.50448523,0,0,0.49658037,3521.0039,2946.6336)"
   stroke="#006600"
   stroke-width="1.8017"
   opacity="1"
   fill="none"
   id="g341">
<line
   x1="-4980.4321"
   y1="-5740.1714"
   x2="-4980.4321"
   y2="-1708.988"
   id="line340" />
</g><g
   transform="matrix(0.50448523,0,0,0.49658037,3521.0039,2946.6336)"
   stroke="#ffffff"
   stroke-width="0.60057"
   opacity="1"
   fill="none"
   id="g342">
<line
   x1="-4980.4321"
   y1="-5740.1714"
   x2="-4980.4321"
   y2="-1708.988"
   id="line341" />
</g><g
   transform="matrix(0.50448523,0,0,0.49658037,3521.0039,2946.6336)"
   stroke="#006600"
   stroke-width="1.8017"
   opacity="1"
   fill="none"
   id="g343">
<line
   x1="-4990.4321"
   y1="-5737.6714"
   x2="-4977.9321"
   y2="-5737.6714"
   id="line342" />
</g><g
   transform="matrix(0.50448523,0,0,0.49658037,3521.0039,2946.6336)"
   stroke="#ffffff"
   stroke-width="0.60057"
   opacity="1"
   fill="none"
   id="g344">
<line
   x1="-4990.4321"
   y1="-5737.6714"
   x2="-4977.9321"
   y2="-5737.6714"
   id="line343" />
</g><g
   transform="matrix(0.50448523,0,0,0.49658037,3521.0039,2946.6336)"
   stroke="#006600"
   stroke-width="1.8017"
   opacity="1"
   fill="none"
   id="g345">
<line
   x1="-4979.1821"
   y1="-5738.9214"
   x2="-4981.6821"
   y2="-5736.4214"
   id="line344" />
</g><g
   transform="matrix(0.50448523,0,0,0.49658037,3521.0039,2946.6336)"
   stroke="#ffffff"
   stroke-width="0.60057"
   opacity="1"
   fill="none"
   id="g346">
<line
   x1="-4979.1821"
   y1="-5738.9214"
   x2="-4981.6821"
   y2="-5736.4214"
   id="line345" />
</g><g
   transform="matrix(0.50448523,0,0,0.49658037,3521.0039,2946.6336)"
   stroke="#006600"
   stroke-width="1.8017"
   opacity="1"
   fill="none"
   id="g347">
<line
   x1="-4990.4321"
   y1="-5722.4316"
   x2="-4977.9321"
   y2="-5722.4316"
   id="line346" />
</g><g
   transform="matrix(0.50448523,0,0,0.49658037,3521.0039,2946.6336)"
   stroke="#ffffff"
   stroke-width="0.60057"
   opacity="1"
   fill="none"
   id="g348">
<line
   x1="-4990.4321"
   y1="-5722.4316"
   x2="-4977.9321"
   y2="-5722.4316"
   id="line347" />
</g><g
   transform="matrix(0.50448523,0,0,0.49658037,3521.0039,2946.6336)"
   stroke="#006600"
   stroke-width="1.8017"
   opacity="1"
   fill="none"
   id="g349">
<line
   x1="-4979.1821"
   y1="-5723.6816"
   x2="-4981.6821"
   y2="-5721.1816"
   id="line348" />
</g><g
   transform="matrix(0.50448523,0,0,0.49658037,3521.0039,2946.6336)"
   stroke="#ffffff"
   stroke-width="0.60057"
   opacity="1"
   fill="none"
   id="g350">
<line
   x1="-4979.1821"
   y1="-5723.6816"
   x2="-4981.6821"
   y2="-5721.1816"
   id="line349" />
</g><g
   transform="matrix(0,-0.49658037,0.50448523,0,1007.8187,101.20243)"
   stroke="#ffffff"
   stroke-width="0.60057"
   opacity="1"
   fill="none"
   id="g351">
<text
   y="-1"
   font-size="5px"
   stroke="#000000"
   stroke-width="0.30028"
   fill="#ffffff"
   text-anchor="middle"
   id="text350">0.2</text>
</g><g
   transform="matrix(0.50448523,0,0,0.49658037,3521.0039,2946.6336)"
   stroke="#006600"
   stroke-width="1.8017"
   opacity="1"
   fill="none"
   id="g352">
<line
   x1="-4990.4321"
   y1="-1726.728"
   x2="-4977.9321"
   y2="-1726.728"
   id="line351" />
</g><g
   transform="matrix(0.50448523,0,0,0.49658037,3521.0039,2946.6336)"
   stroke="#ffffff"
   stroke-width="0.60057"
   opacity="1"
   fill="none"
   id="g353">
<line
   x1="-4990.4321"
   y1="-1726.728"
   x2="-4977.9321"
   y2="-1726.728"
   id="line352" />
</g><g
   transform="matrix(0.50448523,0,0,0.49658037,3521.0039,2946.6336)"
   stroke="#006600"
   stroke-width="1.8017"
   opacity="1"
   fill="none"
   id="g354">
<line
   x1="-4979.1821"
   y1="-1727.978"
   x2="-4981.6821"
   y2="-1725.478"
   id="line353" />
</g><g
   transform="matrix(0.50448523,0,0,0.49658037,3521.0039,2946.6336)"
   stroke="#ffffff"
   stroke-width="0.60057"
   opacity="1"
   fill="none"
   id="g355">
<line
   x1="-4979.1821"
   y1="-1727.978"
   x2="-4981.6821"
   y2="-1725.478"
   id="line354" />
</g><g
   transform="matrix(0,-0.49658037,0.50448523,0,1007.8187,1097.0803)"
   stroke="#ffffff"
   stroke-width="0.60057"
   opacity="1"
   fill="none"
   id="g356">
<text
   y="-1"
   font-size="5px"
   stroke="#000000"
   stroke-width="0.30028"
   fill="#ffffff"
   text-anchor="middle"
   id="text355">40</text>
</g><g
   transform="matrix(0.50448523,0,0,0.49658037,3521.0039,2946.6336)"
   stroke="#006600"
   stroke-width="1.8017"
   opacity="1"
   fill="none"
   id="g357">
<line
   x1="-4990.4321"
   y1="-1711.488"
   x2="-4977.9321"
   y2="-1711.488"
   id="line356" />
</g><g
   transform="matrix(0.50448523,0,0,0.49658037,3521.0039,2946.6336)"
   stroke="#ffffff"
   stroke-width="0.60057"
   opacity="1"
   fill="none"
   id="g358">
<line
   x1="-4990.4321"
   y1="-1711.488"
   x2="-4977.9321"
   y2="-1711.488"
   id="line357" />
</g><g
   transform="matrix(0.50448523,0,0,0.49658037,3521.0039,2946.6336)"
   stroke="#006600"
   stroke-width="1.8017"
   opacity="1"
   fill="none"
   id="g359">
<line
   x1="-4979.1821"
   y1="-1712.738"
   x2="-4981.6821"
   y2="-1710.238"
   id="line358" />
</g><g
   transform="matrix(0.50448523,0,0,0.49658037,3521.0039,2946.6336)"
   stroke="#ffffff"
   stroke-width="0.60057"
   opacity="1"
   fill="none"
   id="g360">
<line
   x1="-4979.1821"
   y1="-1712.738"
   x2="-4981.6821"
   y2="-1710.238"
   id="line359" />
</g><g
   transform="matrix(0,-0.49658037,0.50448523,0,1007.8187,2092.9583)"
   stroke="#ffffff"
   stroke-width="0.60057"
   opacity="1"
   fill="none"
   id="g361">
<text
   y="-1"
   font-size="5px"
   stroke="#000000"
   stroke-width="0.30028"
   fill="#ffffff"
   text-anchor="middle"
   id="text360">0.2</text></g></g>
</svg>
