<?xml version="1.0" encoding="UTF-8" standalone="no"?>
<svg
   xml:space="preserve"
   width="1000pt"
   height="2000pt"
   viewBox="0 0 1000 2000"
   version="1.1"
   id="svg352"
   xmlns="http://www.w3.org/2000/svg"
   xmlns:svg="http://www.w3.org/2000/svg"><defs
   id="defs352" />
<g
   font-family="sans-serif"
   font-weight="bold"
   id="g352">
<g
   transform="matrix(0.50149008,0,0,0.49681316,1407.9708,3737.7934)"
   stroke="#773dde"
   fill="none"
   id="g1">
<path
   d="M -813.813,-3496.6129 H -2806.5684 V -7522.7965 H -813.813 Z"
   fill="#773dde"
   stroke="none"
   id="path1" />
</g><g
   transform="matrix(0.50149008,0,0,0.49681316,1407.9708,3737.7934)"
   stroke="#fff6e8"
   fill="none"
   id="g2">
<path
   d="m -829.053,-3511.8529 v -3995.7036 h -1962.2754 v 1314.7649 h -15.24 v 1395.3318 h 15.24 v 1285.6069 z"
   fill="#fff6e8"
   stroke="none"
   id="path2" />
</g><g
   transform="matrix(0.50149008,0,0,0.49681316,1407.9708,3737.7934)"
   stroke="#773dde"
   stroke-width="1.80174"
   fill="none"
   id="g51">
<path
   d="m -1860.9626,-4791.2231 -772.0819,5.7536 -0.09,-12.0017 772.082,-5.7536 z"
   fill="#773dde"
   stroke="none"
   id="path3" />

<path
   d="m -1753.0903,-5154.3091 h -12.002 v -792.4426 h 12.002 z"
   fill="#773dde"
   stroke="none"
   id="path4" />

<path
   d="m -1849.052,-3511.8519 h -12.002 v -1291.3729 h 12.002 z"
   fill="#773dde"
   stroke="none"
   id="path5" />

<path
   d="m -1466.8446,-6928.0568 h -12.002 v -191.9825 h 12.002 z m 0,-290.001 h -12.002 v -290.001 h 12.002 z"
   fill="#773dde"
   stroke="none"
   id="path6" />

<path
   d="m -829.0427,-6939.5575 -0.009,12.002 -649.7946,-0.5013 0.01,-12.002 z"
   fill="#773dde"
   stroke="none"
   id="path7" />

<path
   d="m -829.052,-6194.5079 h -649.794 v -50.002 h 649.794 z"
   fill="#773dde"
   stroke="none"
   id="path8" />

<path
   d="m -1466.8446,-6389.5079 -12.002,6e-4 -0.028,-539.3689 12.002,-6e-4 z"
   fill="#773dde"
   stroke="none"
   id="path9" />

<path
   d="m -1466.844,-5591.5555 h -12.002 v -80.002 h 12.002 z"
   fill="#773dde"
   stroke="none"
   id="path10" />

<path
   d="m -1178.844,-6053.5555 h -300.002 v -12.002 h 300.002 z"
   fill="#773dde"
   stroke="none"
   id="path11" />

<path
   d="m -1318.9519,-6244.5079 h -12.002 v -17.0129 h 12.002 z m 0,-114.6234 h -12.002 v -30.3786 h 12.002 z"
   fill="#773dde"
   stroke="none"
   id="path12" />

<path
   d="m -1452.1453,-6377.5079 h -26.7007 v -12.002 h 26.7007 z m 623.2519,0 h -526.966 v -12.002 h 526.966 z"
   fill="#773dde"
   stroke="none"
   id="path13" />

<path
   d="m -1178.844,-5671.5555 h -300.002 v -12.002 h 300.002 z"
   fill="#773dde"
   stroke="none"
   id="path14" />

<path
   d="m -1466.844,-4990.5555 h -12.002 v -53.194 h 12.002 z m 0,-153.1938 h -12.002 v -211.8082 h 12.002 z"
   fill="#773dde"
   stroke="none"
   id="path15" />

<path
   d="m -1287.3561,-6065.5555 h -12.002 v -2.7923 h 12.002 z m 0,-126.1621 h -12.002 v -2.7923 h 12.002 z"
   fill="#773dde"
   stroke="none"
   id="path16" />

<path
   d="m -1466.844,-5683.5555 h -12.002 v -370.002 h 12.002 z"
   fill="#773dde"
   stroke="none"
   id="path17" />

<path
   d="m -1178.844,-5579.5555 h -300.002 v -12.002 h 300.002 z"
   fill="#773dde"
   stroke="none"
   id="path18" />

<path
   d="m -1178.844,-5591.5555 h -12.002 v -80.002 h 12.002 z"
   fill="#773dde"
   stroke="none"
   id="path19" />

<path
   d="m -1466.844,-5459.5555 h -12.002 v -120.002 h 12.002 z"
   fill="#773dde"
   stroke="none"
   id="path20" />

<path
   d="m -1178.844,-5447.5555 h -300.002 v -12.002 h 300.002 z"
   fill="#773dde"
   stroke="none"
   id="path21" />

<path
   d="m -1178.844,-5355.5555 h -300.002 v -12.002 h 300.002 z"
   fill="#773dde"
   stroke="none"
   id="path22" />

<path
   d="m -1466.844,-5367.5555 h -12.002 v -80.002 h 12.002 z"
   fill="#773dde"
   stroke="none"
   id="path23" />

<path
   d="m -1178.844,-5367.5555 h -12.002 v -80.002 h 12.002 z"
   fill="#773dde"
   stroke="none"
   id="path24" />

<path
   d="m -1378.844,-5142.3091 h -100.002 v -12.002 h 100.002 z"
   fill="#773dde"
   stroke="none"
   id="path25" />

<path
   d="m -1378.844,-5042.3091 h -12.002 v -100.002 h 12.002 z"
   fill="#773dde"
   stroke="none"
   id="path26" />

<path
   d="m -1177.9672,-4992.3091 h -300.002 v -50.002 h 300.002 z"
   fill="#773dde"
   stroke="none"
   id="path27" />

<path
   d="m -1466.844,-4612.301 h -12.002 v -202.8932 h 12.002 z"
   fill="#773dde"
   stroke="none"
   id="path28" />

<path
   d="m -1178.844,-4815.1922 h -300.002 v -50.002 h 300.002 z"
   fill="#773dde"
   stroke="none"
   id="path29" />

<path
   d="m -829.052,-4600.3091 h -649.794 v -12.002 h 649.794 z"
   fill="#773dde"
   stroke="none"
   id="path30" />

<path
   d="m -1469.0328,-3698.6389 -0.4475,186.8157 -12.0019,-0.029 0.4475,-186.8158 z m 2.1888,-913.6434 -1.855,774.3351 -12.002,-0.029 1.855,-774.335 z"
   fill="#773dde"
   stroke="none"
   id="path31" />

<path
   d="m -1178.844,-5683.5555 h -12.002 v -370.002 h 12.002 z"
   fill="#773dde"
   stroke="none"
   id="path32" />

<path
   d="m -1177.9672,-5010.5767 -12.002,0.017 -0.8768,-601.8169 12.002,-0.017 z"
   fill="#773dde"
   stroke="none"
   id="path33" />

<path
   d="m -816.9275,-3971.0413 h -649.7939 v -12.002 h 649.7939 z"
   fill="#773dde"
   stroke="none"
   id="path34" />

<path
   d="m -2670.3749,-6192.7976 h -120.9545 v -10.002 h 120.9545 z"
   fill="#773dde"
   stroke="none"
   id="path35" />

<path
   d="m -2591.3274,-4787.4692 h -200.002 v -10.002 h 200.002 z"
   fill="#773dde"
   stroke="none"
   id="path36" />

<path
   d="m -2670.3749,-4797.4692 h -10.002 v -1395.3304 h 10.002 z"
   fill="#773dde"
   stroke="none"
   id="path37" />

<path
   d="m -1287.1555,-4868.7517 v 3.5595 l -10.002,-0.01 v -3.5595 z m 0.087,-123.5594 v 3.5595 l -10.002,-0.01 v -3.5594 z"
   fill="#773dde"
   stroke="none"
   id="path38" />

<path
   d="m -2008.4904,-5414.9093 h -85.6451 v -10.002 h 85.6451 z"
   fill="#773dde"
   stroke="none"
   id="path39" />

<path
   d="m -2084.1335,-5414.9093 h -10.002 v -88.5251 h 10.002 z"
   fill="#773dde"
   stroke="none"
   id="path40" />

<path
   d="m -2008.4904,-5493.4324 h -85.6451 v -10.002 h 85.6451 z"
   fill="#773dde"
   stroke="none"
   id="path41" />

<path
   d="m -2008.4904,-5414.9093 h -10.002 v -88.5251 h 10.002 z"
   fill="#773dde"
   stroke="none"
   id="path42" />

<path
   d="m -2008.4904,-6073.4324 h -85.6451 v -10.002 h 85.6451 z"
   fill="#773dde"
   stroke="none"
   id="path43" />

<path
   d="m -2008.4904,-6073.4324 h -10.002 v -88.0967 h 10.002 z"
   fill="#773dde"
   stroke="none"
   id="path44" />

<path
   d="m -2008.4904,-6151.5271 h -85.6451 v -10.002 h 85.6451 z"
   fill="#773dde"
   stroke="none"
   id="path45" />

<path
   d="m -2084.1335,-6073.4324 h -10.002 v -88.0967 h 10.002 z"
   fill="#773dde"
   stroke="none"
   id="path46" />

<path
   d="m -2008.4904,-6653.9247 h -89.2079 v -10.002 h 89.2079 z"
   fill="#773dde"
   stroke="none"
   id="path47" />

<path
   d="m -2008.4904,-6653.9247 h -10.002 v -93.8381 h 10.002 z"
   fill="#773dde"
   stroke="none"
   id="path48" />

<path
   d="m -2008.4904,-6737.7608 h -89.2079 v -10.002 h 89.2079 z"
   fill="#773dde"
   stroke="none"
   id="path49" />

<path
   d="m -2087.6963,-6653.9247 h -10.002 v -93.8381 h 10.002 z"
   fill="#773dde"
   stroke="none"
   id="path50" />

<path
   d="m -1591.8168,-6308.8306 -202.2291,72.0966 -3.3587,-9.4212 202.229,-72.0966 z"
   fill="#773dde"
   stroke="none"
   id="path51" />
</g><g
   transform="matrix(0.50149008,0,0,0.49681316,1407.9708,3737.7934)"
   stroke="#111111"
   stroke-width="1.80174"
   fill="none"
   id="g52">
<path
   d="m -813.813,-3496.6129 h -1992.7554 v -1300.8469 h 15.239 v -0.011 h 110.9525 v -1395.3264 h -110.9515 v 0.01 h -15.24 V -7522.7965 H -813.813 Z m -1819.2315,-1288.8566 -0.015,-1.9997 h -158.269 v 1275.6163 h 930.2744 v -1279.3695 z m -0.09,-12.0017 772.08,-5.7536 h 12.002 v 1291.3719 h 367.5698 l 0.4475,-186.8148 12.0019,0.029 -0.4474,186.786 h 640.4272 v -459.1884 h -637.6684 v -12.002 h 637.6684 v -617.2658 h -637.8197 l -1.8263,762.3619 -12.002,-0.029 1.855,-774.335 v -252.8831 h 188.8303 l -7.1443,-0.01 v -3.5595 l 10.002,0.01 v 3.5575 h 108.314 v 50.002 h -288 v 202.8811 h 637.791 v -1582.1968 h -458.3031 v 2.7903 h -12.002 v -2.7903 h -179.4879 v -50.002 h 147.8921 v -17.0109 h 12.002 v 17.0109 h 489.8989 v -132.998 h -489.8989 v 18.3766 h -12.002 v -18.3766 h -24.9055 v -12.002 h 526.8064 v -538.0456 l -637.8195,-0.4921 0.028,538.5377 h 14.6993 v 12.002 h -26.7007 v -11.9994 h -6e-4 l -0.028,-539.3689 h 0.028 v -191.1631 h 12.002 v 179.9898 l 637.7916,0.492 v -567.999 h -637.7916 v 289.4987 h -12.002 v -289.4987 h -1312.4818 v 1304.7569 h 120.9535 v 1405.3284 z m 1455.1206,-244.8399 h 0.046 v 50.002 h -109.1017 v 3.5575 l -10.002,-0.01 v -3.5504 h -169.7731 v 1.7536 h -12.002 v -53.194 h 12.002 v 1.4384 h 75.998 v -99.998 h -88 v -923.2484 h 179.4879 v -2.7903 h 12.002 v 2.7903 h 108.5121 v 453.164 z m -12.0021,0 -0.4563,-313.2444 h -276.3722 v 201.2444 h 88 v 112 z m -563.0748,-111.998 h -12.002 v -792.4426 h 12.002 z m 286.2463,-293.2464 v 79.998 h 275.998 v -79.998 z m -627.2915,32.6462 v -88.5251 h 85.6451 v 88.5251 z m 10.002,-78.5231 v 68.5211 h 65.6411 v -68.5211 z m 617.2895,-86.1231 v 119.998 h 276.2206 l -0.1748,-119.998 z m 0,-92 v 79.998 h 275.998 v -79.998 z m 0,-382 v 369.998 h 275.998 v -369.998 z m -627.2915,-19.8769 v -88.0967 h 85.6451 v 88.0967 z m 10.002,-78.0947 v 68.0927 h 65.6411 v -68.0927 z m 492.3167,-157.3035 -202.2291,72.0966 -3.3587,-9.4212 202.229,-72.0966 z m -505.8815,-345.0941 v -93.8381 h 89.2079 v 93.8381 z m 10.002,-83.8361 v 73.8341 h 69.2039 v -73.8341 z"
   id="path52" />
</g><g
   transform="matrix(0.50149008,0,0,0.49681316,1407.9708,3737.7934)"
   stroke="#000000"
   stroke-width="0.60058"
   fill="none"
   id="g53">

</g><g
   transform="matrix(0.50149008,0,0,0.49681316,1407.9708,3737.7934)"
   stroke="#ffffff"
   stroke-width="0.60058"
   opacity="1"
   fill="none"
   id="g56">
<path
   d="m -1904.1345,-4881.4868 c 0,-2.2092 -1.7909,-4 -4,-4 h -7 c -2.2092,0 -4,1.7908 -4,4 v 71 c 0,2.2091 1.7908,4 4,4 h 7 c 2.2091,0 4,-1.7909 4,-4 z"
   fill="#ffffff"
   stroke="none"
   id="path54" />

<path
   d="m -2079.1345,-4881.4868 c 0,-2.2092 -1.7909,-4 -4,-4 h -7 c -2.2092,0 -4,1.7908 -4,4 v 71 c 0,2.2091 1.7908,4 4,4 h 7 c 2.2091,0 4,-1.7909 4,-4 z"
   fill="#ffffff"
   stroke="none"
   id="path55" />

<path
   d="m -1919.1345,-4884.4868 c 0,-3.866 -3.134,-7 -7,-7 h -146 c -3.866,0 -7,3.134 -7,7 v 83 h 160 z"
   fill="#ffffff"
   stroke="none"
   id="path56" />
</g><g
   transform="matrix(0.50149008,0,0,0.49681316,1407.9708,3737.7934)"
   stroke="#000000"
   stroke-width="0.60058"
   opacity="1"
   fill="none"
   id="g60">
<path
   d="m -1904.1345,-4881.4868 c 0,-2.2092 -1.7909,-4 -4,-4 h -7 c -2.2092,0 -4,1.7908 -4,4 v 71 c 0,2.2091 1.7908,4 4,4 h 7 c 2.2091,0 4,-1.7909 4,-4 z"
   id="path57" />

<path
   d="m -2079.1345,-4881.4868 c 0,-2.2092 -1.7909,-4 -4,-4 h -7 c -2.2092,0 -4,1.7908 -4,4 v 71 c 0,2.2091 1.7908,4 4,4 h 7 c 2.2091,0 4,-1.7909 4,-4 z"
   id="path58" />

<path
   d="m -1919.1345,-4884.4868 c 0,-3.866 -3.134,-7 -7,-7 h -146 c -3.866,0 -7,3.134 -7,7 v 83 h 160 z"
   id="path59" />

<line
   x1="-1919.1345"
   y1="-4826.4868"
   x2="-2079.1345"
   y2="-4826.4868"
   id="line59" />

<line
   x1="-1999.1345"
   y1="-4826.4868"
   x2="-1999.1345"
   y2="-4891.4868"
   id="line60" />
</g><g
   transform="matrix(0.50149008,0,0,0.49681316,1407.9708,3737.7934)"
   stroke="#ffffff"
   stroke-width="0.60058"
   opacity="1"
   fill="none"
   id="g62">
<path
   d="m -2590.3759,-5142.3101 c 2.2092,0 4,-1.7908 4,-4 v -7 c 0,-2.2091 -1.7908,-4 -4,-4 h -71 c -2.2091,0 -4,1.7909 -4,4 v 7 c 0,2.2092 1.7909,4 4,4 z"
   fill="#ffffff"
   stroke="none"
   id="path60" />

<path
   d="m -2590.3759,-5317.3101 c 2.2092,0 4,-1.7908 4,-4 v -7 c 0,-2.2091 -1.7908,-4 -4,-4 h -71 c -2.2091,0 -4,1.7909 -4,4 v 7 c 0,2.2092 1.7909,4 4,4 z"
   fill="#ffffff"
   stroke="none"
   id="path61" />

<path
   d="m -2587.3759,-5157.3101 c 3.866,0 7,-3.134 7,-7 v -146 c 0,-3.8659 -3.134,-7 -7,-7 h -83 v 160 z"
   fill="#ffffff"
   stroke="none"
   id="path62" />
</g><g
   transform="matrix(0.50149008,0,0,0.49681316,1407.9708,3737.7934)"
   stroke="#000000"
   stroke-width="0.60058"
   opacity="1"
   fill="none"
   id="g66">
<path
   d="m -2590.3759,-5142.3101 c 2.2092,0 4,-1.7908 4,-4 v -7 c 0,-2.2091 -1.7908,-4 -4,-4 h -71 c -2.2091,0 -4,1.7909 -4,4 v 7 c 0,2.2092 1.7909,4 4,4 z"
   id="path63" />

<path
   d="m -2590.3759,-5317.3101 c 2.2092,0 4,-1.7908 4,-4 v -7 c 0,-2.2091 -1.7908,-4 -4,-4 h -71 c -2.2091,0 -4,1.7909 -4,4 v 7 c 0,2.2092 1.7909,4 4,4 z"
   id="path64" />

<path
   d="m -2587.3759,-5157.3101 c 3.866,0 7,-3.134 7,-7 v -146 c 0,-3.8659 -3.134,-7 -7,-7 h -83 v 160 z"
   id="path65" />

<line
   x1="-2645.376"
   y1="-5157.3101"
   x2="-2645.376"
   y2="-5317.3101"
   id="line65" />

<line
   x1="-2645.376"
   y1="-5237.3101"
   x2="-2580.376"
   y2="-5237.3101"
   id="line66" />
</g><g
   transform="matrix(0.50149008,0,0,0.49681316,1407.9708,3737.7934)"
   stroke="#ffffff"
   stroke-width="0.60058"
   opacity="1"
   fill="none"
   id="g68">
<path
   d="m -2015.0913,-5668.4334 c 0,2.2091 1.7909,4 4,4 h 7 c 2.2092,0 4,-1.7909 4,-4 v -66 c 0,-2.2092 -1.7908,-4 -4,-4 h -7 c -2.2091,0 -4,1.7908 -4,4 z"
   fill="#ffffff"
   stroke="none"
   id="path66" />

<path
   d="m -1844.0913,-5497.4334 c 0,2.2091 1.7909,4 4,4 h 66 c 2.2092,0 4,-1.7909 4,-4 v -7 c 0,-2.2092 -1.7908,-4 -4,-4 h -66 c -2.2091,0 -4,1.7908 -4,4 z"
   fill="#ffffff"
   stroke="none"
   id="path67" />

<path
   d="m -2000.0913,-5743.4334 h 235 v 235 h -78 c -3.866,0 -7,-3.134 -7,-7 v -143 h -143 c -3.866,0 -7,-3.134 -7,-7 z"
   fill="#ffffff"
   stroke="none"
   id="path68" />
</g><g
   transform="matrix(0.50149008,0,0,0.49681316,1407.9708,3737.7934)"
   stroke="#000000"
   stroke-width="0.60058"
   opacity="1"
   fill="none"
   id="g75">
<path
   d="m -2000.0913,-5743.4334 h 235 v 235 h -78 c -3.866,0 -7,-3.134 -7,-7 v -143 h -143 c -3.866,0 -7,-3.134 -7,-7 z"
   id="path69" />

<path
   d="m -2015.0913,-5668.4334 c 0,2.2091 1.7909,4 4,4 h 7 c 2.2092,0 4,-1.7909 4,-4 v -66 c 0,-2.2092 -1.7908,-4 -4,-4 h -7 c -2.2091,0 -4,1.7908 -4,4 z"
   id="path70" />

<path
   d="m -1844.0913,-5497.4334 c 0,2.2091 1.7909,4 4,4 h 66 c 2.2092,0 4,-1.7909 4,-4 v -7 c 0,-2.2092 -1.7908,-4 -4,-4 h -66 c -2.2091,0 -4,1.7908 -4,4 z"
   id="path71" />

<path
   d="m -2000.0913,-5718.4334 h 210 v 210"
   id="path72" />

<line
   x1="-1850.0913"
   y1="-5658.4336"
   x2="-1790.0913"
   y2="-5658.4336"
   id="line72" />

<line
   x1="-1850.0913"
   y1="-5658.4336"
   x2="-1850.0913"
   y2="-5718.4336"
   id="line73" />

<line
   x1="-1925.0913"
   y1="-5718.4336"
   x2="-1925.0913"
   y2="-5658.4336"
   id="line74" />

<line
   x1="-1850.0913"
   y1="-5583.4336"
   x2="-1790.0913"
   y2="-5583.4336"
   id="line75" />
</g><g
   transform="matrix(0.50149008,0,0,0.49681316,1407.9708,3737.7934)"
   stroke="#ffffff"
   stroke-width="0.60058"
   opacity="1"
   fill="none"
   id="g77">
<path
   d="m -2680.3759,-6389.5089 c 2.2092,0 4,-1.7909 4,-4 v -7 c 0,-2.2092 -1.7908,-4 -4,-4 h -71 c -2.2091,0 -4,1.7908 -4,4 v 7 c 0,2.2091 1.7909,4 4,4 z"
   fill="#ffffff"
   stroke="none"
   id="path75" />

<path
   d="m -2680.3759,-6564.5089 c 2.2092,0 4,-1.7909 4,-4 v -7 c 0,-2.2092 -1.7908,-4 -4,-4 h -71 c -2.2091,0 -4,1.7908 -4,4 v 7 c 0,2.2091 1.7909,4 4,4 z"
   fill="#ffffff"
   stroke="none"
   id="path76" />

<path
   d="m -2677.3759,-6404.5089 c 3.866,0 7,-3.134 7,-7 v -146 c 0,-3.866 -3.134,-7 -7,-7 h -83 v 160 z"
   fill="#ffffff"
   stroke="none"
   id="path77" />
</g><g
   transform="matrix(0.50149008,0,0,0.49681316,1407.9708,3737.7934)"
   stroke="#000000"
   stroke-width="0.60058"
   opacity="1"
   fill="none"
   id="g81">
<path
   d="m -2680.3759,-6389.5089 c 2.2092,0 4,-1.7909 4,-4 v -7 c 0,-2.2092 -1.7908,-4 -4,-4 h -71 c -2.2091,0 -4,1.7908 -4,4 v 7 c 0,2.2091 1.7909,4 4,4 z"
   id="path78" />

<path
   d="m -2680.3759,-6564.5089 c 2.2092,0 4,-1.7909 4,-4 v -7 c 0,-2.2092 -1.7908,-4 -4,-4 h -71 c -2.2091,0 -4,1.7908 -4,4 v 7 c 0,2.2091 1.7909,4 4,4 z"
   id="path79" />

<path
   d="m -2677.3759,-6404.5089 c 3.866,0 7,-3.134 7,-7 v -146 c 0,-3.866 -3.134,-7 -7,-7 h -83 v 160 z"
   id="path80" />

<line
   x1="-2735.376"
   y1="-6404.5088"
   x2="-2735.376"
   y2="-6564.5088"
   id="line80" />

<line
   x1="-2735.376"
   y1="-6484.5088"
   x2="-2670.376"
   y2="-6484.5088"
   id="line81" />
</g><g
   transform="matrix(0.50149008,0,0,0.49681316,1407.9708,3737.7934)"
   stroke="#ffffff"
   stroke-width="0.60058"
   opacity="1"
   fill="none"
   id="g83">
<path
   d="m -2198.4914,-7003.2197 c 0,2.2091 1.7908,4 4,4 h 7 c 2.2091,0 4,-1.7909 4,-4 v -71 c 0,-2.2092 -1.7909,-4 -4,-4 h -7 c -2.2092,0 -4,1.7908 -4,4 z"
   fill="#ffffff"
   stroke="none"
   id="path81" />

<path
   d="m -2023.4914,-7003.2197 c 0,2.2091 1.7908,4 4,4 h 7 c 2.2091,0 4,-1.7909 4,-4 v -71 c 0,-2.2092 -1.7909,-4 -4,-4 h -7 c -2.2092,0 -4,1.7908 -4,4 z"
   fill="#ffffff"
   stroke="none"
   id="path82" />

<path
   d="m -2183.4914,-7000.2197 c 0,3.8659 3.134,7 7,7 h 146 c 3.866,0 7,-3.1341 7,-7 v -83 h -160 z"
   fill="#ffffff"
   stroke="none"
   id="path83" />
</g><g
   transform="matrix(0.50149008,0,0,0.49681316,1407.9708,3737.7934)"
   stroke="#000000"
   stroke-width="0.60058"
   opacity="1"
   fill="none"
   id="g87">
<path
   d="m -2198.4914,-7003.2197 c 0,2.2091 1.7908,4 4,4 h 7 c 2.2091,0 4,-1.7909 4,-4 v -71 c 0,-2.2092 -1.7909,-4 -4,-4 h -7 c -2.2092,0 -4,1.7908 -4,4 z"
   id="path84" />

<path
   d="m -2023.4914,-7003.2197 c 0,2.2091 1.7908,4 4,4 h 7 c 2.2091,0 4,-1.7909 4,-4 v -71 c 0,-2.2092 -1.7909,-4 -4,-4 h -7 c -2.2092,0 -4,1.7908 -4,4 z"
   id="path85" />

<path
   d="m -2183.4914,-7000.2197 c 0,3.8659 3.134,7 7,7 h 146 c 3.866,0 7,-3.1341 7,-7 v -83 h -160 z"
   id="path86" />

<line
   x1="-2183.4915"
   y1="-7058.2197"
   x2="-2023.4915"
   y2="-7058.2197"
   id="line86" />

<line
   x1="-2103.4915"
   y1="-7058.2197"
   x2="-2103.4915"
   y2="-6993.2197"
   id="line87" />
</g><g
   transform="matrix(0.50149008,0,0,0.49681316,1407.9708,3737.7934)"
   stroke="#ffffff"
   stroke-width="0.60058"
   opacity="1"
   fill="none"
   id="g89">
<path
   d="m -2008.4914,-6898.106 c 0,-2.2091 -1.7909,-4 -4,-4 h -7 c -2.2092,0 -4,1.7909 -4,4 v 71 c 0,2.2092 1.7908,4 4,4 h 7 c 2.2091,0 4,-1.7908 4,-4 z"
   fill="#ffffff"
   stroke="none"
   id="path87" />

<path
   d="m -2183.4914,-6898.106 c 0,-2.2091 -1.7909,-4 -4,-4 h -7 c -2.2092,0 -4,1.7909 -4,4 v 71 c 0,2.2092 1.7908,4 4,4 h 7 c 2.2091,0 4,-1.7908 4,-4 z"
   fill="#ffffff"
   stroke="none"
   id="path88" />

<path
   d="m -2023.4914,-6901.106 c 0,-3.8659 -3.134,-7 -7,-7 h -146 c -3.866,0 -7,3.1341 -7,7 v 83 h 160 z"
   fill="#ffffff"
   stroke="none"
   id="path89" />
</g><g
   transform="matrix(0.50149008,0,0,0.49681316,1407.9708,3737.7934)"
   stroke="#000000"
   stroke-width="0.60058"
   opacity="1"
   fill="none"
   id="g93">
<path
   d="m -2008.4914,-6898.106 c 0,-2.2091 -1.7909,-4 -4,-4 h -7 c -2.2092,0 -4,1.7909 -4,4 v 71 c 0,2.2092 1.7908,4 4,4 h 7 c 2.2091,0 4,-1.7908 4,-4 z"
   id="path90" />

<path
   d="m -2183.4914,-6898.106 c 0,-2.2091 -1.7909,-4 -4,-4 h -7 c -2.2092,0 -4,1.7909 -4,4 v 71 c 0,2.2092 1.7908,4 4,4 h 7 c 2.2091,0 4,-1.7908 4,-4 z"
   id="path91" />

<path
   d="m -2023.4914,-6901.106 c 0,-3.8659 -3.134,-7 -7,-7 h -146 c -3.866,0 -7,3.1341 -7,7 v 83 h 160 z"
   id="path92" />

<line
   x1="-2023.4915"
   y1="-6843.106"
   x2="-2183.4915"
   y2="-6843.106"
   id="line92" />

<line
   x1="-2103.4915"
   y1="-6843.106"
   x2="-2103.4915"
   y2="-6908.106"
   id="line93" />
</g><g
   transform="matrix(0.50149008,0,0,0.49681316,1407.9708,3737.7934)"
   stroke="#ffffff"
   stroke-width="0.60058"
   opacity="1"
   fill="none"
   id="g95">
<path
   d="m -1682.1739,-6128.4628 c 1.42,-1.6923 1.1992,-4.2153 -0.4931,-5.6353 l -5.3623,-4.4995 c -1.6923,-1.42 -4.2153,-1.1993 -5.6353,0.493 l -45.6379,54.3892 c -1.42,1.6923 -1.1993,4.2153 0.493,5.6353 l 5.3623,4.4995 c 1.6923,1.42 4.2153,1.1993 5.6353,-0.493 z"
   fill="#ffffff"
   stroke="none"
   id="path93" />

<path
   d="m -1745.7291,-6181.7919 c 1.42,-1.6923 1.1993,-4.2153 -0.493,-5.6353 l -5.3623,-4.4995 c -1.6923,-1.42 -4.2153,-1.1993 -5.6354,0.493 l -45.6379,54.3892 c -1.42,1.6923 -1.1992,4.2153 0.4931,5.6353 l 5.3623,4.4995 c 1.6923,1.42 4.2153,1.1993 5.6353,-0.493 z"
   fill="#ffffff"
   stroke="none"
   id="path94" />

<path
   d="m -1691.7362,-6140.4027 c 2.485,-2.9615 2.0987,-7.3768 -0.8628,-9.8618 l -41.3399,-34.6883 c -2.9615,-2.485 -7.3768,-2.0987 -9.8618,0.8628 l -53.3514,63.5817 52.0645,43.6873 z"
   fill="#ffffff"
   stroke="none"
   id="path95" />
</g><g
   transform="matrix(0.50149008,0,0,0.49681316,1407.9708,3737.7934)"
   stroke="#000000"
   stroke-width="0.60058"
   opacity="1"
   fill="none"
   id="g98">
<path
   d="m -1682.1739,-6128.4628 c 1.42,-1.6923 1.1992,-4.2153 -0.4931,-5.6353 l -5.3623,-4.4995 c -1.6923,-1.42 -4.2153,-1.1993 -5.6353,0.493 l -45.6379,54.3892 c -1.42,1.6923 -1.1993,4.2153 0.493,5.6353 l 5.3623,4.4995 c 1.6923,1.42 4.2153,1.1993 5.6353,-0.493 z"
   id="path96" />

<path
   d="m -1745.7291,-6181.7919 c 1.42,-1.6923 1.1993,-4.2153 -0.493,-5.6353 l -5.3623,-4.4995 c -1.6923,-1.42 -4.2153,-1.1993 -5.6354,0.493 l -45.6379,54.3892 c -1.42,1.6923 -1.1992,4.2153 0.4931,5.6353 l 5.3623,4.4995 c 1.6923,1.42 4.2153,1.1993 5.6353,-0.493 z"
   id="path97" />

<path
   d="m -1691.7362,-6140.4027 c 2.485,-2.9615 2.0987,-7.3768 -0.8628,-9.8618 l -41.3399,-34.6883 c -2.9615,-2.485 -7.3768,-2.0987 -9.8618,0.8628 l -53.3514,63.5817 52.0645,43.6873 z"
   id="path98" />

<line
   x1="-1729.0179"
   y1="-6095.9722"
   x2="-1781.0824"
   y2="-6139.6597"
   id="line98" />
</g><g
   transform="matrix(0.50149008,0,0,0.49681316,1407.9708,3737.7934)"
   stroke="#ffffff"
   stroke-width="0.60058"
   opacity="1"
   fill="none"
   id="g101">
<path
   d="m -1564.3146,-6222.3194 c -1.5621,-1.5621 -4.0948,-1.5621 -5.6569,0 l -4.9497,4.9497 c -1.5621,1.5621 -1.5621,4.0948 0,5.6569 l 50.2046,50.2046 c 1.5621,1.5621 4.0947,1.5621 5.6568,0 l 4.9498,-4.9498 c 1.5621,-1.5621 1.5621,-4.0947 0,-5.6568 z"
   fill="#ffffff"
   stroke="none"
   id="path99" />

<path
   d="m -1636.7746,-6149.8594 c -1.5621,-1.5621 -4.0948,-1.5621 -5.6569,0 l -4.9497,4.9497 c -1.5621,1.5621 -1.5621,4.0948 0,5.6569 l 50.2045,50.2046 c 1.5621,1.5621 4.0948,1.5621 5.6569,0 l 4.9497,-4.9498 c 1.5621,-1.5621 1.5621,-4.0947 0,-5.6568 z"
   fill="#ffffff"
   stroke="none"
   id="path100" />

<path
   d="m -1577.0425,-6213.8341 c -2.7337,-2.7337 -7.1659,-2.7337 -9.8995,0 l -51.954,51.9539 c -2.7336,2.7336 -2.7336,7.1658 0,9.8995 l 58.6899,58.6898 61.8534,-61.8534 z"
   fill="#ffffff"
   stroke="none"
   id="path101" />
</g><g
   transform="matrix(0.50149008,0,0,0.49681316,1407.9708,3737.7934)"
   stroke="#000000"
   stroke-width="0.60058"
   opacity="1"
   fill="none"
   id="g104">
<path
   d="m -1564.3146,-6222.3194 c -1.5621,-1.5621 -4.0948,-1.5621 -5.6569,0 l -4.9497,4.9497 c -1.5621,1.5621 -1.5621,4.0948 0,5.6569 l 50.2046,50.2046 c 1.5621,1.5621 4.0947,1.5621 5.6568,0 l 4.9498,-4.9498 c 1.5621,-1.5621 1.5621,-4.0947 0,-5.6568 z"
   id="path102" />

<path
   d="m -1636.7746,-6149.8594 c -1.5621,-1.5621 -4.0948,-1.5621 -5.6569,0 l -4.9497,4.9497 c -1.5621,1.5621 -1.5621,4.0948 0,5.6569 l 50.2045,50.2046 c 1.5621,1.5621 4.0948,1.5621 5.6569,0 l 4.9497,-4.9498 c 1.5621,-1.5621 1.5621,-4.0947 0,-5.6568 z"
   id="path103" />

<path
   d="m -1577.0425,-6213.8341 c -2.7337,-2.7337 -7.1659,-2.7337 -9.8995,0 l -51.954,51.9539 c -2.7336,2.7336 -2.7336,7.1658 0,9.8995 l 58.6899,58.6898 61.8534,-61.8534 z"
   id="path104" />

<line
   x1="-1536.0303"
   y1="-6172.8218"
   x2="-1597.8838"
   y2="-6110.9688"
   id="line104" />
</g><g
   transform="matrix(0.50149008,0,0,0.49681316,1407.9708,3737.7934)"
   stroke="#ffffff"
   stroke-width="0.60058"
   opacity="1"
   fill="none"
   id="g107">
<path
   d="m -1565.3544,-6818.106 c -2.2092,0 -4,1.7909 -4,4 v 7 c 0,2.2092 1.7908,4 4,4 h 77.424 c 2.2091,0 4,-1.7908 4,-4 v -7 c 0,-2.2091 -1.7909,-4 -4,-4 z"
   fill="#ffffff"
   stroke="none"
   id="path105" />

<path
   d="m -1565.3544,-6582.8587 c -2.2092,0 -4,1.7909 -4,4 v 7 c 0,2.2092 1.7908,4 4,4 h 77.424 c 2.2091,0 4,-1.7908 4,-4 v -7 c 0,-2.2091 -1.7909,-4 -4,-4 z"
   fill="#ffffff"
   stroke="none"
   id="path106" />

<path
   d="m -1568.3544,-6803.106 c -3.866,0 -7,3.1341 -7,7 v 206.2473 c 0,3.866 3.134,7 7,7 h 89.424 v -220.2473 z"
   fill="#ffffff"
   stroke="none"
   id="path107" />
</g><g
   transform="matrix(0.50149008,0,0,0.49681316,1407.9708,3737.7934)"
   stroke="#000000"
   stroke-width="0.60058"
   opacity="1"
   fill="none"
   id="g111">
<path
   d="m -1565.3544,-6818.106 c -2.2092,0 -4,1.7909 -4,4 v 7 c 0,2.2092 1.7908,4 4,4 h 77.424 c 2.2091,0 4,-1.7908 4,-4 v -7 c 0,-2.2091 -1.7909,-4 -4,-4 z"
   id="path108" />

<path
   d="m -1565.3544,-6582.8587 c -2.2092,0 -4,1.7909 -4,4 v 7 c 0,2.2092 1.7908,4 4,4 h 77.424 c 2.2091,0 4,-1.7908 4,-4 v -7 c 0,-2.2091 -1.7909,-4 -4,-4 z"
   id="path109" />

<path
   d="m -1568.3544,-6803.106 c -3.866,0 -7,3.1341 -7,7 v 206.2473 c 0,3.866 3.134,7 7,7 h 89.424 v -220.2473 z"
   id="path110" />

<line
   x1="-1503.9304"
   y1="-6803.106"
   x2="-1503.9304"
   y2="-6582.8589"
   id="line110" />

<line
   x1="-1503.9304"
   y1="-6692.9824"
   x2="-1575.3544"
   y2="-6692.9824"
   id="line111" />
</g><g
   transform="matrix(0.50149008,0,0,0.49681316,1407.9708,3737.7934)"
   stroke="#ffffff"
   stroke-width="0.60058"
   opacity="1"
   fill="none"
   id="g112">
<path
   d="m -1961.053,-6928.8554 h 187.0263 v -41.5836 h -187.0263 z"
   fill="#ffffff"
   stroke="none"
   id="path111" />
</g><g
   transform="matrix(0.50149008,0,0,0.49681316,1407.9708,3737.7934)"
   stroke="#000000"
   stroke-width="0.60058"
   opacity="1"
   fill="none"
   id="g113">
<path
   d="m -1961.053,-6928.8554 h 187.0263 v -41.5836 h -187.0263 z"
   id="path112" />
</g><g
   transform="matrix(0.50149008,0,0,0.49681316,1407.9708,3737.7934)"
   stroke="#ffffff"
   stroke-width="0.60058"
   opacity="1"
   fill="none"
   id="g114">
<path
   d="m -1831.7916,-6970.439 v -100 h -48.6612 v 100 z"
   fill="#ffffff"
   stroke="none"
   id="path113" />
</g><g
   transform="matrix(0.50149008,0,0,0.49681316,1407.9708,3737.7934)"
   stroke="#000000"
   stroke-width="0.60058"
   opacity="1"
   fill="none"
   id="g115">
<path
   d="m -1831.7916,-6970.439 v -100 h -48.6612 v 100 z"
   id="path114" />
</g><g
   transform="matrix(0.50149008,0,0,0.49681316,1407.9708,3737.7934)"
   stroke="#ffffff"
   stroke-width="0.60058"
   opacity="1"
   fill="none"
   id="g116">
<path
   d="m -2008.4914,-7438.0578 h 100 v -70 h -100 z"
   fill="#ffffff"
   stroke="none"
   id="path115" />
</g><g
   transform="matrix(0.50149008,0,0,0.49681316,1407.9708,3737.7934)"
   stroke="#000000"
   stroke-width="0.60058"
   opacity="1"
   fill="none"
   id="g117">
<path
   d="m -2008.4914,-7438.0578 h 100 v -70 h -100 z"
   id="path116" />
</g><g
   transform="matrix(0.50149008,0,0,0.49681316,1407.9708,3737.7934)"
   stroke="#ffffff"
   stroke-width="0.60058"
   opacity="1"
   fill="none"
   id="g118">
<path
   d="m -2197.6973,-7437.5565 h 100 v -70 h -100 z"
   fill="#ffffff"
   stroke="none"
   id="path117" />
</g><g
   transform="matrix(0.50149008,0,0,0.49681316,1407.9708,3737.7934)"
   stroke="#000000"
   stroke-width="0.60058"
   opacity="1"
   fill="none"
   id="g119">
<path
   d="m -2197.6973,-7437.5565 h 100 v -70 h -100 z"
   id="path118" />
</g><g
   transform="matrix(0.50149008,0,0,0.49681316,1407.9708,3737.7934)"
   stroke="#ffffff"
   stroke-width="0.60058"
   opacity="1"
   fill="none"
   id="g120">
<path
   d="m -2265.7825,-7273.8206 v -100 h -70 v 100 z"
   fill="#ffffff"
   stroke="none"
   id="path119" />
</g><g
   transform="matrix(0.50149008,0,0,0.49681316,1407.9708,3737.7934)"
   stroke="#000000"
   stroke-width="0.60058"
   opacity="1"
   fill="none"
   id="g121">
<path
   d="m -2265.7825,-7273.8206 v -100 h -70 v 100 z"
   id="path120" />
</g><g
   transform="matrix(0.50149008,0,0,0.49681316,1407.9708,3737.7934)"
   stroke="#ffffff"
   stroke-width="0.60058"
   opacity="1"
   fill="none"
   id="g122">
<path
   d="m -2265.7825,-7173.8206 v -100 h -70 v 100 z"
   fill="#ffffff"
   stroke="none"
   id="path121" />
</g><g
   transform="matrix(0.50149008,0,0,0.49681316,1407.9708,3737.7934)"
   stroke="#000000"
   stroke-width="0.60058"
   opacity="1"
   fill="none"
   id="g123">
<path
   d="m -2265.7825,-7173.8206 v -100 h -70 v 100 z"
   id="path122" />
</g><g
   transform="matrix(0.50149008,0,0,0.49681316,1407.9708,3737.7934)"
   stroke="#ffffff"
   stroke-width="0.60058"
   opacity="1"
   fill="none"
   id="g124">
<path
   d="m -2721.3285,-6747.7618 v -100 h -70 v 100 z"
   fill="#ffffff"
   stroke="none"
   id="path123" />
</g><g
   transform="matrix(0.50149008,0,0,0.49681316,1407.9708,3737.7934)"
   stroke="#000000"
   stroke-width="0.60058"
   opacity="1"
   fill="none"
   id="g125">
<path
   d="m -2721.3285,-6747.7618 v -100 h -70 v 100 z"
   id="path124" />
</g><g
   transform="matrix(0.50149008,0,0,0.49681316,1407.9708,3737.7934)"
   stroke="#ffffff"
   stroke-width="0.60058"
   opacity="1"
   fill="none"
   id="g126">
<path
   d="m -2365.7825,-6583.9257 h 100 v -70 h -100 z"
   fill="#ffffff"
   stroke="none"
   id="path125" />
</g><g
   transform="matrix(0.50149008,0,0,0.49681316,1407.9708,3737.7934)"
   stroke="#000000"
   stroke-width="0.60058"
   opacity="1"
   fill="none"
   id="g127">
<path
   d="m -2365.7825,-6583.9257 h 100 v -70 h -100 z"
   id="path126" />
</g><g
   transform="matrix(0.50149008,0,0,0.49681316,1407.9708,3737.7934)"
   stroke="#ffffff"
   stroke-width="0.60058"
   opacity="1"
   fill="none"
   id="g128">
<path
   d="m -2465.7825,-6583.9257 h 100 v -70 h -100 z"
   fill="#ffffff"
   stroke="none"
   id="path127" />
</g><g
   transform="matrix(0.50149008,0,0,0.49681316,1407.9708,3737.7934)"
   stroke="#000000"
   stroke-width="0.60058"
   opacity="1"
   fill="none"
   id="g129">
<path
   d="m -2465.7825,-6583.9257 h 100 v -70 h -100 z"
   id="path128" />
</g><g
   transform="matrix(0.50149008,0,0,0.49681316,1407.9708,3737.7934)"
   stroke="#ffffff"
   stroke-width="0.60058"
   opacity="1"
   fill="none"
   id="g130">
<path
   d="m -1961.053,-6513.9257 h 100 v -70 h -100 z"
   fill="#ffffff"
   stroke="none"
   id="path129" />
</g><g
   transform="matrix(0.50149008,0,0,0.49681316,1407.9708,3737.7934)"
   stroke="#000000"
   stroke-width="0.60058"
   opacity="1"
   fill="none"
   id="g131">
<path
   d="m -1961.053,-6513.9257 h 100 v -70 h -100 z"
   id="path130" />
</g><g
   transform="matrix(0.50149008,0,0,0.49681316,1407.9708,3737.7934)"
   stroke="#ffffff"
   stroke-width="0.60058"
   opacity="1"
   fill="none"
   id="g132">
<path
   d="m -1865.0913,-6513.9257 h 100 v -70 h -100 z"
   fill="#ffffff"
   stroke="none"
   id="path131" />
</g><g
   transform="matrix(0.50149008,0,0,0.49681316,1407.9708,3737.7934)"
   stroke="#000000"
   stroke-width="0.60058"
   opacity="1"
   fill="none"
   id="g133">
<path
   d="m -1865.0913,-6513.9257 h 100 v -70 h -100 z"
   id="path132" />
</g><g
   transform="matrix(0.50149008,0,0,0.49681316,1407.9708,3737.7934)"
   stroke="#ffffff"
   stroke-width="0.60058"
   opacity="1"
   fill="none"
   id="g134">
<path
   d="m -1765.0913,-6513.9257 h 100 v -70 h -100 z"
   fill="#ffffff"
   stroke="none"
   id="path133" />
</g><g
   transform="matrix(0.50149008,0,0,0.49681316,1407.9708,3737.7934)"
   stroke="#000000"
   stroke-width="0.60058"
   opacity="1"
   fill="none"
   id="g135">
<path
   d="m -1765.0913,-6513.9257 h 100 v -70 h -100 z"
   id="path134" />
</g><g
   transform="matrix(0.50149008,0,0,0.49681316,1407.9708,3737.7934)"
   stroke="#ffffff"
   stroke-width="0.60058"
   opacity="1"
   fill="none"
   id="g136">
<path
   d="m -1704.0267,-6413.9257 v -100 h -70 v 100 z"
   fill="#ffffff"
   stroke="none"
   id="path135" />
</g><g
   transform="matrix(0.50149008,0,0,0.49681316,1407.9708,3737.7934)"
   stroke="#000000"
   stroke-width="0.60058"
   opacity="1"
   fill="none"
   id="g137">
<path
   d="m -1704.0267,-6413.9257 v -100 h -70 v 100 z"
   id="path136" />
</g><g
   transform="matrix(0.50149008,0,0,0.49681316,1407.9708,3737.7934)"
   stroke="#ffffff"
   stroke-width="0.60058"
   opacity="1"
   fill="none"
   id="g138">
<path
   d="m -2435.7825,-6389.464 h 100 v -70 h -100 z"
   fill="#ffffff"
   stroke="none"
   id="path137" />
</g><g
   transform="matrix(0.50149008,0,0,0.49681316,1407.9708,3737.7934)"
   stroke="#000000"
   stroke-width="0.60058"
   opacity="1"
   fill="none"
   id="g139">
<path
   d="m -2435.7825,-6389.464 h 100 v -70 h -100 z"
   id="path138" />
</g><g
   transform="matrix(0.50149008,0,0,0.49681316,1407.9708,3737.7934)"
   stroke="#ffffff"
   stroke-width="0.60058"
   opacity="1"
   fill="none"
   id="g140">
<path
   d="m -2335.7825,-6389.464 h 100 v -70 h -100 z"
   fill="#ffffff"
   stroke="none"
   id="path139" />
</g><g
   transform="matrix(0.50149008,0,0,0.49681316,1407.9708,3737.7934)"
   stroke="#000000"
   stroke-width="0.60058"
   opacity="1"
   fill="none"
   id="g141">
<path
   d="m -2335.7825,-6389.464 h 100 v -70 h -100 z"
   id="path140" />
</g><g
   transform="matrix(0.50149008,0,0,0.49681316,1407.9708,3737.7934)"
   stroke="#ffffff"
   stroke-width="0.60058"
   opacity="1"
   fill="none"
   id="g142">
<path
   d="m -2165.7825,-6359.464 v -100 h -70 v 100 z"
   fill="#ffffff"
   stroke="none"
   id="path141" />
</g><g
   transform="matrix(0.50149008,0,0,0.49681316,1407.9708,3737.7934)"
   stroke="#000000"
   stroke-width="0.60058"
   opacity="1"
   fill="none"
   id="g143">
<path
   d="m -2165.7825,-6359.464 v -100 h -70 v 100 z"
   id="path142" />
</g><g
   transform="matrix(0.50149008,0,0,0.49681316,1407.9708,3737.7934)"
   stroke="#ffffff"
   stroke-width="0.60058"
   opacity="1"
   fill="none"
   id="g144">
<path
   d="m -2600.3759,-6051.5281 v -100 h -70 v 100 z"
   fill="#ffffff"
   stroke="none"
   id="path143" />
</g><g
   transform="matrix(0.50149008,0,0,0.49681316,1407.9708,3737.7934)"
   stroke="#000000"
   stroke-width="0.60058"
   opacity="1"
   fill="none"
   id="g145">
<path
   d="m -2600.3759,-6051.5281 v -100 h -70 v 100 z"
   id="path144" />
</g><g
   transform="matrix(0.50149008,0,0,0.49681316,1407.9708,3737.7934)"
   stroke="#ffffff"
   stroke-width="0.60058"
   opacity="1"
   fill="none"
   id="g146">
<path
   d="m -2600.3759,-5946.7507 v -100 h -70 v 100 z"
   fill="#ffffff"
   stroke="none"
   id="path145" />
</g><g
   transform="matrix(0.50149008,0,0,0.49681316,1407.9708,3737.7934)"
   stroke="#000000"
   stroke-width="0.60058"
   opacity="1"
   fill="none"
   id="g147">
<path
   d="m -2600.3759,-5946.7507 v -100 h -70 v 100 z"
   id="path146" />
</g><g
   transform="matrix(0.50149008,0,0,0.49681316,1407.9708,3737.7934)"
   stroke="#ffffff"
   stroke-width="0.60058"
   opacity="1"
   fill="none"
   id="g148">
<path
   d="m -2429.8356,-5628.8964 v -247.9646 h 232.1383 v 22.7967 h -207.147 v 225.1679 z"
   fill="#ffffff"
   stroke="none"
   id="path147" />
</g><g
   transform="matrix(0.50149008,0,0,0.49681316,1407.9708,3737.7934)"
   stroke="#000000"
   stroke-width="0.60058"
   opacity="1"
   fill="none"
   id="g149">
<path
   d="m -2429.8356,-5628.8964 v -247.9646 h 232.1383 v 22.7967 h -207.147 v 225.1679 z"
   id="path148" />
</g><g
   transform="matrix(0.50149008,0,0,0.49681316,1407.9708,3737.7934)"
   stroke="#ffffff"
   stroke-width="0.60058"
   opacity="1"
   fill="none"
   id="g150">
<path
   d="m -2397.9207,-5042.3101 v -247.9646 h 232.1382 v 22.7967 h -207.1469 v 225.1679 z"
   fill="#ffffff"
   stroke="none"
   id="path149" />
</g><g
   transform="matrix(0.50149008,0,0,0.49681316,1407.9708,3737.7934)"
   stroke="#000000"
   stroke-width="0.60058"
   opacity="1"
   fill="none"
   id="g151">
<path
   d="m -2397.9207,-5042.3101 v -247.9646 h 232.1382 v 22.7967 h -207.1469 v 225.1679 z"
   id="path150" />
</g><g
   transform="matrix(0.50149008,0,0,0.49681316,1407.9708,3737.7934)"
   stroke="#ffffff"
   stroke-width="0.60058"
   opacity="1"
   fill="none"
   id="g152">
<path
   d="m -2094.1345,-5154.3101 h 100 v -70 h -100 z"
   fill="#ffffff"
   stroke="none"
   id="path151" />
</g><g
   transform="matrix(0.50149008,0,0,0.49681316,1407.9708,3737.7934)"
   stroke="#000000"
   stroke-width="0.60058"
   opacity="1"
   fill="none"
   id="g153">
<path
   d="m -2094.1345,-5154.3101 h 100 v -70 h -100 z"
   id="path152" />
</g><g
   transform="matrix(0.50149008,0,0,0.49681316,1407.9708,3737.7934)"
   stroke="#ffffff"
   stroke-width="0.60058"
   opacity="1"
   fill="none"
   id="g154">
<path
   d="m -2529.8356,-4815.1932 h 100 v -70 h -100 z"
   fill="#ffffff"
   stroke="none"
   id="path153" />
</g><g
   transform="matrix(0.50149008,0,0,0.49681316,1407.9708,3737.7934)"
   stroke="#000000"
   stroke-width="0.60058"
   opacity="1"
   fill="none"
   id="g155">
<path
   d="m -2529.8356,-4815.1932 h 100 v -70 h -100 z"
   id="path154" />
</g><g
   transform="matrix(0.50149008,0,0,0.49681316,1407.9708,3737.7934)"
   stroke="#ffffff"
   stroke-width="0.60058"
   opacity="1"
   fill="none"
   id="g156">
<path
   d="m -1736.7933,-6247.952 93.9693,-34.2021 -1.0945,-3.007 -9.3969,3.4202 -4.4608,-3.4844 -69.5373,25.3094 -1.1773,5.5366 -9.397,3.4202"
   fill="#ffffff"
   stroke="none"
   id="path155" />
</g><g
   transform="matrix(0.50149008,0,0,0.49681316,1407.9708,3737.7934)"
   stroke="#000000"
   stroke-width="0.60058"
   opacity="1"
   fill="none"
   id="g157">
<path
   d="m -1736.7933,-6247.952 93.9693,-34.2021 -1.0945,-3.007 -9.3969,3.4202 -4.4608,-3.4844 -69.5373,25.3094 -1.1773,5.5366 -9.397,3.4202 z"
   id="path156" />

<path
   d="m -1653.3154,-6281.7409 -75.1754,27.3616"
   id="path157" />
</g><g
   transform="matrix(0.50149008,0,0,0.49681316,1407.9708,3737.7934)"
   stroke="#ffffff"
   stroke-width="0.60058"
   opacity="1"
   fill="none"
   id="g158">
<path
   d="m -1468.24,-5671.5565 v 80 h 277.4253 v -80 z"
   fill="#ffffff"
   stroke="none"
   id="path158" />
</g><g
   transform="matrix(0.50149008,0,0,0.49681316,1407.9708,3737.7934)"
   stroke="#000000"
   stroke-width="0.60058"
   opacity="1"
   fill="none"
   id="g163">
<path
   d="m -1468.24,-5671.5565 v 80 h 277.4253 v -80 z"
   id="path159" />

<path
   d="m -1468.24,-5667.5565 h 277.4253"
   id="path160" />

<path
   d="m -1468.24,-5595.5565 h 277.4253"
   id="path161" />

<line
   x1="-1468.24"
   y1="-5631.5566"
   x2="-1190.8147"
   y2="-5631.5566"
   id="line161" />

<line
   x1="-1205.8147"
   y1="-5641.5566"
   x2="-1190.8147"
   y2="-5631.5566"
   id="line162" />

<line
   x1="-1205.8147"
   y1="-5621.5566"
   x2="-1190.8147"
   y2="-5631.5566"
   id="line163" />
</g><g
   transform="matrix(0.50149008,0,0,0.49681316,1407.9708,3737.7934)"
   stroke="#ffffff"
   stroke-width="0.60058"
   opacity="1"
   fill="none"
   id="g164">
<path
   d="m -1461.284,-5446.5017 v 78.9452 h 270.7957 v -78.9452 z"
   fill="#ffffff"
   stroke="none"
   id="path163" />
</g><g
   transform="matrix(0.50149008,0,0,0.49681316,1407.9708,3737.7934)"
   stroke="#000000"
   stroke-width="0.60058"
   opacity="1"
   fill="none"
   id="g187">
<path
   d="m -1461.284,-5446.5017 v 78.9452 h 270.7957 v -78.9452 z"
   id="path164" />

<path
   d="m -1461.284,-5442.5017 h 270.7957"
   id="path165" />

<path
   d="m -1461.284,-5371.5565 h 270.7957"
   id="path166" />

<line
   x1="-1461.2839"
   y1="-5407.0293"
   x2="-1190.4883"
   y2="-5407.0293"
   id="line166" />

<line
   x1="-1205.4883"
   y1="-5417.0293"
   x2="-1190.4883"
   y2="-5407.0293"
   id="line167" />

<line
   x1="-1205.4883"
   y1="-5397.0293"
   x2="-1190.4883"
   y2="-5407.0293"
   id="line168" />

<path
   d="m -1467.8456,-7218.0578 v 98.0185"
   id="path168" />

<path
   d="m -1477.8456,-7120.0393 v -5 h 10"
   id="path169" />

<path
   d="m -1477.8456,-7218.0578 v 5 h 10 88.0185 c 0,48.6113 -39.4072,88.0185 -88.0185,88.0185"
   id="path170" />

<line
   x1="-1467.8456"
   y1="-7208.0576"
   x2="-1379.9692"
   y2="-7208.0576"
   id="line170" />

<path
   d="m -1319.9529,-6261.5208 v -97.6105"
   id="path171" />

<path
   d="m -1329.9529,-6359.1313 v 5 h 10"
   id="path172" />

<path
   d="m -1329.9529,-6261.5208 v -5 h 10 87.6104 c 0,-48.3859 -39.2245,-87.6105 -87.6104,-87.6105"
   id="path173" />

<line
   x1="-1319.9529"
   y1="-6271.521"
   x2="-1232.4852"
   y2="-6271.521"
   id="line173" />

<path
   d="m -1452.1454,-6388.5089 h 96.286"
   id="path174" />

<path
   d="m -1355.8594,-6378.5089 h -5 v -10"
   id="path175" />

<path
   d="m -1452.1454,-6378.5089 h 5 v -10 -86.286 c 47.6545,0 86.286,38.6316 86.286,86.286"
   id="path176" />

<line
   x1="-1442.1454"
   y1="-6388.5088"
   x2="-1442.1454"
   y2="-6474.6499"
   id="line176" />

<path
   d="m -1477.845,-5043.7495 v -5 h 49.9999 c 0,-24.8528 -17.9086,-44.9999 -39.9999,-44.9999 22.0913,0 39.9999,-20.1472 39.9999,-44.9999 h -49.9999 v -5"
   id="path177" />

<line
   x1="-1467.845"
   y1="-5043.7495"
   x2="-1467.845"
   y2="-5143.7495"
   id="line177" />

<line
   x1="-1467.845"
   y1="-5053.7495"
   x2="-1428.1588"
   y2="-5053.7495"
   id="line178" />

<line
   x1="-1467.845"
   y1="-5133.7495"
   x2="-1428.1588"
   y2="-5133.7495"
   id="line179" />

<path
   d="m -1288.3571,-6068.3478 v -5 h -61.6849 c 0,-31.3062 23.1401,-56.6849 51.6849,-56.6849 -28.5448,0 -51.6849,-25.3787 -51.6849,-56.6849 h 61.6849 v -5"
   id="path179" />

<line
   x1="-1298.3572"
   y1="-6068.3477"
   x2="-1298.3572"
   y2="-6191.7178"
   id="line180" />

<line
   x1="-1298.3572"
   y1="-6078.3477"
   x2="-1349.7996"
   y2="-6078.3477"
   id="line181" />

<line
   x1="-1298.3572"
   y1="-6181.7178"
   x2="-1349.7996"
   y2="-6181.7178"
   id="line182" />

<path
   d="m -1470.0337,-3698.6413 0.3337,-139.3084"
   id="path182" />

<path
   d="m -1479.7,-3837.9736 -0.012,4.9999 9.9999,0.024"
   id="path183" />

<path
   d="m -1480.0337,-3698.6653 0.012,-5 10,0.024 129.3083,0.3097 c 0.1711,-71.415 -57.5835,-129.447 -128.9986,-129.6181"
   id="path184" />

<line
   x1="-1470.0098"
   y1="-3708.6414"
   x2="-1340.7981"
   y2="-3708.3318"
   id="line184" />

<path
   d="m -1287.1566,-4868.7517 v -5 l -60,-0.042 c 0.021,-30.3757 22.4243,-54.9843 50.0385,-54.965 -27.6142,-0.019 -49.9827,-24.6593 -49.9614,-55.035 l 60,0.042 v -5"
   id="path185" />

<line
   x1="-1297.1565"
   y1="-4868.7588"
   x2="-1297.0724"
   y2="-4988.7588"
   id="line185" />

<line
   x1="-1297.1495"
   y1="-4878.7588"
   x2="-1346.8989"
   y2="-4878.7935"
   id="line186" />

<line
   x1="-1297.0795"
   y1="-4978.7588"
   x2="-1346.8287"
   y2="-4978.7935"
   id="line187" />
</g><g
   transform="matrix(0.50149008,0,0,0.49681316,1407.9708,3737.7934)"
   stroke="#ffffff"
   stroke-width="0.60058"
   opacity="1"
   fill="none"
   id="g188">
<path
   d="m -998.56833,-5142.3101 h -139.99997 v 300 h 139.99997 z"
   fill="#ffffff"
   stroke="none"
   id="path187" />
</g><g
   transform="matrix(0.50149008,0,0,0.49681316,1407.9708,3737.7934)"
   stroke="#000000"
   stroke-width="0.60058"
   opacity="1"
   fill="none"
   id="g203">
<path
   d="m -998.56833,-5142.3101 h -139.99997 v 300 h 139.99997 z"
   id="path188" />

<path
   d="m -1002.5683,-5142.3101 v 300"
   id="path189" />

<path
   d="m -1134.5683,-5142.3101 v 300"
   id="path190" />

<line
   x1="-998.56836"
   y1="-4867.3101"
   x2="-1138.5684"
   y2="-4867.3101"
   id="line190" />

<line
   x1="-998.56836"
   y1="-4892.3101"
   x2="-1138.5684"
   y2="-4892.3101"
   id="line191" />

<line
   x1="-998.56836"
   y1="-4917.3101"
   x2="-1138.5684"
   y2="-4917.3101"
   id="line192" />

<line
   x1="-998.56836"
   y1="-4942.3101"
   x2="-1138.5684"
   y2="-4942.3101"
   id="line193" />

<line
   x1="-998.56836"
   y1="-4967.3101"
   x2="-1138.5684"
   y2="-4967.3101"
   id="line194" />

<line
   x1="-998.56836"
   y1="-4992.3101"
   x2="-1138.5684"
   y2="-4992.3101"
   id="line195" />

<line
   x1="-998.56836"
   y1="-5017.3101"
   x2="-1138.5684"
   y2="-5017.3101"
   id="line196" />

<line
   x1="-998.56836"
   y1="-5042.3101"
   x2="-1138.5684"
   y2="-5042.3101"
   id="line197" />

<line
   x1="-998.56836"
   y1="-5067.3101"
   x2="-1138.5684"
   y2="-5067.3101"
   id="line198" />

<line
   x1="-998.56836"
   y1="-5092.3101"
   x2="-1138.5684"
   y2="-5092.3101"
   id="line199" />

<line
   x1="-998.56836"
   y1="-5117.3101"
   x2="-1138.5684"
   y2="-5117.3101"
   id="line200" />

<line
   x1="-1068.5684"
   y1="-5142.3101"
   x2="-1068.5684"
   y2="-4842.3101"
   id="line201" />

<line
   x1="-1058.5684"
   y1="-4857.3101"
   x2="-1068.5684"
   y2="-4842.3101"
   id="line202" />

<line
   x1="-1078.5684"
   y1="-4857.3101"
   x2="-1068.5684"
   y2="-4842.3101"
   id="line203" />
</g><g
   transform="matrix(0.50149008,0,0,0.49681316,1407.9708,3737.7934)"
   stroke="#ffffff"
   stroke-width="0.60058"
   opacity="1"
   fill="none"
   id="g204">
<path
   d="m -858.56833,-6065.5565 h -140 v 301.8452 h 140 z"
   fill="#ffffff"
   stroke="none"
   id="path203" />
</g><g
   transform="matrix(0.50149008,0,0,0.49681316,1407.9708,3737.7934)"
   stroke="#000000"
   stroke-width="0.60058"
   opacity="1"
   fill="none"
   id="g219">
<path
   d="m -858.56833,-6065.5565 h -140 v 301.8452 h 140 z"
   id="path204" />

<path
   d="m -862.56833,-6065.5565 v 301.8452"
   id="path205" />

<path
   d="m -994.56833,-6065.5565 v 301.8452"
   id="path206" />

<line
   x1="-858.56836"
   y1="-5788.8652"
   x2="-998.56836"
   y2="-5788.8652"
   id="line206" />

<line
   x1="-858.56836"
   y1="-5814.019"
   x2="-998.56836"
   y2="-5814.019"
   id="line207" />

<line
   x1="-858.56836"
   y1="-5839.1724"
   x2="-998.56836"
   y2="-5839.1724"
   id="line208" />

<line
   x1="-858.56836"
   y1="-5864.3262"
   x2="-998.56836"
   y2="-5864.3262"
   id="line209" />

<line
   x1="-858.56836"
   y1="-5889.48"
   x2="-998.56836"
   y2="-5889.48"
   id="line210" />

<line
   x1="-858.56836"
   y1="-5914.6338"
   x2="-998.56836"
   y2="-5914.6338"
   id="line211" />

<line
   x1="-858.56836"
   y1="-5939.7876"
   x2="-998.56836"
   y2="-5939.7876"
   id="line212" />

<line
   x1="-858.56836"
   y1="-5964.9414"
   x2="-998.56836"
   y2="-5964.9414"
   id="line213" />

<line
   x1="-858.56836"
   y1="-5990.0952"
   x2="-998.56836"
   y2="-5990.0952"
   id="line214" />

<line
   x1="-858.56836"
   y1="-6015.249"
   x2="-998.56836"
   y2="-6015.249"
   id="line215" />

<line
   x1="-858.56836"
   y1="-6040.4028"
   x2="-998.56836"
   y2="-6040.4028"
   id="line216" />

<line
   x1="-928.56836"
   y1="-6065.5566"
   x2="-928.56836"
   y2="-5763.7114"
   id="line217" />

<line
   x1="-918.56836"
   y1="-5778.7114"
   x2="-928.56836"
   y2="-5763.7114"
   id="line218" />

<line
   x1="-938.56836"
   y1="-5778.7114"
   x2="-928.56836"
   y2="-5763.7114"
   id="line219" />
</g><g
   transform="matrix(0.50149008,0,0,0.49681316,1407.9708,3737.7934)"
   stroke="#ffffff"
   stroke-width="0.60058"
   opacity="1"
   fill="none"
   id="g220">
<path
   d="m -1138.5683,-5763.7113 h 139.99997 v -301.8452 h -139.99997 z"
   fill="#ffffff"
   stroke="none"
   id="path219" />
</g><g
   transform="matrix(0.50149008,0,0,0.49681316,1407.9708,3737.7934)"
   stroke="#000000"
   stroke-width="0.60058"
   opacity="1"
   fill="none"
   id="g235">
<path
   d="m -1138.5683,-5763.7113 h 139.99997 v -301.8452 h -139.99997 z"
   id="path220" />

<path
   d="m -1134.5683,-5763.7113 v -301.8452"
   id="path221" />

<path
   d="m -1002.5683,-5763.7113 v -301.8452"
   id="path222" />

<line
   x1="-1138.5684"
   y1="-6040.4028"
   x2="-998.56836"
   y2="-6040.4028"
   id="line222" />

<line
   x1="-1138.5684"
   y1="-6015.249"
   x2="-998.56836"
   y2="-6015.249"
   id="line223" />

<line
   x1="-1138.5684"
   y1="-5990.0952"
   x2="-998.56836"
   y2="-5990.0952"
   id="line224" />

<line
   x1="-1138.5684"
   y1="-5964.9414"
   x2="-998.56836"
   y2="-5964.9414"
   id="line225" />

<line
   x1="-1138.5684"
   y1="-5939.7876"
   x2="-998.56836"
   y2="-5939.7876"
   id="line226" />

<line
   x1="-1138.5684"
   y1="-5914.6338"
   x2="-998.56836"
   y2="-5914.6338"
   id="line227" />

<line
   x1="-1138.5684"
   y1="-5889.48"
   x2="-998.56836"
   y2="-5889.48"
   id="line228" />

<line
   x1="-1138.5684"
   y1="-5864.3262"
   x2="-998.56836"
   y2="-5864.3262"
   id="line229" />

<line
   x1="-1138.5684"
   y1="-5839.1724"
   x2="-998.56836"
   y2="-5839.1724"
   id="line230" />

<line
   x1="-1138.5684"
   y1="-5814.019"
   x2="-998.56836"
   y2="-5814.019"
   id="line231" />

<line
   x1="-1138.5684"
   y1="-5788.8652"
   x2="-998.56836"
   y2="-5788.8652"
   id="line232" />

<line
   x1="-1068.5684"
   y1="-5763.7114"
   x2="-1068.5684"
   y2="-6065.5566"
   id="line233" />

<line
   x1="-1078.5684"
   y1="-6050.5566"
   x2="-1068.5684"
   y2="-6065.5566"
   id="line234" />

<line
   x1="-1058.5684"
   y1="-6050.5566"
   x2="-1068.5684"
   y2="-6065.5566"
   id="line235" />
</g><g
   transform="matrix(0.50149008,0,0,0.49681316,1407.9708,3737.7934)"
   stroke="#ffffff"
   stroke-width="0.60058"
   opacity="1"
   fill="none"
   id="g236">
<path
   d="m -998.56833,-4842.3101 h 140 v -300 h -140 z"
   fill="#ffffff"
   stroke="none"
   id="path235" />
</g><g
   transform="matrix(0.50149008,0,0,0.49681316,1407.9708,3737.7934)"
   stroke="#000000"
   stroke-width="0.60058"
   opacity="1"
   fill="none"
   id="g251">
<path
   d="m -998.56833,-4842.3101 h 140 v -300 h -140 z"
   id="path236" />

<path
   d="m -994.56833,-4842.3101 v -300"
   id="path237" />

<path
   d="m -862.56833,-4842.3101 v -300"
   id="path238" />

<line
   x1="-998.56836"
   y1="-5117.3101"
   x2="-858.56836"
   y2="-5117.3101"
   id="line238" />

<line
   x1="-998.56836"
   y1="-5092.3101"
   x2="-858.56836"
   y2="-5092.3101"
   id="line239" />

<line
   x1="-998.56836"
   y1="-5067.3101"
   x2="-858.56836"
   y2="-5067.3101"
   id="line240" />

<line
   x1="-998.56836"
   y1="-5042.3101"
   x2="-858.56836"
   y2="-5042.3101"
   id="line241" />

<line
   x1="-998.56836"
   y1="-5017.3101"
   x2="-858.56836"
   y2="-5017.3101"
   id="line242" />

<line
   x1="-998.56836"
   y1="-4992.3101"
   x2="-858.56836"
   y2="-4992.3101"
   id="line243" />

<line
   x1="-998.56836"
   y1="-4967.3101"
   x2="-858.56836"
   y2="-4967.3101"
   id="line244" />

<line
   x1="-998.56836"
   y1="-4942.3101"
   x2="-858.56836"
   y2="-4942.3101"
   id="line245" />

<line
   x1="-998.56836"
   y1="-4917.3101"
   x2="-858.56836"
   y2="-4917.3101"
   id="line246" />

<line
   x1="-998.56836"
   y1="-4892.3101"
   x2="-858.56836"
   y2="-4892.3101"
   id="line247" />

<line
   x1="-998.56836"
   y1="-4867.3101"
   x2="-858.56836"
   y2="-4867.3101"
   id="line248" />

<line
   x1="-928.56836"
   y1="-4842.3101"
   x2="-928.56836"
   y2="-5142.3101"
   id="line249" />

<line
   x1="-938.56836"
   y1="-5127.3101"
   x2="-928.56836"
   y2="-5142.3101"
   id="line250" />

<line
   x1="-918.56836"
   y1="-5127.3101"
   x2="-928.56836"
   y2="-5142.3101"
   id="line251" />
</g><g
   transform="matrix(0.50149008,0,0,0.49681316,1407.9708,3737.7934)"
   stroke="#ffffff"
   stroke-width="0.60058"
   opacity="1"
   fill="none"
   id="g252">
<path
   d="m -1378.845,-4875.1648 v -96.6515 h 30 v 96.6515 h -28.5 v -1.5 h 27 v -93.6515 h -27 v 95.1515 z"
   fill="#ffffff"
   stroke="none"
   id="path251" />
</g><g
   transform="matrix(0.50149008,0,0,0.49681316,1407.9708,3737.7934)"
   stroke="#ff0001"
   stroke-width="0.60058"
   opacity="1"
   fill="none"
   id="g253">
<path
   d="m -1377.345,-4876.6648 v -93.6515 h 27 v 93.6515 z"
   fill="#ff0001"
   stroke="none"
   id="path252" />
</g><g
   transform="matrix(0.50149008,0,0,0.49681316,1407.9708,3737.7934)"
   stroke="#ffffff"
   stroke-width="0.60058"
   opacity="1"
   fill="none"
   id="g254">
<path
   d="m -1374.345,-4906.4021 h 13.671 v 1.3504 l 2.877,1.6581 v -3.0085 h 2.562 l 1.89,2.1709 v -10.1025 l -1.428,-1.265 v -1.9316 l 1.428,1.4701 v -2.4274 l -1.932,-2 h -19.068 z"
   fill="#ffffff"
   stroke="none"
   id="path253" />
</g><g
   transform="matrix(0.50149008,0,0,0.49681316,1407.9708,3737.7934)"
   stroke="#ff0001"
   stroke-width="0.60058"
   opacity="1"
   fill="none"
   id="g255">
<path
   d="m -1369.641,-4915.4448 v 6.1709 l 3.423,2.0342 0.714,-1.1624 -2.793,-1.6752 v -2.6496 l 3.78,2 4.41,0.8205 v 4.4616 l 1.701,1.0256 v -6.9231 l -4.788,-0.9743 7.875,-3.8462 v -1.9316 l -8.673,4.188 -3.213,-1.829 2.163,-2.0513 v -2.7009 h -1.386 v 2.1197 z"
   fill="#ff0001"
   stroke="none"
   id="path254" />

<circle
   cx="-1371.594"
   cy="-4915.667"
   fill="#ff0001"
   id="ellipse254"
   r="1.638" />
</g><g
   transform="matrix(0.50149008,0,0,0.49681316,1407.9708,3737.7934)"
   stroke="#ffffff"
   stroke-width="0.60058"
   opacity="1"
   fill="none"
   id="g256">
<path
   d="m -1355.445,-4931.7565 v -11.8311 l -11.831,1e-4 -4.969,4.9689 8.4398,0.079 -8.2269,8.2268 3.3127,3.3127 8.2269,-8.2268 0.079,8.4397 z"
   fill="#ffffff"
   stroke="none"
   id="path255" />
</g><g
   transform="matrix(0,0.49681316,-0.50149008,0,661.93796,1208.8257)"
   stroke="#000000"
   stroke-width="0.60058"
   opacity="1"
   fill="none"
   id="g257">
<text
   y="-2"
   font-size="13px"
   stroke="none"
   fill="#8800cc"
   text-anchor="middle"
   id="text256">Fire hose door</text>
</g><g
   transform="matrix(0.50149008,0,0,0.49681316,851.57732,1891.9623)"
   stroke="#000000"
   stroke-width="0.60058"
   opacity="1"
   fill="none"
   id="g258">
<text
   y="-12"
   font-size="63px"
   stroke="none"
   fill="#8800cc"
   text-anchor="middle"
   id="text257">Dialog Box 2</text>
</g><g
   transform="matrix(0,0.49681316,-0.50149008,0,535.97093,976.55565)"
   stroke="#000000"
   stroke-width="0.60058"
   opacity="1"
   fill="none"
   id="g259">
<text
   y="-7"
   font-size="37px"
   stroke="none"
   fill="#8800cc"
   text-anchor="middle"
   id="text258">Auditorium Reception</text>
</g><g
   transform="matrix(0.50149008,0,0,0.49681316,841.10504,437.68452)"
   stroke="#000000"
   stroke-width="0.60058"
   opacity="1"
   fill="none"
   id="g260">
<text
   y="-12"
   font-size="63px"
   stroke="none"
   fill="#8800cc"
   text-anchor="middle"
   id="text259">Male facility</text>
</g><g
   transform="matrix(0.50149008,0,0,0.49681316,859.4434,625.55133)"
   stroke="#000000"
   stroke-width="0.60058"
   opacity="1"
   fill="none"
   id="g261">
<text
   y="-12"
   font-size="63px"
   stroke="none"
   fill="#8800cc"
   text-anchor="middle"
   id="text260">Female facility</text>
</g><g
   transform="matrix(0.50149008,0,0,0.49681316,872.48214,704.827)"
   stroke="#000000"
   stroke-width="0.60058"
   opacity="1"
   fill="none"
   id="g262">
<text
   y="-12"
   font-size="63px"
   stroke="none"
   fill="#8800cc"
   text-anchor="middle"
   id="text261">Way to stairs</text>
</g><g
   transform="matrix(0,0.49681316,-0.50149008,0,691.87905,1288.8688)"
   stroke="#000000"
   stroke-width="0.60058"
   opacity="1"
   fill="none"
   id="g263">
<text
   y="-3"
   font-size="15px"
   stroke="none"
   fill="#8800cc"
   text-anchor="middle"
   id="text262">Fire Exit</text>
</g><g
   transform="matrix(0.50149008,0,0,0.49681316,852.25507,165.91301)"
   stroke="#000000"
   stroke-width="0.60058"
   opacity="1"
   fill="none"
   id="g264">
<text
   y="-12"
   font-size="63px"
   stroke="none"
   fill="#8800cc"
   text-anchor="middle"
   id="text263">Tapan Kumar</text>

<text
   y="-75"
   font-size="63px"
   stroke="none"
   fill="#8800cc"
   text-anchor="middle"
   id="text264">Director</text>
</g><g
   transform="matrix(0.50149008,0,0,0.49681316,253.45118,1667.2129)"
   stroke="#000000"
   stroke-width="0.60058"
   opacity="1"
   fill="none"
   id="g265">
<text
   y="-20"
   font-size="100px"
   stroke="none"
   fill="#8800cc"
   text-anchor="middle"
   id="text265">Auditorium</text>
</g><g
   transform="matrix(0.50149008,0,0,0.49681316,732.20999,955.93449)"
   stroke="#000000"
   stroke-width="0.60058"
   opacity="1"
   fill="none"
   id="g266">
<text
   y="-12"
   font-size="63px"
   stroke="none"
   fill="#8800cc"
   text-anchor="middle"
   id="text266">Lift 1</text>
</g><g
   transform="matrix(0.50149008,0,0,0.49681316,723.63641,1066.0445)"
   stroke="#000000"
   stroke-width="0.60058"
   opacity="1"
   fill="none"
   id="g267">
<text
   y="-12"
   font-size="63px"
   stroke="none"
   fill="#8800cc"
   text-anchor="middle"
   id="text267">Lift 2</text>
</g><g
   transform="matrix(0.50149008,0,0,0.49681316,1407.9708,3737.7934)"
   stroke="#006600"
   stroke-width="1.80174"
   opacity="1"
   fill="none"
   id="g268">
<line
   x1="-2809.0684"
   y1="-7537.2964"
   x2="-811.31299"
   y2="-7537.2964"
   id="line267" />
</g><g
   transform="matrix(0.50149008,0,0,0.49681316,1407.9708,3737.7934)"
   stroke="#ffffff"
   stroke-width="0.60058"
   opacity="1"
   fill="none"
   id="g269">
<line
   x1="-2809.0684"
   y1="-7537.2964"
   x2="-811.31299"
   y2="-7537.2964"
   id="line268" />
</g><g
   transform="matrix(0.50149008,0,0,0.49681316,1407.9708,3737.7934)"
   stroke="#006600"
   stroke-width="1.80174"
   opacity="1"
   fill="none"
   id="g270">
<line
   x1="-2806.5684"
   y1="-7527.2964"
   x2="-2806.5684"
   y2="-7539.7964"
   id="line269" />
</g><g
   transform="matrix(0.50149008,0,0,0.49681316,1407.9708,3737.7934)"
   stroke="#ffffff"
   stroke-width="0.60058"
   opacity="1"
   fill="none"
   id="g271">
<line
   x1="-2806.5684"
   y1="-7527.2964"
   x2="-2806.5684"
   y2="-7539.7964"
   id="line270" />
</g><g
   transform="matrix(0.50149008,0,0,0.49681316,1407.9708,3737.7934)"
   stroke="#006600"
   stroke-width="1.80174"
   opacity="1"
   fill="none"
   id="g272">
<line
   x1="-2807.8184"
   y1="-7538.5464"
   x2="-2805.3184"
   y2="-7536.0464"
   id="line271" />
</g><g
   transform="matrix(0.50149008,0,0,0.49681316,1407.9708,3737.7934)"
   stroke="#ffffff"
   stroke-width="0.60058"
   opacity="1"
   fill="none"
   id="g273">
<line
   x1="-2807.8184"
   y1="-7538.5464"
   x2="-2805.3184"
   y2="-7536.0464"
   id="line272" />
</g><g
   transform="matrix(0.50149008,0,0,0.49681316,1407.9708,3737.7934)"
   stroke="#006600"
   stroke-width="1.80174"
   opacity="1"
   fill="none"
   id="g274">
<line
   x1="-2791.3284"
   y1="-7527.2964"
   x2="-2791.3284"
   y2="-7539.7964"
   id="line273" />
</g><g
   transform="matrix(0.50149008,0,0,0.49681316,1407.9708,3737.7934)"
   stroke="#ffffff"
   stroke-width="0.60058"
   opacity="1"
   fill="none"
   id="g275">
<line
   x1="-2791.3284"
   y1="-7527.2964"
   x2="-2791.3284"
   y2="-7539.7964"
   id="line274" />
</g><g
   transform="matrix(0.50149008,0,0,0.49681316,1407.9708,3737.7934)"
   stroke="#006600"
   stroke-width="1.80174"
   opacity="1"
   fill="none"
   id="g276">
<line
   x1="-2792.5784"
   y1="-7538.5464"
   x2="-2790.0784"
   y2="-7536.0464"
   id="line275" />
</g><g
   transform="matrix(0.50149008,0,0,0.49681316,1407.9708,3737.7934)"
   stroke="#ffffff"
   stroke-width="0.60058"
   opacity="1"
   fill="none"
   id="g277">
<line
   x1="-2792.5784"
   y1="-7538.5464"
   x2="-2790.0784"
   y2="-7536.0464"
   id="line276" />
</g><g
   transform="matrix(0.50149008,0,0,0.49681316,4.3260206,-7.4558128)"
   stroke="#ffffff"
   stroke-width="0.60058"
   opacity="1"
   fill="none"
   id="g278">
<text
   y="-1"
   font-size="5px"
   stroke="#000000"
   stroke-width="0.30029"
   fill="#ffffff"
   text-anchor="middle"
   id="text277">0.2</text>
</g><g
   transform="matrix(0.50149008,0,0,0.49681316,1407.9708,3737.7934)"
   stroke="#006600"
   stroke-width="1.80174"
   opacity="1"
   fill="none"
   id="g279">
<line
   x1="-829.05298"
   y1="-7527.2964"
   x2="-829.05298"
   y2="-7539.7964"
   id="line278" />
</g><g
   transform="matrix(0.50149008,0,0,0.49681316,1407.9708,3737.7934)"
   stroke="#ffffff"
   stroke-width="0.60058"
   opacity="1"
   fill="none"
   id="g280">
<line
   x1="-829.05298"
   y1="-7527.2964"
   x2="-829.05298"
   y2="-7539.7964"
   id="line279" />
</g><g
   transform="matrix(0.50149008,0,0,0.49681316,1407.9708,3737.7934)"
   stroke="#006600"
   stroke-width="1.80174"
   opacity="1"
   fill="none"
   id="g281">
<line
   x1="-830.30298"
   y1="-7538.5464"
   x2="-827.80298"
   y2="-7536.0464"
   id="line280" />
</g><g
   transform="matrix(0.50149008,0,0,0.49681316,1407.9708,3737.7934)"
   stroke="#ffffff"
   stroke-width="0.60058"
   opacity="1"
   fill="none"
   id="g282">
<line
   x1="-830.30298"
   y1="-7538.5464"
   x2="-827.80298"
   y2="-7536.0464"
   id="line281" />
</g><g
   transform="matrix(0.50149008,0,0,0.49681316,500.1782,-7.4558128)"
   stroke="#ffffff"
   stroke-width="0.60058"
   opacity="1"
   fill="none"
   id="g283">
<text
   y="-1"
   font-size="5px"
   stroke="#000000"
   stroke-width="0.30029"
   fill="#ffffff"
   text-anchor="middle"
   id="text282">19.6</text>
</g><g
   transform="matrix(0.50149008,0,0,0.49681316,1407.9708,3737.7934)"
   stroke="#006600"
   stroke-width="1.80174"
   opacity="1"
   fill="none"
   id="g284">
<line
   x1="-813.81299"
   y1="-7527.2964"
   x2="-813.81299"
   y2="-7539.7964"
   id="line283" />
</g><g
   transform="matrix(0.50149008,0,0,0.49681316,1407.9708,3737.7934)"
   stroke="#ffffff"
   stroke-width="0.60058"
   opacity="1"
   fill="none"
   id="g285">
<line
   x1="-813.81299"
   y1="-7527.2964"
   x2="-813.81299"
   y2="-7539.7964"
   id="line284" />
</g><g
   transform="matrix(0.50149008,0,0,0.49681316,1407.9708,3737.7934)"
   stroke="#006600"
   stroke-width="1.80174"
   opacity="1"
   fill="none"
   id="g286">
<line
   x1="-815.06299"
   y1="-7538.5464"
   x2="-812.56299"
   y2="-7536.0464"
   id="line285" />
</g><g
   transform="matrix(0.50149008,0,0,0.49681316,1407.9708,3737.7934)"
   stroke="#ffffff"
   stroke-width="0.60058"
   opacity="1"
   fill="none"
   id="g287">
<line
   x1="-815.06299"
   y1="-7538.5464"
   x2="-812.56299"
   y2="-7536.0464"
   id="line286" />
</g><g
   transform="matrix(0.50149008,0,0,0.49681316,996.03032,-7.4558128)"
   stroke="#ffffff"
   stroke-width="0.60058"
   opacity="1"
   fill="none"
   id="g288">
<text
   y="-1"
   font-size="5px"
   stroke="#000000"
   stroke-width="0.30029"
   fill="#ffffff"
   text-anchor="middle"
   id="text287">0.2</text>
</g><g
   transform="matrix(0.50149008,0,0,0.49681316,1407.9708,3737.7934)"
   stroke="#006600"
   stroke-width="1.80174"
   opacity="1"
   fill="none"
   id="g289">
<line
   x1="-2809.0684"
   y1="-3482.1128"
   x2="-811.31299"
   y2="-3482.1128"
   id="line288" />
</g><g
   transform="matrix(0.50149008,0,0,0.49681316,1407.9708,3737.7934)"
   stroke="#ffffff"
   stroke-width="0.60058"
   opacity="1"
   fill="none"
   id="g290">
<line
   x1="-2809.0684"
   y1="-3482.1128"
   x2="-811.31299"
   y2="-3482.1128"
   id="line289" />
</g><g
   transform="matrix(0.50149008,0,0,0.49681316,1407.9708,3737.7934)"
   stroke="#006600"
   stroke-width="1.80174"
   opacity="1"
   fill="none"
   id="g291">
<line
   x1="-2806.5684"
   y1="-3492.1128"
   x2="-2806.5684"
   y2="-3479.6128"
   id="line290" />
</g><g
   transform="matrix(0.50149008,0,0,0.49681316,1407.9708,3737.7934)"
   stroke="#ffffff"
   stroke-width="0.60058"
   opacity="1"
   fill="none"
   id="g292">
<line
   x1="-2806.5684"
   y1="-3492.1128"
   x2="-2806.5684"
   y2="-3479.6128"
   id="line291" />
</g><g
   transform="matrix(0.50149008,0,0,0.49681316,1407.9708,3737.7934)"
   stroke="#006600"
   stroke-width="1.80174"
   opacity="1"
   fill="none"
   id="g293">
<line
   x1="-2807.8184"
   y1="-3483.3628"
   x2="-2805.3184"
   y2="-3480.8628"
   id="line292" />
</g><g
   transform="matrix(0.50149008,0,0,0.49681316,1407.9708,3737.7934)"
   stroke="#ffffff"
   stroke-width="0.60058"
   opacity="1"
   fill="none"
   id="g294">
<line
   x1="-2807.8184"
   y1="-3483.3628"
   x2="-2805.3184"
   y2="-3480.8628"
   id="line293" />
</g><g
   transform="matrix(0.50149008,0,0,0.49681316,1407.9708,3737.7934)"
   stroke="#006600"
   stroke-width="1.80174"
   opacity="1"
   fill="none"
   id="g295">
<line
   x1="-2791.3284"
   y1="-3492.1128"
   x2="-2791.3284"
   y2="-3479.6128"
   id="line294" />
</g><g
   transform="matrix(0.50149008,0,0,0.49681316,1407.9708,3737.7934)"
   stroke="#ffffff"
   stroke-width="0.60058"
   opacity="1"
   fill="none"
   id="g296">
<line
   x1="-2791.3284"
   y1="-3492.1128"
   x2="-2791.3284"
   y2="-3479.6128"
   id="line295" />
</g><g
   transform="matrix(0.50149008,0,0,0.49681316,1407.9708,3737.7934)"
   stroke="#006600"
   stroke-width="1.80174"
   opacity="1"
   fill="none"
   id="g297">
<line
   x1="-2792.5784"
   y1="-3483.3628"
   x2="-2790.0784"
   y2="-3480.8628"
   id="line296" />
</g><g
   transform="matrix(0.50149008,0,0,0.49681316,1407.9708,3737.7934)"
   stroke="#ffffff"
   stroke-width="0.60058"
   opacity="1"
   fill="none"
   id="g298">
<line
   x1="-2792.5784"
   y1="-3483.3628"
   x2="-2790.0784"
   y2="-3480.8628"
   id="line297" />
</g><g
   transform="matrix(0.50149008,0,0,0.49681316,4.3260206,2007.2128)"
   stroke="#ffffff"
   stroke-width="0.60058"
   opacity="1"
   fill="none"
   id="g299">
<text
   y="-1"
   font-size="5px"
   stroke="#000000"
   stroke-width="0.30029"
   fill="#ffffff"
   text-anchor="middle"
   id="text298">0.2</text>
</g><g
   transform="matrix(0.50149008,0,0,0.49681316,1407.9708,3737.7934)"
   stroke="#006600"
   stroke-width="1.80174"
   opacity="1"
   fill="none"
   id="g300">
<line
   x1="-829.05298"
   y1="-3492.1128"
   x2="-829.05298"
   y2="-3479.6128"
   id="line299" />
</g><g
   transform="matrix(0.50149008,0,0,0.49681316,1407.9708,3737.7934)"
   stroke="#ffffff"
   stroke-width="0.60058"
   opacity="1"
   fill="none"
   id="g301">
<line
   x1="-829.05298"
   y1="-3492.1128"
   x2="-829.05298"
   y2="-3479.6128"
   id="line300" />
</g><g
   transform="matrix(0.50149008,0,0,0.49681316,1407.9708,3737.7934)"
   stroke="#006600"
   stroke-width="1.80174"
   opacity="1"
   fill="none"
   id="g302">
<line
   x1="-830.30298"
   y1="-3483.3628"
   x2="-827.80298"
   y2="-3480.8628"
   id="line301" />
</g><g
   transform="matrix(0.50149008,0,0,0.49681316,1407.9708,3737.7934)"
   stroke="#ffffff"
   stroke-width="0.60058"
   opacity="1"
   fill="none"
   id="g303">
<line
   x1="-830.30298"
   y1="-3483.3628"
   x2="-827.80298"
   y2="-3480.8628"
   id="line302" />
</g><g
   transform="matrix(0.50149008,0,0,0.49681316,500.1782,2007.2128)"
   stroke="#ffffff"
   stroke-width="0.60058"
   opacity="1"
   fill="none"
   id="g304">
<text
   y="-1"
   font-size="5px"
   stroke="#000000"
   stroke-width="0.30029"
   fill="#ffffff"
   text-anchor="middle"
   id="text303">19.6</text>
</g><g
   transform="matrix(0.50149008,0,0,0.49681316,1407.9708,3737.7934)"
   stroke="#006600"
   stroke-width="1.80174"
   opacity="1"
   fill="none"
   id="g305">
<line
   x1="-813.81299"
   y1="-3492.1128"
   x2="-813.81299"
   y2="-3479.6128"
   id="line304" />
</g><g
   transform="matrix(0.50149008,0,0,0.49681316,1407.9708,3737.7934)"
   stroke="#ffffff"
   stroke-width="0.60058"
   opacity="1"
   fill="none"
   id="g306">
<line
   x1="-813.81299"
   y1="-3492.1128"
   x2="-813.81299"
   y2="-3479.6128"
   id="line305" />
</g><g
   transform="matrix(0.50149008,0,0,0.49681316,1407.9708,3737.7934)"
   stroke="#006600"
   stroke-width="1.80174"
   opacity="1"
   fill="none"
   id="g307">
<line
   x1="-815.06299"
   y1="-3483.3628"
   x2="-812.56299"
   y2="-3480.8628"
   id="line306" />
</g><g
   transform="matrix(0.50149008,0,0,0.49681316,1407.9708,3737.7934)"
   stroke="#ffffff"
   stroke-width="0.60058"
   opacity="1"
   fill="none"
   id="g308">
<line
   x1="-815.06299"
   y1="-3483.3628"
   x2="-812.56299"
   y2="-3480.8628"
   id="line307" />
</g><g
   transform="matrix(0.50149008,0,0,0.49681316,996.03032,2007.2128)"
   stroke="#ffffff"
   stroke-width="0.60058"
   opacity="1"
   fill="none"
   id="g309">
<text
   y="-1"
   font-size="5px"
   stroke="#000000"
   stroke-width="0.30029"
   fill="#ffffff"
   text-anchor="middle"
   id="text308">0.2</text>
</g><g
   transform="matrix(0.50149008,0,0,0.49681316,1407.9708,3737.7934)"
   stroke="#006600"
   stroke-width="1.80174"
   opacity="1"
   fill="none"
   id="g310">
<line
   x1="-2821.0684"
   y1="-7525.2964"
   x2="-2821.0684"
   y2="-3494.1128"
   id="line309" />
</g><g
   transform="matrix(0.50149008,0,0,0.49681316,1407.9708,3737.7934)"
   stroke="#ffffff"
   stroke-width="0.60058"
   opacity="1"
   fill="none"
   id="g311">
<line
   x1="-2821.0684"
   y1="-7525.2964"
   x2="-2821.0684"
   y2="-3494.1128"
   id="line310" />
</g><g
   transform="matrix(0.50149008,0,0,0.49681316,1407.9708,3737.7934)"
   stroke="#006600"
   stroke-width="1.80174"
   opacity="1"
   fill="none"
   id="g312">
<line
   x1="-2811.0684"
   y1="-7522.7964"
   x2="-2823.5684"
   y2="-7522.7964"
   id="line311" />
</g><g
   transform="matrix(0.50149008,0,0,0.49681316,1407.9708,3737.7934)"
   stroke="#ffffff"
   stroke-width="0.60058"
   opacity="1"
   fill="none"
   id="g313">
<line
   x1="-2811.0684"
   y1="-7522.7964"
   x2="-2823.5684"
   y2="-7522.7964"
   id="line312" />
</g><g
   transform="matrix(0.50149008,0,0,0.49681316,1407.9708,3737.7934)"
   stroke="#006600"
   stroke-width="1.80174"
   opacity="1"
   fill="none"
   id="g314">
<line
   x1="-2819.8184"
   y1="-7524.0464"
   x2="-2822.3184"
   y2="-7521.5464"
   id="line313" />
</g><g
   transform="matrix(0.50149008,0,0,0.49681316,1407.9708,3737.7934)"
   stroke="#ffffff"
   stroke-width="0.60058"
   opacity="1"
   fill="none"
   id="g315">
<line
   x1="-2819.8184"
   y1="-7524.0464"
   x2="-2822.3184"
   y2="-7521.5464"
   id="line314" />
</g><g
   transform="matrix(0.50149008,0,0,0.49681316,1407.9708,3737.7934)"
   stroke="#006600"
   stroke-width="1.80174"
   opacity="1"
   fill="none"
   id="g316">
<line
   x1="-2811.0684"
   y1="-7507.5566"
   x2="-2823.5684"
   y2="-7507.5566"
   id="line315" />
</g><g
   transform="matrix(0.50149008,0,0,0.49681316,1407.9708,3737.7934)"
   stroke="#ffffff"
   stroke-width="0.60058"
   opacity="1"
   fill="none"
   id="g317">
<line
   x1="-2811.0684"
   y1="-7507.5566"
   x2="-2823.5684"
   y2="-7507.5566"
   id="line316" />
</g><g
   transform="matrix(0.50149008,0,0,0.49681316,1407.9708,3737.7934)"
   stroke="#006600"
   stroke-width="1.80174"
   opacity="1"
   fill="none"
   id="g318">
<line
   x1="-2819.8184"
   y1="-7508.8066"
   x2="-2822.3184"
   y2="-7506.3066"
   id="line317" />
</g><g
   transform="matrix(0.50149008,0,0,0.49681316,1407.9708,3737.7934)"
   stroke="#ffffff"
   stroke-width="0.60058"
   opacity="1"
   fill="none"
   id="g319">
<line
   x1="-2819.8184"
   y1="-7508.8066"
   x2="-2822.3184"
   y2="-7506.3066"
   id="line318" />
</g><g
   transform="matrix(0,-0.49681316,0.50149008,0,-7.3937916,4.1547124)"
   stroke="#ffffff"
   stroke-width="0.60058"
   opacity="1"
   fill="none"
   id="g320">
<text
   y="-1"
   font-size="5px"
   stroke="#000000"
   stroke-width="0.30029"
   fill="#ffffff"
   text-anchor="middle"
   id="text319">0.2</text>
</g><g
   transform="matrix(0.50149008,0,0,0.49681316,1407.9708,3737.7934)"
   stroke="#006600"
   stroke-width="1.80174"
   opacity="1"
   fill="none"
   id="g321">
<line
   x1="-2811.0684"
   y1="-3511.853"
   x2="-2823.5684"
   y2="-3511.853"
   id="line320" />
</g><g
   transform="matrix(0.50149008,0,0,0.49681316,1407.9708,3737.7934)"
   stroke="#ffffff"
   stroke-width="0.60058"
   opacity="1"
   fill="none"
   id="g322">
<line
   x1="-2811.0684"
   y1="-3511.853"
   x2="-2823.5684"
   y2="-3511.853"
   id="line321" />
</g><g
   transform="matrix(0.50149008,0,0,0.49681316,1407.9708,3737.7934)"
   stroke="#006600"
   stroke-width="1.80174"
   opacity="1"
   fill="none"
   id="g323">
<line
   x1="-2819.8184"
   y1="-3513.103"
   x2="-2822.3184"
   y2="-3510.603"
   id="line322" />
</g><g
   transform="matrix(0.50149008,0,0,0.49681316,1407.9708,3737.7934)"
   stroke="#ffffff"
   stroke-width="0.60058"
   opacity="1"
   fill="none"
   id="g324">
<line
   x1="-2819.8184"
   y1="-3513.103"
   x2="-2822.3184"
   y2="-3510.603"
   id="line323" />
</g><g
   transform="matrix(0,-0.49681316,0.50149008,0,-7.3937916,1000.4996)"
   stroke="#ffffff"
   stroke-width="0.60058"
   opacity="1"
   fill="none"
   id="g325">
<text
   y="-1"
   font-size="5px"
   stroke="#000000"
   stroke-width="0.30029"
   fill="#ffffff"
   text-anchor="middle"
   id="text324">40</text>
</g><g
   transform="matrix(0.50149008,0,0,0.49681316,1407.9708,3737.7934)"
   stroke="#006600"
   stroke-width="1.80174"
   opacity="1"
   fill="none"
   id="g326">
<line
   x1="-2811.0684"
   y1="-3496.6128"
   x2="-2823.5684"
   y2="-3496.6128"
   id="line325" />
</g><g
   transform="matrix(0.50149008,0,0,0.49681316,1407.9708,3737.7934)"
   stroke="#ffffff"
   stroke-width="0.60058"
   opacity="1"
   fill="none"
   id="g327">
<line
   x1="-2811.0684"
   y1="-3496.6128"
   x2="-2823.5684"
   y2="-3496.6128"
   id="line326" />
</g><g
   transform="matrix(0.50149008,0,0,0.49681316,1407.9708,3737.7934)"
   stroke="#006600"
   stroke-width="1.80174"
   opacity="1"
   fill="none"
   id="g328">
<line
   x1="-2819.8184"
   y1="-3497.8628"
   x2="-2822.3184"
   y2="-3495.3628"
   id="line327" />
</g><g
   transform="matrix(0.50149008,0,0,0.49681316,1407.9708,3737.7934)"
   stroke="#ffffff"
   stroke-width="0.60058"
   opacity="1"
   fill="none"
   id="g329">
<line
   x1="-2819.8184"
   y1="-3497.8628"
   x2="-2822.3184"
   y2="-3495.3628"
   id="line328" />
</g><g
   transform="matrix(0,-0.49681316,0.50149008,0,-7.3937916,1996.8443)"
   stroke="#ffffff"
   stroke-width="0.60058"
   opacity="1"
   fill="none"
   id="g330">
<text
   y="-1"
   font-size="5px"
   stroke="#000000"
   stroke-width="0.30029"
   fill="#ffffff"
   text-anchor="middle"
   id="text329">0.2</text>
</g><g
   transform="matrix(0.50149008,0,0,0.49681316,1407.9708,3737.7934)"
   stroke="#006600"
   stroke-width="1.80174"
   opacity="1"
   fill="none"
   id="g331">
<line
   x1="-799.31299"
   y1="-7525.2964"
   x2="-799.31299"
   y2="-3494.1128"
   id="line330" />
</g><g
   transform="matrix(0.50149008,0,0,0.49681316,1407.9708,3737.7934)"
   stroke="#ffffff"
   stroke-width="0.60058"
   opacity="1"
   fill="none"
   id="g332">
<line
   x1="-799.31299"
   y1="-7525.2964"
   x2="-799.31299"
   y2="-3494.1128"
   id="line331" />
</g><g
   transform="matrix(0.50149008,0,0,0.49681316,1407.9708,3737.7934)"
   stroke="#006600"
   stroke-width="1.80174"
   opacity="1"
   fill="none"
   id="g333">
<line
   x1="-809.31299"
   y1="-7522.7964"
   x2="-796.81299"
   y2="-7522.7964"
   id="line332" />
</g><g
   transform="matrix(0.50149008,0,0,0.49681316,1407.9708,3737.7934)"
   stroke="#ffffff"
   stroke-width="0.60058"
   opacity="1"
   fill="none"
   id="g334">
<line
   x1="-809.31299"
   y1="-7522.7964"
   x2="-796.81299"
   y2="-7522.7964"
   id="line333" />
</g><g
   transform="matrix(0.50149008,0,0,0.49681316,1407.9708,3737.7934)"
   stroke="#006600"
   stroke-width="1.80174"
   opacity="1"
   fill="none"
   id="g335">
<line
   x1="-798.06299"
   y1="-7524.0464"
   x2="-800.56299"
   y2="-7521.5464"
   id="line334" />
</g><g
   transform="matrix(0.50149008,0,0,0.49681316,1407.9708,3737.7934)"
   stroke="#ffffff"
   stroke-width="0.60058"
   opacity="1"
   fill="none"
   id="g336">
<line
   x1="-798.06299"
   y1="-7524.0464"
   x2="-800.56299"
   y2="-7521.5464"
   id="line335" />
</g><g
   transform="matrix(0.50149008,0,0,0.49681316,1407.9708,3737.7934)"
   stroke="#006600"
   stroke-width="1.80174"
   opacity="1"
   fill="none"
   id="g337">
<line
   x1="-809.31299"
   y1="-7507.5566"
   x2="-796.81299"
   y2="-7507.5566"
   id="line336" />
</g><g
   transform="matrix(0.50149008,0,0,0.49681316,1407.9708,3737.7934)"
   stroke="#ffffff"
   stroke-width="0.60058"
   opacity="1"
   fill="none"
   id="g338">
<line
   x1="-809.31299"
   y1="-7507.5566"
   x2="-796.81299"
   y2="-7507.5566"
   id="line337" />
</g><g
   transform="matrix(0.50149008,0,0,0.49681316,1407.9708,3737.7934)"
   stroke="#006600"
   stroke-width="1.80174"
   opacity="1"
   fill="none"
   id="g339">
<line
   x1="-798.06299"
   y1="-7508.8066"
   x2="-800.56299"
   y2="-7506.3066"
   id="line338" />
</g><g
   transform="matrix(0.50149008,0,0,0.49681316,1407.9708,3737.7934)"
   stroke="#ffffff"
   stroke-width="0.60058"
   opacity="1"
   fill="none"
   id="g340">
<line
   x1="-798.06299"
   y1="-7508.8066"
   x2="-800.56299"
   y2="-7506.3066"
   id="line339" />
</g><g
   transform="matrix(0,-0.49681316,0.50149008,0,1006.4964,4.1547124)"
   stroke="#ffffff"
   stroke-width="0.60058"
   opacity="1"
   fill="none"
   id="g341">
<text
   y="-1"
   font-size="5px"
   stroke="#000000"
   stroke-width="0.30029"
   fill="#ffffff"
   text-anchor="middle"
   id="text340">0.2</text>
</g><g
   transform="matrix(0.50149008,0,0,0.49681316,1407.9708,3737.7934)"
   stroke="#006600"
   stroke-width="1.80174"
   opacity="1"
   fill="none"
   id="g342">
<line
   x1="-809.31299"
   y1="-3511.853"
   x2="-796.81299"
   y2="-3511.853"
   id="line341" />
</g><g
   transform="matrix(0.50149008,0,0,0.49681316,1407.9708,3737.7934)"
   stroke="#ffffff"
   stroke-width="0.60058"
   opacity="1"
   fill="none"
   id="g343">
<line
   x1="-809.31299"
   y1="-3511.853"
   x2="-796.81299"
   y2="-3511.853"
   id="line342" />
</g><g
   transform="matrix(0.50149008,0,0,0.49681316,1407.9708,3737.7934)"
   stroke="#006600"
   stroke-width="1.80174"
   opacity="1"
   fill="none"
   id="g344">
<line
   x1="-798.06299"
   y1="-3513.103"
   x2="-800.56299"
   y2="-3510.603"
   id="line343" />
</g><g
   transform="matrix(0.50149008,0,0,0.49681316,1407.9708,3737.7934)"
   stroke="#ffffff"
   stroke-width="0.60058"
   opacity="1"
   fill="none"
   id="g345">
<line
   x1="-798.06299"
   y1="-3513.103"
   x2="-800.56299"
   y2="-3510.603"
   id="line344" />
</g><g
   transform="matrix(0,-0.49681316,0.50149008,0,1006.4964,1000.4996)"
   stroke="#ffffff"
   stroke-width="0.60058"
   opacity="1"
   fill="none"
   id="g346">
<text
   y="-1"
   font-size="5px"
   stroke="#000000"
   stroke-width="0.30029"
   fill="#ffffff"
   text-anchor="middle"
   id="text345">40</text>
</g><g
   transform="matrix(0.50149008,0,0,0.49681316,1407.9708,3737.7934)"
   stroke="#006600"
   stroke-width="1.80174"
   opacity="1"
   fill="none"
   id="g347">
<line
   x1="-809.31299"
   y1="-3496.6128"
   x2="-796.81299"
   y2="-3496.6128"
   id="line346" />
</g><g
   transform="matrix(0.50149008,0,0,0.49681316,1407.9708,3737.7934)"
   stroke="#ffffff"
   stroke-width="0.60058"
   opacity="1"
   fill="none"
   id="g348">
<line
   x1="-809.31299"
   y1="-3496.6128"
   x2="-796.81299"
   y2="-3496.6128"
   id="line347" />
</g><g
   transform="matrix(0.50149008,0,0,0.49681316,1407.9708,3737.7934)"
   stroke="#006600"
   stroke-width="1.80174"
   opacity="1"
   fill="none"
   id="g349">
<line
   x1="-798.06299"
   y1="-3497.8628"
   x2="-800.56299"
   y2="-3495.3628"
   id="line348" />
</g><g
   transform="matrix(0.50149008,0,0,0.49681316,1407.9708,3737.7934)"
   stroke="#ffffff"
   stroke-width="0.60058"
   opacity="1"
   fill="none"
   id="g350">
<line
   x1="-798.06299"
   y1="-3497.8628"
   x2="-800.56299"
   y2="-3495.3628"
   id="line349" />
</g><g
   transform="matrix(0,-0.49681316,0.50149008,0,1006.4964,1996.8443)"
   stroke="#ffffff"
   stroke-width="0.60058"
   opacity="1"
   fill="none"
   id="g351">
<text
   y="-1"
   font-size="5px"
   stroke="#000000"
   stroke-width="0.30029"
   fill="#ffffff"
   text-anchor="middle"
   id="text350">0.2</text></g></g>
</svg>
