<?xml version="1.0" encoding="UTF-8" standalone="no"?>
<!DOCTYPE svg PUBLIC "-//W3C//DTD SVG 1.1//EN"
"http://www.w3.org/Graphics/SVG/1.1/DTD/svg11.dtd">
<svg xmlns="http://www.w3.org/2000/svg"
xmlns:xlink="http://www.w3.org/1999/xlink" xml:space="preserve"
width="1047pt" height="2070pt"
viewBox="0 0 1047 2070">
<g font-family="sans-serif" font-weight="bold">
<g transform="translate(0,0.96734) scale(0.49928) translate(1604.8339,3892.6412)" stroke="#ffffff" fill="none">
<path d="M434.2299,191.4924 L-1546.8839,191.4924 -1546.8839,-3834.6912 434.2299,-3834.6912 z" fill="#ffffff" stroke="none"/>
</g><g transform="translate(0,0.96734) scale(0.49928) translate(1604.8339,3892.6412)" stroke="#fff6e8" fill="none">
<path d="M418.9899,176.2524 L418.9899,-3819.4512 -1531.6439,-3819.4512 -1531.6439,-2492.4894 -1546.8839,-2492.4894 -1546.8839,-1174.1816 -1531.6439,-1174.1816 -1531.6439,176.2524 z" fill="#fff6e8" stroke="none"/>
</g><g transform="translate(0,0.96734) scale(0.49928) translate(1604.8339,3892.6412)" stroke="#ffffff" stroke-width="1.80259" fill="none">
<path d="M-470.3429,-2499.9862 L-1531.6449,-2492.4196 -1531.7305,-2504.4213 -470.4285,-2511.9879 z M429.6352,-2506.4026 L-230.5075,-2501.6961 -230.5932,-2513.6978 429.5497,-2518.4043 z" fill="#ffffff" stroke="none"/>

<path d="M-218.8011,-1903.4502 L-230.8031,-1903.4502 -230.8031,-1983.4522 -218.8011,-1983.4522 z" fill="#ffffff" stroke="none"/>

<path d="M69.1989,-2365.4502 L-230.8031,-2365.4502 -230.8031,-2377.4522 69.1989,-2377.4522 z" fill="#ffffff" stroke="none"/>

<path d="M69.1989,-1983.4502 L-230.8031,-1983.4502 -230.8031,-1995.4522 69.1989,-1995.4522 z" fill="#ffffff" stroke="none"/>

<path d="M-218.8011,-1302.4502 L-230.8031,-1302.4502 -230.8031,-1355.6442 -218.8011,-1355.6442 z M-218.8011,-1455.644 L-230.8031,-1455.644 -230.8031,-1667.4522 -218.8011,-1667.4522 z" fill="#ffffff" stroke="none"/>

<path d="M-39.3132,-2377.4502 L-51.3152,-2377.4502 -51.3152,-2380.2425 -39.3132,-2380.2425 z M-39.3132,-2503.6123 L-51.3152,-2503.6123 -51.3152,-2506.4046 -39.3132,-2506.4046 z" fill="#ffffff" stroke="none"/>

<path d="M-218.8011,-1995.4502 L-230.8031,-1995.4502 -230.8031,-2365.4522 -218.8011,-2365.4522 z" fill="#ffffff" stroke="none"/>

<path d="M69.1989,-1891.4502 L-230.8031,-1891.4502 -230.8031,-1903.4522 69.1989,-1903.4522 z" fill="#ffffff" stroke="none"/>

<path d="M69.1989,-1903.4502 L57.1969,-1903.4502 57.1969,-1983.4522 69.1989,-1983.4522 z" fill="#ffffff" stroke="none"/>

<path d="M-218.8011,-1771.4502 L-230.8031,-1771.4502 -230.8031,-1891.4522 -218.8011,-1891.4522 z" fill="#ffffff" stroke="none"/>

<path d="M69.1989,-1759.4502 L-230.8031,-1759.4502 -230.8031,-1771.4522 69.1989,-1771.4522 z" fill="#ffffff" stroke="none"/>

<path d="M69.1989,-1667.4502 L-230.8031,-1667.4502 -230.8031,-1679.4522 69.1989,-1679.4522 z" fill="#ffffff" stroke="none"/>

<path d="M-218.8011,-1679.4502 L-230.8031,-1679.4502 -230.8031,-1759.4522 -218.8011,-1759.4522 z" fill="#ffffff" stroke="none"/>

<path d="M69.1989,-1679.4502 L57.1969,-1679.4502 57.1969,-1759.4522 69.1989,-1759.4522 z" fill="#ffffff" stroke="none"/>

<path d="M-130.8011,-1454.2038 L-230.8031,-1454.2038 -230.8031,-1466.2058 -130.8011,-1466.2058 z" fill="#ffffff" stroke="none"/>

<path d="M-130.8011,-1354.2038 L-142.8031,-1354.2038 -142.8031,-1454.2058 -130.8011,-1454.2058 z" fill="#ffffff" stroke="none"/>

<path d="M70.0757,-1304.2038 L-229.9263,-1304.2038 -229.9263,-1354.2058 70.0757,-1354.2058 z" fill="#ffffff" stroke="none"/>

<path d="M69.1989,-924.2038 L57.1969,-924.2038 57.1969,-1007.5977 69.1989,-1007.5977 z M69.1989,-1105.6162 L57.1969,-1105.6162 57.1969,-1124.2058 69.1989,-1124.2058 z" fill="#ffffff" stroke="none"/>

<path d="M70.0757,-1174.2038 L58.0737,-1174.2038 58.0737,-1174.3262 70.0757,-1174.3262 z M70.0757,-1297.696 L58.0737,-1297.696 58.0737,-1304.2058 70.0757,-1304.2058 z" fill="#ffffff" stroke="none"/>

<path d="M69.1989,-1127.0869 L-230.8031,-1127.0869 -230.8031,-1177.0889 69.1989,-1177.0889 z" fill="#ffffff" stroke="none"/>

<path d="M-210.1318,-912.2038 L-240.8031,-912.2038 -240.8031,-924.2058 -210.1318,-924.2058 z M79.1989,-912.2038 L-110.1318,-912.2038 -110.1318,-924.2058 79.1989,-924.2058 z" fill="#ffffff" stroke="none"/>

<path d="M418.9909,-1112.2038 L69.1969,-1112.2038 69.1969,-1124.2058 418.9909,-1124.2058 z" fill="#ffffff" stroke="none"/>

<path d="M418.9909,-912.2038 L69.1969,-912.2038 69.1969,-924.2058 418.9909,-924.2058 z" fill="#ffffff" stroke="none"/>

<path d="M69.1989,-1995.4502 L57.1969,-1995.4502 57.1969,-2365.4522 69.1989,-2365.4522 z" fill="#ffffff" stroke="none"/>

<path d="M70.0757,-1322.4714 L58.0737,-1322.4539 57.1969,-1924.2708 69.1989,-1924.2882 z" fill="#ffffff" stroke="none"/>

<path d="M-998.2805,-1164.2038 L-1531.6449,-1164.2038 -1531.6449,-1174.2058 -998.2805,-1174.2058 z M-661.1048,-1164.2038 L-898.2805,-1164.2038 -898.2805,-1174.2058 -661.1048,-1174.2058 z" fill="#ffffff" stroke="none"/>

<path d="M418.9909,-1983.4502 L69.1969,-1983.4502 69.1969,-1995.4522 418.9909,-1995.4522 z" fill="#ffffff" stroke="none"/>

<path d="M-747.7153,-2424.2388 L-757.7173,-2424.2388 -757.7173,-2506.4046 -747.7153,-2506.4046 z" fill="#ffffff" stroke="none"/>

<path d="M-757.7153,-2424.2388 L-857.7173,-2424.2388 -857.7173,-2434.2408 -757.7153,-2434.2408 z" fill="#ffffff" stroke="none"/>

<path d="M-857.7153,-2424.2388 L-867.7173,-2424.2388 -867.7173,-2506.4046 -857.7153,-2506.4046 z" fill="#ffffff" stroke="none"/>

<path d="M-661.0986,-514.2038 L-671.1006,-514.2038 -671.1006,-1164.2058 -661.0986,-1164.2058 z" fill="#ffffff" stroke="none"/>

<path d="M-651.0314,-504.3101 L-1381.0096,-504.2038 -1381.0111,-514.2058 -651.0328,-514.3121 z M-512.0466,-504.3304 L-551.0314,-504.3247 -551.0328,-514.3267 -512.0481,-514.3324 z M418.9924,-504.466 L-240.8063,-504.3699 -240.8077,-514.3719 418.9909,-514.468 z" fill="#ffffff" stroke="none"/>

<path d="M-230.8011,-512.2038 L-240.8031,-512.2038 -240.8031,-541.5952 -230.8011,-541.5952 z M-230.8011,-641.5952 L-240.8031,-641.5952 -240.8031,-912.2058 -230.8011,-912.2058 z" fill="#ffffff" stroke="none"/>

<path d="M-747.5068,-1256.3676 L-867.7173,-1256.3676 -867.7173,-1266.3696 -747.5068,-1266.3696 z" fill="#ffffff" stroke="none"/>

<path d="M-747.5068,-1256.3696 L-747.5222,-1163.6486 -757.5242,-1163.6503 -757.5088,-1256.3713 z" fill="#ffffff" stroke="none"/>

<path d="M-857.7153,-1174.2038 L-867.7173,-1174.2038 -867.7173,-1256.3696 -857.7153,-1256.3696 z" fill="#ffffff" stroke="none"/>

<path d="M-526.5709,176.2542 L-536.5729,176.2542 -536.5729,-504.3288 -526.5709,-504.3288 z" fill="#ffffff" stroke="none"/>

<path d="M-196.8011,-1903.4502 L-208.8031,-1903.4502 -208.8031,-1983.4522 -196.8011,-1983.4522 z" fill="#ffffff" stroke="none"/>

<path d="M-757.5068,-1859.2408 L-757.5127,-1849.2388 -857.6635,-1849.2983 -857.6576,-1859.3003 z" fill="#ffffff" stroke="none"/>

<path d="M-847.7153,-1764.1729 L-857.7173,-1764.1729 -857.7173,-1859.2408 -847.7153,-1859.2408 z" fill="#ffffff" stroke="none"/>

<path d="M-757.5014,-1774.1749 L-757.5068,-1764.1729 -857.5088,-1764.227 -857.5033,-1774.229 z" fill="#ffffff" stroke="none"/>

<path d="M-757.5068,-1764.1729 L-767.5088,-1764.1729 -767.5088,-1859.2408 -757.5068,-1859.2408 z" fill="#ffffff" stroke="none"/>

<path d="M424.8646,-700.1069 L-230.8031,-700.1069 -230.8031,-710.1089 424.8646,-710.1089 z" fill="#ffffff" stroke="none"/>

<path d="M-1389.2249,-2497.1158 L-1401.9664,-1174.2037 -1411.9679,-1174.3001 -1399.2264,-2497.2121 z" fill="#ffffff" stroke="none"/>
</g><g transform="translate(0,0.96734) scale(0.49928) translate(1604.8339,3892.6412)" stroke="#111111" stroke-width="1.80259" fill="none">
<path d="M434.2299,191.4924 L-1546.8839,191.4924 -1546.8839,-1174.1816 -1531.6449,-1174.1816 -1531.6449,-1174.2058 -1402.1843,-1174.2058 -1411.9679,-1174.3001 -1399.2635,-2493.3634 -1531.6449,-2492.4196 -1531.6454,-2492.4894 -1546.8839,-2492.4894 -1546.8839,-3834.6912 434.2299,-3834.6912 z M-867.7173,-2497.1531 L-1389.2604,-2493.4347 -1401.9664,-1174.2058 -998.2805,-1174.2058 -998.2805,-1164.2038 -1531.6439,-1164.2038 -1531.6439,176.2524 -536.5729,176.2524 -536.5729,-504.3268 -551.0314,-504.3247 -551.0328,-514.3267 -512.0481,-514.3324 -512.0466,-504.3304 -526.5709,-504.3283 -526.5709,176.2524 418.9899,176.2524 418.9899,-504.466 -240.8063,-504.3699 -240.8077,-514.3719 -240.8031,-514.3719 -240.8031,-541.5952 -230.8011,-541.5952 -230.8011,-514.3734 418.9899,-514.468 418.9899,-700.1069 -230.8011,-700.1069 -230.8011,-641.5952 -240.8031,-641.5952 -240.8031,-924.2058 -210.1318,-924.2058 -210.1318,-912.2038 -230.8011,-912.2038 -230.8011,-710.1089 418.9899,-710.1089 418.9899,-912.2038 -110.1318,-912.2038 -110.1318,-924.2058 57.1969,-924.2058 57.1969,-1007.5977 69.1989,-1007.5977 69.1989,-924.2058 418.9899,-924.2058 418.9899,-1112.2038 69.1989,-1112.2038 69.1989,-1105.6162 57.1969,-1105.6162 57.1969,-1124.2058 418.9899,-1124.2058 418.9899,-1983.4502 69.1989,-1983.4502 69.1989,-1924.2882 70.0295,-1354.2058 70.0757,-1354.2058 70.0757,-1297.696 58.0737,-1297.696 58.0737,-1304.2038 -218.8011,-1304.2038 -218.8011,-1302.4502 -230.8031,-1302.4502 -230.8031,-1355.6442 -218.8011,-1355.6442 -218.8011,-1354.2058 -142.8031,-1354.2058 -142.8031,-1454.2038 -230.8031,-1454.2038 -230.8031,-2377.4522 -51.3152,-2377.4522 -51.3152,-2380.2425 -39.3132,-2380.2425 -39.3132,-2377.4522 69.1989,-2377.4522 69.1989,-1995.4522 418.9899,-1995.4522 418.9899,-2506.3267 -230.5075,-2501.6961 -230.5932,-2513.6978 418.9899,-2518.329 418.9899,-3819.4512 -1531.6439,-3819.4512 -1531.6439,-2504.4219 -470.4285,-2511.9879 -470.3429,-2499.9862 -747.7153,-2498.0087 -747.7153,-2424.2388 -867.7173,-2424.2388 z M-747.5068,-1266.3696 L-747.5068,-1256.3696 -747.5204,-1174.2058 -661.1048,-1174.2058 -661.1048,-1164.2058 -661.0986,-1164.2058 -661.0986,-514.3106 -651.0328,-514.3121 -651.0314,-504.3101 -1381.0096,-504.2038 -1381.0111,-514.2058 -671.1006,-514.3092 -671.1006,-1164.2038 -747.5221,-1164.2038 -747.5222,-1163.6486 -757.5242,-1163.6503 -757.5241,-1164.2038 -898.2805,-1164.2038 -898.2805,-1174.2058 -867.7173,-1174.2058 -867.7173,-1266.3696 z M69.1989,-1174.3262 L70.0757,-1174.3262 70.0757,-1174.2038 69.1989,-1174.2038 69.1989,-1127.0869 -230.8031,-1127.0869 -230.8031,-1177.0889 69.1989,-1177.0889 z M-857.7153,-1256.3676 L-857.7153,-1174.2058 -757.5224,-1174.2058 -757.5088,-1256.3676 z M58.0274,-1354.2058 L57.5711,-1667.4502 -218.8011,-1667.4502 -218.8011,-1466.2058 -130.8011,-1466.2058 -130.8011,-1354.2058 z M-218.8011,-1759.4502 L-218.8011,-1679.4522 57.1969,-1679.4522 57.1969,-1759.4502 z M-767.5088,-1764.1783 L-847.7153,-1764.2217 -847.7153,-1764.1729 -857.7173,-1764.1729 -857.7173,-1859.2408 -857.6576,-1859.2408 -857.6576,-1859.3003 -757.5068,-1859.2408 -757.5068,-1774.1749 -757.5014,-1774.1749 -757.5068,-1764.1729 -767.5088,-1764.1729 z M-218.8011,-1891.4502 L-218.8011,-1771.4522 57.4195,-1771.4522 57.2447,-1891.4502 z M-847.7153,-1774.2237 L-767.5088,-1774.1803 -767.5088,-1849.2447 -847.7153,-1849.2924 z M-218.8011,-1983.4502 L-218.8011,-1903.4522 -208.8031,-1903.4522 -208.8031,-1983.4502 z M-196.8011,-1983.4502 L-196.8011,-1903.4522 57.1969,-1903.4522 57.1969,-1983.4502 z M-218.8011,-2365.4502 L-218.8011,-1995.4522 57.1969,-1995.4522 57.1969,-2365.4502 z M-857.7153,-2497.2244 L-857.7153,-2434.2408 -757.7173,-2434.2408 -757.7173,-2497.9374 z"/>
</g><g transform="translate(0,0.96734) scale(0.49928) translate(1604.8339,3892.6412)" stroke="#000000" stroke-width="0.60086" fill="none">
<path d="M-3621.7932,-4634.7401 L-3761.7932,-4634.7401 -3761.7932,-4572.2401 -3901.8032,-4572.2401 -3901.8032,-4809.7501 -3761.8032,-4809.7501 -3761.8032,-4872.2501 -3621.7932,-4872.2501 z M-3639.6692,-5493.6413 L-3779.6792,-5493.6413 -3779.6792,-5732.9965 -3639.6692,-5732.9965 z M-3799.4219,-5557.9865 L-3939.4319,-5557.9865 -3939.4319,-5795.4965 -3799.4219,-5795.4965 z"/>
</g><g transform="translate(0,0.96734) scale(0.49928) translate(1604.8339,3892.6412)" stroke="#ffffff" stroke-width="0.60086" opacity="1" fill="none">
<ellipse cx="-1085.35559" cy="-3336.28271" rx="3" ry="3" fill="#ffffff"/>

<ellipse cx="-1085.35559" cy="-3247.28271" rx="3" ry="3" fill="#ffffff"/>

<ellipse cx="-1287.35559" cy="-3247.28271" rx="3" ry="3" fill="#ffffff"/>

<ellipse cx="-1287.35559" cy="-3336.28271" rx="3" ry="3" fill="#ffffff"/>

<path d="M-1282.35557,-3335.28279 C-1284.56471,-3335.28279 -1286.35557,-3333.49193 -1286.35557,-3331.28279 L-1286.35557,-3252.28279 C-1286.35557,-3250.07365 -1284.56471,-3248.28279 -1282.35557,-3248.28279 L-1090.35557,-3248.28279 C-1088.14643,-3248.28279 -1086.35557,-3250.07365 -1086.35557,-3252.28279 L-1086.35557,-3331.28279 C-1086.35557,-3333.49193 -1088.14643,-3335.28279 -1090.35557,-3335.28279 z" fill="#ffffff" stroke="none"/>

<path d="M-1284.52557,-3337.28279 L-1284.52557,-3335.28279 -1088.18557,-3335.28279 -1088.18557,-3337.28279 z" fill="#ffffff" stroke="none"/>

<path d="M-1284.52557,-3248.28279 L-1284.52557,-3246.28279 -1088.18557,-3246.28279 -1088.18557,-3248.28279 z" fill="#ffffff" stroke="none"/>

<path d="M-1288.35557,-3333.45279 L-1288.35557,-3250.11279 -1286.35557,-3250.11279 -1286.35557,-3333.45279 z" fill="#ffffff" stroke="none"/>

<path d="M-1086.35557,-3333.45279 L-1086.35557,-3250.11279 -1084.35557,-3250.11279 -1084.35557,-3333.45279 z" fill="#ffffff" stroke="none"/>
</g><g transform="translate(0,0.96734) scale(0.49928) translate(1604.8339,3892.6412)" stroke="#000000" stroke-width="0.60086" opacity="1" fill="none">
<path d="M-1282.35557,-3335.28279 C-1284.56471,-3335.28279 -1286.35557,-3333.49193 -1286.35557,-3331.28279 L-1286.35557,-3252.28279 C-1286.35557,-3250.07365 -1284.56471,-3248.28279 -1282.35557,-3248.28279 L-1090.35557,-3248.28279 C-1088.14643,-3248.28279 -1086.35557,-3250.07365 -1086.35557,-3252.28279 L-1086.35557,-3331.28279 C-1086.35557,-3333.49193 -1088.14643,-3335.28279 -1090.35557,-3335.28279 z"/>

<ellipse cx="-1085.35559" cy="-3336.28271" rx="3" ry="3"/>

<ellipse cx="-1085.35559" cy="-3247.28271" rx="3" ry="3"/>

<ellipse cx="-1287.35559" cy="-3247.28271" rx="3" ry="3"/>

<ellipse cx="-1287.35559" cy="-3336.28271" rx="3" ry="3"/>

<path d="M-1284.52557,-3337.28279 L-1088.18557,-3337.28279"/>

<path d="M-1088.18557,-3335.28279 L-1090.35557,-3335.28279"/>

<path d="M-1284.52557,-3335.28279 L-1282.35557,-3335.28279"/>

<path d="M-1284.52557,-3246.28279 L-1088.18557,-3246.28279"/>

<path d="M-1088.18557,-3248.28279 L-1090.35557,-3248.28279"/>

<path d="M-1284.52557,-3248.28279 L-1282.35557,-3248.28279"/>

<path d="M-1288.35557,-3333.45279 L-1288.35557,-3250.11279"/>

<path d="M-1286.35557,-3333.45279 L-1286.35557,-3331.28279"/>

<path d="M-1286.35557,-3250.11279 L-1286.35557,-3252.28279"/>

<path d="M-1084.35557,-3250.11279 L-1084.35557,-3333.45279"/>

<path d="M-1086.35557,-3333.45279 L-1086.35557,-3331.28279"/>

<path d="M-1086.35557,-3250.11279 L-1086.35557,-3252.28279"/>

<path d="M-1132.27557,-3337.28279 L-1132.27557,-3335.28279"/>

<path d="M-1207.15557,-3337.28279 L-1207.15557,-3335.28279"/>

<path d="M-1259.15557,-3337.28279 L-1259.15557,-3339.28279 -1227.95557,-3339.28279 -1227.95557,-3337.28279"/>
</g><g transform="translate(0,0.96734) scale(0.49928) translate(1604.8339,3892.6412)" stroke="#ffffff" stroke-width="0.60086" opacity="1" fill="none">
<path d="M-1121.03557,-3312.68279 C-1123.79699,-3312.68279 -1126.03557,-3310.44421 -1126.03557,-3307.68279 L-1130.19557,-3259.73279 C-1130.19557,-3256.97137 -1127.95699,-3254.73279 -1125.19557,-3254.73279 L-1099.83557,-3252.83279 C-1097.07415,-3252.83279 -1094.83557,-3255.07137 -1094.83557,-3257.83279 L-1090.67557,-3305.78279 C-1090.67557,-3308.54421 -1092.91415,-3310.78279 -1095.67557,-3310.78279 z" fill="#ffffff" stroke="none"/>
</g><g transform="translate(0,0.96734) scale(0.49928) translate(1604.8339,3892.6412)" stroke="#000000" stroke-width="0.60086" opacity="1" fill="none">
<path d="M-1121.03557,-3312.68279 C-1123.79699,-3312.68279 -1126.03557,-3310.44421 -1126.03557,-3307.68279 L-1130.19557,-3259.73279 C-1130.19557,-3256.97137 -1127.95699,-3254.73279 -1125.19557,-3254.73279 L-1099.83557,-3252.83279 C-1097.07415,-3252.83279 -1094.83557,-3255.07137 -1094.83557,-3257.83279 L-1090.67557,-3305.78279 C-1090.67557,-3308.54421 -1092.91415,-3310.78279 -1095.67557,-3310.78279 z"/>
</g><g transform="translate(0,0.96734) scale(0.49928) translate(1604.8339,3892.6412)" stroke="#ffffff" stroke-width="0.60086" opacity="1" fill="none">
<ellipse cx="-1085.35559" cy="-3042.5481" rx="3" ry="3" fill="#ffffff"/>

<ellipse cx="-1085.35559" cy="-2953.5481" rx="3" ry="3" fill="#ffffff"/>

<ellipse cx="-1287.35559" cy="-2953.5481" rx="3" ry="3" fill="#ffffff"/>

<ellipse cx="-1287.35559" cy="-3042.5481" rx="3" ry="3" fill="#ffffff"/>

<path d="M-1282.35557,-3041.54807 C-1284.56471,-3041.54807 -1286.35557,-3039.75721 -1286.35557,-3037.54807 L-1286.35557,-2958.54807 C-1286.35557,-2956.33893 -1284.56471,-2954.54807 -1282.35557,-2954.54807 L-1090.35557,-2954.54807 C-1088.14643,-2954.54807 -1086.35557,-2956.33893 -1086.35557,-2958.54807 L-1086.35557,-3037.54807 C-1086.35557,-3039.75721 -1088.14643,-3041.54807 -1090.35557,-3041.54807 z" fill="#ffffff" stroke="none"/>

<path d="M-1284.52557,-3043.54807 L-1284.52557,-3041.54807 -1088.18557,-3041.54807 -1088.18557,-3043.54807 z" fill="#ffffff" stroke="none"/>

<path d="M-1284.52557,-2954.54807 L-1284.52557,-2952.54807 -1088.18557,-2952.54807 -1088.18557,-2954.54807 z" fill="#ffffff" stroke="none"/>

<path d="M-1288.35557,-3039.71807 L-1288.35557,-2956.37807 -1286.35557,-2956.37807 -1286.35557,-3039.71807 z" fill="#ffffff" stroke="none"/>

<path d="M-1086.35557,-3039.71807 L-1086.35557,-2956.37807 -1084.35557,-2956.37807 -1084.35557,-3039.71807 z" fill="#ffffff" stroke="none"/>
</g><g transform="translate(0,0.96734) scale(0.49928) translate(1604.8339,3892.6412)" stroke="#000000" stroke-width="0.60086" opacity="1" fill="none">
<path d="M-1282.35557,-3041.54807 C-1284.56471,-3041.54807 -1286.35557,-3039.75721 -1286.35557,-3037.54807 L-1286.35557,-2958.54807 C-1286.35557,-2956.33893 -1284.56471,-2954.54807 -1282.35557,-2954.54807 L-1090.35557,-2954.54807 C-1088.14643,-2954.54807 -1086.35557,-2956.33893 -1086.35557,-2958.54807 L-1086.35557,-3037.54807 C-1086.35557,-3039.75721 -1088.14643,-3041.54807 -1090.35557,-3041.54807 z"/>

<ellipse cx="-1085.35559" cy="-3042.5481" rx="3" ry="3"/>

<ellipse cx="-1085.35559" cy="-2953.5481" rx="3" ry="3"/>

<ellipse cx="-1287.35559" cy="-2953.5481" rx="3" ry="3"/>

<ellipse cx="-1287.35559" cy="-3042.5481" rx="3" ry="3"/>

<path d="M-1284.52557,-3043.54807 L-1088.18557,-3043.54807"/>

<path d="M-1088.18557,-3041.54807 L-1090.35557,-3041.54807"/>

<path d="M-1284.52557,-3041.54807 L-1282.35557,-3041.54807"/>

<path d="M-1284.52557,-2952.54807 L-1088.18557,-2952.54807"/>

<path d="M-1088.18557,-2954.54807 L-1090.35557,-2954.54807"/>

<path d="M-1284.52557,-2954.54807 L-1282.35557,-2954.54807"/>

<path d="M-1288.35557,-3039.71807 L-1288.35557,-2956.37807"/>

<path d="M-1286.35557,-3039.71807 L-1286.35557,-3037.54807"/>

<path d="M-1286.35557,-2956.37807 L-1286.35557,-2958.54807"/>

<path d="M-1084.35557,-2956.37807 L-1084.35557,-3039.71807"/>

<path d="M-1086.35557,-3039.71807 L-1086.35557,-3037.54807"/>

<path d="M-1086.35557,-2956.37807 L-1086.35557,-2958.54807"/>

<path d="M-1132.27557,-3043.54807 L-1132.27557,-3041.54807"/>

<path d="M-1207.15557,-3043.54807 L-1207.15557,-3041.54807"/>

<path d="M-1259.15557,-3043.54807 L-1259.15557,-3045.54807 -1227.95557,-3045.54807 -1227.95557,-3043.54807"/>
</g><g transform="translate(0,0.96734) scale(0.49928) translate(1604.8339,3892.6412)" stroke="#ffffff" stroke-width="0.60086" opacity="1" fill="none">
<path d="M-1121.03557,-3018.94807 C-1123.79699,-3018.94807 -1126.03557,-3016.70949 -1126.03557,-3013.94807 L-1130.19557,-2965.99807 C-1130.19557,-2963.23665 -1127.95699,-2960.99807 -1125.19557,-2960.99807 L-1099.83557,-2959.09807 C-1097.07415,-2959.09807 -1094.83557,-2961.33665 -1094.83557,-2964.09807 L-1090.67557,-3012.04807 C-1090.67557,-3014.80949 -1092.91415,-3017.04807 -1095.67557,-3017.04807 z" fill="#ffffff" stroke="none"/>
</g><g transform="translate(0,0.96734) scale(0.49928) translate(1604.8339,3892.6412)" stroke="#000000" stroke-width="0.60086" opacity="1" fill="none">
<path d="M-1121.03557,-3018.94807 C-1123.79699,-3018.94807 -1126.03557,-3016.70949 -1126.03557,-3013.94807 L-1130.19557,-2965.99807 C-1130.19557,-2963.23665 -1127.95699,-2960.99807 -1125.19557,-2960.99807 L-1099.83557,-2959.09807 C-1097.07415,-2959.09807 -1094.83557,-2961.33665 -1094.83557,-2964.09807 L-1090.67557,-3012.04807 C-1090.67557,-3014.80949 -1092.91415,-3017.04807 -1095.67557,-3017.04807 z"/>
</g><g transform="translate(0,0.96734) scale(0.49928) translate(1604.8339,3892.6412)" stroke="#ffffff" stroke-width="0.60086" opacity="1" fill="none">
<ellipse cx="-1136.34741" cy="-2677.37012" rx="3" ry="3" fill="#ffffff"/>

<ellipse cx="-1136.34741" cy="-2588.37012" rx="3" ry="3" fill="#ffffff"/>

<ellipse cx="-1338.34741" cy="-2588.37012" rx="3" ry="3" fill="#ffffff"/>

<ellipse cx="-1338.34741" cy="-2677.37012" rx="3" ry="3" fill="#ffffff"/>

<path d="M-1333.34743,-2676.37021 C-1335.55657,-2676.37021 -1337.34743,-2674.57935 -1337.34743,-2672.37021 L-1337.34743,-2593.37021 C-1337.34743,-2591.16107 -1335.55657,-2589.37021 -1333.34743,-2589.37021 L-1141.34743,-2589.37021 C-1139.13829,-2589.37021 -1137.34743,-2591.16107 -1137.34743,-2593.37021 L-1137.34743,-2672.37021 C-1137.34743,-2674.57935 -1139.13829,-2676.37021 -1141.34743,-2676.37021 z" fill="#ffffff" stroke="none"/>

<path d="M-1335.51743,-2678.37021 L-1335.51743,-2676.37021 -1139.17743,-2676.37021 -1139.17743,-2678.37021 z" fill="#ffffff" stroke="none"/>

<path d="M-1335.51743,-2589.37021 L-1335.51743,-2587.37021 -1139.17743,-2587.37021 -1139.17743,-2589.37021 z" fill="#ffffff" stroke="none"/>

<path d="M-1339.34743,-2674.54021 L-1339.34743,-2591.20021 -1337.34743,-2591.20021 -1337.34743,-2674.54021 z" fill="#ffffff" stroke="none"/>

<path d="M-1137.34743,-2674.54021 L-1137.34743,-2591.20021 -1135.34743,-2591.20021 -1135.34743,-2674.54021 z" fill="#ffffff" stroke="none"/>
</g><g transform="translate(0,0.96734) scale(0.49928) translate(1604.8339,3892.6412)" stroke="#000000" stroke-width="0.60086" opacity="1" fill="none">
<path d="M-1333.34743,-2676.37021 C-1335.55657,-2676.37021 -1337.34743,-2674.57935 -1337.34743,-2672.37021 L-1337.34743,-2593.37021 C-1337.34743,-2591.16107 -1335.55657,-2589.37021 -1333.34743,-2589.37021 L-1141.34743,-2589.37021 C-1139.13829,-2589.37021 -1137.34743,-2591.16107 -1137.34743,-2593.37021 L-1137.34743,-2672.37021 C-1137.34743,-2674.57935 -1139.13829,-2676.37021 -1141.34743,-2676.37021 z"/>

<ellipse cx="-1136.34741" cy="-2677.37012" rx="3" ry="3"/>

<ellipse cx="-1136.34741" cy="-2588.37012" rx="3" ry="3"/>

<ellipse cx="-1338.34741" cy="-2588.37012" rx="3" ry="3"/>

<ellipse cx="-1338.34741" cy="-2677.37012" rx="3" ry="3"/>

<path d="M-1335.51743,-2678.37021 L-1139.17743,-2678.37021"/>

<path d="M-1139.17743,-2676.37021 L-1141.34743,-2676.37021"/>

<path d="M-1335.51743,-2676.37021 L-1333.34743,-2676.37021"/>

<path d="M-1335.51743,-2587.37021 L-1139.17743,-2587.37021"/>

<path d="M-1139.17743,-2589.37021 L-1141.34743,-2589.37021"/>

<path d="M-1335.51743,-2589.37021 L-1333.34743,-2589.37021"/>

<path d="M-1339.34743,-2674.54021 L-1339.34743,-2591.20021"/>

<path d="M-1337.34743,-2674.54021 L-1337.34743,-2672.37021"/>

<path d="M-1337.34743,-2591.20021 L-1337.34743,-2593.37021"/>

<path d="M-1135.34743,-2591.20021 L-1135.34743,-2674.54021"/>

<path d="M-1137.34743,-2674.54021 L-1137.34743,-2672.37021"/>

<path d="M-1137.34743,-2591.20021 L-1137.34743,-2593.37021"/>

<path d="M-1183.26743,-2678.37021 L-1183.26743,-2676.37021"/>

<path d="M-1258.14743,-2678.37021 L-1258.14743,-2676.37021"/>

<path d="M-1310.14743,-2678.37021 L-1310.14743,-2680.37021 -1278.94743,-2680.37021 -1278.94743,-2678.37021"/>
</g><g transform="translate(0,0.96734) scale(0.49928) translate(1604.8339,3892.6412)" stroke="#ffffff" stroke-width="0.60086" opacity="1" fill="none">
<path d="M-1172.02743,-2653.77021 C-1174.78885,-2653.77021 -1177.02743,-2651.53163 -1177.02743,-2648.77021 L-1181.18743,-2600.82021 C-1181.18743,-2598.05879 -1178.94885,-2595.82021 -1176.18743,-2595.82021 L-1150.82743,-2593.92021 C-1148.06601,-2593.92021 -1145.82743,-2596.15879 -1145.82743,-2598.92021 L-1141.66743,-2646.87021 C-1141.66743,-2649.63163 -1143.90601,-2651.87021 -1146.66743,-2651.87021 z" fill="#ffffff" stroke="none"/>
</g><g transform="translate(0,0.96734) scale(0.49928) translate(1604.8339,3892.6412)" stroke="#000000" stroke-width="0.60086" opacity="1" fill="none">
<path d="M-1172.02743,-2653.77021 C-1174.78885,-2653.77021 -1177.02743,-2651.53163 -1177.02743,-2648.77021 L-1181.18743,-2600.82021 C-1181.18743,-2598.05879 -1178.94885,-2595.82021 -1176.18743,-2595.82021 L-1150.82743,-2593.92021 C-1148.06601,-2593.92021 -1145.82743,-2596.15879 -1145.82743,-2598.92021 L-1141.66743,-2646.87021 C-1141.66743,-2649.63163 -1143.90601,-2651.87021 -1146.66743,-2651.87021 z"/>
</g><g transform="translate(0,0.96734) scale(0.49928) translate(1604.8339,3892.6412)" stroke="#ffffff" stroke-width="0.60086" opacity="1" fill="none">
<ellipse cx="-928.34741" cy="-2677.37012" rx="3" ry="3" fill="#ffffff"/>

<ellipse cx="-928.34741" cy="-2588.37012" rx="3" ry="3" fill="#ffffff"/>

<ellipse cx="-1130.34741" cy="-2588.37012" rx="3" ry="3" fill="#ffffff"/>

<ellipse cx="-1130.34741" cy="-2677.37012" rx="3" ry="3" fill="#ffffff"/>

<path d="M-1125.34743,-2676.37021 C-1127.55657,-2676.37021 -1129.34743,-2674.57935 -1129.34743,-2672.37021 L-1129.34743,-2593.37021 C-1129.34743,-2591.16107 -1127.55657,-2589.37021 -1125.34743,-2589.37021 L-933.34743,-2589.37021 C-931.13829,-2589.37021 -929.34743,-2591.16107 -929.34743,-2593.37021 L-929.34743,-2672.37021 C-929.34743,-2674.57935 -931.13829,-2676.37021 -933.34743,-2676.37021 z" fill="#ffffff" stroke="none"/>

<path d="M-1127.51743,-2678.37021 L-1127.51743,-2676.37021 -931.17743,-2676.37021 -931.17743,-2678.37021 z" fill="#ffffff" stroke="none"/>

<path d="M-1127.51743,-2589.37021 L-1127.51743,-2587.37021 -931.17743,-2587.37021 -931.17743,-2589.37021 z" fill="#ffffff" stroke="none"/>

<path d="M-1131.34743,-2674.54021 L-1131.34743,-2591.20021 -1129.34743,-2591.20021 -1129.34743,-2674.54021 z" fill="#ffffff" stroke="none"/>

<path d="M-929.34743,-2674.54021 L-929.34743,-2591.20021 -927.34743,-2591.20021 -927.34743,-2674.54021 z" fill="#ffffff" stroke="none"/>
</g><g transform="translate(0,0.96734) scale(0.49928) translate(1604.8339,3892.6412)" stroke="#000000" stroke-width="0.60086" opacity="1" fill="none">
<path d="M-1125.34743,-2676.37021 C-1127.55657,-2676.37021 -1129.34743,-2674.57935 -1129.34743,-2672.37021 L-1129.34743,-2593.37021 C-1129.34743,-2591.16107 -1127.55657,-2589.37021 -1125.34743,-2589.37021 L-933.34743,-2589.37021 C-931.13829,-2589.37021 -929.34743,-2591.16107 -929.34743,-2593.37021 L-929.34743,-2672.37021 C-929.34743,-2674.57935 -931.13829,-2676.37021 -933.34743,-2676.37021 z"/>

<ellipse cx="-928.34741" cy="-2677.37012" rx="3" ry="3"/>

<ellipse cx="-928.34741" cy="-2588.37012" rx="3" ry="3"/>

<ellipse cx="-1130.34741" cy="-2588.37012" rx="3" ry="3"/>

<ellipse cx="-1130.34741" cy="-2677.37012" rx="3" ry="3"/>

<path d="M-1127.51743,-2678.37021 L-931.17743,-2678.37021"/>

<path d="M-931.17743,-2676.37021 L-933.34743,-2676.37021"/>

<path d="M-1127.51743,-2676.37021 L-1125.34743,-2676.37021"/>

<path d="M-1127.51743,-2587.37021 L-931.17743,-2587.37021"/>

<path d="M-931.17743,-2589.37021 L-933.34743,-2589.37021"/>

<path d="M-1127.51743,-2589.37021 L-1125.34743,-2589.37021"/>

<path d="M-1131.34743,-2674.54021 L-1131.34743,-2591.20021"/>

<path d="M-1129.34743,-2674.54021 L-1129.34743,-2672.37021"/>

<path d="M-1129.34743,-2591.20021 L-1129.34743,-2593.37021"/>

<path d="M-927.34743,-2591.20021 L-927.34743,-2674.54021"/>

<path d="M-929.34743,-2674.54021 L-929.34743,-2672.37021"/>

<path d="M-929.34743,-2591.20021 L-929.34743,-2593.37021"/>

<path d="M-975.26743,-2678.37021 L-975.26743,-2676.37021"/>

<path d="M-1050.14743,-2678.37021 L-1050.14743,-2676.37021"/>

<path d="M-1102.14743,-2678.37021 L-1102.14743,-2680.37021 -1070.94743,-2680.37021 -1070.94743,-2678.37021"/>
</g><g transform="translate(0,0.96734) scale(0.49928) translate(1604.8339,3892.6412)" stroke="#ffffff" stroke-width="0.60086" opacity="1" fill="none">
<path d="M-964.02743,-2653.77021 C-966.78885,-2653.77021 -969.02743,-2651.53163 -969.02743,-2648.77021 L-973.18743,-2600.82021 C-973.18743,-2598.05879 -970.94885,-2595.82021 -968.18743,-2595.82021 L-942.82743,-2593.92021 C-940.06601,-2593.92021 -937.82743,-2596.15879 -937.82743,-2598.92021 L-933.66743,-2646.87021 C-933.66743,-2649.63163 -935.90601,-2651.87021 -938.66743,-2651.87021 z" fill="#ffffff" stroke="none"/>
</g><g transform="translate(0,0.96734) scale(0.49928) translate(1604.8339,3892.6412)" stroke="#000000" stroke-width="0.60086" opacity="1" fill="none">
<path d="M-964.02743,-2653.77021 C-966.78885,-2653.77021 -969.02743,-2651.53163 -969.02743,-2648.77021 L-973.18743,-2600.82021 C-973.18743,-2598.05879 -970.94885,-2595.82021 -968.18743,-2595.82021 L-942.82743,-2593.92021 C-940.06601,-2593.92021 -937.82743,-2596.15879 -937.82743,-2598.92021 L-933.66743,-2646.87021 C-933.66743,-2649.63163 -935.90601,-2651.87021 -938.66743,-2651.87021 z"/>
</g><g transform="translate(0,0.96734) scale(0.49928) translate(1604.8339,3892.6412)" stroke="#ffffff" stroke-width="0.60086" opacity="1" fill="none">
<ellipse cx="-720.34741" cy="-2677.37012" rx="3" ry="3" fill="#ffffff"/>

<ellipse cx="-720.34741" cy="-2588.37012" rx="3" ry="3" fill="#ffffff"/>

<ellipse cx="-922.34741" cy="-2588.37012" rx="3" ry="3" fill="#ffffff"/>

<ellipse cx="-922.34741" cy="-2677.37012" rx="3" ry="3" fill="#ffffff"/>

<path d="M-917.34743,-2676.37021 C-919.55657,-2676.37021 -921.34743,-2674.57935 -921.34743,-2672.37021 L-921.34743,-2593.37021 C-921.34743,-2591.16107 -919.55657,-2589.37021 -917.34743,-2589.37021 L-725.34743,-2589.37021 C-723.13829,-2589.37021 -721.34743,-2591.16107 -721.34743,-2593.37021 L-721.34743,-2672.37021 C-721.34743,-2674.57935 -723.13829,-2676.37021 -725.34743,-2676.37021 z" fill="#ffffff" stroke="none"/>

<path d="M-919.51743,-2678.37021 L-919.51743,-2676.37021 -723.17743,-2676.37021 -723.17743,-2678.37021 z" fill="#ffffff" stroke="none"/>

<path d="M-919.51743,-2589.37021 L-919.51743,-2587.37021 -723.17743,-2587.37021 -723.17743,-2589.37021 z" fill="#ffffff" stroke="none"/>

<path d="M-923.34743,-2674.54021 L-923.34743,-2591.20021 -921.34743,-2591.20021 -921.34743,-2674.54021 z" fill="#ffffff" stroke="none"/>

<path d="M-721.34743,-2674.54021 L-721.34743,-2591.20021 -719.34743,-2591.20021 -719.34743,-2674.54021 z" fill="#ffffff" stroke="none"/>
</g><g transform="translate(0,0.96734) scale(0.49928) translate(1604.8339,3892.6412)" stroke="#000000" stroke-width="0.60086" opacity="1" fill="none">
<path d="M-917.34743,-2676.37021 C-919.55657,-2676.37021 -921.34743,-2674.57935 -921.34743,-2672.37021 L-921.34743,-2593.37021 C-921.34743,-2591.16107 -919.55657,-2589.37021 -917.34743,-2589.37021 L-725.34743,-2589.37021 C-723.13829,-2589.37021 -721.34743,-2591.16107 -721.34743,-2593.37021 L-721.34743,-2672.37021 C-721.34743,-2674.57935 -723.13829,-2676.37021 -725.34743,-2676.37021 z"/>

<ellipse cx="-720.34741" cy="-2677.37012" rx="3" ry="3"/>

<ellipse cx="-720.34741" cy="-2588.37012" rx="3" ry="3"/>

<ellipse cx="-922.34741" cy="-2588.37012" rx="3" ry="3"/>

<ellipse cx="-922.34741" cy="-2677.37012" rx="3" ry="3"/>

<path d="M-919.51743,-2678.37021 L-723.17743,-2678.37021"/>

<path d="M-723.17743,-2676.37021 L-725.34743,-2676.37021"/>

<path d="M-919.51743,-2676.37021 L-917.34743,-2676.37021"/>

<path d="M-919.51743,-2587.37021 L-723.17743,-2587.37021"/>

<path d="M-723.17743,-2589.37021 L-725.34743,-2589.37021"/>

<path d="M-919.51743,-2589.37021 L-917.34743,-2589.37021"/>

<path d="M-923.34743,-2674.54021 L-923.34743,-2591.20021"/>

<path d="M-921.34743,-2674.54021 L-921.34743,-2672.37021"/>

<path d="M-921.34743,-2591.20021 L-921.34743,-2593.37021"/>

<path d="M-719.34743,-2591.20021 L-719.34743,-2674.54021"/>

<path d="M-721.34743,-2674.54021 L-721.34743,-2672.37021"/>

<path d="M-721.34743,-2591.20021 L-721.34743,-2593.37021"/>

<path d="M-767.26743,-2678.37021 L-767.26743,-2676.37021"/>

<path d="M-842.14743,-2678.37021 L-842.14743,-2676.37021"/>

<path d="M-894.14743,-2678.37021 L-894.14743,-2680.37021 -862.94743,-2680.37021 -862.94743,-2678.37021"/>
</g><g transform="translate(0,0.96734) scale(0.49928) translate(1604.8339,3892.6412)" stroke="#ffffff" stroke-width="0.60086" opacity="1" fill="none">
<path d="M-756.02743,-2653.77021 C-758.78885,-2653.77021 -761.02743,-2651.53163 -761.02743,-2648.77021 L-765.18743,-2600.82021 C-765.18743,-2598.05879 -762.94885,-2595.82021 -760.18743,-2595.82021 L-734.82743,-2593.92021 C-732.06601,-2593.92021 -729.82743,-2596.15879 -729.82743,-2598.92021 L-725.66743,-2646.87021 C-725.66743,-2649.63163 -727.90601,-2651.87021 -730.66743,-2651.87021 z" fill="#ffffff" stroke="none"/>
</g><g transform="translate(0,0.96734) scale(0.49928) translate(1604.8339,3892.6412)" stroke="#000000" stroke-width="0.60086" opacity="1" fill="none">
<path d="M-756.02743,-2653.77021 C-758.78885,-2653.77021 -761.02743,-2651.53163 -761.02743,-2648.77021 L-765.18743,-2600.82021 C-765.18743,-2598.05879 -762.94885,-2595.82021 -760.18743,-2595.82021 L-734.82743,-2593.92021 C-732.06601,-2593.92021 -729.82743,-2596.15879 -729.82743,-2598.92021 L-725.66743,-2646.87021 C-725.66743,-2649.63163 -727.90601,-2651.87021 -730.66743,-2651.87021 z"/>
</g><g transform="translate(0,0.96734) scale(0.49928) translate(1604.8339,3892.6412)" stroke="#ffffff" stroke-width="0.60086" opacity="1" fill="none">
<ellipse cx="-781.29279" cy="-3042.5481" rx="3" ry="3" fill="#ffffff"/>

<ellipse cx="-781.29279" cy="-2953.5481" rx="3" ry="3" fill="#ffffff"/>

<ellipse cx="-983.29279" cy="-2953.5481" rx="3" ry="3" fill="#ffffff"/>

<ellipse cx="-983.29279" cy="-3042.5481" rx="3" ry="3" fill="#ffffff"/>

<path d="M-978.29277,-3041.54807 C-980.50191,-3041.54807 -982.29277,-3039.75721 -982.29277,-3037.54807 L-982.29277,-2958.54807 C-982.29277,-2956.33893 -980.50191,-2954.54807 -978.29277,-2954.54807 L-786.29277,-2954.54807 C-784.08363,-2954.54807 -782.29277,-2956.33893 -782.29277,-2958.54807 L-782.29277,-3037.54807 C-782.29277,-3039.75721 -784.08363,-3041.54807 -786.29277,-3041.54807 z" fill="#ffffff" stroke="none"/>

<path d="M-980.46277,-3043.54807 L-980.46277,-3041.54807 -784.12277,-3041.54807 -784.12277,-3043.54807 z" fill="#ffffff" stroke="none"/>

<path d="M-980.46277,-2954.54807 L-980.46277,-2952.54807 -784.12277,-2952.54807 -784.12277,-2954.54807 z" fill="#ffffff" stroke="none"/>

<path d="M-984.29277,-3039.71807 L-984.29277,-2956.37807 -982.29277,-2956.37807 -982.29277,-3039.71807 z" fill="#ffffff" stroke="none"/>

<path d="M-782.29277,-3039.71807 L-782.29277,-2956.37807 -780.29277,-2956.37807 -780.29277,-3039.71807 z" fill="#ffffff" stroke="none"/>
</g><g transform="translate(0,0.96734) scale(0.49928) translate(1604.8339,3892.6412)" stroke="#000000" stroke-width="0.60086" opacity="1" fill="none">
<path d="M-978.29277,-3041.54807 C-980.50191,-3041.54807 -982.29277,-3039.75721 -982.29277,-3037.54807 L-982.29277,-2958.54807 C-982.29277,-2956.33893 -980.50191,-2954.54807 -978.29277,-2954.54807 L-786.29277,-2954.54807 C-784.08363,-2954.54807 -782.29277,-2956.33893 -782.29277,-2958.54807 L-782.29277,-3037.54807 C-782.29277,-3039.75721 -784.08363,-3041.54807 -786.29277,-3041.54807 z"/>

<ellipse cx="-781.29279" cy="-3042.5481" rx="3" ry="3"/>

<ellipse cx="-781.29279" cy="-2953.5481" rx="3" ry="3"/>

<ellipse cx="-983.29279" cy="-2953.5481" rx="3" ry="3"/>

<ellipse cx="-983.29279" cy="-3042.5481" rx="3" ry="3"/>

<path d="M-980.46277,-3043.54807 L-784.12277,-3043.54807"/>

<path d="M-784.12277,-3041.54807 L-786.29277,-3041.54807"/>

<path d="M-980.46277,-3041.54807 L-978.29277,-3041.54807"/>

<path d="M-980.46277,-2952.54807 L-784.12277,-2952.54807"/>

<path d="M-784.12277,-2954.54807 L-786.29277,-2954.54807"/>

<path d="M-980.46277,-2954.54807 L-978.29277,-2954.54807"/>

<path d="M-984.29277,-3039.71807 L-984.29277,-2956.37807"/>

<path d="M-982.29277,-3039.71807 L-982.29277,-3037.54807"/>

<path d="M-982.29277,-2956.37807 L-982.29277,-2958.54807"/>

<path d="M-780.29277,-2956.37807 L-780.29277,-3039.71807"/>

<path d="M-782.29277,-3039.71807 L-782.29277,-3037.54807"/>

<path d="M-782.29277,-2956.37807 L-782.29277,-2958.54807"/>

<path d="M-828.21277,-3043.54807 L-828.21277,-3041.54807"/>

<path d="M-903.09277,-3043.54807 L-903.09277,-3041.54807"/>

<path d="M-955.09277,-3043.54807 L-955.09277,-3045.54807 -923.89277,-3045.54807 -923.89277,-3043.54807"/>
</g><g transform="translate(0,0.96734) scale(0.49928) translate(1604.8339,3892.6412)" stroke="#ffffff" stroke-width="0.60086" opacity="1" fill="none">
<path d="M-816.97277,-3018.94807 C-819.73419,-3018.94807 -821.97277,-3016.70949 -821.97277,-3013.94807 L-826.13277,-2965.99807 C-826.13277,-2963.23665 -823.89419,-2960.99807 -821.13277,-2960.99807 L-795.77277,-2959.09807 C-793.01135,-2959.09807 -790.77277,-2961.33665 -790.77277,-2964.09807 L-786.61277,-3012.04807 C-786.61277,-3014.80949 -788.85135,-3017.04807 -791.61277,-3017.04807 z" fill="#ffffff" stroke="none"/>
</g><g transform="translate(0,0.96734) scale(0.49928) translate(1604.8339,3892.6412)" stroke="#000000" stroke-width="0.60086" opacity="1" fill="none">
<path d="M-816.97277,-3018.94807 C-819.73419,-3018.94807 -821.97277,-3016.70949 -821.97277,-3013.94807 L-826.13277,-2965.99807 C-826.13277,-2963.23665 -823.89419,-2960.99807 -821.13277,-2960.99807 L-795.77277,-2959.09807 C-793.01135,-2959.09807 -790.77277,-2961.33665 -790.77277,-2964.09807 L-786.61277,-3012.04807 C-786.61277,-3014.80949 -788.85135,-3017.04807 -791.61277,-3017.04807 z"/>
</g><g transform="translate(0,0.96734) scale(0.49928) translate(1604.8339,3892.6412)" stroke="#ffffff" stroke-width="0.60086" opacity="1" fill="none">
<ellipse cx="-512.34741" cy="-2677.37012" rx="3" ry="3" fill="#ffffff"/>

<ellipse cx="-512.34741" cy="-2588.37012" rx="3" ry="3" fill="#ffffff"/>

<ellipse cx="-714.34741" cy="-2588.37012" rx="3" ry="3" fill="#ffffff"/>

<ellipse cx="-714.34741" cy="-2677.37012" rx="3" ry="3" fill="#ffffff"/>

<path d="M-709.34743,-2676.37021 C-711.55657,-2676.37021 -713.34743,-2674.57935 -713.34743,-2672.37021 L-713.34743,-2593.37021 C-713.34743,-2591.16107 -711.55657,-2589.37021 -709.34743,-2589.37021 L-517.34743,-2589.37021 C-515.13829,-2589.37021 -513.34743,-2591.16107 -513.34743,-2593.37021 L-513.34743,-2672.37021 C-513.34743,-2674.57935 -515.13829,-2676.37021 -517.34743,-2676.37021 z" fill="#ffffff" stroke="none"/>

<path d="M-711.51743,-2678.37021 L-711.51743,-2676.37021 -515.17743,-2676.37021 -515.17743,-2678.37021 z" fill="#ffffff" stroke="none"/>

<path d="M-711.51743,-2589.37021 L-711.51743,-2587.37021 -515.17743,-2587.37021 -515.17743,-2589.37021 z" fill="#ffffff" stroke="none"/>

<path d="M-715.34743,-2674.54021 L-715.34743,-2591.20021 -713.34743,-2591.20021 -713.34743,-2674.54021 z" fill="#ffffff" stroke="none"/>

<path d="M-513.34743,-2674.54021 L-513.34743,-2591.20021 -511.34743,-2591.20021 -511.34743,-2674.54021 z" fill="#ffffff" stroke="none"/>
</g><g transform="translate(0,0.96734) scale(0.49928) translate(1604.8339,3892.6412)" stroke="#000000" stroke-width="0.60086" opacity="1" fill="none">
<path d="M-709.34743,-2676.37021 C-711.55657,-2676.37021 -713.34743,-2674.57935 -713.34743,-2672.37021 L-713.34743,-2593.37021 C-713.34743,-2591.16107 -711.55657,-2589.37021 -709.34743,-2589.37021 L-517.34743,-2589.37021 C-515.13829,-2589.37021 -513.34743,-2591.16107 -513.34743,-2593.37021 L-513.34743,-2672.37021 C-513.34743,-2674.57935 -515.13829,-2676.37021 -517.34743,-2676.37021 z"/>

<ellipse cx="-512.34741" cy="-2677.37012" rx="3" ry="3"/>

<ellipse cx="-512.34741" cy="-2588.37012" rx="3" ry="3"/>

<ellipse cx="-714.34741" cy="-2588.37012" rx="3" ry="3"/>

<ellipse cx="-714.34741" cy="-2677.37012" rx="3" ry="3"/>

<path d="M-711.51743,-2678.37021 L-515.17743,-2678.37021"/>

<path d="M-515.17743,-2676.37021 L-517.34743,-2676.37021"/>

<path d="M-711.51743,-2676.37021 L-709.34743,-2676.37021"/>

<path d="M-711.51743,-2587.37021 L-515.17743,-2587.37021"/>

<path d="M-515.17743,-2589.37021 L-517.34743,-2589.37021"/>

<path d="M-711.51743,-2589.37021 L-709.34743,-2589.37021"/>

<path d="M-715.34743,-2674.54021 L-715.34743,-2591.20021"/>

<path d="M-713.34743,-2674.54021 L-713.34743,-2672.37021"/>

<path d="M-713.34743,-2591.20021 L-713.34743,-2593.37021"/>

<path d="M-511.34743,-2591.20021 L-511.34743,-2674.54021"/>

<path d="M-513.34743,-2674.54021 L-513.34743,-2672.37021"/>

<path d="M-513.34743,-2591.20021 L-513.34743,-2593.37021"/>

<path d="M-559.26743,-2678.37021 L-559.26743,-2676.37021"/>

<path d="M-634.14743,-2678.37021 L-634.14743,-2676.37021"/>

<path d="M-686.14743,-2678.37021 L-686.14743,-2680.37021 -654.94743,-2680.37021 -654.94743,-2678.37021"/>
</g><g transform="translate(0,0.96734) scale(0.49928) translate(1604.8339,3892.6412)" stroke="#ffffff" stroke-width="0.60086" opacity="1" fill="none">
<path d="M-548.02743,-2653.77021 C-550.78885,-2653.77021 -553.02743,-2651.53163 -553.02743,-2648.77021 L-557.18743,-2600.82021 C-557.18743,-2598.05879 -554.94885,-2595.82021 -552.18743,-2595.82021 L-526.82743,-2593.92021 C-524.06601,-2593.92021 -521.82743,-2596.15879 -521.82743,-2598.92021 L-517.66743,-2646.87021 C-517.66743,-2649.63163 -519.90601,-2651.87021 -522.66743,-2651.87021 z" fill="#ffffff" stroke="none"/>
</g><g transform="translate(0,0.96734) scale(0.49928) translate(1604.8339,3892.6412)" stroke="#000000" stroke-width="0.60086" opacity="1" fill="none">
<path d="M-548.02743,-2653.77021 C-550.78885,-2653.77021 -553.02743,-2651.53163 -553.02743,-2648.77021 L-557.18743,-2600.82021 C-557.18743,-2598.05879 -554.94885,-2595.82021 -552.18743,-2595.82021 L-526.82743,-2593.92021 C-524.06601,-2593.92021 -521.82743,-2596.15879 -521.82743,-2598.92021 L-517.66743,-2646.87021 C-517.66743,-2649.63163 -519.90601,-2651.87021 -522.66743,-2651.87021 z"/>
</g><g transform="translate(0,0.96734) scale(0.49928) translate(1604.8339,3892.6412)" stroke="#ffffff" stroke-width="0.60086" opacity="1" fill="none">
<ellipse cx="-781.29279" cy="-3336.28271" rx="3" ry="3" fill="#ffffff"/>

<ellipse cx="-781.29279" cy="-3247.28271" rx="3" ry="3" fill="#ffffff"/>

<ellipse cx="-983.29279" cy="-3247.28271" rx="3" ry="3" fill="#ffffff"/>

<ellipse cx="-983.29279" cy="-3336.28271" rx="3" ry="3" fill="#ffffff"/>

<path d="M-978.29277,-3335.28279 C-980.50191,-3335.28279 -982.29277,-3333.49193 -982.29277,-3331.28279 L-982.29277,-3252.28279 C-982.29277,-3250.07365 -980.50191,-3248.28279 -978.29277,-3248.28279 L-786.29277,-3248.28279 C-784.08363,-3248.28279 -782.29277,-3250.07365 -782.29277,-3252.28279 L-782.29277,-3331.28279 C-782.29277,-3333.49193 -784.08363,-3335.28279 -786.29277,-3335.28279 z" fill="#ffffff" stroke="none"/>

<path d="M-980.46277,-3337.28279 L-980.46277,-3335.28279 -784.12277,-3335.28279 -784.12277,-3337.28279 z" fill="#ffffff" stroke="none"/>

<path d="M-980.46277,-3248.28279 L-980.46277,-3246.28279 -784.12277,-3246.28279 -784.12277,-3248.28279 z" fill="#ffffff" stroke="none"/>

<path d="M-984.29277,-3333.45279 L-984.29277,-3250.11279 -982.29277,-3250.11279 -982.29277,-3333.45279 z" fill="#ffffff" stroke="none"/>

<path d="M-782.29277,-3333.45279 L-782.29277,-3250.11279 -780.29277,-3250.11279 -780.29277,-3333.45279 z" fill="#ffffff" stroke="none"/>
</g><g transform="translate(0,0.96734) scale(0.49928) translate(1604.8339,3892.6412)" stroke="#000000" stroke-width="0.60086" opacity="1" fill="none">
<path d="M-978.29277,-3335.28279 C-980.50191,-3335.28279 -982.29277,-3333.49193 -982.29277,-3331.28279 L-982.29277,-3252.28279 C-982.29277,-3250.07365 -980.50191,-3248.28279 -978.29277,-3248.28279 L-786.29277,-3248.28279 C-784.08363,-3248.28279 -782.29277,-3250.07365 -782.29277,-3252.28279 L-782.29277,-3331.28279 C-782.29277,-3333.49193 -784.08363,-3335.28279 -786.29277,-3335.28279 z"/>

<ellipse cx="-781.29279" cy="-3336.28271" rx="3" ry="3"/>

<ellipse cx="-781.29279" cy="-3247.28271" rx="3" ry="3"/>

<ellipse cx="-983.29279" cy="-3247.28271" rx="3" ry="3"/>

<ellipse cx="-983.29279" cy="-3336.28271" rx="3" ry="3"/>

<path d="M-980.46277,-3337.28279 L-784.12277,-3337.28279"/>

<path d="M-784.12277,-3335.28279 L-786.29277,-3335.28279"/>

<path d="M-980.46277,-3335.28279 L-978.29277,-3335.28279"/>

<path d="M-980.46277,-3246.28279 L-784.12277,-3246.28279"/>

<path d="M-784.12277,-3248.28279 L-786.29277,-3248.28279"/>

<path d="M-980.46277,-3248.28279 L-978.29277,-3248.28279"/>

<path d="M-984.29277,-3333.45279 L-984.29277,-3250.11279"/>

<path d="M-982.29277,-3333.45279 L-982.29277,-3331.28279"/>

<path d="M-982.29277,-3250.11279 L-982.29277,-3252.28279"/>

<path d="M-780.29277,-3250.11279 L-780.29277,-3333.45279"/>

<path d="M-782.29277,-3333.45279 L-782.29277,-3331.28279"/>

<path d="M-782.29277,-3250.11279 L-782.29277,-3252.28279"/>

<path d="M-828.21277,-3337.28279 L-828.21277,-3335.28279"/>

<path d="M-903.09277,-3337.28279 L-903.09277,-3335.28279"/>

<path d="M-955.09277,-3337.28279 L-955.09277,-3339.28279 -923.89277,-3339.28279 -923.89277,-3337.28279"/>
</g><g transform="translate(0,0.96734) scale(0.49928) translate(1604.8339,3892.6412)" stroke="#ffffff" stroke-width="0.60086" opacity="1" fill="none">
<path d="M-816.97277,-3312.68279 C-819.73419,-3312.68279 -821.97277,-3310.44421 -821.97277,-3307.68279 L-826.13277,-3259.73279 C-826.13277,-3256.97137 -823.89419,-3254.73279 -821.13277,-3254.73279 L-795.77277,-3252.83279 C-793.01135,-3252.83279 -790.77277,-3255.07137 -790.77277,-3257.83279 L-786.61277,-3305.78279 C-786.61277,-3308.54421 -788.85135,-3310.78279 -791.61277,-3310.78279 z" fill="#ffffff" stroke="none"/>
</g><g transform="translate(0,0.96734) scale(0.49928) translate(1604.8339,3892.6412)" stroke="#000000" stroke-width="0.60086" opacity="1" fill="none">
<path d="M-816.97277,-3312.68279 C-819.73419,-3312.68279 -821.97277,-3310.44421 -821.97277,-3307.68279 L-826.13277,-3259.73279 C-826.13277,-3256.97137 -823.89419,-3254.73279 -821.13277,-3254.73279 L-795.77277,-3252.83279 C-793.01135,-3252.83279 -790.77277,-3255.07137 -790.77277,-3257.83279 L-786.61277,-3305.78279 C-786.61277,-3308.54421 -788.85135,-3310.78279 -791.61277,-3310.78279 z"/>
</g><g transform="translate(0,0.96734) scale(0.49928) translate(1604.8339,3892.6412)" stroke="#ffffff" stroke-width="0.60086" opacity="1" fill="none">
<ellipse cx="-408.0101" cy="-3336.28271" rx="3" ry="3" fill="#ffffff"/>

<ellipse cx="-408.0101" cy="-3247.28271" rx="3" ry="3" fill="#ffffff"/>

<ellipse cx="-610.01007" cy="-3247.28271" rx="3" ry="3" fill="#ffffff"/>

<ellipse cx="-610.01007" cy="-3336.28271" rx="3" ry="3" fill="#ffffff"/>

<path d="M-605.0101,-3335.28279 C-607.21924,-3335.28279 -609.0101,-3333.49193 -609.0101,-3331.28279 L-609.0101,-3252.28279 C-609.0101,-3250.07365 -607.21924,-3248.28279 -605.0101,-3248.28279 L-413.0101,-3248.28279 C-410.80096,-3248.28279 -409.0101,-3250.07365 -409.0101,-3252.28279 L-409.0101,-3331.28279 C-409.0101,-3333.49193 -410.80096,-3335.28279 -413.0101,-3335.28279 z" fill="#ffffff" stroke="none"/>

<path d="M-607.1801,-3337.28279 L-607.1801,-3335.28279 -410.8401,-3335.28279 -410.8401,-3337.28279 z" fill="#ffffff" stroke="none"/>

<path d="M-607.1801,-3248.28279 L-607.1801,-3246.28279 -410.8401,-3246.28279 -410.8401,-3248.28279 z" fill="#ffffff" stroke="none"/>

<path d="M-611.0101,-3333.45279 L-611.0101,-3250.11279 -609.0101,-3250.11279 -609.0101,-3333.45279 z" fill="#ffffff" stroke="none"/>

<path d="M-409.0101,-3333.45279 L-409.0101,-3250.11279 -407.0101,-3250.11279 -407.0101,-3333.45279 z" fill="#ffffff" stroke="none"/>
</g><g transform="translate(0,0.96734) scale(0.49928) translate(1604.8339,3892.6412)" stroke="#000000" stroke-width="0.60086" opacity="1" fill="none">
<path d="M-605.0101,-3335.28279 C-607.21924,-3335.28279 -609.0101,-3333.49193 -609.0101,-3331.28279 L-609.0101,-3252.28279 C-609.0101,-3250.07365 -607.21924,-3248.28279 -605.0101,-3248.28279 L-413.0101,-3248.28279 C-410.80096,-3248.28279 -409.0101,-3250.07365 -409.0101,-3252.28279 L-409.0101,-3331.28279 C-409.0101,-3333.49193 -410.80096,-3335.28279 -413.0101,-3335.28279 z"/>

<ellipse cx="-408.0101" cy="-3336.28271" rx="3" ry="3"/>

<ellipse cx="-408.0101" cy="-3247.28271" rx="3" ry="3"/>

<ellipse cx="-610.01007" cy="-3247.28271" rx="3" ry="3"/>

<ellipse cx="-610.01007" cy="-3336.28271" rx="3" ry="3"/>

<path d="M-607.1801,-3337.28279 L-410.8401,-3337.28279"/>

<path d="M-410.8401,-3335.28279 L-413.0101,-3335.28279"/>

<path d="M-607.1801,-3335.28279 L-605.0101,-3335.28279"/>

<path d="M-607.1801,-3246.28279 L-410.8401,-3246.28279"/>

<path d="M-410.8401,-3248.28279 L-413.0101,-3248.28279"/>

<path d="M-607.1801,-3248.28279 L-605.0101,-3248.28279"/>

<path d="M-611.0101,-3333.45279 L-611.0101,-3250.11279"/>

<path d="M-609.0101,-3333.45279 L-609.0101,-3331.28279"/>

<path d="M-609.0101,-3250.11279 L-609.0101,-3252.28279"/>

<path d="M-407.0101,-3250.11279 L-407.0101,-3333.45279"/>

<path d="M-409.0101,-3333.45279 L-409.0101,-3331.28279"/>

<path d="M-409.0101,-3250.11279 L-409.0101,-3252.28279"/>

<path d="M-454.9301,-3337.28279 L-454.9301,-3335.28279"/>

<path d="M-529.8101,-3337.28279 L-529.8101,-3335.28279"/>

<path d="M-581.8101,-3337.28279 L-581.8101,-3339.28279 -550.6101,-3339.28279 -550.6101,-3337.28279"/>
</g><g transform="translate(0,0.96734) scale(0.49928) translate(1604.8339,3892.6412)" stroke="#ffffff" stroke-width="0.60086" opacity="1" fill="none">
<path d="M-443.6901,-3312.68279 C-446.45152,-3312.68279 -448.6901,-3310.44421 -448.6901,-3307.68279 L-452.8501,-3259.73279 C-452.8501,-3256.97137 -450.61152,-3254.73279 -447.8501,-3254.73279 L-422.4901,-3252.83279 C-419.72868,-3252.83279 -417.4901,-3255.07137 -417.4901,-3257.83279 L-413.3301,-3305.78279 C-413.3301,-3308.54421 -415.56868,-3310.78279 -418.3301,-3310.78279 z" fill="#ffffff" stroke="none"/>
</g><g transform="translate(0,0.96734) scale(0.49928) translate(1604.8339,3892.6412)" stroke="#000000" stroke-width="0.60086" opacity="1" fill="none">
<path d="M-443.6901,-3312.68279 C-446.45152,-3312.68279 -448.6901,-3310.44421 -448.6901,-3307.68279 L-452.8501,-3259.73279 C-452.8501,-3256.97137 -450.61152,-3254.73279 -447.8501,-3254.73279 L-422.4901,-3252.83279 C-419.72868,-3252.83279 -417.4901,-3255.07137 -417.4901,-3257.83279 L-413.3301,-3305.78279 C-413.3301,-3308.54421 -415.56868,-3310.78279 -418.3301,-3310.78279 z"/>
</g><g transform="translate(0,0.96734) scale(0.49928) translate(1604.8339,3892.6412)" stroke="#ffffff" stroke-width="0.60086" opacity="1" fill="none">
<path d="M-218.80208,-1983.4512 L-218.80208,-1903.4512 57.1117,-1903.4512 57.1117,-1983.4512 z" fill="#ffffff" stroke="none"/>
</g><g transform="translate(0,0.96734) scale(0.49928) translate(1604.8339,3892.6412)" stroke="#000000" stroke-width="0.60086" opacity="1" fill="none">
<path d="M-218.80208,-1983.4512 L-218.80208,-1903.4512 57.1117,-1903.4512 57.1117,-1983.4512 z"/>

<path d="M-218.80208,-1979.4512 L57.1117,-1979.4512"/>

<path d="M-218.80208,-1907.4512 L57.1117,-1907.4512"/>

<line x1="-218.80208" y1="-1943.4512" x2="57.1117" y2="-1943.4512"/>

<line x1="42.1117" y1="-1953.4512" x2="57.1117" y2="-1943.4512"/>

<line x1="42.1117" y1="-1933.4512" x2="57.1117" y2="-1943.4512"/>

<path d="M-470.35003,-2500.98719 L-465.35015,-2501.02283 -466.20511,-2620.9405 C-402.73777,-2621.39299 -350.93646,-2572.54788 -350.50366,-2511.84189 -350.93646,-2572.54788 -299.83687,-2622.12662 -236.36953,-2622.57911 L-235.51457,-2502.66145 -230.5147,-2502.6971"/>

<line x1="-470.42132" y1="-2510.98693" x2="-230.58599" y2="-2512.69684"/>

<line x1="-460.42157" y1="-2511.05823" x2="-461.20442" y2="-2620.86237"/>

<line x1="-240.58574" y1="-2512.62555" x2="-241.36859" y2="-2622.42969"/>

<path d="M-229.80208,-1355.64424 L-229.80208,-1360.64424 -179.80218,-1360.64424 C-179.80218,-1385.497 -197.71075,-1405.64414 -219.80208,-1405.64414 -197.71075,-1405.64414 -179.80218,-1425.79128 -179.80218,-1450.64404 L-229.80208,-1450.64404 -229.80208,-1455.64404"/>

<line x1="-219.80208" y1="-1355.64424" x2="-219.80208" y2="-1455.64404"/>

<line x1="-219.80208" y1="-1365.64424" x2="-180.11591" y2="-1365.64424"/>

<line x1="-219.80208" y1="-1445.64404" x2="-180.11591" y2="-1445.64404"/>

<path d="M-40.31424,-2380.24251 L-40.31424,-2385.24251 -101.99914,-2385.24251 C-101.99914,-2416.54872 -78.85902,-2441.92741 -50.31424,-2441.92741 -78.85902,-2441.92741 -101.99914,-2467.3061 -101.99914,-2498.61231 L-40.31424,-2498.61231 -40.31424,-2503.61231"/>

<line x1="-50.31424" y1="-2380.24251" x2="-50.31424" y2="-2503.61231"/>

<line x1="-50.31424" y1="-2390.24251" x2="-101.75672" y2="-2390.24251"/>

<line x1="-50.31424" y1="-2493.61231" x2="-101.75672" y2="-2493.61231"/>

<path d="M68.19792,-1007.59767 L68.19792,-1105.6162"/>

<path d="M58.19792,-1105.6162 L58.19792,-1100.6162 68.19792,-1100.6162"/>

<path d="M58.19792,-1007.59767 L58.19792,-1012.59767 68.19792,-1012.59767 156.21645,-1012.59767 C156.21645,-1061.20896 116.80921,-1100.6162 68.19792,-1100.6162"/>

<line x1="68.19792" y1="-1017.59767" x2="156.07432" y2="-1017.59767"/>

<path d="M59.0747,-1174.32622 L59.0747,-1179.32622 120.7596,-1179.32622 C120.7596,-1210.63243 97.61948,-1236.01112 69.0747,-1236.01112 97.61948,-1236.01112 120.7596,-1261.38981 120.7596,-1292.69602 L59.0747,-1292.69602 59.0747,-1297.69602"/>

<line x1="69.0747" y1="-1174.32622" x2="69.0747" y2="-1297.69602"/>

<line x1="69.0747" y1="-1184.32622" x2="120.51718" y2="-1184.32622"/>

<line x1="69.0747" y1="-1287.69602" x2="120.51718" y2="-1287.69602"/>

<path d="M-110.13181,-913.20476 L-210.13181,-913.20476"/>

<path d="M-210.13181,-923.20476 L-205.13181,-923.20476 -205.13181,-913.20476"/>

<path d="M-110.13181,-923.20476 L-115.13181,-923.20476 -115.13181,-913.20476 -115.13181,-823.20476 C-164.83744,-823.20476 -205.13181,-863.49913 -205.13181,-913.20476"/>

<line x1="-120.13181" y1="-913.20476" x2="-120.13181" y2="-823.34376"/>

<path d="M-898.28051,-1164.20476 L-998.28051,-1164.20476"/>

<path d="M-998.28051,-1174.20476 L-993.28051,-1174.20476 -993.28051,-1164.20476"/>

<path d="M-898.28051,-1174.20476 L-903.28051,-1174.20476 -903.28051,-1164.20476 -903.28051,-1074.20476 C-952.98614,-1074.20476 -993.28051,-1114.49913 -993.28051,-1164.20476"/>

<line x1="-908.28051" y1="-1164.20476" x2="-908.28051" y2="-1074.34376"/>

<path d="M-551.03137,-504.32566 L-651.03137,-504.3111"/>

<path d="M-651.03283,-514.3111 L-646.03283,-514.31183 -646.03137,-504.31183"/>

<path d="M-551.03283,-514.32566 L-556.03283,-514.32494 -556.03137,-504.32494 -556.01826,-414.32494 C-605.72389,-414.3177 -646.02413,-454.6062 -646.03137,-504.31183"/>

<line x1="-561.03137" y1="-504.32421" x2="-561.01828" y2="-414.46321"/>

<path d="M-512.04808,-514.33134 L-507.04808,-514.33207 -507.02832,-378.7119 C-434.88879,-378.72241 -376.41634,-434.97299 -376.42645,-504.3511 -376.41634,-434.97299 -317.9275,-378.73945 -245.78797,-378.74995 L-245.80773,-514.37013 -240.80773,-514.37086"/>

<line x1="-512.04662" y1="-504.33134" x2="-240.80627" y2="-504.37086"/>

<line x1="-502.04662" y1="-504.3328" x2="-502.02834" y2="-378.81217"/>

<line x1="-250.80627" y1="-504.3694" x2="-250.78799" y2="-378.84877"/>

<path d="M-230.80208,-641.59523 L-230.80208,-541.59523"/>

<path d="M-240.80208,-541.59523 L-240.80208,-546.59523 -230.80208,-546.59523"/>

<path d="M-240.80208,-641.59523 L-240.80208,-636.59523 -230.80208,-636.59523 -140.80208,-636.59523 C-140.80208,-586.8896 -181.09645,-546.59523 -230.80208,-546.59523"/>

<line x1="-230.80208" y1="-631.59523" x2="-140.94108" y2="-631.59523"/>
</g><g transform="translate(0,0.96734) scale(0.49928) translate(1604.8339,3892.6412)" stroke="#ffffff" stroke-width="0.60086" opacity="1" fill="none">
<path d="M267.35062,-1454.20476 L127.35062,-1454.20476 127.35062,-1154.20476 267.35062,-1154.20476 z" fill="#ffffff" stroke="none"/>
</g><g transform="translate(0,0.96734) scale(0.49928) translate(1604.8339,3892.6412)" stroke="#000000" stroke-width="0.60086" opacity="1" fill="none">
<path d="M267.35062,-1454.20476 L127.35062,-1454.20476 127.35062,-1154.20476 267.35062,-1154.20476 z"/>

<path d="M263.35062,-1454.20476 L263.35062,-1154.20476"/>

<path d="M131.35062,-1454.20476 L131.35062,-1154.20476"/>

<line x1="267.35062" y1="-1179.20476" x2="127.35062" y2="-1179.20476"/>

<line x1="267.35062" y1="-1204.20476" x2="127.35062" y2="-1204.20476"/>

<line x1="267.35062" y1="-1229.20476" x2="127.35062" y2="-1229.20476"/>

<line x1="267.35062" y1="-1254.20476" x2="127.35062" y2="-1254.20476"/>

<line x1="267.35062" y1="-1279.20476" x2="127.35062" y2="-1279.20476"/>

<line x1="267.35062" y1="-1304.20476" x2="127.35062" y2="-1304.20476"/>

<line x1="267.35062" y1="-1329.20476" x2="127.35062" y2="-1329.20476"/>

<line x1="267.35062" y1="-1354.20476" x2="127.35062" y2="-1354.20476"/>

<line x1="267.35062" y1="-1379.20476" x2="127.35062" y2="-1379.20476"/>

<line x1="267.35062" y1="-1404.20476" x2="127.35062" y2="-1404.20476"/>

<line x1="267.35062" y1="-1429.20476" x2="127.35062" y2="-1429.20476"/>

<line x1="197.35062" y1="-1454.20476" x2="197.35062" y2="-1154.20476"/>

<line x1="207.35062" y1="-1169.20476" x2="197.35062" y2="-1154.20476"/>

<line x1="187.35062" y1="-1169.20476" x2="197.35062" y2="-1154.20476"/>
</g><g transform="translate(0,0.96734) scale(0.49928) translate(1604.8339,3892.6412)" stroke="#ffffff" stroke-width="0.60086" opacity="1" fill="none">
<path d="M389.47457,-2377.4512 L249.47457,-2377.4512 249.47457,-2075.60598 389.47457,-2075.60598 z" fill="#ffffff" stroke="none"/>
</g><g transform="translate(0,0.96734) scale(0.49928) translate(1604.8339,3892.6412)" stroke="#000000" stroke-width="0.60086" opacity="1" fill="none">
<path d="M389.47457,-2377.4512 L249.47457,-2377.4512 249.47457,-2075.60598 389.47457,-2075.60598 z"/>

<path d="M385.47457,-2377.4512 L385.47457,-2075.60598"/>

<path d="M253.47457,-2377.4512 L253.47457,-2075.60598"/>

<line x1="389.47457" y1="-2100.75975" x2="249.47457" y2="-2100.75975"/>

<line x1="389.47457" y1="-2125.91352" x2="249.47457" y2="-2125.91352"/>

<line x1="389.47457" y1="-2151.06728" x2="249.47457" y2="-2151.06728"/>

<line x1="389.47457" y1="-2176.22105" x2="249.47457" y2="-2176.22105"/>

<line x1="389.47457" y1="-2201.37482" x2="249.47457" y2="-2201.37482"/>

<line x1="389.47457" y1="-2226.52859" x2="249.47457" y2="-2226.52859"/>

<line x1="389.47457" y1="-2251.68236" x2="249.47457" y2="-2251.68236"/>

<line x1="389.47457" y1="-2276.83613" x2="249.47457" y2="-2276.83613"/>

<line x1="389.47457" y1="-2301.98989" x2="249.47457" y2="-2301.98989"/>

<line x1="389.47457" y1="-2327.14366" x2="249.47457" y2="-2327.14366"/>

<line x1="389.47457" y1="-2352.29743" x2="249.47457" y2="-2352.29743"/>

<line x1="319.47457" y1="-2377.4512" x2="319.47457" y2="-2075.60598"/>

<line x1="329.47457" y1="-2090.60598" x2="319.47457" y2="-2075.60598"/>

<line x1="309.47457" y1="-2090.60598" x2="319.47457" y2="-2075.60598"/>
</g><g transform="translate(0,0.96734) scale(0.49928) translate(1604.8339,3892.6412)" stroke="#ffffff" stroke-width="0.60086" opacity="1" fill="none">
<path d="M109.47457,-2077.4512 L249.47457,-2077.4512 249.47457,-2377.4512 109.47457,-2377.4512 z" fill="#ffffff" stroke="none"/>
</g><g transform="translate(0,0.96734) scale(0.49928) translate(1604.8339,3892.6412)" stroke="#000000" stroke-width="0.60086" opacity="1" fill="none">
<path d="M109.47457,-2077.4512 L249.47457,-2077.4512 249.47457,-2377.4512 109.47457,-2377.4512 z"/>

<path d="M113.47457,-2077.4512 L113.47457,-2377.4512"/>

<path d="M245.47457,-2077.4512 L245.47457,-2377.4512"/>

<line x1="109.47457" y1="-2352.4512" x2="249.47457" y2="-2352.4512"/>

<line x1="109.47457" y1="-2327.4512" x2="249.47457" y2="-2327.4512"/>

<line x1="109.47457" y1="-2302.4512" x2="249.47457" y2="-2302.4512"/>

<line x1="109.47457" y1="-2277.4512" x2="249.47457" y2="-2277.4512"/>

<line x1="109.47457" y1="-2252.4512" x2="249.47457" y2="-2252.4512"/>

<line x1="109.47457" y1="-2227.4512" x2="249.47457" y2="-2227.4512"/>

<line x1="109.47457" y1="-2202.4512" x2="249.47457" y2="-2202.4512"/>

<line x1="109.47457" y1="-2177.4512" x2="249.47457" y2="-2177.4512"/>

<line x1="109.47457" y1="-2152.4512" x2="249.47457" y2="-2152.4512"/>

<line x1="109.47457" y1="-2127.4512" x2="249.47457" y2="-2127.4512"/>

<line x1="109.47457" y1="-2102.4512" x2="249.47457" y2="-2102.4512"/>

<line x1="179.47457" y1="-2077.4512" x2="179.47457" y2="-2377.4512"/>

<line x1="169.47457" y1="-2362.4512" x2="179.47457" y2="-2377.4512"/>

<line x1="189.47457" y1="-2362.4512" x2="179.47457" y2="-2377.4512"/>
</g><g transform="translate(0,0.96734) scale(0.49928) translate(1604.8339,3892.6412)" stroke="#ffffff" stroke-width="0.60086" opacity="1" fill="none">
<path d="M267.35062,-1154.20476 L407.35062,-1154.20476 407.35062,-1454.20476 267.35062,-1454.20476 z" fill="#ffffff" stroke="none"/>
</g><g transform="translate(0,0.96734) scale(0.49928) translate(1604.8339,3892.6412)" stroke="#000000" stroke-width="0.60086" opacity="1" fill="none">
<path d="M267.35062,-1154.20476 L407.35062,-1154.20476 407.35062,-1454.20476 267.35062,-1454.20476 z"/>

<path d="M271.35062,-1154.20476 L271.35062,-1454.20476"/>

<path d="M403.35062,-1154.20476 L403.35062,-1454.20476"/>

<line x1="267.35062" y1="-1429.20476" x2="407.35062" y2="-1429.20476"/>

<line x1="267.35062" y1="-1404.20476" x2="407.35062" y2="-1404.20476"/>

<line x1="267.35062" y1="-1379.20476" x2="407.35062" y2="-1379.20476"/>

<line x1="267.35062" y1="-1354.20476" x2="407.35062" y2="-1354.20476"/>

<line x1="267.35062" y1="-1329.20476" x2="407.35062" y2="-1329.20476"/>

<line x1="267.35062" y1="-1304.20476" x2="407.35062" y2="-1304.20476"/>

<line x1="267.35062" y1="-1279.20476" x2="407.35062" y2="-1279.20476"/>

<line x1="267.35062" y1="-1254.20476" x2="407.35062" y2="-1254.20476"/>

<line x1="267.35062" y1="-1229.20476" x2="407.35062" y2="-1229.20476"/>

<line x1="267.35062" y1="-1204.20476" x2="407.35062" y2="-1204.20476"/>

<line x1="267.35062" y1="-1179.20476" x2="407.35062" y2="-1179.20476"/>

<line x1="337.35062" y1="-1154.20476" x2="337.35062" y2="-1454.20476"/>

<line x1="327.35062" y1="-1439.20476" x2="337.35062" y2="-1454.20476"/>

<line x1="347.35062" y1="-1439.20476" x2="337.35062" y2="-1454.20476"/>
</g><g transform="translate(0,0.96734) scale(0.49928) translate(908.53212,265.15766)" stroke="#dddddd" stroke-width="0.60086" opacity="1" fill="none">
<path d="M-509,-150 L509,-150 509,150 -509,150 z" fill="#dddddd" stroke="none"/>
</g><g transform="translate(0,0.96734) scale(0.49928) translate(908.53212,265.15766)" stroke="#000000" stroke-width="0.60086" opacity="1" fill="none">
<path d="M-509,-150 L509,-150 509,150 -509,150 z"/>
</g><g transform="translate(0,0.96734) scale(0.49928) translate(908.53212,340.15766)" stroke="#000000" stroke-width="0.60086" opacity="1" fill="none">
<text y="-30" font-size="150" stroke="black" stroke-width="0.30043" fill="white" text-anchor="middle">Battery Bank</text>
</g><g transform="translate(0,0.96734) scale(0.49928) translate(1692.37972,1447.84582)" stroke="#dddddd" stroke-width="0.60086" opacity="1" fill="none">
<path d="M139.5,40.5 L-139.5,40.5 -139.5,-40.5 139.5,-40.5 z" fill="#dddddd" stroke="none"/>
</g><g transform="translate(0,0.96734) scale(0.49928) translate(1692.37972,1447.84582)" stroke="#000000" stroke-width="0.60086" opacity="1" fill="none">
<path d="M139.5,40.5 L-139.5,40.5 -139.5,-40.5 139.5,-40.5 z"/>
</g><g transform="translate(0,0.96734) scale(0.49928) translate(1692.37972,1447.84582) rotate(180) translate(0,20.5)" stroke="#000000" stroke-width="0.60086" opacity="1" fill="none">
<text y="-8" font-size="41" stroke="black" stroke-width="0.30043" fill="white" text-anchor="middle">Way to stairs</text>
</g><g transform="translate(0,0.96734) scale(0.49928) translate(1448.34891,2173.64463)" stroke="#dddddd" stroke-width="0.60086" opacity="1" fill="none">
<path d="M54.5,32.5 L-54.5,32.5 -54.5,-32.5 54.5,-32.5 z" fill="#dddddd" stroke="none"/>
</g><g transform="translate(0,0.96734) scale(0.49928) translate(1448.34891,2173.64463)" stroke="#000000" stroke-width="0.60086" opacity="1" fill="none">
<path d="M54.5,32.5 L-54.5,32.5 -54.5,-32.5 54.5,-32.5 z"/>
</g><g transform="translate(0,0.96734) scale(0.49928) translate(1448.34891,2173.64463) rotate(180) translate(0,16.5)" stroke="#000000" stroke-width="0.60086" opacity="1" fill="none">
<text y="-6" font-size="33" stroke="black" stroke-width="0.30043" fill="white" text-anchor="middle">Lift 2</text>
</g><g transform="translate(0,0.96734) scale(0.49928) translate(1358.19332,2488.22503)" stroke="#dddddd" stroke-width="0.60086" opacity="1" fill="none">
<path d="M10.5,-40.5 L10.5,40.5 -10.5,40.5 -10.5,-40.5 z" fill="#dddddd" stroke="none"/>
</g><g transform="translate(0,0.96734) scale(0.49928) translate(1358.19332,2488.22503)" stroke="#000000" stroke-width="0.60086" opacity="1" fill="none">
<path d="M10.5,-40.5 L10.5,40.5 -10.5,40.5 -10.5,-40.5 z"/>
</g><g transform="translate(0,0.96734) scale(0.49928) translate(1358.19332,2488.22503) rotate(90) translate(0,5.5)" stroke="#000000" stroke-width="0.60086" opacity="1" fill="none">
<text y="-2" font-size="11" stroke="black" stroke-width="0.30043" fill="white" text-anchor="middle">Fire hose door</text>
</g><g transform="translate(0,0.96734) scale(0.49928) translate(1531.7225,2652.80947)" stroke="#dddddd" stroke-width="0.60086" opacity="1" fill="none">
<path d="M20.5,-48.5 L20.5,48.5 -20.5,48.5 -20.5,-48.5 z" fill="#dddddd" stroke="none"/>
</g><g transform="translate(0,0.96734) scale(0.49928) translate(1531.7225,2652.80947)" stroke="#000000" stroke-width="0.60086" opacity="1" fill="none">
<path d="M20.5,-48.5 L20.5,48.5 -20.5,48.5 -20.5,-48.5 z"/>
</g><g transform="translate(0,0.96734) scale(0.49928) translate(1531.7225,2652.80947) rotate(90) translate(0,10.5)" stroke="#000000" stroke-width="0.60086" opacity="1" fill="none">
<text y="-4" font-size="21" stroke="black" stroke-width="0.30043" fill="white" text-anchor="middle">Fire exit</text>
</g><g transform="translate(0,0.96734) scale(0.49928) translate(1409.98043,2859.18579)" stroke="#dddddd" stroke-width="0.60086" opacity="1" fill="none">
<path d="M31,-44 L31,44 -31,44 -31,-44 z" fill="#dddddd" stroke="none"/>
</g><g transform="translate(0,0.96734) scale(0.49928) translate(1409.98043,2859.18579)" stroke="#000000" stroke-width="0.60086" opacity="1" fill="none">
<path d="M31,-44 L31,44 -31,44 -31,-44 z"/>
</g><g transform="translate(0,0.96734) scale(0.49928) translate(1409.98043,2859.18579) rotate(90) translate(0,21)" stroke="#000000" stroke-width="0.60086" opacity="1" fill="none">
<text y="-4" font-size="21" stroke="black" stroke-width="0.30043" fill="white" text-anchor="middle"> Cooler</text>

<text y="-25" font-size="21" stroke="black" stroke-width="0.30043" fill="white" text-anchor="middle">Water</text>
</g><g transform="translate(0,0.96734) scale(0.49928) translate(1748.7222,2833.66138)" stroke="#dddddd" stroke-width="0.60086" opacity="1" fill="none">
<path d="M109,26.5 L-109,26.5 -109,-26.5 109,-26.5 z" fill="#dddddd" stroke="none"/>
</g><g transform="translate(0,0.96734) scale(0.49928) translate(1748.7222,2833.66138)" stroke="#000000" stroke-width="0.60086" opacity="1" fill="none">
<path d="M109,26.5 L-109,26.5 -109,-26.5 109,-26.5 z"/>
</g><g transform="translate(0,0.96734) scale(0.49928) translate(1748.7222,2833.66138) rotate(180) translate(0,13.5)" stroke="#000000" stroke-width="0.60086" opacity="1" fill="none">
<text y="-5" font-size="27" stroke="black" stroke-width="0.30043" fill="white" text-anchor="middle">PWD washroom</text>
</g><g transform="translate(0,0.96734) scale(0.49928) translate(1692.37972,1012.0925)" stroke="#dddddd" stroke-width="0.60086" opacity="1" fill="none">
<path d="M76.5,-219.5 L76.5,219.5 -76.5,219.5 -76.5,-219.5 z" fill="#dddddd" stroke="none"/>
</g><g transform="translate(0,0.96734) scale(0.49928) translate(1692.37972,1012.0925)" stroke="#000000" stroke-width="0.60086" opacity="1" fill="none">
<path d="M76.5,-219.5 L76.5,219.5 -76.5,219.5 -76.5,-219.5 z"/>
</g><g transform="translate(0,0.96734) scale(0.49928) translate(1692.37972,1012.0925) rotate(90) translate(0,38.5)" stroke="#000000" stroke-width="0.60086" opacity="1" fill="none">
<text y="-15" font-size="77" stroke="black" stroke-width="0.30043" fill="white" text-anchor="middle">washroom</text>
</g><g transform="translate(0,0.96734) scale(0.49928) translate(1448.34891,3712.3683)" stroke="#dddddd" stroke-width="0.60086" opacity="1" fill="none">
<path d="M-238,-150 L238,-150 238,150 -238,150 z" fill="#dddddd" stroke="none"/>
</g><g transform="translate(0,0.96734) scale(0.49928) translate(1448.34891,3712.3683)" stroke="#000000" stroke-width="0.60086" opacity="1" fill="none">
<path d="M-238,-150 L238,-150 238,150 -238,150 z"/>
</g><g transform="translate(0,0.96734) scale(0.49928) translate(1448.34891,3787.3683)" stroke="#000000" stroke-width="0.60086" opacity="1" fill="none">
<text y="-30" font-size="150" stroke="none" fill="#0063b5" text-anchor="middle">GYM</text>
</g><g transform="translate(0,0.96734) scale(0.49928) translate(511.5794,3712.3683)" stroke="#dddddd" stroke-width="0.60086" opacity="1" fill="none">
<path d="M-209,-150 L209,-150 209,150 -209,150 z" fill="#dddddd" stroke="none"/>
</g><g transform="translate(0,0.96734) scale(0.49928) translate(511.5794,3712.3683)" stroke="#000000" stroke-width="0.60086" opacity="1" fill="none">
<path d="M-209,-150 L209,-150 209,150 -209,150 z"/>
</g><g transform="translate(0,0.96734) scale(0.49928) translate(511.5794,3787.3683)" stroke="#000000" stroke-width="0.60086" opacity="1" fill="none">
<text y="-30" font-size="150" stroke="none" fill="#0063b5" text-anchor="middle">DE3</text>
</g><g transform="translate(0,0.96734) scale(0.49928) translate(1523.66581,1949.16278)" stroke="#dddddd" stroke-width="0.60086" opacity="1" fill="none">
<path d="M54.5,32.5 L-54.5,32.5 -54.5,-32.5 54.5,-32.5 z" fill="#dddddd" stroke="none"/>
</g><g transform="translate(0,0.96734) scale(0.49928) translate(1523.66581,1949.16278)" stroke="#000000" stroke-width="0.60086" opacity="1" fill="none">
<path d="M54.5,32.5 L-54.5,32.5 -54.5,-32.5 54.5,-32.5 z"/>
</g><g transform="translate(0,0.96734) scale(0.49928) translate(1523.66581,1949.16278) rotate(180) translate(0,16.5)" stroke="#000000" stroke-width="0.60086" opacity="1" fill="none">
<text y="-6" font-size="33" stroke="black" stroke-width="0.30043" fill="white" text-anchor="middle">Lift 1</text>
</g><g transform="translate(0,0.96734) scale(0.49928) translate(1604.8339,3892.6412)" stroke="#006600" stroke-width="1.80259" opacity="1" fill="none">
<line x1="-1553.3839" y1="-3872.3912" x2="440.7299" y2="-3872.3912"/>
</g><g transform="translate(0,0.96734) scale(0.49928) translate(1604.8339,3892.6412)" stroke="#ffffff" stroke-width="0.60086" opacity="1" fill="none">
<line x1="-1553.3839" y1="-3872.3912" x2="440.7299" y2="-3872.3912"/>
</g><g transform="translate(0,0.96734) scale(0.49928) translate(1604.8339,3892.6412)" stroke="#006600" stroke-width="1.80259" opacity="1" fill="none">
<line x1="-1546.8839" y1="-3846.3912" x2="-1546.8839" y2="-3878.8912"/>
</g><g transform="translate(0,0.96734) scale(0.49928) translate(1604.8339,3892.6412)" stroke="#ffffff" stroke-width="0.60086" opacity="1" fill="none">
<line x1="-1546.8839" y1="-3846.3912" x2="-1546.8839" y2="-3878.8912"/>
</g><g transform="translate(0,0.96734) scale(0.49928) translate(1604.8339,3892.6412)" stroke="#006600" stroke-width="1.80259" opacity="1" fill="none">
<line x1="-1550.1339" y1="-3875.6412" x2="-1543.6339" y2="-3869.1412"/>
</g><g transform="translate(0,0.96734) scale(0.49928) translate(1604.8339,3892.6412)" stroke="#ffffff" stroke-width="0.60086" opacity="1" fill="none">
<line x1="-1550.1339" y1="-3875.6412" x2="-1543.6339" y2="-3869.1412"/>
</g><g transform="translate(0,0.96734) scale(0.49928) translate(1604.8339,3892.6412)" stroke="#006600" stroke-width="1.80259" opacity="1" fill="none">
<line x1="-1531.64391" y1="-3846.3912" x2="-1531.64391" y2="-3878.8912"/>
</g><g transform="translate(0,0.96734) scale(0.49928) translate(1604.8339,3892.6412)" stroke="#ffffff" stroke-width="0.60086" opacity="1" fill="none">
<line x1="-1531.64391" y1="-3846.3912" x2="-1531.64391" y2="-3878.8912"/>
</g><g transform="translate(0,0.96734) scale(0.49928) translate(1604.8339,3892.6412)" stroke="#006600" stroke-width="1.80259" opacity="1" fill="none">
<line x1="-1534.89391" y1="-3875.6412" x2="-1528.39391" y2="-3869.1412"/>
</g><g transform="translate(0,0.96734) scale(0.49928) translate(1604.8339,3892.6412)" stroke="#ffffff" stroke-width="0.60086" opacity="1" fill="none">
<line x1="-1534.89391" y1="-3875.6412" x2="-1528.39391" y2="-3869.1412"/>
</g><g transform="translate(0,0.96734) scale(0.49928) translate(65.57,17)" stroke="#ffffff" stroke-width="0.60086" opacity="1" fill="none">
<text y="-2" font-size="13" stroke="black" stroke-width="0.30043" fill="white" text-anchor="middle">0.2</text>
</g><g transform="translate(0,0.96734) scale(0.49928) translate(1604.8339,3892.6412)" stroke="#006600" stroke-width="1.80259" opacity="1" fill="none">
<line x1="418.9899" y1="-3846.3912" x2="418.9899" y2="-3878.8912"/>
</g><g transform="translate(0,0.96734) scale(0.49928) translate(1604.8339,3892.6412)" stroke="#ffffff" stroke-width="0.60086" opacity="1" fill="none">
<line x1="418.9899" y1="-3846.3912" x2="418.9899" y2="-3878.8912"/>
</g><g transform="translate(0,0.96734) scale(0.49928) translate(1604.8339,3892.6412)" stroke="#006600" stroke-width="1.80259" opacity="1" fill="none">
<line x1="415.7399" y1="-3875.6412" x2="422.2399" y2="-3869.1412"/>
</g><g transform="translate(0,0.96734) scale(0.49928) translate(1604.8339,3892.6412)" stroke="#ffffff" stroke-width="0.60086" opacity="1" fill="none">
<line x1="415.7399" y1="-3875.6412" x2="422.2399" y2="-3869.1412"/>
</g><g transform="translate(0,0.96734) scale(0.49928) translate(1048.5069,17)" stroke="#ffffff" stroke-width="0.60086" opacity="1" fill="none">
<text y="-2" font-size="13" stroke="black" stroke-width="0.30043" fill="white" text-anchor="middle">19.5</text>
</g><g transform="translate(0,0.96734) scale(0.49928) translate(1604.8339,3892.6412)" stroke="#006600" stroke-width="1.80259" opacity="1" fill="none">
<line x1="434.2299" y1="-3846.3912" x2="434.2299" y2="-3878.8912"/>
</g><g transform="translate(0,0.96734) scale(0.49928) translate(1604.8339,3892.6412)" stroke="#ffffff" stroke-width="0.60086" opacity="1" fill="none">
<line x1="434.2299" y1="-3846.3912" x2="434.2299" y2="-3878.8912"/>
</g><g transform="translate(0,0.96734) scale(0.49928) translate(1604.8339,3892.6412)" stroke="#006600" stroke-width="1.80259" opacity="1" fill="none">
<line x1="430.9799" y1="-3875.6412" x2="437.4799" y2="-3869.1412"/>
</g><g transform="translate(0,0.96734) scale(0.49928) translate(1604.8339,3892.6412)" stroke="#ffffff" stroke-width="0.60086" opacity="1" fill="none">
<line x1="430.9799" y1="-3875.6412" x2="437.4799" y2="-3869.1412"/>
</g><g transform="translate(0,0.96734) scale(0.49928) translate(2031.4438,17)" stroke="#ffffff" stroke-width="0.60086" opacity="1" fill="none">
<text y="-2" font-size="13" stroke="black" stroke-width="0.30043" fill="white" text-anchor="middle">0.2</text>
</g><g transform="translate(0,0.96734) scale(0.49928) translate(1604.8339,3892.6412)" stroke="#006600" stroke-width="1.80259" opacity="1" fill="none">
<line x1="-1553.3839" y1="229.1924" x2="440.7299" y2="229.1924"/>
</g><g transform="translate(0,0.96734) scale(0.49928) translate(1604.8339,3892.6412)" stroke="#ffffff" stroke-width="0.60086" opacity="1" fill="none">
<line x1="-1553.3839" y1="229.1924" x2="440.7299" y2="229.1924"/>
</g><g transform="translate(0,0.96734) scale(0.49928) translate(1604.8339,3892.6412)" stroke="#006600" stroke-width="1.80259" opacity="1" fill="none">
<line x1="-1546.8839" y1="203.1924" x2="-1546.8839" y2="235.6924"/>
</g><g transform="translate(0,0.96734) scale(0.49928) translate(1604.8339,3892.6412)" stroke="#ffffff" stroke-width="0.60086" opacity="1" fill="none">
<line x1="-1546.8839" y1="203.1924" x2="-1546.8839" y2="235.6924"/>
</g><g transform="translate(0,0.96734) scale(0.49928) translate(1604.8339,3892.6412)" stroke="#006600" stroke-width="1.80259" opacity="1" fill="none">
<line x1="-1550.1339" y1="225.9424" x2="-1543.6339" y2="232.4424"/>
</g><g transform="translate(0,0.96734) scale(0.49928) translate(1604.8339,3892.6412)" stroke="#ffffff" stroke-width="0.60086" opacity="1" fill="none">
<line x1="-1550.1339" y1="225.9424" x2="-1543.6339" y2="232.4424"/>
</g><g transform="translate(0,0.96734) scale(0.49928) translate(1604.8339,3892.6412)" stroke="#006600" stroke-width="1.80259" opacity="1" fill="none">
<line x1="-1531.64391" y1="203.1924" x2="-1531.64391" y2="235.6924"/>
</g><g transform="translate(0,0.96734) scale(0.49928) translate(1604.8339,3892.6412)" stroke="#ffffff" stroke-width="0.60086" opacity="1" fill="none">
<line x1="-1531.64391" y1="203.1924" x2="-1531.64391" y2="235.6924"/>
</g><g transform="translate(0,0.96734) scale(0.49928) translate(1604.8339,3892.6412)" stroke="#006600" stroke-width="1.80259" opacity="1" fill="none">
<line x1="-1534.89391" y1="225.9424" x2="-1528.39391" y2="232.4424"/>
</g><g transform="translate(0,0.96734) scale(0.49928) translate(1604.8339,3892.6412)" stroke="#ffffff" stroke-width="0.60086" opacity="1" fill="none">
<line x1="-1534.89391" y1="225.9424" x2="-1528.39391" y2="232.4424"/>
</g><g transform="translate(0,0.96734) scale(0.49928) translate(65.57,4118.5836)" stroke="#ffffff" stroke-width="0.60086" opacity="1" fill="none">
<text y="-2" font-size="13" stroke="black" stroke-width="0.30043" fill="white" text-anchor="middle">0.2</text>
</g><g transform="translate(0,0.96734) scale(0.49928) translate(1604.8339,3892.6412)" stroke="#006600" stroke-width="1.80259" opacity="1" fill="none">
<line x1="418.9899" y1="203.1924" x2="418.9899" y2="235.6924"/>
</g><g transform="translate(0,0.96734) scale(0.49928) translate(1604.8339,3892.6412)" stroke="#ffffff" stroke-width="0.60086" opacity="1" fill="none">
<line x1="418.9899" y1="203.1924" x2="418.9899" y2="235.6924"/>
</g><g transform="translate(0,0.96734) scale(0.49928) translate(1604.8339,3892.6412)" stroke="#006600" stroke-width="1.80259" opacity="1" fill="none">
<line x1="415.7399" y1="225.9424" x2="422.2399" y2="232.4424"/>
</g><g transform="translate(0,0.96734) scale(0.49928) translate(1604.8339,3892.6412)" stroke="#ffffff" stroke-width="0.60086" opacity="1" fill="none">
<line x1="415.7399" y1="225.9424" x2="422.2399" y2="232.4424"/>
</g><g transform="translate(0,0.96734) scale(0.49928) translate(1048.5069,4118.5836)" stroke="#ffffff" stroke-width="0.60086" opacity="1" fill="none">
<text y="-2" font-size="13" stroke="black" stroke-width="0.30043" fill="white" text-anchor="middle">19.5</text>
</g><g transform="translate(0,0.96734) scale(0.49928) translate(1604.8339,3892.6412)" stroke="#006600" stroke-width="1.80259" opacity="1" fill="none">
<line x1="434.2299" y1="203.1924" x2="434.2299" y2="235.6924"/>
</g><g transform="translate(0,0.96734) scale(0.49928) translate(1604.8339,3892.6412)" stroke="#ffffff" stroke-width="0.60086" opacity="1" fill="none">
<line x1="434.2299" y1="203.1924" x2="434.2299" y2="235.6924"/>
</g><g transform="translate(0,0.96734) scale(0.49928) translate(1604.8339,3892.6412)" stroke="#006600" stroke-width="1.80259" opacity="1" fill="none">
<line x1="430.9799" y1="225.9424" x2="437.4799" y2="232.4424"/>
</g><g transform="translate(0,0.96734) scale(0.49928) translate(1604.8339,3892.6412)" stroke="#ffffff" stroke-width="0.60086" opacity="1" fill="none">
<line x1="430.9799" y1="225.9424" x2="437.4799" y2="232.4424"/>
</g><g transform="translate(0,0.96734) scale(0.49928) translate(2031.4438,4118.5836)" stroke="#ffffff" stroke-width="0.60086" opacity="1" fill="none">
<text y="-2" font-size="13" stroke="black" stroke-width="0.30043" fill="white" text-anchor="middle">0.2</text>
</g><g transform="translate(0,0.96734) scale(0.49928) translate(1604.8339,3892.6412)" stroke="#006600" stroke-width="1.80259" opacity="1" fill="none">
<line x1="-1584.5839" y1="-3841.1912" x2="-1584.5839" y2="197.9924"/>
</g><g transform="translate(0,0.96734) scale(0.49928) translate(1604.8339,3892.6412)" stroke="#ffffff" stroke-width="0.60086" opacity="1" fill="none">
<line x1="-1584.5839" y1="-3841.1912" x2="-1584.5839" y2="197.9924"/>
</g><g transform="translate(0,0.96734) scale(0.49928) translate(1604.8339,3892.6412)" stroke="#006600" stroke-width="1.80259" opacity="1" fill="none">
<line x1="-1558.5839" y1="-3834.6912" x2="-1591.0839" y2="-3834.6912"/>
</g><g transform="translate(0,0.96734) scale(0.49928) translate(1604.8339,3892.6412)" stroke="#ffffff" stroke-width="0.60086" opacity="1" fill="none">
<line x1="-1558.5839" y1="-3834.6912" x2="-1591.0839" y2="-3834.6912"/>
</g><g transform="translate(0,0.96734) scale(0.49928) translate(1604.8339,3892.6412)" stroke="#006600" stroke-width="1.80259" opacity="1" fill="none">
<line x1="-1581.3339" y1="-3837.9412" x2="-1587.8339" y2="-3831.4412"/>
</g><g transform="translate(0,0.96734) scale(0.49928) translate(1604.8339,3892.6412)" stroke="#ffffff" stroke-width="0.60086" opacity="1" fill="none">
<line x1="-1581.3339" y1="-3837.9412" x2="-1587.8339" y2="-3831.4412"/>
</g><g transform="translate(0,0.96734) scale(0.49928) translate(1604.8339,3892.6412)" stroke="#006600" stroke-width="1.80259" opacity="1" fill="none">
<line x1="-1558.5839" y1="-3819.4512" x2="-1591.0839" y2="-3819.4512"/>
</g><g transform="translate(0,0.96734) scale(0.49928) translate(1604.8339,3892.6412)" stroke="#ffffff" stroke-width="0.60086" opacity="1" fill="none">
<line x1="-1558.5839" y1="-3819.4512" x2="-1591.0839" y2="-3819.4512"/>
</g><g transform="translate(0,0.96734) scale(0.49928) translate(1604.8339,3892.6412)" stroke="#006600" stroke-width="1.80259" opacity="1" fill="none">
<line x1="-1581.3339" y1="-3822.7012" x2="-1587.8339" y2="-3816.2012"/>
</g><g transform="translate(0,0.96734) scale(0.49928) translate(1604.8339,3892.6412)" stroke="#ffffff" stroke-width="0.60086" opacity="1" fill="none">
<line x1="-1581.3339" y1="-3822.7012" x2="-1587.8339" y2="-3816.2012"/>
</g><g transform="translate(0,0.96734) scale(0.49928) translate(4,65.57) rotate(270) translate(0,13)" stroke="#ffffff" stroke-width="0.60086" opacity="1" fill="none">
<text y="-2" font-size="13" stroke="black" stroke-width="0.30043" fill="white" text-anchor="middle">0.2</text>
</g><g transform="translate(0,0.96734) scale(0.49928) translate(1604.8339,3892.6412)" stroke="#006600" stroke-width="1.80259" opacity="1" fill="none">
<line x1="-1558.5839" y1="176.25236" x2="-1591.0839" y2="176.25236"/>
</g><g transform="translate(0,0.96734) scale(0.49928) translate(1604.8339,3892.6412)" stroke="#ffffff" stroke-width="0.60086" opacity="1" fill="none">
<line x1="-1558.5839" y1="176.25236" x2="-1591.0839" y2="176.25236"/>
</g><g transform="translate(0,0.96734) scale(0.49928) translate(1604.8339,3892.6412)" stroke="#006600" stroke-width="1.80259" opacity="1" fill="none">
<line x1="-1581.3339" y1="173.00236" x2="-1587.8339" y2="179.50236"/>
</g><g transform="translate(0,0.96734) scale(0.49928) translate(1604.8339,3892.6412)" stroke="#ffffff" stroke-width="0.60086" opacity="1" fill="none">
<line x1="-1581.3339" y1="173.00236" x2="-1587.8339" y2="179.50236"/>
</g><g transform="translate(0,0.96734) scale(0.49928) translate(4,2071.04178) rotate(270) translate(0,13)" stroke="#ffffff" stroke-width="0.60086" opacity="1" fill="none">
<text y="-2" font-size="13" stroke="black" stroke-width="0.30043" fill="white" text-anchor="middle">40</text>
</g><g transform="translate(0,0.96734) scale(0.49928) translate(1604.8339,3892.6412)" stroke="#006600" stroke-width="1.80259" opacity="1" fill="none">
<line x1="-1558.5839" y1="191.4924" x2="-1591.0839" y2="191.4924"/>
</g><g transform="translate(0,0.96734) scale(0.49928) translate(1604.8339,3892.6412)" stroke="#ffffff" stroke-width="0.60086" opacity="1" fill="none">
<line x1="-1558.5839" y1="191.4924" x2="-1591.0839" y2="191.4924"/>
</g><g transform="translate(0,0.96734) scale(0.49928) translate(1604.8339,3892.6412)" stroke="#006600" stroke-width="1.80259" opacity="1" fill="none">
<line x1="-1581.3339" y1="188.2424" x2="-1587.8339" y2="194.7424"/>
</g><g transform="translate(0,0.96734) scale(0.49928) translate(1604.8339,3892.6412)" stroke="#ffffff" stroke-width="0.60086" opacity="1" fill="none">
<line x1="-1581.3339" y1="188.2424" x2="-1587.8339" y2="194.7424"/>
</g><g transform="translate(0,0.96734) scale(0.49928) translate(4,4076.51358) rotate(270) translate(0,13)" stroke="#ffffff" stroke-width="0.60086" opacity="1" fill="none">
<text y="-2" font-size="13" stroke="black" stroke-width="0.30043" fill="white" text-anchor="middle">0.2</text>
</g><g transform="translate(0,0.96734) scale(0.49928) translate(1604.8339,3892.6412)" stroke="#006600" stroke-width="1.80259" opacity="1" fill="none">
<line x1="471.9299" y1="-3841.1912" x2="471.9299" y2="197.9924"/>
</g><g transform="translate(0,0.96734) scale(0.49928) translate(1604.8339,3892.6412)" stroke="#ffffff" stroke-width="0.60086" opacity="1" fill="none">
<line x1="471.9299" y1="-3841.1912" x2="471.9299" y2="197.9924"/>
</g><g transform="translate(0,0.96734) scale(0.49928) translate(1604.8339,3892.6412)" stroke="#006600" stroke-width="1.80259" opacity="1" fill="none">
<line x1="445.9299" y1="-3834.6912" x2="478.4299" y2="-3834.6912"/>
</g><g transform="translate(0,0.96734) scale(0.49928) translate(1604.8339,3892.6412)" stroke="#ffffff" stroke-width="0.60086" opacity="1" fill="none">
<line x1="445.9299" y1="-3834.6912" x2="478.4299" y2="-3834.6912"/>
</g><g transform="translate(0,0.96734) scale(0.49928) translate(1604.8339,3892.6412)" stroke="#006600" stroke-width="1.80259" opacity="1" fill="none">
<line x1="475.1799" y1="-3837.9412" x2="468.6799" y2="-3831.4412"/>
</g><g transform="translate(0,0.96734) scale(0.49928) translate(1604.8339,3892.6412)" stroke="#ffffff" stroke-width="0.60086" opacity="1" fill="none">
<line x1="475.1799" y1="-3837.9412" x2="468.6799" y2="-3831.4412"/>
</g><g transform="translate(0,0.96734) scale(0.49928) translate(1604.8339,3892.6412)" stroke="#006600" stroke-width="1.80259" opacity="1" fill="none">
<line x1="445.9299" y1="-3819.4512" x2="478.4299" y2="-3819.4512"/>
</g><g transform="translate(0,0.96734) scale(0.49928) translate(1604.8339,3892.6412)" stroke="#ffffff" stroke-width="0.60086" opacity="1" fill="none">
<line x1="445.9299" y1="-3819.4512" x2="478.4299" y2="-3819.4512"/>
</g><g transform="translate(0,0.96734) scale(0.49928) translate(1604.8339,3892.6412)" stroke="#006600" stroke-width="1.80259" opacity="1" fill="none">
<line x1="475.1799" y1="-3822.7012" x2="468.6799" y2="-3816.2012"/>
</g><g transform="translate(0,0.96734) scale(0.49928) translate(1604.8339,3892.6412)" stroke="#ffffff" stroke-width="0.60086" opacity="1" fill="none">
<line x1="475.1799" y1="-3822.7012" x2="468.6799" y2="-3816.2012"/>
</g><g transform="translate(0,0.96734) scale(0.49928) translate(2060.5138,65.57) rotate(270) translate(0,13)" stroke="#ffffff" stroke-width="0.60086" opacity="1" fill="none">
<text y="-2" font-size="13" stroke="black" stroke-width="0.30043" fill="white" text-anchor="middle">0.2</text>
</g><g transform="translate(0,0.96734) scale(0.49928) translate(1604.8339,3892.6412)" stroke="#006600" stroke-width="1.80259" opacity="1" fill="none">
<line x1="445.9299" y1="176.25236" x2="478.4299" y2="176.25236"/>
</g><g transform="translate(0,0.96734) scale(0.49928) translate(1604.8339,3892.6412)" stroke="#ffffff" stroke-width="0.60086" opacity="1" fill="none">
<line x1="445.9299" y1="176.25236" x2="478.4299" y2="176.25236"/>
</g><g transform="translate(0,0.96734) scale(0.49928) translate(1604.8339,3892.6412)" stroke="#006600" stroke-width="1.80259" opacity="1" fill="none">
<line x1="475.1799" y1="173.00236" x2="468.6799" y2="179.50236"/>
</g><g transform="translate(0,0.96734) scale(0.49928) translate(1604.8339,3892.6412)" stroke="#ffffff" stroke-width="0.60086" opacity="1" fill="none">
<line x1="475.1799" y1="173.00236" x2="468.6799" y2="179.50236"/>
</g><g transform="translate(0,0.96734) scale(0.49928) translate(2060.5138,2071.04178) rotate(270) translate(0,13)" stroke="#ffffff" stroke-width="0.60086" opacity="1" fill="none">
<text y="-2" font-size="13" stroke="black" stroke-width="0.30043" fill="white" text-anchor="middle">40</text>
</g><g transform="translate(0,0.96734) scale(0.49928) translate(1604.8339,3892.6412)" stroke="#006600" stroke-width="1.80259" opacity="1" fill="none">
<line x1="445.9299" y1="191.4924" x2="478.4299" y2="191.4924"/>
</g><g transform="translate(0,0.96734) scale(0.49928) translate(1604.8339,3892.6412)" stroke="#ffffff" stroke-width="0.60086" opacity="1" fill="none">
<line x1="445.9299" y1="191.4924" x2="478.4299" y2="191.4924"/>
</g><g transform="translate(0,0.96734) scale(0.49928) translate(1604.8339,3892.6412)" stroke="#006600" stroke-width="1.80259" opacity="1" fill="none">
<line x1="475.1799" y1="188.2424" x2="468.6799" y2="194.7424"/>
</g><g transform="translate(0,0.96734) scale(0.49928) translate(1604.8339,3892.6412)" stroke="#ffffff" stroke-width="0.60086" opacity="1" fill="none">
<line x1="475.1799" y1="188.2424" x2="468.6799" y2="194.7424"/>
</g><g transform="translate(0,0.96734) scale(0.49928) translate(2060.5138,4076.51358) rotate(270) translate(0,13)" stroke="#ffffff" stroke-width="0.60086" opacity="1" fill="none">
<text y="-2" font-size="13" stroke="black" stroke-width="0.30043" fill="white" text-anchor="middle">0.2</text></g></g>
</svg>