<?xml version="1.0" encoding="UTF-8" standalone="no"?>
<svg
   xml:space="preserve"
   width="1000pt"
   height="2000pt"
   viewBox="0 0 1000 2000"
   version="1.1"
   id="svg346"
   sodipodi:docname="floor-4.svg"
   inkscape:version="1.4.2 (f4327f4, 2025-05-13)"
   xmlns:inkscape="http://www.inkscape.org/namespaces/inkscape"
   xmlns:sodipodi="http://sodipodi.sourceforge.net/DTD/sodipodi-0.dtd"
   xmlns="http://www.w3.org/2000/svg"
   xmlns:svg="http://www.w3.org/2000/svg"><defs
   id="defs346" /><sodipodi:namedview
   id="namedview346"
   pagecolor="#ffffff"
   bordercolor="#000000"
   borderopacity="0.25"
   inkscape:showpageshadow="2"
   inkscape:pageopacity="0.0"
   inkscape:pagecheckerboard="0"
   inkscape:deskcolor="#d1d1d1"
   inkscape:document-units="pt"
   inkscape:zoom="2.1670762"
   inkscape:cx="1319.2891"
   inkscape:cy="2651.2681"
   inkscape:window-width="1920"
   inkscape:window-height="974"
   inkscape:window-x="-11"
   inkscape:window-y="-11"
   inkscape:window-maximized="1"
   inkscape:current-layer="svg346" />
<g
   font-family="sans-serif"
   font-weight="bold"
   id="g346"
   transform="matrix(0.99414328,0,0,0.9945798,-37.831721,-11.090035)">
<g
   transform="matrix(0.49941,0,0,0.49941,1908.8391,4058.5841)"
   stroke="#773dde"
   fill="none"
   id="g1">
<path
   d="M -1730.4448,-4076.2634 H -3744.0256 V -8102.447 h 2013.5808 z"
   fill="#773dde"
   stroke="none"
   id="path1" />
</g><g
   transform="matrix(0.49941,0,0,0.49941,1908.8391,4058.5841)"
   stroke="#fff6e8"
   fill="none"
   id="g2">
<path
   d="M -1745.6848,-4091.5034 V -8087.207 h -1983.1008 v 1391.1127 h -15.24 v 1238.8662 h 15.24 v 1365.7247 z"
   fill="#fff6e8"
   stroke="none"
   id="path2" />
</g><g
   transform="matrix(0.49941,0,0,0.49941,1908.8391,4058.5841)"
   stroke="#773dde"
   stroke-width="1.80213"
   fill="none"
   id="g46">
<path
   d="m -2766.9736,-5445.206 h -963.1029 v -12.002 h 963.1029 z"
   fill="#773dde"
   stroke="none"
   id="path3" />

<path
   d="m -3077.6838,-5179.9595 h -651.1028 v -12.002 h 651.1028 z"
   fill="#773dde"
   stroke="none"
   id="path4" />

<path
   d="m -3065.6838,-4930.206 h -12.002 v -8.1091 h 12.002 z m 0,-109.3545 h -12.002 v -303.9491 h 12.002 z m 0,-399.2517 h -12.002 v -6.3958 h 12.002 z"
   fill="#773dde"
   stroke="none"
   id="path5" />

<path
   d="m -2746.7226,-4918.206 h -981.856 v -12.002 h 981.856 z m 351.2468,0 h -153.9543 v -12.002 h 153.9543 z"
   fill="#773dde"
   stroke="none"
   id="path6" />

<path
   d="m -2766.9736,-5457.206 h -12.002 v -97.759 h 12.002 z m 0,-199.0044 h -12.002 v -927.6117 h 12.002 z m 0,-1028.8571 h -12.002 v -12.1405 h 12.002 z"
   fill="#773dde"
   stroke="none"
   id="path7" />

<path
   d="m -2383.4764,-7507.7073 h -12.002 v -191.9824 h 12.002 z m 0,-290.001 h -12.002 v -290.001 h 12.002 z"
   fill="#773dde"
   stroke="none"
   id="path8" />

<path
   d="m -1745.6745,-7519.208 -0.01,12.002 -649.7946,-0.5013 0.01,-12.002 z"
   fill="#773dde"
   stroke="none"
   id="path9" />

<path
   d="m -2778.9736,-6685.206 h -790.7911 v -12.002 h 790.7911 z"
   fill="#773dde"
   stroke="none"
   id="path10" />

<path
   d="m -2777.6838,-7365.206 h -962.5709 v -12.002 h 962.5709 z"
   fill="#773dde"
   stroke="none"
   id="path11" />

<path
   d="m -2765.6838,-6697.206 h -12.002 v -481.1675 h 12.002 z m 0,-582.4129 h -12.002 v -97.5891 h 12.002 z"
   fill="#773dde"
   stroke="none"
   id="path12" />

<path
   d="m -1745.6838,-6774.1584 h -649.794 v -50.002 h 649.794 z"
   fill="#773dde"
   stroke="none"
   id="path13" />

<path
   d="m -2383.4764,-6969.1584 -12.002,6e-4 -0.028,-539.3688 12.002,-6e-4 z"
   fill="#773dde"
   stroke="none"
   id="path14" />

<path
   d="m -2383.4758,-6171.206 h -12.002 v -80.002 h 12.002 z"
   fill="#773dde"
   stroke="none"
   id="path15" />

<path
   d="m -2095.4758,-6633.206 h -300.002 v -12.002 h 300.002 z"
   fill="#773dde"
   stroke="none"
   id="path16" />

<path
   d="m -2235.5837,-6824.1584 h -12.002 v -17.0129 h 12.002 z m 0,-114.6233 h -12.002 v -30.3787 h 12.002 z"
   fill="#773dde"
   stroke="none"
   id="path17" />

<path
   d="m -2368.7771,-6957.1584 h -26.7007 v -12.002 h 26.7007 z m 623.2519,0 h -526.966 v -12.002 h 526.966 z"
   fill="#773dde"
   stroke="none"
   id="path18" />

<path
   d="m -2095.4758,-6251.206 h -300.002 v -12.002 h 300.002 z"
   fill="#773dde"
   stroke="none"
   id="path19" />

<path
   d="m -2383.4758,-5570.206 h -12.002 v -53.194 h 12.002 z m 0,-153.1938 h -12.002 v -211.8082 h 12.002 z"
   fill="#773dde"
   stroke="none"
   id="path20" />

<path
   d="m -2203.9879,-6645.206 h -12.002 v -2.7923 h 12.002 z m 0,-126.1621 h -12.002 v -2.7923 h 12.002 z"
   fill="#773dde"
   stroke="none"
   id="path21" />

<path
   d="m -2383.4758,-6263.206 h -12.002 v -370.002 h 12.002 z"
   fill="#773dde"
   stroke="none"
   id="path22" />

<path
   d="m -2095.4758,-6159.206 h -300.002 v -12.002 h 300.002 z"
   fill="#773dde"
   stroke="none"
   id="path23" />

<path
   d="m -2095.4758,-6171.206 h -12.002 v -80.002 h 12.002 z"
   fill="#773dde"
   stroke="none"
   id="path24" />

<path
   d="m -2383.4758,-6039.206 h -12.002 v -120.002 h 12.002 z"
   fill="#773dde"
   stroke="none"
   id="path25" />

<path
   d="m -2095.4758,-6027.206 h -300.002 v -12.002 h 300.002 z"
   fill="#773dde"
   stroke="none"
   id="path26" />

<path
   d="m -2095.4758,-5935.206 h -300.002 v -12.002 h 300.002 z"
   fill="#773dde"
   stroke="none"
   id="path27" />

<path
   d="m -2383.4758,-5947.206 h -12.002 v -80.002 h 12.002 z"
   fill="#773dde"
   stroke="none"
   id="path28" />

<path
   d="m -2095.4758,-5947.206 h -12.002 v -80.002 h 12.002 z"
   fill="#773dde"
   stroke="none"
   id="path29" />

<path
   d="m -2295.4758,-5721.9595 h -100.002 v -12.002 h 100.002 z"
   fill="#773dde"
   stroke="none"
   id="path30" />

<path
   d="m -2295.4758,-5621.9595 h -12.002 v -100.002 h 12.002 z"
   fill="#773dde"
   stroke="none"
   id="path31" />

<path
   d="m -2094.599,-5571.9595 h -300.002 v -50.002 h 300.002 z"
   fill="#773dde"
   stroke="none"
   id="path32" />

<path
   d="m -2095.4758,-5191.9595 h -12.002 v -83.3939 h 12.002 z m 0,-181.4125 h -12.002 v -18.5895 h 12.002 z"
   fill="#773dde"
   stroke="none"
   id="path33" />

<path
   d="m -2095.4758,-5394.8427 h -300.002 v -50.002 h 300.002 z"
   fill="#773dde"
   stroke="none"
   id="path34" />

<path
   d="m -2095.4758,-5179.9595 h -300.002 v -12.002 h 300.002 z"
   fill="#773dde"
   stroke="none"
   id="path35" />

<path
   d="m -2383.4758,-5179.9551 -0.208,388.4591 -12.002,-0.01 0.208,-388.4591 z"
   fill="#773dde"
   stroke="none"
   id="path36" />

<path
   d="m -2383.6838,-4091.5024 h -12.002 v -700.002 h 12.002 z"
   fill="#773dde"
   stroke="none"
   id="path37" />

<path
   d="m -1795.4758,-5379.9595 h -300.002 v -12.002 h 300.002 z"
   fill="#773dde"
   stroke="none"
   id="path38" />

<path
   d="m -1795.4758,-5279.9595 h -12.002 v -100.002 h 12.002 z"
   fill="#773dde"
   stroke="none"
   id="path39" />

<path
   d="m -1795.4758,-5267.9595 h -300.002 v -12.002 h 300.002 z"
   fill="#773dde"
   stroke="none"
   id="path40" />

<path
   d="m -2095.4758,-6263.206 h -12.002 v -370.002 h 12.002 z"
   fill="#773dde"
   stroke="none"
   id="path41" />

<path
   d="m -2094.599,-5590.2272 -12.002,0.017 -0.8768,-601.8168 12.002,-0.017 z"
   fill="#773dde"
   stroke="none"
   id="path42" />

<path
   d="m -3557.7627,-5457.206 h -12.002 v -1228.002 h 12.002 z"
   fill="#773dde"
   stroke="none"
   id="path43" />

<path
   d="m -2203.9879,-5444.8427 h -10.002 v -1.8745 h 10.002 z m 0,-125.2443 h -10.002 v -1.8745 h 10.002 z"
   fill="#773dde"
   stroke="none"
   id="path44" />

<path
   d="m -3569.7627,-6685.206 h -174.4188 v -12.002 h 174.4188 z"
   fill="#773dde"
   stroke="none"
   id="path45" />

<path
   d="m -2559.5911,-7525.6185 -155.1262,86.8935 -4.888,-8.7263 155.1262,-86.8934 z"
   fill="#773dde"
   stroke="none"
   id="path46" />
</g><g
   transform="matrix(0.49941,0,0,0.49941,1908.8391,4058.5841)"
   stroke="#111111"
   stroke-width="1.80213"
   fill="none"
   id="g47">
<path
   d="m -1730.4448,-4076.2634 h -2013.5808 v -1380.9647 h 15.24 v 0.02 h 159.0209 v -1227.998 h -174.4168 v -12.002 h 0.1559 v -1405.239 h 2013.5808 z m -1035.239,-3203.3555 h -12.002 v -85.5871 h -951.0998 v 667.998 h 951.0998 v -481.1655 h 12.002 v 481.1675 h -1.2898 v 12.1385 h -12.002 v -0.1385 h -778.7871 v 1227.998 h 778.7871 v -97.757 h 12.002 v 109.759 h -298.7102 v 6.3938 h -12.002 v -6.3938 h -651.0998 v 253.2445 h 651.0998 v -151.5481 h 12.002 v 303.9491 h -12.002 v -140.399 h -651.0998 v 1088.4561 h 1333.0998 v -700.001 l 0.068,-126.7016 h -153.8121 v -12.002 h 153.8186 l 0.1337,-249.7535 v -12 h 288 v -83.3919 h 12 v -4.6081 h 288 v -99.998 h -287.998 v 6.5875 h -12.002 v -18.5895 h 312.002 v 124.002 h -300 v 88 h -296.2514 8.2514 l -0.208,388.4591 v 699.9926 h 637.999 v -2682.655 h -458.3031 v 2.7903 h -12.002 v -2.7903 h -179.4879 v -50.002 h 147.8921 v -17.0109 h 12.002 v 17.0109 h 489.8989 v -132.998 h -489.8989 v 18.3767 h -12.002 v -18.3767 h -24.9055 v -12.002 h 526.8064 v -538.0456 l -637.8195,-0.4921 0.028,538.5377 h 14.6993 v 12.002 h -26.7007 v -11.9994 h -6e-4 l -0.028,-539.3688 h 0.028 v -191.1631 h 12.002 V -7519.7 l 637.7916,0.492 v -567.999 h -637.7916 v 289.4987 h -12.002 v -289.4987 h -1333.3072 v 709.999 h 963.1018 z m -300,2349.4109 h 318.9612 v 12.002 h -981.856 v -12.002 h 650.8928 v -8.1071 h 12.002 z m 861.6959,-514.6367 h 108.5121 v 50.002 h -300.002 v -50.002 h 181.4879 v -1.8725 h 10.002 z m 109.3427,-177.1168 h 0.046 v 50.002 h -109.3889 v 1.8725 h -10.002 v -1.8725 h -169.4859 v 1.7535 h -12.002 v -53.194 h 12.002 v 1.4385 h 75.998 v -99.998 h -88 v -923.2485 h 179.4879 v -2.7903 h 12.002 v 2.7903 h 108.5121 v 453.164 z m -12.0021,0 -0.4563,-313.2445 h -276.3722 v 201.2445 h 88 v 112 z m -660.3263,-34.2489 h -12.002 v -927.6117 h 12.002 z m 383.4978,-370.9956 v 79.998 h 275.998 v -79.998 z m 0,-132 v 119.998 h 276.2206 l -0.1748,-119.998 z m 0,-92 v 79.998 h 275.998 v -79.998 z m 0,-382 v 369.998 h 275.998 v -369.998 z m -176.1153,-892.4125 -155.1262,86.8935 -4.888,-8.7263 155.1262,-86.8934 z"
   id="path47" />
</g><g
   transform="matrix(0.49941,0,0,0.49941,1908.8391,4058.5841)"
   stroke="#ffffff"
   stroke-width="0.60071"
   opacity="1"
   fill="none"
   id="g51">
<path
   d="m -2429.3629,-5103.8553 c -1.2671,-1.8096 -3.7613,-2.2494 -5.5709,-0.9823 l -5.7341,4.015 c -1.8096,1.2671 -2.2494,3.7613 -0.9823,5.5709 l 40.724,58.1598 c 1.2671,1.8097 3.7613,2.2495 5.5709,0.9823 l 5.734,-4.015 c 1.8097,-1.2671 2.2495,-3.7613 0.9823,-5.5709 z"
   fill="#ffffff"
   stroke="none"
   id="path49" />

<path
   d="m -2571.4815,-5004.3428 c -1.2671,-1.8096 -3.7613,-2.2494 -5.5709,-0.9823 l -5.7341,4.0151 c -1.8096,1.2671 -2.2494,3.7613 -0.9823,5.5709 l 40.7239,58.1598 c 1.2671,1.8096 3.7613,2.2494 5.5709,0.9823 l 5.7341,-4.0151 c 1.8096,-1.2671 2.2494,-3.7612 0.9823,-5.5709 z"
   fill="#ffffff"
   stroke="none"
   id="path50" />

<path
   d="m -2443.3709,-5097.7091 c -2.2174,-3.1668 -6.5822,-3.9365 -9.7491,-1.719 l -118.3632,82.8788 c -3.1669,2.2174 -3.9365,6.5822 -1.719,9.7491 l 47.6068,67.9896 129.8313,-90.9089 z"
   fill="#ffffff"
   stroke="none"
   id="path51" />
</g><g
   transform="matrix(0.49941,0,0,0.49941,1908.8391,4058.5841)"
   stroke="#000000"
   stroke-width="0.60071"
   opacity="1"
   fill="none"
   id="g55">
<path
   d="m -2429.3629,-5103.8553 c -1.2671,-1.8096 -3.7613,-2.2494 -5.5709,-0.9823 l -5.7341,4.015 c -1.8096,1.2671 -2.2494,3.7613 -0.9823,5.5709 l 40.724,58.1598 c 1.2671,1.8097 3.7613,2.2495 5.5709,0.9823 l 5.734,-4.015 c 1.8097,-1.2671 2.2495,-3.7613 0.9823,-5.5709 z"
   id="path52" />

<path
   d="m -2571.4815,-5004.3428 c -1.2671,-1.8096 -3.7613,-2.2494 -5.5709,-0.9823 l -5.7341,4.0151 c -1.8096,1.2671 -2.2494,3.7613 -0.9823,5.5709 l 40.7239,58.1598 c 1.2671,1.8096 3.7613,2.2494 5.5709,0.9823 l 5.7341,-4.0151 c 1.8096,-1.2671 2.2494,-3.7612 0.9823,-5.5709 z"
   id="path53" />

<path
   d="m -2443.3709,-5097.7091 c -2.2174,-3.1668 -6.5822,-3.9365 -9.7491,-1.719 l -118.3632,82.8788 c -3.1669,2.2174 -3.9365,6.5822 -1.719,9.7491 l 47.6068,67.9896 129.8313,-90.9089 z"
   id="path54" />

<line
   x1="-2410.1035"
   y1="-5050.1982"
   x2="-2539.9348"
   y2="-4959.2896"
   id="line54" />

<line
   x1="-2475.019"
   y1="-5004.7437"
   x2="-2512.3015"
   y2="-5057.9888"
   id="line55" />
</g><g
   transform="matrix(0.49941,0,0,0.49941,1908.8391,4058.5841)"
   stroke="#ffffff"
   stroke-width="0.60071"
   opacity="1"
   fill="none"
   id="g57">
<path
   d="m -2685.6848,-6739.9118 c 2.2092,0 4,-1.7908 4,-4 v -7 c 0,-2.2091 -1.7908,-4 -4,-4 h -71 c -2.2091,0 -4,1.7909 -4,4 v 7 c 0,2.2092 1.7909,4 4,4 z"
   fill="#ffffff"
   stroke="none"
   id="path55" />

<path
   d="m -2685.6848,-6914.9118 c 2.2092,0 4,-1.7908 4,-4 v -7 c 0,-2.2091 -1.7908,-4 -4,-4 h -71 c -2.2091,0 -4,1.7909 -4,4 v 7 c 0,2.2092 1.7909,4 4,4 z"
   fill="#ffffff"
   stroke="none"
   id="path56" />

<path
   d="m -2682.6848,-6754.9118 c 3.866,0 7,-3.134 7,-7 v -146 c 0,-3.866 -3.134,-7 -7,-7 h -83 v 160 z"
   fill="#ffffff"
   stroke="none"
   id="path57" />
</g><g
   transform="matrix(0.49941,0,0,0.49941,1908.8391,4058.5841)"
   stroke="#000000"
   stroke-width="0.60071"
   opacity="1"
   fill="none"
   id="g61">
<path
   d="m -2685.6848,-6739.9118 c 2.2092,0 4,-1.7908 4,-4 v -7 c 0,-2.2091 -1.7908,-4 -4,-4 h -71 c -2.2091,0 -4,1.7909 -4,4 v 7 c 0,2.2092 1.7909,4 4,4 z"
   id="path58" />

<path
   d="m -2685.6848,-6914.9118 c 2.2092,0 4,-1.7908 4,-4 v -7 c 0,-2.2091 -1.7908,-4 -4,-4 h -71 c -2.2091,0 -4,1.7909 -4,4 v 7 c 0,2.2092 1.7909,4 4,4 z"
   id="path59" />

<path
   d="m -2682.6848,-6754.9118 c 3.866,0 7,-3.134 7,-7 v -146 c 0,-3.866 -3.134,-7 -7,-7 h -83 v 160 z"
   id="path60" />

<line
   x1="-2740.6848"
   y1="-6754.9116"
   x2="-2740.6848"
   y2="-6914.9116"
   id="line60" />

<line
   x1="-2740.6848"
   y1="-6834.9116"
   x2="-2675.6848"
   y2="-6834.9116"
   id="line61" />
</g><g
   transform="matrix(0.49941,0,0,0.49941,1908.8391,4058.5841)"
   stroke="#ffffff"
   stroke-width="0.60071"
   opacity="1"
   fill="none"
   id="g63">
<path
   d="m -2568.3884,-7475.7654 c -2.2091,0 -4,1.7908 -4,4 v 7 c 0,2.2091 1.7909,4 4,4 h 71 c 2.2092,0 4,-1.7909 4,-4 v -7 c 0,-2.2092 -1.7908,-4 -4,-4 z"
   fill="#ffffff"
   stroke="none"
   id="path61" />

<path
   d="m -2568.3884,-7380.207 c -2.2091,0 -4,1.7909 -4,4 v 7 c 0,2.2092 1.7909,4 4,4 h 71 c 2.2092,0 4,-1.7908 4,-4 v -7 c 0,-2.2091 -1.7908,-4 -4,-4 z"
   fill="#ffffff"
   stroke="none"
   id="path62" />

<path
   d="m -2571.3884,-7460.7654 c -3.8659,0 -7,3.134 -7,7 v 66.5584 c 0,3.866 3.1341,7 7,7 h 83 v -80.5584 z"
   fill="#ffffff"
   stroke="none"
   id="path63" />
</g><g
   transform="matrix(0.49941,0,0,0.49941,1908.8391,4058.5841)"
   stroke="#000000"
   stroke-width="0.60071"
   opacity="1"
   fill="none"
   id="g66">
<path
   d="m -2568.3884,-7475.7654 c -2.2091,0 -4,1.7908 -4,4 v 7 c 0,2.2091 1.7909,4 4,4 h 71 c 2.2092,0 4,-1.7909 4,-4 v -7 c 0,-2.2092 -1.7908,-4 -4,-4 z"
   id="path64" />

<path
   d="m -2568.3884,-7380.207 c -2.2091,0 -4,1.7909 -4,4 v 7 c 0,2.2092 1.7909,4 4,4 h 71 c 2.2092,0 4,-1.7908 4,-4 v -7 c 0,-2.2091 -1.7908,-4 -4,-4 z"
   id="path65" />

<path
   d="m -2571.3884,-7460.7654 c -3.8659,0 -7,3.134 -7,7 v 66.5584 c 0,3.866 3.1341,7 7,7 h 83 v -80.5584 z"
   id="path66" />

<line
   x1="-2513.3884"
   y1="-7460.7656"
   x2="-2513.3884"
   y2="-7380.207"
   id="line66" />
</g><g
   transform="matrix(0.49941,0,0,0.49941,1908.8391,4058.5841)"
   stroke="#ffffff"
   stroke-width="0.60071"
   opacity="1"
   fill="none"
   id="g69">
<path
   d="m -2583.3884,-7356.5467 c 1.1046,-1.9132 0.4491,-4.3595 -1.464,-5.4641 l -6.0622,-3.5 c -1.9132,-1.1046 -4.3596,-0.4491 -5.4641,1.4641 l -35.5,61.4878 c -1.1046,1.9132 -0.4491,4.3595 1.4641,5.4641 l 6.0622,3.5 c 1.9131,1.1046 4.3595,0.4491 5.464,-1.4641 z"
   fill="#ffffff"
   stroke="none"
   id="path67" />

<path
   d="m -2666.6211,-7404.6011 c 1.1046,-1.9132 0.4491,-4.3596 -1.464,-5.4641 l -6.0622,-3.5 c -1.9132,-1.1046 -4.3596,-0.4491 -5.4641,1.4641 l -35.5,61.4878 c -1.1046,1.9131 -0.4491,4.3595 1.4641,5.4641 l 6.0622,3.5 c 1.9131,1.1045 4.3595,0.449 5.464,-1.4641 z"
   fill="#ffffff"
   stroke="none"
   id="path68" />

<path
   d="m -2594.8787,-7366.6448 c 1.933,-3.348 0.7858,-7.6292 -2.5622,-9.5622 l -58.118,-33.5544 c -3.348,-1.933 -7.6292,-0.7859 -9.5622,2.5622 l -41.5,71.8801 70.2424,40.5544 z"
   fill="#ffffff"
   stroke="none"
   id="path69" />
</g><g
   transform="matrix(0.49941,0,0,0.49941,1908.8391,4058.5841)"
   stroke="#000000"
   stroke-width="0.60071"
   opacity="1"
   fill="none"
   id="g72">
<path
   d="m -2583.3884,-7356.5467 c 1.1046,-1.9132 0.4491,-4.3595 -1.464,-5.4641 l -6.0622,-3.5 c -1.9132,-1.1046 -4.3596,-0.4491 -5.4641,1.4641 l -35.5,61.4878 c -1.1046,1.9132 -0.4491,4.3595 1.4641,5.4641 l 6.0622,3.5 c 1.9131,1.1046 4.3595,0.4491 5.464,-1.4641 z"
   id="path70" />

<path
   d="m -2666.6211,-7404.6011 c 1.1046,-1.9132 0.4491,-4.3596 -1.464,-5.4641 l -6.0622,-3.5 c -1.9132,-1.1046 -4.3596,-0.4491 -5.4641,1.4641 l -35.5,61.4878 c -1.1046,1.9131 -0.4491,4.3595 1.4641,5.4641 l 6.0622,3.5 c 1.9131,1.1045 4.3595,0.449 5.464,-1.4641 z"
   id="path71" />

<path
   d="m -2594.8787,-7366.6448 c 1.933,-3.348 0.7858,-7.6292 -2.5622,-9.5622 l -58.118,-33.5544 c -3.348,-1.933 -7.6292,-0.7859 -9.5622,2.5622 l -41.5,71.8801 70.2424,40.5544 z"
   id="path72" />

<line
   x1="-2623.8787"
   y1="-7316.4155"
   x2="-2694.1211"
   y2="-7356.9697"
   id="line72" />
</g><g
   transform="matrix(0.49941,0,0,0.49941,1908.8391,4058.5841)"
   stroke="#ffffff"
   stroke-width="0.60071"
   opacity="1"
   fill="none"
   id="g75">
<path
   d="m -3064.1643,-8007.207 c 0,2.2092 1.7909,4 4,4 h 7 c 2.2091,0 4,-1.7908 4,-4 v -71 c 0,-2.2091 -1.7909,-4 -4,-4 h -7 c -2.2091,0 -4,1.7909 -4,4 z"
   fill="#ffffff"
   stroke="none"
   id="path73" />

<path
   d="m -2889.1643,-8007.207 c 0,2.2092 1.7909,4 4,4 h 7 c 2.2091,0 4,-1.7908 4,-4 v -71 c 0,-2.2091 -1.7909,-4 -4,-4 h -7 c -2.2091,0 -4,1.7909 -4,4 z"
   fill="#ffffff"
   stroke="none"
   id="path74" />

<path
   d="m -3049.1643,-8004.207 c 0,3.866 3.134,7 7,7 h 146 c 3.866,0 7,-3.134 7,-7 v -83 h -160 z"
   fill="#ffffff"
   stroke="none"
   id="path75" />
</g><g
   transform="matrix(0.49941,0,0,0.49941,1908.8391,4058.5841)"
   stroke="#000000"
   stroke-width="0.60071"
   opacity="1"
   fill="none"
   id="g79">
<path
   d="m -3064.1643,-8007.207 c 0,2.2092 1.7909,4 4,4 h 7 c 2.2091,0 4,-1.7908 4,-4 v -71 c 0,-2.2091 -1.7909,-4 -4,-4 h -7 c -2.2091,0 -4,1.7909 -4,4 z"
   id="path76" />

<path
   d="m -2889.1643,-8007.207 c 0,2.2092 1.7909,4 4,4 h 7 c 2.2091,0 4,-1.7908 4,-4 v -71 c 0,-2.2091 -1.7909,-4 -4,-4 h -7 c -2.2091,0 -4,1.7909 -4,4 z"
   id="path77" />

<path
   d="m -3049.1643,-8004.207 c 0,3.866 3.134,7 7,7 h 146 c 3.866,0 7,-3.134 7,-7 v -83 h -160 z"
   id="path78" />

<line
   x1="-3049.1643"
   y1="-8062.207"
   x2="-2889.1643"
   y2="-8062.207"
   id="line78" />

<line
   x1="-2969.1643"
   y1="-8062.207"
   x2="-2969.1643"
   y2="-7997.207"
   id="line79" />
</g><g
   transform="matrix(0.49941,0,0,0.49941,1908.8391,4058.5841)"
   stroke="#ffffff"
   stroke-width="0.60071"
   opacity="1"
   fill="none"
   id="g80">
<path
   d="m -3369.1049,-7761.6049 h 100 v -70 h -100 z"
   fill="#ffffff"
   stroke="none"
   id="path79" />
</g><g
   transform="matrix(0.49941,0,0,0.49941,1908.8391,4058.5841)"
   stroke="#000000"
   stroke-width="0.60071"
   opacity="1"
   fill="none"
   id="g81">
<path
   d="m -3369.1049,-7761.6049 h 100 v -70 h -100 z"
   id="path80" />
</g><g
   transform="matrix(0.49941,0,0,0.49941,1908.8391,4058.5841)"
   stroke="#ffffff"
   stroke-width="0.60071"
   opacity="1"
   fill="none"
   id="g82">
<path
   d="m -3269.1049,-7761.6049 h 100 v -70 h -100 z"
   fill="#ffffff"
   stroke="none"
   id="path81" />
</g><g
   transform="matrix(0.49941,0,0,0.49941,1908.8391,4058.5841)"
   stroke="#000000"
   stroke-width="0.60071"
   opacity="1"
   fill="none"
   id="g83">
<path
   d="m -3269.1049,-7761.6049 h 100 v -70 h -100 z"
   id="path82" />
</g><g
   transform="matrix(0.49941,0,0,0.49941,1908.8391,4058.5841)"
   stroke="#ffffff"
   stroke-width="0.60071"
   opacity="1"
   fill="none"
   id="g84">
<path
   d="m -3169.1049,-7761.6049 h 100 v -70 h -100 z"
   fill="#ffffff"
   stroke="none"
   id="path83" />
</g><g
   transform="matrix(0.49941,0,0,0.49941,1908.8391,4058.5841)"
   stroke="#000000"
   stroke-width="0.60071"
   opacity="1"
   fill="none"
   id="g85">
<path
   d="m -3169.1049,-7761.6049 h 100 v -70 h -100 z"
   id="path84" />
</g><g
   transform="matrix(0.49941,0,0,0.49941,1908.8391,4058.5841)"
   stroke="#ffffff"
   stroke-width="0.60071"
   opacity="1"
   fill="none"
   id="g86">
<path
   d="m -3269.1049,-7377.207 h 100 v -70 h -100 z"
   fill="#ffffff"
   stroke="none"
   id="path85" />
</g><g
   transform="matrix(0.49941,0,0,0.49941,1908.8391,4058.5841)"
   stroke="#000000"
   stroke-width="0.60071"
   opacity="1"
   fill="none"
   id="g87">
<path
   d="m -3269.1049,-7377.207 h 100 v -70 h -100 z"
   id="path86" />
</g><g
   transform="matrix(0.49941,0,0,0.49941,1908.8391,4058.5841)"
   stroke="#ffffff"
   stroke-width="0.60071"
   opacity="1"
   fill="none"
   id="g88">
<path
   d="m -3169.1049,-7377.207 h 100 v -70 h -100 z"
   fill="#ffffff"
   stroke="none"
   id="path87" />
</g><g
   transform="matrix(0.49941,0,0,0.49941,1908.8391,4058.5841)"
   stroke="#000000"
   stroke-width="0.60071"
   opacity="1"
   fill="none"
   id="g89">
<path
   d="m -3169.1049,-7377.207 h 100 v -70 h -100 z"
   id="path88" />
</g><g
   transform="matrix(0.49941,0,0,0.49941,1908.8391,4058.5841)"
   stroke="#ffffff"
   stroke-width="0.60071"
   opacity="1"
   fill="none"
   id="g90">
<path
   d="m -3069.1049,-7377.207 h 100 v -70 h -100 z"
   fill="#ffffff"
   stroke="none"
   id="path89" />
</g><g
   transform="matrix(0.49941,0,0,0.49941,1908.8391,4058.5841)"
   stroke="#000000"
   stroke-width="0.60071"
   opacity="1"
   fill="none"
   id="g91">
<path
   d="m -3069.1049,-7377.207 h 100 v -70 h -100 z"
   id="path90" />
</g><g
   transform="matrix(0.49941,0,0,0.49941,1908.8391,4058.5841)"
   stroke="#ffffff"
   stroke-width="0.60071"
   opacity="1"
   fill="none"
   id="g92">
<path
   d="m -3369.1049,-7377.207 h 100 v -70 h -100 z"
   fill="#ffffff"
   stroke="none"
   id="path91" />
</g><g
   transform="matrix(0.49941,0,0,0.49941,1908.8391,4058.5841)"
   stroke="#000000"
   stroke-width="0.60071"
   opacity="1"
   fill="none"
   id="g93">
<path
   d="m -3369.1049,-7377.207 h 100 v -70 h -100 z"
   id="path92" />
</g><g
   transform="matrix(0.49941,0,0,0.49941,1908.8391,4058.5841)"
   stroke="#ffffff"
   stroke-width="0.60071"
   opacity="1"
   fill="none"
   id="g94">
<path
   d="m -2728.0152,-7586.0135 h 100 v -70 h -100 z"
   fill="#ffffff"
   stroke="none"
   id="path93" />
</g><g
   transform="matrix(0.49941,0,0,0.49941,1908.8391,4058.5841)"
   stroke="#000000"
   stroke-width="0.60071"
   opacity="1"
   fill="none"
   id="g95">
<path
   d="m -2728.0152,-7586.0135 h 100 v -70 h -100 z"
   id="path94" />
</g><g
   transform="matrix(0.49941,0,0,0.49941,1908.8391,4058.5841)"
   stroke="#ffffff"
   stroke-width="0.60071"
   opacity="1"
   fill="none"
   id="g96">
<path
   d="m -2628.0152,-7586.0135 h 100 v -70 h -100 z"
   fill="#ffffff"
   stroke="none"
   id="path95" />
</g><g
   transform="matrix(0.49941,0,0,0.49941,1908.8391,4058.5841)"
   stroke="#000000"
   stroke-width="0.60071"
   opacity="1"
   fill="none"
   id="g97">
<path
   d="m -2628.0152,-7586.0135 h 100 v -70 h -100 z"
   id="path96" />
</g><g
   transform="matrix(0.49941,0,0,0.49941,1908.8391,4058.5841)"
   stroke="#ffffff"
   stroke-width="0.60071"
   opacity="1"
   fill="none"
   id="g98">
<path
   d="m -2765.6848,-7002.3827 h 100 v -70 h -100 z"
   fill="#ffffff"
   stroke="none"
   id="path97" />
</g><g
   transform="matrix(0.49941,0,0,0.49941,1908.8391,4058.5841)"
   stroke="#000000"
   stroke-width="0.60071"
   opacity="1"
   fill="none"
   id="g99">
<path
   d="m -2765.6848,-7002.3827 h 100 v -70 h -100 z"
   id="path98" />
</g><g
   transform="matrix(0.49941,0,0,0.49941,1908.8391,4058.5841)"
   stroke="#ffffff"
   stroke-width="0.60071"
   opacity="1"
   fill="none"
   id="g100">
<path
   d="m -2665.6848,-7002.3827 h 100 v -70 h -100 z"
   fill="#ffffff"
   stroke="none"
   id="path99" />
</g><g
   transform="matrix(0.49941,0,0,0.49941,1908.8391,4058.5841)"
   stroke="#000000"
   stroke-width="0.60071"
   opacity="1"
   fill="none"
   id="g101">
<path
   d="m -2665.6848,-7002.3827 h 100 v -70 h -100 z"
   id="path100" />
</g><g
   transform="matrix(0.49941,0,0,0.49941,1908.8391,4058.5841)"
   stroke="#ffffff"
   stroke-width="0.60071"
   opacity="1"
   fill="none"
   id="g102">
<path
   d="m -2565.6848,-6371.5207 v -100 h -70 v 100 z"
   fill="#ffffff"
   stroke="none"
   id="path101" />
</g><g
   transform="matrix(0.49941,0,0,0.49941,1908.8391,4058.5841)"
   stroke="#000000"
   stroke-width="0.60071"
   opacity="1"
   fill="none"
   id="g103">
<path
   d="m -2565.6848,-6371.5207 v -100 h -70 v 100 z"
   id="path102" />
</g><g
   transform="matrix(0.49941,0,0,0.49941,1908.8391,4058.5841)"
   stroke="#ffffff"
   stroke-width="0.60071"
   opacity="1"
   fill="none"
   id="g104">
<path
   d="m -2565.6848,-6271.5207 v -100 h -70 v 100 z"
   fill="#ffffff"
   stroke="none"
   id="path103" />
</g><g
   transform="matrix(0.49941,0,0,0.49941,1908.8391,4058.5841)"
   stroke="#000000"
   stroke-width="0.60071"
   opacity="1"
   fill="none"
   id="g105">
<path
   d="m -2565.6848,-6271.5207 v -100 h -70 v 100 z"
   id="path104" />
</g><g
   transform="matrix(0.49941,0,0,0.49941,1908.8391,4058.5841)"
   stroke="#ffffff"
   stroke-width="0.60071"
   opacity="1"
   fill="none"
   id="g106">
<path
   d="m -2565.6848,-5835.207 v -100 h -70 v 100 z"
   fill="#ffffff"
   stroke="none"
   id="path105" />
</g><g
   transform="matrix(0.49941,0,0,0.49941,1908.8391,4058.5841)"
   stroke="#000000"
   stroke-width="0.60071"
   opacity="1"
   fill="none"
   id="g107">
<path
   d="m -2565.6848,-5835.207 v -100 h -70 v 100 z"
   id="path106" />
</g><g
   transform="matrix(0.49941,0,0,0.49941,1908.8391,4058.5841)"
   stroke="#ffffff"
   stroke-width="0.60071"
   opacity="1"
   fill="none"
   id="g108">
<path
   d="m -2565.6848,-5735.207 v -100 h -70 v 100 z"
   fill="#ffffff"
   stroke="none"
   id="path107" />
</g><g
   transform="matrix(0.49941,0,0,0.49941,1908.8391,4058.5841)"
   stroke="#000000"
   stroke-width="0.60071"
   opacity="1"
   fill="none"
   id="g109">
<path
   d="m -2565.6848,-5735.207 v -100 h -70 v 100 z"
   id="path108" />
</g><g
   transform="matrix(0.49941,0,0,0.49941,1908.8391,4058.5841)"
   stroke="#ffffff"
   stroke-width="0.60071"
   opacity="1"
   fill="none"
   id="g110">
<path
   d="m -2695.6848,-6123.6942 v -347.8265 h -70 v 347.8265 z"
   fill="#ffffff"
   stroke="none"
   id="path109" />
</g><g
   transform="matrix(0.49941,0,0,0.49941,1908.8391,4058.5841)"
   stroke="#000000"
   stroke-width="0.60071"
   opacity="1"
   fill="none"
   id="g111">
<path
   d="m -2695.6848,-6123.6942 v -347.8265 h -70 v 347.8265 z"
   id="path110" />
</g><g
   transform="matrix(0.49941,0,0,0.49941,1908.8391,4058.5841)"
   stroke="#ffffff"
   stroke-width="0.60071"
   opacity="1"
   fill="none"
   id="g112">
<path
   d="m -2695.6848,-5682.6712 v -356.5357 h -70 v 356.5357 z"
   fill="#ffffff"
   stroke="none"
   id="path111" />
</g><g
   transform="matrix(0.49941,0,0,0.49941,1908.8391,4058.5841)"
   stroke="#000000"
   stroke-width="0.60071"
   opacity="1"
   fill="none"
   id="g113">
<path
   d="m -2695.6848,-5682.6712 v -356.5357 h -70 v 356.5357 z"
   id="path112" />
</g><g
   transform="matrix(0.49941,0,0,0.49941,1908.8391,4058.5841)"
   stroke="#ffffff"
   stroke-width="0.60071"
   opacity="1"
   fill="none"
   id="g114">
<path
   d="m -2565.6848,-5633.9605 v -100 h -70 v 100 z"
   fill="#ffffff"
   stroke="none"
   id="path113" />
</g><g
   transform="matrix(0.49941,0,0,0.49941,1908.8391,4058.5841)"
   stroke="#000000"
   stroke-width="0.60071"
   opacity="1"
   fill="none"
   id="g115">
<path
   d="m -2565.6848,-5633.9605 v -100 h -70 v 100 z"
   id="path114" />
</g><g
   transform="matrix(0.49941,0,0,0.49941,1908.8391,4058.5841)"
   stroke="#ffffff"
   stroke-width="0.60071"
   opacity="1"
   fill="none"
   id="g116">
<path
   d="m -2908.6622,-5152.9381 h 100 v -70 h -100 z"
   fill="#ffffff"
   stroke="none"
   id="path115" />
</g><g
   transform="matrix(0.49941,0,0,0.49941,1908.8391,4058.5841)"
   stroke="#000000"
   stroke-width="0.60071"
   opacity="1"
   fill="none"
   id="g117">
<path
   d="m -2908.6622,-5152.9381 h 100 v -70 h -100 z"
   id="path116" />
</g><g
   transform="matrix(0.49941,0,0,0.49941,1908.8391,4058.5841)"
   stroke="#ffffff"
   stroke-width="0.60071"
   opacity="1"
   fill="none"
   id="g118">
<path
   d="m -2808.6622,-5152.9381 h 100 v -70 h -100 z"
   fill="#ffffff"
   stroke="none"
   id="path117" />
</g><g
   transform="matrix(0.49941,0,0,0.49941,1908.8391,4058.5841)"
   stroke="#000000"
   stroke-width="0.60071"
   opacity="1"
   fill="none"
   id="g119">
<path
   d="m -2808.6622,-5152.9381 h 100 v -70 h -100 z"
   id="path118" />
</g><g
   transform="matrix(0.49941,0,0,0.49941,1908.8391,4058.5841)"
   stroke="#ffffff"
   stroke-width="0.60071"
   opacity="1"
   fill="none"
   id="g120">
<path
   d="m -2708.6622,-5152.9381 h 100 v -70 h -100 z"
   fill="#ffffff"
   stroke="none"
   id="path119" />
</g><g
   transform="matrix(0.49941,0,0,0.49941,1908.8391,4058.5841)"
   stroke="#000000"
   stroke-width="0.60071"
   opacity="1"
   fill="none"
   id="g121">
<path
   d="m -2708.6622,-5152.9381 h 100 v -70 h -100 z"
   id="path120" />
</g><g
   transform="matrix(0.49941,0,0,0.49941,1908.8391,4058.5841)"
   stroke="#ffffff"
   stroke-width="0.60071"
   opacity="1"
   fill="none"
   id="g122">
<path
   d="m -2675.3605,-7450.1131 86.6025,-50 -1.6,-2.7713 -8.6602,5 -4.9981,-2.6569 -64.0859,37 -0.198,5.6569 -8.6603,5"
   fill="#ffffff"
   stroke="none"
   id="path121" />
</g><g
   transform="matrix(0.49941,0,0,0.49941,1908.8391,4058.5841)"
   stroke="#000000"
   stroke-width="0.60071"
   opacity="1"
   fill="none"
   id="g123">
<path
   d="m -2675.3605,-7450.1131 86.6025,-50 -1.6,-2.7713 -8.6602,5 -4.9981,-2.6569 -64.0859,37 -0.198,5.6569 -8.6603,5 z"
   id="path122" />

<path
   d="m -2599.0182,-7497.8844 -69.282,40"
   id="path123" />
</g><g
   transform="matrix(0.49941,0,0,0.49941,1908.8391,4058.5841)"
   stroke="#ffffff"
   stroke-width="0.60071"
   opacity="1"
   fill="none"
   id="g124">
<path
   d="m -2382.9031,-6251.207 v 80 h 275.3401 v -80 z"
   fill="#ffffff"
   stroke="none"
   id="path124" />
</g><g
   transform="matrix(0.49941,0,0,0.49941,1908.8391,4058.5841)"
   stroke="#000000"
   stroke-width="0.60071"
   opacity="1"
   fill="none"
   id="g129">
<path
   d="m -2382.9031,-6251.207 v 80 h 275.3401 v -80 z"
   id="path125" />

<path
   d="m -2382.9031,-6247.207 h 275.3401"
   id="path126" />

<path
   d="m -2382.9031,-6175.207 h 275.3401"
   id="path127" />

<line
   x1="-2382.9031"
   y1="-6211.207"
   x2="-2107.563"
   y2="-6211.207"
   id="line127" />

<line
   x1="-2122.563"
   y1="-6221.207"
   x2="-2107.563"
   y2="-6211.207"
   id="line128" />

<line
   x1="-2122.563"
   y1="-6201.207"
   x2="-2107.563"
   y2="-6211.207"
   id="line129" />
</g><g
   transform="matrix(0.49941,0,0,0.49941,1908.8391,4058.5841)"
   stroke="#ffffff"
   stroke-width="0.60071"
   opacity="1"
   fill="none"
   id="g130">
<path
   d="m -2382.9031,-6027.207 v 80 h 275.3401 v -80 z"
   fill="#ffffff"
   stroke="none"
   id="path129" />
</g><g
   transform="matrix(0.49941,0,0,0.49941,1908.8391,4058.5841)"
   stroke="#000000"
   stroke-width="0.60071"
   opacity="1"
   fill="none"
   id="g170">
<path
   d="m -2382.9031,-6027.207 v 80 h 275.3401 v -80 z"
   id="path130" />

<path
   d="m -2382.9031,-6023.207 h 275.3401"
   id="path131" />

<path
   d="m -2382.9031,-5951.207 h 275.3401"
   id="path132" />

<line
   x1="-2382.9031"
   y1="-5987.207"
   x2="-2107.563"
   y2="-5987.207"
   id="line132" />

<line
   x1="-2122.563"
   y1="-5997.207"
   x2="-2107.563"
   y2="-5987.207"
   id="line133" />

<line
   x1="-2122.563"
   y1="-5977.207"
   x2="-2107.563"
   y2="-5987.207"
   id="line134" />

<path
   d="m -3066.6848,-5438.8122 v 95.3026"
   id="path134" />

<path
   d="m -3076.6848,-5343.5096 v -5 h 10"
   id="path135" />

<path
   d="m -3076.6848,-5438.8122 v 5 h 10 85.3026 c 0,47.1113 -38.1913,85.3026 -85.3026,85.3026"
   id="path136" />

<line
   x1="-3066.6848"
   y1="-5428.812"
   x2="-2981.5288"
   y2="-5428.812"
   id="line136" />

<path
   d="m -3066.6848,-5039.5605 v 101.2454"
   id="path137" />

<path
   d="m -3076.6848,-4938.3151 v -5 h 10"
   id="path138" />

<path
   d="m -3076.6848,-5039.5605 v 5 h 10 91.2454 c 0,50.3934 -40.852,91.2454 -91.2454,91.2454"
   id="path139" />

<line
   x1="-3066.6848"
   y1="-5029.5605"
   x2="-2975.5764"
   y2="-5029.5605"
   id="line139" />

<path
   d="m -2549.4301,-4929.207 h -5 v 98.6463 c -51.7194,0 -93.6462,-39.6883 -93.6462,-88.6463 0,48.958 -41.9269,88.6463 -93.6463,88.6463 v -98.6463 h -5"
   id="path140" />

<line
   x1="-2549.4302"
   y1="-4919.207"
   x2="-2746.7227"
   y2="-4919.207"
   id="line140" />

<line
   x1="-2559.4302"
   y1="-4919.207"
   x2="-2559.4302"
   y2="-4830.7017"
   id="line141" />

<line
   x1="-2736.7227"
   y1="-4919.207"
   x2="-2736.7227"
   y2="-4830.7017"
   id="line142" />

<path
   d="m -2767.9747,-6685.0675 v 101.2454"
   id="path142" />

<path
   d="m -2777.9747,-6583.8221 v -5 h 10"
   id="path143" />

<path
   d="m -2777.9747,-6685.0675 v 5 h 10 91.2454 c 0,50.3934 -40.8519,91.2454 -91.2454,91.2454"
   id="path144" />

<line
   x1="-2767.9746"
   y1="-6675.0674"
   x2="-2676.8665"
   y2="-6675.0674"
   id="line144" />

<path
   d="m -2767.9747,-5656.2104 v 101.2454"
   id="path145" />

<path
   d="m -2777.9747,-5554.965 v -5 h 10"
   id="path146" />

<path
   d="m -2777.9747,-5656.2104 v 5 h 10 91.2454 c 0,50.3934 -40.8519,91.2454 -91.2454,91.2454"
   id="path147" />

<line
   x1="-2767.9746"
   y1="-5646.2104"
   x2="-2676.8665"
   y2="-5646.2104"
   id="line147" />

<path
   d="m -2384.4774,-7797.7083 v 98.0186"
   id="path148" />

<path
   d="m -2394.4774,-7699.6897 v -5 h 10"
   id="path149" />

<path
   d="m -2394.4774,-7797.7083 v 5 h 10 88.0185 c 0,48.6113 -39.4072,88.0186 -88.0185,88.0186"
   id="path150" />

<line
   x1="-2384.4773"
   y1="-7787.7085"
   x2="-2296.6011"
   y2="-7787.7085"
   id="line150" />

<path
   d="m -2766.6848,-7279.6189 v 101.2454"
   id="path151" />

<path
   d="m -2776.6848,-7178.3735 v -5 h 10"
   id="path152" />

<path
   d="m -2776.6848,-7279.6189 v 5 h 10 91.2454 c 0,50.3934 -40.852,91.2454 -91.2454,91.2454"
   id="path153" />

<line
   x1="-2766.6848"
   y1="-7269.6191"
   x2="-2675.5764"
   y2="-7269.6191"
   id="line153" />

<path
   d="m -2236.5847,-6841.1713 v -97.6104"
   id="path154" />

<path
   d="m -2246.5847,-6938.7817 v 5 h 10"
   id="path155" />

<path
   d="m -2246.5847,-6841.1713 v -5 h 10 87.6104 c 0,-48.3859 -39.2245,-87.6104 -87.6104,-87.6104"
   id="path156" />

<line
   x1="-2236.5847"
   y1="-6851.1714"
   x2="-2149.1169"
   y2="-6851.1714"
   id="line156" />

<path
   d="m -2368.7771,-6968.1594 h 96.2859"
   id="path157" />

<path
   d="m -2272.4912,-6958.1594 h -5 v -10"
   id="path158" />

<path
   d="m -2368.7771,-6958.1594 h 5 v -10 -86.2859 c 47.6544,0 86.2859,38.6315 86.2859,86.2859"
   id="path159" />

<line
   x1="-2358.7771"
   y1="-6968.1592"
   x2="-2358.7771"
   y2="-7054.3003"
   id="line159" />

<path
   d="m -2394.4768,-5623.4 v -5 h 49.9999 c 0,-24.8528 -17.9085,-44.9999 -39.9999,-44.9999 22.0914,0 39.9999,-20.1471 39.9999,-44.9999 h -49.9999 v -5"
   id="path160" />

<line
   x1="-2384.4768"
   y1="-5623.3999"
   x2="-2384.4768"
   y2="-5723.3999"
   id="line160" />

<line
   x1="-2384.4768"
   y1="-5633.3999"
   x2="-2344.7905"
   y2="-5633.3999"
   id="line161" />

<line
   x1="-2384.4768"
   y1="-5713.3999"
   x2="-2344.7905"
   y2="-5713.3999"
   id="line162" />

<path
   d="m -2214.9889,-6647.9983 v -5 h 61.6849 c 0,-31.3062 -23.1401,-56.6849 -51.6849,-56.6849 28.5448,0 51.6849,-25.3787 51.6849,-56.6849 h -61.6849 v -5"
   id="path162" />

<line
   x1="-2204.989"
   y1="-6647.998"
   x2="-2204.989"
   y2="-6771.3682"
   id="line163" />

<line
   x1="-2204.989"
   y1="-6657.998"
   x2="-2153.5464"
   y2="-6657.998"
   id="line164" />

<line
   x1="-2204.989"
   y1="-6761.3682"
   x2="-2153.5464"
   y2="-6761.3682"
   id="line165" />

<path
   d="m -2096.4768,-5275.3534 v -98.0186"
   id="path165" />

<path
   d="m -2106.4768,-5373.372 v 5 h 10"
   id="path166" />

<path
   d="m -2106.4768,-5275.3534 v -5 h 10 88.0186 c 0,-48.6113 -39.4073,-88.0186 -88.0186,-88.0186"
   id="path167" />

<line
   x1="-2096.4768"
   y1="-5285.3535"
   x2="-2008.6003"
   y2="-5285.3535"
   id="line167" />

<path
   d="m -2213.9889,-5570.087 v 5 h 61.6849 c 0,31.3062 -23.1401,56.6849 -51.6849,56.6849 28.5448,0 51.6849,25.3787 51.6849,56.6849 h -61.6849 v 5"
   id="path168" />

<line
   x1="-2203.989"
   y1="-5570.0869"
   x2="-2203.989"
   y2="-5446.7173"
   id="line168" />

<line
   x1="-2203.989"
   y1="-5560.0869"
   x2="-2152.5464"
   y2="-5560.0869"
   id="line169" />

<line
   x1="-2203.989"
   y1="-5456.7173"
   x2="-2152.5464"
   y2="-5456.7173"
   id="line170" />
</g><g
   transform="matrix(0.49941,0,0,0.49941,1908.8391,4058.5841)"
   stroke="#ffffff"
   stroke-width="0.60071"
   opacity="1"
   fill="none"
   id="g171">
<path
   d="m -1897.3241,-5721.9605 h -140 v 300 h 140 z"
   fill="#ffffff"
   stroke="none"
   id="path170" />
</g><g
   transform="matrix(0.49941,0,0,0.49941,1908.8391,4058.5841)"
   stroke="#000000"
   stroke-width="0.60071"
   opacity="1"
   fill="none"
   id="g186">
<path
   d="m -1897.3241,-5721.9605 h -140 v 300 h 140 z"
   id="path171" />

<path
   d="m -1901.3241,-5721.9605 v 300"
   id="path172" />

<path
   d="m -2033.3241,-5721.9605 v 300"
   id="path173" />

<line
   x1="-1897.3241"
   y1="-5446.9604"
   x2="-2037.3241"
   y2="-5446.9604"
   id="line173" />

<line
   x1="-1897.3241"
   y1="-5471.9604"
   x2="-2037.3241"
   y2="-5471.9604"
   id="line174" />

<line
   x1="-1897.3241"
   y1="-5496.9604"
   x2="-2037.3241"
   y2="-5496.9604"
   id="line175" />

<line
   x1="-1897.3241"
   y1="-5521.9604"
   x2="-2037.3241"
   y2="-5521.9604"
   id="line176" />

<line
   x1="-1897.3241"
   y1="-5546.9604"
   x2="-2037.3241"
   y2="-5546.9604"
   id="line177" />

<line
   x1="-1897.3241"
   y1="-5571.9604"
   x2="-2037.3241"
   y2="-5571.9604"
   id="line178" />

<line
   x1="-1897.3241"
   y1="-5596.9604"
   x2="-2037.3241"
   y2="-5596.9604"
   id="line179" />

<line
   x1="-1897.3241"
   y1="-5621.9604"
   x2="-2037.3241"
   y2="-5621.9604"
   id="line180" />

<line
   x1="-1897.3241"
   y1="-5646.9604"
   x2="-2037.3241"
   y2="-5646.9604"
   id="line181" />

<line
   x1="-1897.3241"
   y1="-5671.9604"
   x2="-2037.3241"
   y2="-5671.9604"
   id="line182" />

<line
   x1="-1897.3241"
   y1="-5696.9604"
   x2="-2037.3241"
   y2="-5696.9604"
   id="line183" />

<line
   x1="-1967.3241"
   y1="-5721.9604"
   x2="-1967.3241"
   y2="-5421.9604"
   id="line184" />

<line
   x1="-1957.3241"
   y1="-5436.9604"
   x2="-1967.3241"
   y2="-5421.9604"
   id="line185" />

<line
   x1="-1977.3241"
   y1="-5436.9604"
   x2="-1967.3241"
   y2="-5421.9604"
   id="line186" />
</g><g
   transform="matrix(0.49941,0,0,0.49941,1908.8391,4058.5841)"
   stroke="#ffffff"
   stroke-width="0.60071"
   opacity="1"
   fill="none"
   id="g187">
<path
   d="m -1775.2001,-6645.207 h -140 v 301.8453 h 140 z"
   fill="#ffffff"
   stroke="none"
   id="path186" />
</g><g
   transform="matrix(0.49941,0,0,0.49941,1908.8391,4058.5841)"
   stroke="#000000"
   stroke-width="0.60071"
   opacity="1"
   fill="none"
   id="g202">
<path
   d="m -1775.2001,-6645.207 h -140 v 301.8453 h 140 z"
   id="path187" />

<path
   d="m -1779.2001,-6645.207 v 301.8453"
   id="path188" />

<path
   d="m -1911.2001,-6645.207 v 301.8453"
   id="path189" />

<line
   x1="-1775.2001"
   y1="-6368.5156"
   x2="-1915.2001"
   y2="-6368.5156"
   id="line189" />

<line
   x1="-1775.2001"
   y1="-6393.6694"
   x2="-1915.2001"
   y2="-6393.6694"
   id="line190" />

<line
   x1="-1775.2001"
   y1="-6418.8232"
   x2="-1915.2001"
   y2="-6418.8232"
   id="line191" />

<line
   x1="-1775.2001"
   y1="-6443.9771"
   x2="-1915.2001"
   y2="-6443.9771"
   id="line192" />

<line
   x1="-1775.2001"
   y1="-6469.1304"
   x2="-1915.2001"
   y2="-6469.1304"
   id="line193" />

<line
   x1="-1775.2001"
   y1="-6494.2842"
   x2="-1915.2001"
   y2="-6494.2842"
   id="line194" />

<line
   x1="-1775.2001"
   y1="-6519.438"
   x2="-1915.2001"
   y2="-6519.438"
   id="line195" />

<line
   x1="-1775.2001"
   y1="-6544.5918"
   x2="-1915.2001"
   y2="-6544.5918"
   id="line196" />

<line
   x1="-1775.2001"
   y1="-6569.7456"
   x2="-1915.2001"
   y2="-6569.7456"
   id="line197" />

<line
   x1="-1775.2001"
   y1="-6594.8994"
   x2="-1915.2001"
   y2="-6594.8994"
   id="line198" />

<line
   x1="-1775.2001"
   y1="-6620.0532"
   x2="-1915.2001"
   y2="-6620.0532"
   id="line199" />

<line
   x1="-1845.2001"
   y1="-6645.207"
   x2="-1845.2001"
   y2="-6343.3618"
   id="line200" />

<line
   x1="-1835.2001"
   y1="-6358.3618"
   x2="-1845.2001"
   y2="-6343.3618"
   id="line201" />

<line
   x1="-1855.2001"
   y1="-6358.3618"
   x2="-1845.2001"
   y2="-6343.3618"
   id="line202" />
</g><g
   transform="matrix(0.49941,0,0,0.49941,1908.8391,4058.5841)"
   stroke="#ffffff"
   stroke-width="0.60071"
   opacity="1"
   fill="none"
   id="g203">
<path
   d="m -2074.9528,-6345.207 h 140 v -300 h -140 z"
   fill="#ffffff"
   stroke="none"
   id="path202" />
</g><g
   transform="matrix(0.49941,0,0,0.49941,1908.8391,4058.5841)"
   stroke="#000000"
   stroke-width="0.60071"
   opacity="1"
   fill="none"
   id="g218">
<path
   d="m -2074.9528,-6345.207 h 140 v -300 h -140 z"
   id="path203" />

<path
   d="m -2070.9528,-6345.207 v -300"
   id="path204" />

<path
   d="m -1938.9528,-6345.207 v -300"
   id="path205" />

<line
   x1="-2074.9529"
   y1="-6620.207"
   x2="-1934.9529"
   y2="-6620.207"
   id="line205" />

<line
   x1="-2074.9529"
   y1="-6595.207"
   x2="-1934.9529"
   y2="-6595.207"
   id="line206" />

<line
   x1="-2074.9529"
   y1="-6570.207"
   x2="-1934.9529"
   y2="-6570.207"
   id="line207" />

<line
   x1="-2074.9529"
   y1="-6545.207"
   x2="-1934.9529"
   y2="-6545.207"
   id="line208" />

<line
   x1="-2074.9529"
   y1="-6520.207"
   x2="-1934.9529"
   y2="-6520.207"
   id="line209" />

<line
   x1="-2074.9529"
   y1="-6495.207"
   x2="-1934.9529"
   y2="-6495.207"
   id="line210" />

<line
   x1="-2074.9529"
   y1="-6470.207"
   x2="-1934.9529"
   y2="-6470.207"
   id="line211" />

<line
   x1="-2074.9529"
   y1="-6445.207"
   x2="-1934.9529"
   y2="-6445.207"
   id="line212" />

<line
   x1="-2074.9529"
   y1="-6420.207"
   x2="-1934.9529"
   y2="-6420.207"
   id="line213" />

<line
   x1="-2074.9529"
   y1="-6395.207"
   x2="-1934.9529"
   y2="-6395.207"
   id="line214" />

<line
   x1="-2074.9529"
   y1="-6370.207"
   x2="-1934.9529"
   y2="-6370.207"
   id="line215" />

<line
   x1="-2004.9529"
   y1="-6345.207"
   x2="-2004.9529"
   y2="-6645.207"
   id="line216" />

<line
   x1="-2014.9529"
   y1="-6630.207"
   x2="-2004.9529"
   y2="-6645.207"
   id="line217" />

<line
   x1="-1994.9529"
   y1="-6630.207"
   x2="-2004.9529"
   y2="-6645.207"
   id="line218" />
</g><g
   transform="matrix(0.49941,0,0,0.49941,1908.8391,4058.5841)"
   stroke="#ffffff"
   stroke-width="0.60071"
   opacity="1"
   fill="none"
   id="g219">
<path
   d="m -1897.3241,-5421.9605 h 140 v -300 h -140 z"
   fill="#ffffff"
   stroke="none"
   id="path218" />
</g><g
   transform="matrix(0.49941,0,0,0.49941,1908.8391,4058.5841)"
   stroke="#000000"
   stroke-width="0.60071"
   opacity="1"
   fill="none"
   id="g234">
<path
   d="m -1897.3241,-5421.9605 h 140 v -300 h -140 z"
   id="path219" />

<path
   d="m -1893.3241,-5421.9605 v -300"
   id="path220" />

<path
   d="m -1761.3241,-5421.9605 v -300"
   id="path221" />

<line
   x1="-1897.3241"
   y1="-5696.9604"
   x2="-1757.3241"
   y2="-5696.9604"
   id="line221" />

<line
   x1="-1897.3241"
   y1="-5671.9604"
   x2="-1757.3241"
   y2="-5671.9604"
   id="line222" />

<line
   x1="-1897.3241"
   y1="-5646.9604"
   x2="-1757.3241"
   y2="-5646.9604"
   id="line223" />

<line
   x1="-1897.3241"
   y1="-5621.9604"
   x2="-1757.3241"
   y2="-5621.9604"
   id="line224" />

<line
   x1="-1897.3241"
   y1="-5596.9604"
   x2="-1757.3241"
   y2="-5596.9604"
   id="line225" />

<line
   x1="-1897.3241"
   y1="-5571.9604"
   x2="-1757.3241"
   y2="-5571.9604"
   id="line226" />

<line
   x1="-1897.3241"
   y1="-5546.9604"
   x2="-1757.3241"
   y2="-5546.9604"
   id="line227" />

<line
   x1="-1897.3241"
   y1="-5521.9604"
   x2="-1757.3241"
   y2="-5521.9604"
   id="line228" />

<line
   x1="-1897.3241"
   y1="-5496.9604"
   x2="-1757.3241"
   y2="-5496.9604"
   id="line229" />

<line
   x1="-1897.3241"
   y1="-5471.9604"
   x2="-1757.3241"
   y2="-5471.9604"
   id="line230" />

<line
   x1="-1897.3241"
   y1="-5446.9604"
   x2="-1757.3241"
   y2="-5446.9604"
   id="line231" />

<line
   x1="-1827.3241"
   y1="-5421.9604"
   x2="-1827.3241"
   y2="-5721.9604"
   id="line232" />

<line
   x1="-1837.3241"
   y1="-5706.9604"
   x2="-1827.3241"
   y2="-5721.9604"
   id="line233" />

<line
   x1="-1817.3241"
   y1="-5706.9604"
   x2="-1827.3241"
   y2="-5721.9604"
   id="line234" />
</g><g
   transform="matrix(0.49941,0,0,0.49941,1908.8391,4058.5841)"
   stroke="#ffffff"
   stroke-width="0.60071"
   opacity="1"
   fill="none"
   id="g235">
<path
   d="m -2243.9889,-5465.7121 v -76.8568 h 30 v 76.8568 h -28.5 v -1.5 h 27 v -73.8568 h -27 v 75.3568 z"
   fill="#ffffff"
   stroke="none"
   id="path234" />
</g><g
   transform="matrix(0.49941,0,0,0.49941,1908.8391,4058.5841)"
   stroke="#ff0001"
   stroke-width="0.60071"
   opacity="1"
   fill="none"
   id="g236">
<path
   d="m -2242.4889,-5467.2121 v -73.8568 h 27 v 73.8568 z"
   fill="#ff0001"
   stroke="none"
   id="path235" />
</g><g
   transform="matrix(0.49941,0,0,0.49941,1908.8391,4058.5841)"
   stroke="#ffffff"
   stroke-width="0.60071"
   opacity="1"
   fill="none"
   id="g237">
<path
   d="m -2239.4889,-5487.052 h 13.671 v 1.3504 l 2.877,1.6581 v -3.0085 h 2.562 l 1.89,2.1709 v -10.1026 l -1.428,-1.2649 v -1.9316 l 1.428,1.47 v -2.4273 l -1.932,-2 h -19.068 z"
   fill="#ffffff"
   stroke="none"
   id="path236" />
</g><g
   transform="matrix(0.49941,0,0,0.49941,1908.8391,4058.5841)"
   stroke="#ff0001"
   stroke-width="0.60071"
   opacity="1"
   fill="none"
   id="g238">
<path
   d="m -2234.7849,-5496.0948 v 6.171 l 3.423,2.0341 0.714,-1.1623 -2.793,-1.6753 v -2.6495 l 3.78,2 4.41,0.8205 v 4.4615 l 1.701,1.0257 v -6.9231 l -4.788,-0.9744 7.875,-3.8461 v -1.9316 l -8.673,4.188 -3.213,-1.8291 2.163,-2.0513 v -2.7008 h -1.386 v 2.1197 z"
   fill="#ff0001"
   stroke="none"
   id="path237" />

<circle
   cx="-2236.738"
   cy="-5496.3169"
   fill="#ff0001"
   id="ellipse237"
   r="1.638" />
</g><g
   transform="matrix(0.49941,0,0,0.49941,1908.8391,4058.5841)"
   stroke="#ffffff"
   stroke-width="0.60071"
   opacity="1"
   fill="none"
   id="g239">
<path
   d="m -2220.589,-5512.4065 10e-5,-11.831 h -11.8311 l -4.9689,4.969 8.4397,0.079 -8.2268,8.2268 3.3127,3.3127 8.2268,-8.2269 0.079,8.4398 z"
   fill="#ffffff"
   stroke="none"
   id="path238" />
</g><g
   transform="matrix(0,-0.49941,0.49941,0,360.30332,1095.5093)"
   stroke="#000000"
   stroke-width="0.60071"
   opacity="1"
   fill="none"
   id="g240">
<text
   y="-30"
   font-size="150px"
   stroke="none"
   fill="#8800cc"
   text-anchor="middle"
   id="text239">Gyan Zone</text>
</g><g
   transform="matrix(-0.49941,0,0,-0.49941,210.12676,1383.7463)"
   stroke="#000000"
   stroke-width="0.60071"
   opacity="1"
   fill="none"
   id="g242">
<text
   y="-5"
   font-size="29px"
   stroke="none"
   fill="#8800cc"
   text-anchor="middle"
   id="text240">(Atal Innovation studio and accelerator)</text>

<text
   y="-34"
   font-size="29px"
   stroke="none"
   fill="#8800cc"
   text-anchor="middle"
   id="text241">Office incharge </text>

<text
   y="-63"
   font-size="29px"
   stroke="none"
   fill="#8800cc"
   text-anchor="middle"
   id="text242">Hariom Soni (Programmer) </text>
</g><g
   transform="matrix(-0.49941,0,0,-0.49941,236.69934,1506.4936)"
   stroke="#000000"
   stroke-width="0.60071"
   opacity="1"
   fill="none"
   id="g245">
<text
   y="-8"
   font-size="41px"
   stroke="none"
   fill="#8800cc"
   text-anchor="middle"
   id="text243">Saloni</text>

<text
   y="-49"
   font-size="41px"
   stroke="none"
   fill="#8800cc"
   text-anchor="middle"
   id="text244">Shubham Gupta </text>

<text
   y="-90"
   font-size="41px"
   stroke="none"
   fill="#8800cc"
   text-anchor="middle"
   id="text245">Mentor </text>
</g><g
   transform="matrix(-0.49941,0,0,-0.49941,318.60258,544.10209)"
   stroke="#000000"
   stroke-width="0.60071"
   opacity="1"
   fill="none"
   id="g247">
<text
   y="-11"
   font-size="56px"
   stroke="none"
   fill="#8800cc"
   text-anchor="middle"
   id="text246">and accelerator</text>

<text
   y="-67"
   font-size="56px"
   stroke="none"
   fill="#8800cc"
   text-anchor="middle"
   id="text247">Atal Innovation studio </text>
</g><g
   transform="matrix(0.49941,0,0,0.49941,395.05231,1852.3225)"
   stroke="#000000"
   stroke-width="0.60071"
   opacity="1"
   fill="none"
   id="g248">
<text
   y="-30"
   font-size="150px"
   stroke="none"
   fill="#8800cc"
   text-anchor="middle"
   id="text248">Tinkering Lab</text>
</g><g
   transform="matrix(0.49941,0,0,0.49941,861.37995,172.66599)"
   stroke="#000000"
   stroke-width="0.60071"
   opacity="1"
   fill="none"
   id="g249">
<text
   y="-12"
   font-size="63px"
   stroke="none"
   fill="#8800cc"
   text-anchor="middle"
   id="text249">bth Chair 4</text>
</g><g
   transform="matrix(0.49941,0,0,0.49941,866.38944,469.91088)"
   stroke="#000000"
   stroke-width="0.60071"
   opacity="1"
   fill="none"
   id="g251">
<text
   y="-12"
   font-size="63px"
   stroke="none"
   fill="#8800cc"
   text-anchor="middle"
   id="text250">Facility</text>

<text
   y="-75"
   font-size="63px"
   stroke="none"
   fill="#8800cc"
   text-anchor="middle"
   id="text251">Male </text>
</g><g
   transform="matrix(0.49941,0,0,0.49941,896.18341,631.8929)"
   stroke="#000000"
   stroke-width="0.60071"
   opacity="1"
   fill="none"
   id="g253">
<text
   y="-6"
   font-size="33px"
   stroke="none"
   fill="#8800cc"
   text-anchor="middle"
   id="text252">facility</text>

<text
   y="-39"
   font-size="33px"
   stroke="none"
   fill="#8800cc"
   text-anchor="middle"
   id="text253">Female </text>
</g><g
   transform="matrix(0.49941,0,0,0.49941,896.18341,710.69525)"
   stroke="#000000"
   stroke-width="0.60071"
   opacity="1"
   fill="none"
   id="g254">
<text
   y="-6"
   font-size="33px"
   stroke="none"
   fill="#8800cc"
   text-anchor="middle"
   id="text254">Way to stairs</text>
</g><g
   transform="matrix(0,0.49941,-0.49941,0,697.98279,1226.0941)"
   stroke="#000000"
   stroke-width="0.60071"
   opacity="1"
   fill="none"
   id="g255">
<text
   y="-2"
   font-size="13px"
   stroke="none"
   fill="#8800cc"
   text-anchor="middle"
   id="text255">Fire hose door</text>
</g><g
   transform="matrix(0,0.49941,-0.49941,0,771.23539,1307.6007)"
   stroke="#000000"
   stroke-width="0.60071"
   opacity="1"
   fill="none"
   id="g256">
<text
   y="-4"
   font-size="21px"
   stroke="none"
   fill="#8800cc"
   text-anchor="middle"
   id="text256">Fire Exit</text>
</g><g
   transform="matrix(0,0.49941,-0.49941,0,723.35213,1411.1063)"
   stroke="#000000"
   stroke-width="0.60071"
   opacity="1"
   fill="none"
   id="g258">
<text
   y="-4"
   font-size="21px"
   stroke="none"
   fill="#8800cc"
   text-anchor="middle"
   id="text257">Cooler</text>

<text
   y="-25"
   font-size="21px"
   stroke="none"
   fill="#8800cc"
   text-anchor="middle"
   id="text258">Water </text>
</g><g
   transform="matrix(0.49941,0,0,0.49941,948.73274,1404.0214)"
   stroke="#000000"
   stroke-width="0.60071"
   opacity="1"
   fill="none"
   id="g259">
<text
   y="-3"
   font-size="19px"
   stroke="none"
   fill="#8800cc"
   text-anchor="middle"
   id="text259">Accessible washroom</text>
</g><g
   transform="matrix(0.49941,0,0,0.49941,786.33815,965.56112)"
   stroke="#000000"
   stroke-width="0.60071"
   opacity="1"
   fill="none"
   id="g260">
<text
   y="-6"
   font-size="33px"
   stroke="none"
   fill="#8800cc"
   text-anchor="middle"
   id="text260">Lift 1</text>
</g><g
   transform="matrix(0.49941,0,0,0.49941,786.33815,1078.3708)"
   stroke="#000000"
   stroke-width="0.60071"
   opacity="1"
   fill="none"
   id="g261">
<text
   y="-6"
   font-size="33px"
   stroke="none"
   fill="#8800cc"
   text-anchor="middle"
   id="text261">Lift 2</text>
</g><g
   transform="matrix(0.49941,0,0,0.49941,1908.8391,4058.5841)"
   stroke="#006600"
   stroke-width="1.80213"
   opacity="1"
   fill="none"
   id="g262">
<line
   x1="-3746.5256"
   y1="-8116.9468"
   x2="-1727.9448"
   y2="-8116.9468"
   id="line261" />
</g><g
   transform="matrix(0.49941,0,0,0.49941,1908.8391,4058.5841)"
   stroke="#ffffff"
   stroke-width="0.60071"
   opacity="1"
   fill="none"
   id="g263">
<line
   x1="-3746.5256"
   y1="-8116.9468"
   x2="-1727.9448"
   y2="-8116.9468"
   id="line262" />
</g><g
   transform="matrix(0.49941,0,0,0.49941,1908.8391,4058.5841)"
   stroke="#006600"
   stroke-width="1.80213"
   opacity="1"
   fill="none"
   id="g264">
<line
   x1="-3744.0256"
   y1="-8106.9468"
   x2="-3744.0256"
   y2="-8119.4468"
   id="line263" />
</g><g
   transform="matrix(0.49941,0,0,0.49941,1908.8391,4058.5841)"
   stroke="#ffffff"
   stroke-width="0.60071"
   opacity="1"
   fill="none"
   id="g265">
<line
   x1="-3744.0256"
   y1="-8106.9468"
   x2="-3744.0256"
   y2="-8119.4468"
   id="line264" />
</g><g
   transform="matrix(0.49941,0,0,0.49941,1908.8391,4058.5841)"
   stroke="#006600"
   stroke-width="1.80213"
   opacity="1"
   fill="none"
   id="g266">
<line
   x1="-3745.2756"
   y1="-8118.1968"
   x2="-3742.7756"
   y2="-8115.6968"
   id="line265" />
</g><g
   transform="matrix(0.49941,0,0,0.49941,1908.8391,4058.5841)"
   stroke="#ffffff"
   stroke-width="0.60071"
   opacity="1"
   fill="none"
   id="g267">
<line
   x1="-3745.2756"
   y1="-8118.1968"
   x2="-3742.7756"
   y2="-8115.6968"
   id="line266" />
</g><g
   transform="matrix(0.49941,0,0,0.49941,1908.8391,4058.5841)"
   stroke="#006600"
   stroke-width="1.80213"
   opacity="1"
   fill="none"
   id="g268">
<line
   x1="-3728.7856"
   y1="-8106.9468"
   x2="-3728.7856"
   y2="-8119.4468"
   id="line267" />
</g><g
   transform="matrix(0.49941,0,0,0.49941,1908.8391,4058.5841)"
   stroke="#ffffff"
   stroke-width="0.60071"
   opacity="1"
   fill="none"
   id="g269">
<line
   x1="-3728.7856"
   y1="-8106.9468"
   x2="-3728.7856"
   y2="-8119.4468"
   id="line268" />
</g><g
   transform="matrix(0.49941,0,0,0.49941,1908.8391,4058.5841)"
   stroke="#006600"
   stroke-width="1.80213"
   opacity="1"
   fill="none"
   id="g270">
<line
   x1="-3730.0356"
   y1="-8118.1968"
   x2="-3727.5356"
   y2="-8115.6968"
   id="line269" />
</g><g
   transform="matrix(0.49941,0,0,0.49941,1908.8391,4058.5841)"
   stroke="#ffffff"
   stroke-width="0.60071"
   opacity="1"
   fill="none"
   id="g271">
<line
   x1="-3730.0356"
   y1="-8118.1968"
   x2="-3727.5356"
   y2="-8115.6968"
   id="line270" />
</g><g
   transform="matrix(0.49941,0,0,0.49941,42.840758,4.27536)"
   stroke="#ffffff"
   stroke-width="0.60071"
   opacity="1"
   fill="none"
   id="g272">
<text
   y="-1"
   font-size="5px"
   stroke="#000000"
   stroke-width="0.30035"
   fill="#ffffff"
   text-anchor="middle"
   id="text271">0.2</text>
</g><g
   transform="matrix(0.49941,0,0,0.49941,1908.8391,4058.5841)"
   stroke="#006600"
   stroke-width="1.80213"
   opacity="1"
   fill="none"
   id="g273">
<line
   x1="-1745.6848"
   y1="-8106.9468"
   x2="-1745.6848"
   y2="-8119.4468"
   id="line272" />
</g><g
   transform="matrix(0.49941,0,0,0.49941,1908.8391,4058.5841)"
   stroke="#ffffff"
   stroke-width="0.60071"
   opacity="1"
   fill="none"
   id="g274">
<line
   x1="-1745.6848"
   y1="-8106.9468"
   x2="-1745.6848"
   y2="-8119.4468"
   id="line273" />
</g><g
   transform="matrix(0.49941,0,0,0.49941,1908.8391,4058.5841)"
   stroke="#006600"
   stroke-width="1.80213"
   opacity="1"
   fill="none"
   id="g275">
<line
   x1="-1746.9348"
   y1="-8118.1968"
   x2="-1744.4348"
   y2="-8115.6968"
   id="line274" />
</g><g
   transform="matrix(0.49941,0,0,0.49941,1908.8391,4058.5841)"
   stroke="#ffffff"
   stroke-width="0.60071"
   opacity="1"
   fill="none"
   id="g276">
<line
   x1="-1746.9348"
   y1="-8118.1968"
   x2="-1744.4348"
   y2="-8115.6968"
   id="line275" />
</g><g
   transform="matrix(0.49941,0,0,0.49941,541.83645,4.27536)"
   stroke="#ffffff"
   stroke-width="0.60071"
   opacity="1"
   fill="none"
   id="g277">
<text
   y="-1"
   font-size="5px"
   stroke="#000000"
   stroke-width="0.30035"
   fill="#ffffff"
   text-anchor="middle"
   id="text276">19.8</text>
</g><g
   transform="matrix(0.49941,0,0,0.49941,1908.8391,4058.5841)"
   stroke="#006600"
   stroke-width="1.80213"
   opacity="1"
   fill="none"
   id="g278">
<line
   x1="-1730.4448"
   y1="-8106.9468"
   x2="-1730.4448"
   y2="-8119.4468"
   id="line277" />
</g><g
   transform="matrix(0.49941,0,0,0.49941,1908.8391,4058.5841)"
   stroke="#ffffff"
   stroke-width="0.60071"
   opacity="1"
   fill="none"
   id="g279">
<line
   x1="-1730.4448"
   y1="-8106.9468"
   x2="-1730.4448"
   y2="-8119.4468"
   id="line278" />
</g><g
   transform="matrix(0.49941,0,0,0.49941,1908.8391,4058.5841)"
   stroke="#006600"
   stroke-width="1.80213"
   opacity="1"
   fill="none"
   id="g280">
<line
   x1="-1731.6948"
   y1="-8118.1968"
   x2="-1729.1948"
   y2="-8115.6968"
   id="line279" />
</g><g
   transform="matrix(0.49941,0,0,0.49941,1908.8391,4058.5841)"
   stroke="#ffffff"
   stroke-width="0.60071"
   opacity="1"
   fill="none"
   id="g281">
<line
   x1="-1731.6948"
   y1="-8118.1968"
   x2="-1729.1948"
   y2="-8115.6968"
   id="line280" />
</g><g
   transform="matrix(0.49941,0,0,0.49941,1040.8321,4.27536)"
   stroke="#ffffff"
   stroke-width="0.60071"
   opacity="1"
   fill="none"
   id="g282">
<text
   y="-1"
   font-size="5px"
   stroke="#000000"
   stroke-width="0.30035"
   fill="#ffffff"
   text-anchor="middle"
   id="text281">0.2</text>
</g><g
   transform="matrix(0.49941,0,0,0.49941,1908.8391,4058.5841)"
   stroke="#006600"
   stroke-width="1.80213"
   opacity="1"
   fill="none"
   id="g283">
<line
   x1="-3746.5256"
   y1="-4061.7634"
   x2="-1727.9448"
   y2="-4061.7634"
   id="line282" />
</g><g
   transform="matrix(0.49941,0,0,0.49941,1908.8391,4058.5841)"
   stroke="#ffffff"
   stroke-width="0.60071"
   opacity="1"
   fill="none"
   id="g284">
<line
   x1="-3746.5256"
   y1="-4061.7634"
   x2="-1727.9448"
   y2="-4061.7634"
   id="line283" />
</g><g
   transform="matrix(0.49941,0,0,0.49941,1908.8391,4058.5841)"
   stroke="#006600"
   stroke-width="1.80213"
   opacity="1"
   fill="none"
   id="g285">
<line
   x1="-3744.0256"
   y1="-4071.7634"
   x2="-3744.0256"
   y2="-4059.2634"
   id="line284" />
</g><g
   transform="matrix(0.49941,0,0,0.49941,1908.8391,4058.5841)"
   stroke="#ffffff"
   stroke-width="0.60071"
   opacity="1"
   fill="none"
   id="g286">
<line
   x1="-3744.0256"
   y1="-4071.7634"
   x2="-3744.0256"
   y2="-4059.2634"
   id="line285" />
</g><g
   transform="matrix(0.49941,0,0,0.49941,1908.8391,4058.5841)"
   stroke="#006600"
   stroke-width="1.80213"
   opacity="1"
   fill="none"
   id="g287">
<line
   x1="-3745.2756"
   y1="-4063.0134"
   x2="-3742.7756"
   y2="-4060.5134"
   id="line286" />
</g><g
   transform="matrix(0.49941,0,0,0.49941,1908.8391,4058.5841)"
   stroke="#ffffff"
   stroke-width="0.60071"
   opacity="1"
   fill="none"
   id="g288">
<line
   x1="-3745.2756"
   y1="-4063.0134"
   x2="-3742.7756"
   y2="-4060.5134"
   id="line287" />
</g><g
   transform="matrix(0.49941,0,0,0.49941,1908.8391,4058.5841)"
   stroke="#006600"
   stroke-width="1.80213"
   opacity="1"
   fill="none"
   id="g289">
<line
   x1="-3728.7856"
   y1="-4071.7634"
   x2="-3728.7856"
   y2="-4059.2634"
   id="line288" />
</g><g
   transform="matrix(0.49941,0,0,0.49941,1908.8391,4058.5841)"
   stroke="#ffffff"
   stroke-width="0.60071"
   opacity="1"
   fill="none"
   id="g290">
<line
   x1="-3728.7856"
   y1="-4071.7634"
   x2="-3728.7856"
   y2="-4059.2634"
   id="line289" />
</g><g
   transform="matrix(0.49941,0,0,0.49941,1908.8391,4058.5841)"
   stroke="#006600"
   stroke-width="1.80213"
   opacity="1"
   fill="none"
   id="g291">
<line
   x1="-3730.0356"
   y1="-4063.0134"
   x2="-3727.5356"
   y2="-4060.5134"
   id="line290" />
</g><g
   transform="matrix(0.49941,0,0,0.49941,1908.8391,4058.5841)"
   stroke="#ffffff"
   stroke-width="0.60071"
   opacity="1"
   fill="none"
   id="g292">
<line
   x1="-3730.0356"
   y1="-4063.0134"
   x2="-3727.5356"
   y2="-4060.5134"
   id="line291" />
</g><g
   transform="matrix(0.49941,0,0,0.49941,42.840758,2029.4746)"
   stroke="#ffffff"
   stroke-width="0.60071"
   opacity="1"
   fill="none"
   id="g293">
<text
   y="-1"
   font-size="5px"
   stroke="#000000"
   stroke-width="0.30035"
   fill="#ffffff"
   text-anchor="middle"
   id="text292">0.2</text>
</g><g
   transform="matrix(0.49941,0,0,0.49941,1908.8391,4058.5841)"
   stroke="#006600"
   stroke-width="1.80213"
   opacity="1"
   fill="none"
   id="g294">
<line
   x1="-1745.6848"
   y1="-4071.7634"
   x2="-1745.6848"
   y2="-4059.2634"
   id="line293" />
</g><g
   transform="matrix(0.49941,0,0,0.49941,1908.8391,4058.5841)"
   stroke="#ffffff"
   stroke-width="0.60071"
   opacity="1"
   fill="none"
   id="g295">
<line
   x1="-1745.6848"
   y1="-4071.7634"
   x2="-1745.6848"
   y2="-4059.2634"
   id="line294" />
</g><g
   transform="matrix(0.49941,0,0,0.49941,1908.8391,4058.5841)"
   stroke="#006600"
   stroke-width="1.80213"
   opacity="1"
   fill="none"
   id="g296">
<line
   x1="-1746.9348"
   y1="-4063.0134"
   x2="-1744.4348"
   y2="-4060.5134"
   id="line295" />
</g><g
   transform="matrix(0.49941,0,0,0.49941,1908.8391,4058.5841)"
   stroke="#ffffff"
   stroke-width="0.60071"
   opacity="1"
   fill="none"
   id="g297">
<line
   x1="-1746.9348"
   y1="-4063.0134"
   x2="-1744.4348"
   y2="-4060.5134"
   id="line296" />
</g><g
   transform="matrix(0.49941,0,0,0.49941,541.83645,2029.4746)"
   stroke="#ffffff"
   stroke-width="0.60071"
   opacity="1"
   fill="none"
   id="g298">
<text
   y="-1"
   font-size="5px"
   stroke="#000000"
   stroke-width="0.30035"
   fill="#ffffff"
   text-anchor="middle"
   id="text297">19.8</text>
</g><g
   transform="matrix(0.49941,0,0,0.49941,1908.8391,4058.5841)"
   stroke="#006600"
   stroke-width="1.80213"
   opacity="1"
   fill="none"
   id="g299">
<line
   x1="-1730.4448"
   y1="-4071.7634"
   x2="-1730.4448"
   y2="-4059.2634"
   id="line298" />
</g><g
   transform="matrix(0.49941,0,0,0.49941,1908.8391,4058.5841)"
   stroke="#ffffff"
   stroke-width="0.60071"
   opacity="1"
   fill="none"
   id="g300">
<line
   x1="-1730.4448"
   y1="-4071.7634"
   x2="-1730.4448"
   y2="-4059.2634"
   id="line299" />
</g><g
   transform="matrix(0.49941,0,0,0.49941,1908.8391,4058.5841)"
   stroke="#006600"
   stroke-width="1.80213"
   opacity="1"
   fill="none"
   id="g301">
<line
   x1="-1731.6948"
   y1="-4063.0134"
   x2="-1729.1948"
   y2="-4060.5134"
   id="line300" />
</g><g
   transform="matrix(0.49941,0,0,0.49941,1908.8391,4058.5841)"
   stroke="#ffffff"
   stroke-width="0.60071"
   opacity="1"
   fill="none"
   id="g302">
<line
   x1="-1731.6948"
   y1="-4063.0134"
   x2="-1729.1948"
   y2="-4060.5134"
   id="line301" />
</g><g
   transform="matrix(0.49941,0,0,0.49941,1040.8321,2029.4746)"
   stroke="#ffffff"
   stroke-width="0.60071"
   opacity="1"
   fill="none"
   id="g303">
<text
   y="-1"
   font-size="5px"
   stroke="#000000"
   stroke-width="0.30035"
   fill="#ffffff"
   text-anchor="middle"
   id="text302">0.2</text>
</g><g
   transform="matrix(0.49941,0,0,0.49941,1908.8391,4058.5841)"
   stroke="#006600"
   stroke-width="1.80213"
   opacity="1"
   fill="none"
   id="g304">
<line
   x1="-3758.5256"
   y1="-8104.9468"
   x2="-3758.5256"
   y2="-4073.7634"
   id="line303" />
</g><g
   transform="matrix(0.49941,0,0,0.49941,1908.8391,4058.5841)"
   stroke="#ffffff"
   stroke-width="0.60071"
   opacity="1"
   fill="none"
   id="g305">
<line
   x1="-3758.5256"
   y1="-8104.9468"
   x2="-3758.5256"
   y2="-4073.7634"
   id="line304" />
</g><g
   transform="matrix(0.49941,0,0,0.49941,1908.8391,4058.5841)"
   stroke="#006600"
   stroke-width="1.80213"
   opacity="1"
   fill="none"
   id="g306">
<line
   x1="-3748.5256"
   y1="-8102.4468"
   x2="-3761.0256"
   y2="-8102.4468"
   id="line305" />
</g><g
   transform="matrix(0.49941,0,0,0.49941,1908.8391,4058.5841)"
   stroke="#ffffff"
   stroke-width="0.60071"
   opacity="1"
   fill="none"
   id="g307">
<line
   x1="-3748.5256"
   y1="-8102.4468"
   x2="-3761.0256"
   y2="-8102.4468"
   id="line306" />
</g><g
   transform="matrix(0.49941,0,0,0.49941,1908.8391,4058.5841)"
   stroke="#006600"
   stroke-width="1.80213"
   opacity="1"
   fill="none"
   id="g308">
<line
   x1="-3757.2756"
   y1="-8103.6968"
   x2="-3759.7756"
   y2="-8101.1968"
   id="line307" />
</g><g
   transform="matrix(0.49941,0,0,0.49941,1908.8391,4058.5841)"
   stroke="#ffffff"
   stroke-width="0.60071"
   opacity="1"
   fill="none"
   id="g309">
<line
   x1="-3757.2756"
   y1="-8103.6968"
   x2="-3759.7756"
   y2="-8101.1968"
   id="line308" />
</g><g
   transform="matrix(0.49941,0,0,0.49941,1908.8391,4058.5841)"
   stroke="#006600"
   stroke-width="1.80213"
   opacity="1"
   fill="none"
   id="g310">
<line
   x1="-3748.5256"
   y1="-8087.207"
   x2="-3761.0256"
   y2="-8087.207"
   id="line309" />
</g><g
   transform="matrix(0.49941,0,0,0.49941,1908.8391,4058.5841)"
   stroke="#ffffff"
   stroke-width="0.60071"
   opacity="1"
   fill="none"
   id="g311">
<line
   x1="-3748.5256"
   y1="-8087.207"
   x2="-3761.0256"
   y2="-8087.207"
   id="line310" />
</g><g
   transform="matrix(0.49941,0,0,0.49941,1908.8391,4058.5841)"
   stroke="#006600"
   stroke-width="1.80213"
   opacity="1"
   fill="none"
   id="g312">
<line
   x1="-3757.2756"
   y1="-8088.457"
   x2="-3759.7756"
   y2="-8085.957"
   id="line311" />
</g><g
   transform="matrix(0.49941,0,0,0.49941,1908.8391,4058.5841)"
   stroke="#ffffff"
   stroke-width="0.60071"
   opacity="1"
   fill="none"
   id="g313">
<line
   x1="-3757.2756"
   y1="-8088.457"
   x2="-3759.7756"
   y2="-8085.957"
   id="line312" />
</g><g
   transform="matrix(0,-0.49941,0.49941,0,31.169546,15.946582)"
   stroke="#ffffff"
   stroke-width="0.60071"
   opacity="1"
   fill="none"
   id="g314">
<text
   y="-1"
   font-size="5px"
   stroke="#000000"
   stroke-width="0.30035"
   fill="#ffffff"
   text-anchor="middle"
   id="text313">0.2</text>
</g><g
   transform="matrix(0.49941,0,0,0.49941,1908.8391,4058.5841)"
   stroke="#006600"
   stroke-width="1.80213"
   opacity="1"
   fill="none"
   id="g315">
<line
   x1="-3748.5256"
   y1="-4091.5034"
   x2="-3761.0256"
   y2="-4091.5034"
   id="line314" />
</g><g
   transform="matrix(0.49941,0,0,0.49941,1908.8391,4058.5841)"
   stroke="#ffffff"
   stroke-width="0.60071"
   opacity="1"
   fill="none"
   id="g316">
<line
   x1="-3748.5256"
   y1="-4091.5034"
   x2="-3761.0256"
   y2="-4091.5034"
   id="line315" />
</g><g
   transform="matrix(0.49941,0,0,0.49941,1908.8391,4058.5841)"
   stroke="#006600"
   stroke-width="1.80213"
   opacity="1"
   fill="none"
   id="g317">
<line
   x1="-3757.2756"
   y1="-4092.7534"
   x2="-3759.7756"
   y2="-4090.2534"
   id="line316" />
</g><g
   transform="matrix(0.49941,0,0,0.49941,1908.8391,4058.5841)"
   stroke="#ffffff"
   stroke-width="0.60071"
   opacity="1"
   fill="none"
   id="g318">
<line
   x1="-3757.2756"
   y1="-4092.7534"
   x2="-3759.7756"
   y2="-4090.2534"
   id="line317" />
</g><g
   transform="matrix(0,-0.49941,0.49941,0,31.169546,1017.4993)"
   stroke="#ffffff"
   stroke-width="0.60071"
   opacity="1"
   fill="none"
   id="g319">
<text
   y="-1"
   font-size="5px"
   stroke="#000000"
   stroke-width="0.30035"
   fill="#ffffff"
   text-anchor="middle"
   id="text318">40</text>
</g><g
   transform="matrix(0.49941,0,0,0.49941,1908.8391,4058.5841)"
   stroke="#006600"
   stroke-width="1.80213"
   opacity="1"
   fill="none"
   id="g320">
<line
   x1="-3748.5256"
   y1="-4076.2634"
   x2="-3761.0256"
   y2="-4076.2634"
   id="line319" />
</g><g
   transform="matrix(0.49941,0,0,0.49941,1908.8391,4058.5841)"
   stroke="#ffffff"
   stroke-width="0.60071"
   opacity="1"
   fill="none"
   id="g321">
<line
   x1="-3748.5256"
   y1="-4076.2634"
   x2="-3761.0256"
   y2="-4076.2634"
   id="line320" />
</g><g
   transform="matrix(0.49941,0,0,0.49941,1908.8391,4058.5841)"
   stroke="#006600"
   stroke-width="1.80213"
   opacity="1"
   fill="none"
   id="g322">
<line
   x1="-3757.2756"
   y1="-4077.5134"
   x2="-3759.7756"
   y2="-4075.0134"
   id="line321" />
</g><g
   transform="matrix(0.49941,0,0,0.49941,1908.8391,4058.5841)"
   stroke="#ffffff"
   stroke-width="0.60071"
   opacity="1"
   fill="none"
   id="g323">
<line
   x1="-3757.2756"
   y1="-4077.5134"
   x2="-3759.7756"
   y2="-4075.0134"
   id="line322" />
</g><g
   transform="matrix(0,-0.49941,0.49941,0,31.169546,2019.0519)"
   stroke="#ffffff"
   stroke-width="0.60071"
   opacity="1"
   fill="none"
   id="g324">
<text
   y="-1"
   font-size="5px"
   stroke="#000000"
   stroke-width="0.30035"
   fill="#ffffff"
   text-anchor="middle"
   id="text323">0.2</text>
</g><g
   transform="matrix(0.49941,0,0,0.49941,1908.8391,4058.5841)"
   stroke="#006600"
   stroke-width="1.80213"
   opacity="1"
   fill="none"
   id="g325">
<line
   x1="-1715.9448"
   y1="-8104.9468"
   x2="-1715.9448"
   y2="-4073.7634"
   id="line324" />
</g><g
   transform="matrix(0.49941,0,0,0.49941,1908.8391,4058.5841)"
   stroke="#ffffff"
   stroke-width="0.60071"
   opacity="1"
   fill="none"
   id="g326">
<line
   x1="-1715.9448"
   y1="-8104.9468"
   x2="-1715.9448"
   y2="-4073.7634"
   id="line325" />
</g><g
   transform="matrix(0.49941,0,0,0.49941,1908.8391,4058.5841)"
   stroke="#006600"
   stroke-width="1.80213"
   opacity="1"
   fill="none"
   id="g327">
<line
   x1="-1725.9448"
   y1="-8102.4468"
   x2="-1713.4448"
   y2="-8102.4468"
   id="line326" />
</g><g
   transform="matrix(0.49941,0,0,0.49941,1908.8391,4058.5841)"
   stroke="#ffffff"
   stroke-width="0.60071"
   opacity="1"
   fill="none"
   id="g328">
<line
   x1="-1725.9448"
   y1="-8102.4468"
   x2="-1713.4448"
   y2="-8102.4468"
   id="line327" />
</g><g
   transform="matrix(0.49941,0,0,0.49941,1908.8391,4058.5841)"
   stroke="#006600"
   stroke-width="1.80213"
   opacity="1"
   fill="none"
   id="g329">
<line
   x1="-1714.6948"
   y1="-8103.6968"
   x2="-1717.1948"
   y2="-8101.1968"
   id="line328" />
</g><g
   transform="matrix(0.49941,0,0,0.49941,1908.8391,4058.5841)"
   stroke="#ffffff"
   stroke-width="0.60071"
   opacity="1"
   fill="none"
   id="g330">
<line
   x1="-1714.6948"
   y1="-8103.6968"
   x2="-1717.1948"
   y2="-8101.1968"
   id="line329" />
</g><g
   transform="matrix(0.49941,0,0,0.49941,1908.8391,4058.5841)"
   stroke="#006600"
   stroke-width="1.80213"
   opacity="1"
   fill="none"
   id="g331">
<line
   x1="-1725.9448"
   y1="-8087.207"
   x2="-1713.4448"
   y2="-8087.207"
   id="line330" />
</g><g
   transform="matrix(0.49941,0,0,0.49941,1908.8391,4058.5841)"
   stroke="#ffffff"
   stroke-width="0.60071"
   opacity="1"
   fill="none"
   id="g332">
<line
   x1="-1725.9448"
   y1="-8087.207"
   x2="-1713.4448"
   y2="-8087.207"
   id="line331" />
</g><g
   transform="matrix(0.49941,0,0,0.49941,1908.8391,4058.5841)"
   stroke="#006600"
   stroke-width="1.80213"
   opacity="1"
   fill="none"
   id="g333">
<line
   x1="-1714.6948"
   y1="-8088.457"
   x2="-1717.1948"
   y2="-8085.957"
   id="line332" />
</g><g
   transform="matrix(0.49941,0,0,0.49941,1908.8391,4058.5841)"
   stroke="#ffffff"
   stroke-width="0.60071"
   opacity="1"
   fill="none"
   id="g334">
<line
   x1="-1714.6948"
   y1="-8088.457"
   x2="-1717.1948"
   y2="-8085.957"
   id="line333" />
</g><g
   transform="matrix(0,-0.49941,0.49941,0,1051.2548,15.946582)"
   stroke="#ffffff"
   stroke-width="0.60071"
   opacity="1"
   fill="none"
   id="g335">
<text
   y="-1"
   font-size="5px"
   stroke="#000000"
   stroke-width="0.30035"
   fill="#ffffff"
   text-anchor="middle"
   id="text334">0.2</text>
</g><g
   transform="matrix(0.49941,0,0,0.49941,1908.8391,4058.5841)"
   stroke="#006600"
   stroke-width="1.80213"
   opacity="1"
   fill="none"
   id="g336">
<line
   x1="-1725.9448"
   y1="-4091.5034"
   x2="-1713.4448"
   y2="-4091.5034"
   id="line335" />
</g><g
   transform="matrix(0.49941,0,0,0.49941,1908.8391,4058.5841)"
   stroke="#ffffff"
   stroke-width="0.60071"
   opacity="1"
   fill="none"
   id="g337">
<line
   x1="-1725.9448"
   y1="-4091.5034"
   x2="-1713.4448"
   y2="-4091.5034"
   id="line336" />
</g><g
   transform="matrix(0.49941,0,0,0.49941,1908.8391,4058.5841)"
   stroke="#006600"
   stroke-width="1.80213"
   opacity="1"
   fill="none"
   id="g338">
<line
   x1="-1714.6948"
   y1="-4092.7534"
   x2="-1717.1948"
   y2="-4090.2534"
   id="line337" />
</g><g
   transform="matrix(0.49941,0,0,0.49941,1908.8391,4058.5841)"
   stroke="#ffffff"
   stroke-width="0.60071"
   opacity="1"
   fill="none"
   id="g339">
<line
   x1="-1714.6948"
   y1="-4092.7534"
   x2="-1717.1948"
   y2="-4090.2534"
   id="line338" />
</g><g
   transform="matrix(0,-0.49941,0.49941,0,1051.2548,1017.4993)"
   stroke="#ffffff"
   stroke-width="0.60071"
   opacity="1"
   fill="none"
   id="g340">
<text
   y="-1"
   font-size="5px"
   stroke="#000000"
   stroke-width="0.30035"
   fill="#ffffff"
   text-anchor="middle"
   id="text339">40</text>
</g><g
   transform="matrix(0.49941,0,0,0.49941,1908.8391,4058.5841)"
   stroke="#006600"
   stroke-width="1.80213"
   opacity="1"
   fill="none"
   id="g341">
<line
   x1="-1725.9448"
   y1="-4076.2634"
   x2="-1713.4448"
   y2="-4076.2634"
   id="line340" />
</g><g
   transform="matrix(0.49941,0,0,0.49941,1908.8391,4058.5841)"
   stroke="#ffffff"
   stroke-width="0.60071"
   opacity="1"
   fill="none"
   id="g342">
<line
   x1="-1725.9448"
   y1="-4076.2634"
   x2="-1713.4448"
   y2="-4076.2634"
   id="line341" />
</g><g
   transform="matrix(0.49941,0,0,0.49941,1908.8391,4058.5841)"
   stroke="#006600"
   stroke-width="1.80213"
   opacity="1"
   fill="none"
   id="g343">
<line
   x1="-1714.6948"
   y1="-4077.5134"
   x2="-1717.1948"
   y2="-4075.0134"
   id="line342" />
</g><g
   transform="matrix(0.49941,0,0,0.49941,1908.8391,4058.5841)"
   stroke="#ffffff"
   stroke-width="0.60071"
   opacity="1"
   fill="none"
   id="g344">
<line
   x1="-1714.6948"
   y1="-4077.5134"
   x2="-1717.1948"
   y2="-4075.0134"
   id="line343" />
</g><g
   transform="matrix(0,-0.49941,0.49941,0,1051.2548,2019.0519)"
   stroke="#ffffff"
   stroke-width="0.60071"
   opacity="1"
   fill="none"
   id="g345">
<text
   y="-1"
   font-size="5px"
   stroke="#000000"
   stroke-width="0.30035"
   fill="#ffffff"
   text-anchor="middle"
   id="text344">0.2</text></g></g>
</svg>
