<?xml version="1.0" encoding="UTF-8" standalone="no"?>
<svg
   xml:space="preserve"
   width="1000pt"
   height="2000pt"
   viewBox="0 0 1000 2000"
   version="1.1"
   id="svg293"
   xmlns="http://www.w3.org/2000/svg"
   xmlns:svg="http://www.w3.org/2000/svg"><defs
   id="defs293" />
<g
   font-family="sans-serif"
   font-weight="bold"
   id="g293">
<g
   transform="matrix(0.50379042,0,0,0.49658037,1289.3117,14.266164)"
   stroke="#773dde"
   fill="none"
   id="g1">
<path
   d="m -575.0547,3998.5168 h -1985.1845 l 2.8077,-2838.3257 -3.0791,-1187.8578 h 1985.4559 z"
   fill="#773dde"
   stroke="none"
   id="path1" />
</g><g
   transform="matrix(0.50379042,0,0,0.49658037,1289.3117,14.266164)"
   stroke="#fff6e8"
   fill="none"
   id="g2">
<path
   d="M -590.2947,3983.2768 V -12.4267 h -1954.9364 l 3.0396,1172.6056 -2.7926,2823.0979 z"
   fill="#fff6e8"
   stroke="none"
   id="path2" />
</g><g
   transform="matrix(0.50379042,0,0,0.49658037,1289.3117,14.266164)"
   stroke="#773dde"
   stroke-width="1.8026"
   fill="none"
   id="g43">
<path
   d="m -1622.294,3190.9226 h -918.0502 v -12.002 h 918.0502 z"
   fill="#773dde"
   stroke="none"
   id="path3" />

<path
   d="m -1414.6223,3178.9226 h -12.002 v -9.1793 h 12.002 z m 0,-132.1909 h -12.002 V 1548.3781 h 12.002 z"
   fill="#773dde"
   stroke="none"
   id="path4" />

<path
   d="m -1610.2937,3983.2778 h -12.002 v -804.3542 h 12.002 z"
   fill="#773dde"
   stroke="none"
   id="path5" />

<path
   d="m -1609.917,1536.3811 -0.3767,1478.0079 h -12.002 l 0.3767,-1478.0079 z"
   fill="#773dde"
   stroke="none"
   id="path6" />

<path
   d="m -1228.0863,567.0729 h -12.002 V 375.0905 h 12.002 z m 0,-290.001 h -12.002 v -290.001 h 12.002 z"
   fill="#773dde"
   stroke="none"
   id="path7" />

<path
   d="m -590.2845,555.5723 -0.009,12.002 -649.7946,-0.5014 0.01,-12.002 z"
   fill="#773dde"
   stroke="none"
   id="path8" />

<path
   d="m -1375.0632,1548.3801 h -246.8558 v -12.002 h 246.8558 z m 134.9775,0 h -44.4455 v -12.002 h 44.4455 z"
   fill="#773dde"
   stroke="none"
   id="path9" />

<path
   d="m -590.2843,1300.6218 h -649.7939 v -50.002 h 649.7939 z"
   fill="#773dde"
   stroke="none"
   id="path10" />

<path
   d="m -1228.0863,1105.6218 -12.002,7e-4 -0.028,-539.3689 12.002,-6e-4 z"
   fill="#773dde"
   stroke="none"
   id="path11" />

<path
   d="m -1228.0857,1903.5743 h -12.002 v -80.002 h 12.002 z"
   fill="#773dde"
   stroke="none"
   id="path12" />

<path
   d="m -940.0857,1441.5743 h -300.002 v -12.002 h 300.002 z"
   fill="#773dde"
   stroke="none"
   id="path13" />

<path
   d="m -1080.1937,1250.6218 h -12.002 v -17.0129 h 12.002 z m 0,-114.6233 h -12.002 v -30.3787 h 12.002 z"
   fill="#773dde"
   stroke="none"
   id="path14" />

<path
   d="m -1213.3871,1117.6218 h -26.7006 v -12.002 h 26.7006 z m 623.2519,0 h -526.9659 v -12.002 h 526.9659 z"
   fill="#773dde"
   stroke="none"
   id="path15" />

<path
   d="m -940.0857,1823.5743 h -300.002 v -12.002 h 300.002 z"
   fill="#773dde"
   stroke="none"
   id="path16" />

<path
   d="m -1228.0857,2504.5743 h -12.002 v -53.1941 h 12.002 z m 0,-153.1939 h -12.002 v -211.8081 h 12.002 z"
   fill="#773dde"
   stroke="none"
   id="path17" />

<path
   d="m -1048.5979,1429.5743 h -12.002 v -2.7923 h 12.002 z m 0,-126.1621 h -12.002 v -2.7924 h 12.002 z"
   fill="#773dde"
   stroke="none"
   id="path18" />

<path
   d="m -1228.0857,1811.5743 h -12.002 v -370.002 h 12.002 z"
   fill="#773dde"
   stroke="none"
   id="path19" />

<path
   d="m -940.0857,1915.5743 h -300.002 v -12.002 h 300.002 z"
   fill="#773dde"
   stroke="none"
   id="path20" />

<path
   d="m -940.0857,1903.5743 h -12.002 v -80.002 h 12.002 z"
   fill="#773dde"
   stroke="none"
   id="path21" />

<path
   d="m -1228.0857,2035.5743 h -12.002 v -120.002 h 12.002 z"
   fill="#773dde"
   stroke="none"
   id="path22" />

<path
   d="m -940.0857,2047.5743 h -300.002 v -12.002 h 300.002 z"
   fill="#773dde"
   stroke="none"
   id="path23" />

<path
   d="m -940.0857,2139.5743 h -300.002 v -12.002 h 300.002 z"
   fill="#773dde"
   stroke="none"
   id="path24" />

<path
   d="m -1228.0857,2127.5743 h -12.002 v -80.002 h 12.002 z"
   fill="#773dde"
   stroke="none"
   id="path25" />

<path
   d="m -940.0857,2127.5743 h -12.002 v -80.002 h 12.002 z"
   fill="#773dde"
   stroke="none"
   id="path26" />

<path
   d="m -1140.0857,2352.8207 h -100.002 v -12.002 h 100.002 z"
   fill="#773dde"
   stroke="none"
   id="path27" />

<path
   d="m -1140.0857,2452.8207 h -12.002 v -100.002 h 12.002 z"
   fill="#773dde"
   stroke="none"
   id="path28" />

<path
   d="m -939.2089,2502.8207 h -300.002 v -50.002 h 300.002 z"
   fill="#773dde"
   stroke="none"
   id="path29" />

<path
   d="m -1228.0857,2882.8288 h -12.002 v -202.8933 h 12.002 z"
   fill="#773dde"
   stroke="none"
   id="path30" />

<path
   d="m -939.2089,2632.8207 h -12.002 v -130.002 h 12.002 z"
   fill="#773dde"
   stroke="none"
   id="path31" />

<path
   d="m -940.0857,2679.9375 h -300.002 v -50.002 h 300.002 z"
   fill="#773dde"
   stroke="none"
   id="path32" />

<path
   d="m -590.2937,2894.8207 h -649.794 v -12.002 h 649.794 z"
   fill="#773dde"
   stroke="none"
   id="path33" />

<path
   d="m -1228.0857,2882.8268 -0.208,308.1039 -12.002,-0.01 0.208,-308.1038 z"
   fill="#773dde"
   stroke="none"
   id="path34" />

<path
   d="m -940.0857,1811.5743 h -12.002 v -370.002 h 12.002 z"
   fill="#773dde"
   stroke="none"
   id="path35" />

<path
   d="m -939.209,2484.5531 -12.0019,0.017 -0.8768,-601.8168 12.002,-0.017 z"
   fill="#773dde"
   stroke="none"
   id="path36" />

<path
   d="m -1610.2937,3178.9256 h -12.002 V 3014.384 h 12.002 z"
   fill="#773dde"
   stroke="none"
   id="path37" />

<path
   d="m -1228.2935,3178.9287 -2e-4,12.002 -288.7431,-0.01 3e-4,-12.002 z m -384.001,-0.01 -2e-4,12.002 h -10e-4 l 2e-4,-12.002 z"
   fill="#773dde"
   stroke="none"
   id="path38" />

<path
   d="m -2401.8955,2668.5003 h -10.002 V 1273.9659 h 10.002 z"
   fill="#773dde"
   stroke="none"
   id="path39" />

<path
   d="m -2323.6825,2678.5003 h -220.002 v -10.002 h 220.002 z"
   fill="#773dde"
   stroke="none"
   id="path40" />

<path
   d="m -2321.8955,1273.9679 h -220.002 v -10.002 h 220.002 z"
   fill="#773dde"
   stroke="none"
   id="path41" />

<path
   d="m -1048.4393,2629.9375 h -10.002 v -5.8798 h 10.002 z m 0,-121.115 h -10.002 v -30.5853 h 10.002 z"
   fill="#773dde"
   stroke="none"
   id="path42" />

<path
   d="m -1048.8434,1433.692 h -1.062 v -10.002 h 1.062 z"
   fill="#773dde"
   stroke="none"
   id="path43" />
</g><g
   transform="matrix(0.50379042,0,0,0.49658037,1289.3117,14.266164)"
   stroke="#111111"
   stroke-width="1.8026"
   fill="none"
   id="g44">
<path
   d="m -575.0547,3998.5168 h -1985.1845 l 2.8077,-2838.3257 -3.0791,-1187.8578 h 1985.4559 z m -15.24,-15.24 V 2894.8207 h -637.7991 l -0.1999,296.11 -288.7431,-0.01 3e-4,-12.002 276.7489,0.01 0.1999,-296.1097 v -252.8832 h 181.6464 v -5.8778 h 10.002 v 5.8778 h 97.2284 V 2502.821 h -97.2284 v 6.0018 h -10.002 v -6.0018 h -169.6444 v 1.7536 h -12.002 v -53.1941 h 12.002 v 1.4385 h 75.998 v -99.998 h -88 v -804.4406 h -44.4435 v -12.002 h 44.4435 v -106.8058 h 179.4878 v -2.7903 h 10.6945 v -3.092 h 1.062 v 3.092 h 0.2455 v 2.7903 h 108.5122 v 453.1639 l 0.8305,570.0825 h 0.0463 v 180.002 h -0.8768 v 47.1168 h -288 v 202.8812 h 637.791 V 1300.6218 h -458.3032 v 2.7904 h -12.002 v -2.7904 h -179.4783 v -50.002 h 147.8825 v -17.0109 h 12.002 v 17.0109 h 489.899 v -132.998 h -489.899 v 18.3767 h -12.002 v -18.3767 h -24.9054 v -12.002 h 526.8064 V 567.5743 l -637.8196,-0.4922 0.028,538.5377 h 14.6992 v 12.002 h -26.7006 v -11.9993 h -6e-4 l -0.028,-539.3689 h 0.028 V 375.0905 h 12.002 v 179.9897 l 637.7916,0.4921 v -567.999 h -637.7916 v 289.4986 h -12.002 V -12.4267 h -1305.1428 l 3.0396,1172.6056 -1.492,1508.3194 h 131.786 V 1273.9679 h -130 v -10.002 h 220.002 v 10.002 h -80 v 1394.5304 h 78.213 v 10.002 h -220.002 v -9.0164 l -1.2996,1313.7929 h 922.6884 v -792.3542 h -918.0485 v -12.002 h 918.0485 V 3014.384 l 0.3767,-1478.0059 h 246.8558 v 12.002 h -39.5591 v 1498.3516 h -12.002 V 1548.3801 h -183.2958 l -0.3736,1466.0089 v 968.8878 z m -824.3276,-804.3542 h -12.002 v -9.1793 h 12.002 z m 463.3651,-726.1039 -0.4563,-313.2444 h -276.3722 v 201.2444 h 88 v 112 z m -276.8285,-405.2444 v 79.998 h 275.998 v -79.998 z m 0,-132 v 119.998 h 276.2206 l -0.1748,-119.998 z m 0,-92 v 79.998 h 275.998 v -79.998 z m 0,-382 v 369.998 h 275.998 v -369.998 z"
   id="path44" />
</g><g
   transform="matrix(0.50379042,0,0,0.49658037,1289.3117,14.266164)"
   stroke="#ffffff"
   stroke-width="0.60087"
   opacity="1"
   fill="none"
   id="g46">
<path
   d="m -2323.6835,3463.763 h 541.7631 v -70 h -541.7631 z"
   fill="#ffffff"
   stroke="none"
   id="path46" />
</g><g
   transform="matrix(0.50379042,0,0,0.49658037,1289.3117,14.266164)"
   stroke="#000000"
   stroke-width="0.60087"
   opacity="1"
   fill="none"
   id="g47">
<path
   d="m -2323.6835,3463.763 h 541.7631 v -70 h -541.7631 z"
   id="path47" />
</g><g
   transform="matrix(0.50379042,0,0,0.49658037,1289.3117,14.266164)"
   stroke="#ffffff"
   stroke-width="0.60087"
   opacity="1"
   fill="none"
   id="g48">
<path
   d="m -2258.7992,3744.814 v -351.051 h -64.8843 v 351.051 z"
   fill="#ffffff"
   stroke="none"
   id="path48" />
</g><g
   transform="matrix(0.50379042,0,0,0.49658037,1289.3117,14.266164)"
   stroke="#000000"
   stroke-width="0.60087"
   opacity="1"
   fill="none"
   id="g49">
<path
   d="m -2258.7992,3744.814 v -351.051 h -64.8843 v 351.051 z"
   id="path49" />
</g><g
   transform="matrix(0.50379042,0,0,0.49658037,1289.3117,14.266164)"
   stroke="#ffffff"
   stroke-width="0.60087"
   opacity="1"
   fill="none"
   id="g50">
<path
   d="m -2323.6835,3744.814 h 541.7631 v -70 h -541.7631 z"
   fill="#ffffff"
   stroke="none"
   id="path50" />
</g><g
   transform="matrix(0.50379042,0,0,0.49658037,1289.3117,14.266164)"
   stroke="#000000"
   stroke-width="0.60087"
   opacity="1"
   fill="none"
   id="g51">
<path
   d="m -2323.6835,3744.814 h 541.7631 v -70 h -541.7631 z"
   id="path51" />
</g><g
   transform="matrix(0.50379042,0,0,0.49658037,1289.3117,14.266164)"
   stroke="#ffffff"
   stroke-width="0.60087"
   opacity="1"
   fill="none"
   id="g52">
<path
   d="m -2308.7992,2894.8197 c 27.6143,0 50,-15.67 50,-35 0,-19.33 -22.3857,-35 -50,-35 -27.6142,0 -50,15.67 -50,35 0,19.33 22.3858,35 50,35"
   fill="#ffffff"
   stroke="none"
   id="path52" />
</g><g
   transform="matrix(0.50379042,0,0,0.49658037,1289.3117,14.266164)"
   stroke="#000000"
   stroke-width="0.60087"
   opacity="1"
   fill="none"
   id="g53">
<path
   d="m -2308.7992,2894.8197 c 27.6143,0 50,-15.67 50,-35 0,-19.33 -22.3857,-35 -50,-35 -27.6142,0 -50,15.67 -50,35 0,19.33 22.3858,35 50,35"
   id="path53" />
</g><g
   transform="matrix(0.50379042,0,0,0.49658037,1289.3117,14.266164)"
   stroke="#ffffff"
   stroke-width="0.60087"
   opacity="1"
   fill="none"
   id="g54">
<path
   d="m -2308.7992,3084.385 c 27.6143,0 50,-15.67 50,-35 0,-19.33 -22.3857,-35 -50,-35 -27.6142,0 -50,15.67 -50,35 0,19.33 22.3858,35 50,35"
   fill="#ffffff"
   stroke="none"
   id="path54" />
</g><g
   transform="matrix(0.50379042,0,0,0.49658037,1289.3117,14.266164)"
   stroke="#000000"
   stroke-width="0.60087"
   opacity="1"
   fill="none"
   id="g55">
<path
   d="m -2308.7992,3084.385 c 27.6143,0 50,-15.67 50,-35 0,-19.33 -22.3857,-35 -50,-35 -27.6142,0 -50,15.67 -50,35 0,19.33 22.3858,35 50,35"
   id="path55" />
</g><g
   transform="matrix(0.50379042,0,0,0.49658037,1289.3117,14.266164)"
   stroke="#ffffff"
   stroke-width="0.60087"
   opacity="1"
   fill="none"
   id="g56">
<path
   d="m -1981.2847,2894.8197 c 27.6142,0 50,-15.67 50,-35 0,-19.33 -22.3858,-35 -50,-35 -27.6143,0 -50,15.67 -50,35 0,19.33 22.3857,35 50,35"
   fill="#ffffff"
   stroke="none"
   id="path56" />
</g><g
   transform="matrix(0.50379042,0,0,0.49658037,1289.3117,14.266164)"
   stroke="#000000"
   stroke-width="0.60087"
   opacity="1"
   fill="none"
   id="g57">
<path
   d="m -1981.2847,2894.8197 c 27.6142,0 50,-15.67 50,-35 0,-19.33 -22.3858,-35 -50,-35 -27.6143,0 -50,15.67 -50,35 0,19.33 22.3857,35 50,35"
   id="path57" />
</g><g
   transform="matrix(0.50379042,0,0,0.49658037,1289.3117,14.266164)"
   stroke="#ffffff"
   stroke-width="0.60087"
   opacity="1"
   fill="none"
   id="g58">
<path
   d="m -1981.2847,3084.385 c 27.6142,0 50,-15.67 50,-35 0,-19.33 -22.3858,-35 -50,-35 -27.6143,0 -50,15.67 -50,35 0,19.33 22.3857,35 50,35"
   fill="#ffffff"
   stroke="none"
   id="path58" />
</g><g
   transform="matrix(0.50379042,0,0,0.49658037,1289.3117,14.266164)"
   stroke="#000000"
   stroke-width="0.60087"
   opacity="1"
   fill="none"
   id="g59">
<path
   d="m -1981.2847,3084.385 c 27.6142,0 50,-15.67 50,-35 0,-19.33 -22.3858,-35 -50,-35 -27.6143,0 -50,15.67 -50,35 0,19.33 22.3857,35 50,35"
   id="path59" />
</g><g
   transform="matrix(0.50379042,0,0,0.49658037,1289.3117,14.266164)"
   stroke="#ffffff"
   stroke-width="0.60087"
   opacity="1"
   fill="none"
   id="g60">
<path
   d="m -2158.5604,2749.9365 c 27.6142,0 50,-15.67 50,-35 0,-19.3299 -22.3858,-35 -50,-35 -27.6142,0 -50,15.6701 -50,35 0,19.33 22.3858,35 50,35"
   fill="#ffffff"
   stroke="none"
   id="path60" />
</g><g
   transform="matrix(0.50379042,0,0,0.49658037,1289.3117,14.266164)"
   stroke="#000000"
   stroke-width="0.60087"
   opacity="1"
   fill="none"
   id="g61">
<path
   d="m -2158.5604,2749.9365 c 27.6142,0 50,-15.67 50,-35 0,-19.3299 -22.3858,-35 -50,-35 -27.6142,0 -50,15.6701 -50,35 0,19.33 22.3858,35 50,35"
   id="path61" />
</g><g
   transform="matrix(0.50379042,0,0,0.49658037,1289.3117,14.266164)"
   stroke="#ffffff"
   stroke-width="0.60087"
   opacity="1"
   fill="none"
   id="g62">
<path
   d="m -2123.5604,2425.8197 v -100 h -70 v 100 z"
   fill="#ffffff"
   stroke="none"
   id="path62" />
</g><g
   transform="matrix(0.50379042,0,0,0.49658037,1289.3117,14.266164)"
   stroke="#000000"
   stroke-width="0.60087"
   opacity="1"
   fill="none"
   id="g63">
<path
   d="m -2123.5604,2425.8197 v -100 h -70 v 100 z"
   id="path63" />
</g><g
   transform="matrix(0.50379042,0,0,0.49658037,1289.3117,14.266164)"
   stroke="#ffffff"
   stroke-width="0.60087"
   opacity="1"
   fill="none"
   id="g64">
<path
   d="m -2123.5604,2325.8197 v -100 h -70 v 100 z"
   fill="#ffffff"
   stroke="none"
   id="path64" />
</g><g
   transform="matrix(0.50379042,0,0,0.49658037,1289.3117,14.266164)"
   stroke="#000000"
   stroke-width="0.60087"
   opacity="1"
   fill="none"
   id="g65">
<path
   d="m -2123.5604,2325.8197 v -100 h -70 v 100 z"
   id="path65" />
</g><g
   transform="matrix(0.50379042,0,0,0.49658037,1289.3117,14.266164)"
   stroke="#ffffff"
   stroke-width="0.60087"
   opacity="1"
   fill="none"
   id="g66">
<path
   d="m -2138.5604,2024.6838 v -100 h -70 v 100 z"
   fill="#ffffff"
   stroke="none"
   id="path66" />
</g><g
   transform="matrix(0.50379042,0,0,0.49658037,1289.3117,14.266164)"
   stroke="#000000"
   stroke-width="0.60087"
   opacity="1"
   fill="none"
   id="g67">
<path
   d="m -2138.5604,2024.6838 v -100 h -70 v 100 z"
   id="path67" />
</g><g
   transform="matrix(0.50379042,0,0,0.49658037,1289.3117,14.266164)"
   stroke="#ffffff"
   stroke-width="0.60087"
   opacity="1"
   fill="none"
   id="g68">
<path
   d="m -2138.5604,1924.6838 v -100 h -70 v 100 z"
   fill="#ffffff"
   stroke="none"
   id="path68" />
</g><g
   transform="matrix(0.50379042,0,0,0.49658037,1289.3117,14.266164)"
   stroke="#000000"
   stroke-width="0.60087"
   opacity="1"
   fill="none"
   id="g69">
<path
   d="m -2138.5604,1924.6838 v -100 h -70 v 100 z"
   id="path69" />
</g><g
   transform="matrix(0.50379042,0,0,0.49658037,1289.3117,14.266164)"
   stroke="#ffffff"
   stroke-width="0.60087"
   opacity="1"
   fill="none"
   id="g70">
<path
   d="m -2138.5604,1636.2295 v -100 h -70 v 100 z"
   fill="#ffffff"
   stroke="none"
   id="path70" />
</g><g
   transform="matrix(0.50379042,0,0,0.49658037,1289.3117,14.266164)"
   stroke="#000000"
   stroke-width="0.60087"
   opacity="1"
   fill="none"
   id="g71">
<path
   d="m -2138.5604,1636.2295 v -100 h -70 v 100 z"
   id="path71" />
</g><g
   transform="matrix(0.50379042,0,0,0.49658037,1289.3117,14.266164)"
   stroke="#ffffff"
   stroke-width="0.60087"
   opacity="1"
   fill="none"
   id="g72">
<path
   d="m -2138.5604,1523.691 v -100 h -70 v 100 z"
   fill="#ffffff"
   stroke="none"
   id="path72" />
</g><g
   transform="matrix(0.50379042,0,0,0.49658037,1289.3117,14.266164)"
   stroke="#000000"
   stroke-width="0.60087"
   opacity="1"
   fill="none"
   id="g73">
<path
   d="m -2138.5604,1523.691 v -100 h -70 v 100 z"
   id="path73" />
</g><g
   transform="matrix(0.50379042,0,0,0.49658037,1289.3117,14.266164)"
   stroke="#ffffff"
   stroke-width="0.60087"
   opacity="1"
   fill="none"
   id="g74">
<path
   d="M -2401.8965,1105.6208 V 898.71345 h -69.4891 v 206.90735 z"
   fill="#ffffff"
   stroke="none"
   id="path74" />
</g><g
   transform="matrix(0.50379042,0,0,0.49658037,1289.3117,14.266164)"
   stroke="#000000"
   stroke-width="0.60087"
   opacity="1"
   fill="none"
   id="g75">
<path
   d="M -2401.8965,1105.6208 V 898.71345 h -69.4891 v 206.90735 z"
   id="path75" />
</g><g
   transform="matrix(0.50379042,0,0,0.49658037,1289.3117,14.266164)"
   stroke="#ffffff"
   stroke-width="0.60087"
   opacity="1"
   fill="none"
   id="g76">
<path
   d="M -2401.3856,684.70553 V 455.43055 h -70 v 229.27498 z"
   fill="#ffffff"
   stroke="none"
   id="path76" />
</g><g
   transform="matrix(0.50379042,0,0,0.49658037,1289.3117,14.266164)"
   stroke="#000000"
   stroke-width="0.60087"
   opacity="1"
   fill="none"
   id="g77">
<path
   d="M -2401.3856,684.70553 V 455.43055 h -70 v 229.27498 z"
   id="path77" />
</g><g
   transform="matrix(0.50379042,0,0,0.49658037,1289.3117,14.266164)"
   stroke="#ffffff"
   stroke-width="0.60087"
   opacity="1"
   fill="none"
   id="g78">
<path
   d="m -2208.5604,343.72512 h 247.301 v -70 h -247.301 z"
   fill="#ffffff"
   stroke="none"
   id="path78" />
</g><g
   transform="matrix(0.50379042,0,0,0.49658037,1289.3117,14.266164)"
   stroke="#000000"
   stroke-width="0.60087"
   opacity="1"
   fill="none"
   id="g79">
<path
   d="m -2208.5604,343.72512 h 247.301 v -70 h -247.301 z"
   id="path79" />
</g><g
   transform="matrix(0.50379042,0,0,0.49658037,1289.3117,14.266164)"
   stroke="#ffffff"
   stroke-width="0.60087"
   opacity="1"
   fill="none"
   id="g80">
<path
   d="m -2208.5604,567.07194 h 247.301 v -70 h -247.301 z"
   fill="#ffffff"
   stroke="none"
   id="path80" />
</g><g
   transform="matrix(0.50379042,0,0,0.49658037,1289.3117,14.266164)"
   stroke="#000000"
   stroke-width="0.60087"
   opacity="1"
   fill="none"
   id="g81">
<path
   d="m -2208.5604,567.07194 h 247.301 v -70 h -247.301 z"
   id="path81" />
</g><g
   transform="matrix(0.50379042,0,0,0.49658037,1289.3117,14.266164)"
   stroke="#ffffff"
   stroke-width="0.60087"
   opacity="1"
   fill="none"
   id="g82">
<path
   d="m -1783.3613,343.72512 h 247.3011 v -70 h -247.3011 z"
   fill="#ffffff"
   stroke="none"
   id="path82" />
</g><g
   transform="matrix(0.50379042,0,0,0.49658037,1289.3117,14.266164)"
   stroke="#000000"
   stroke-width="0.60087"
   opacity="1"
   fill="none"
   id="g83">
<path
   d="m -1783.3613,343.72512 h 247.3011 v -70 h -247.3011 z"
   id="path83" />
</g><g
   transform="matrix(0.50379042,0,0,0.49658037,1289.3117,14.266164)"
   stroke="#ffffff"
   stroke-width="0.60087"
   opacity="1"
   fill="none"
   id="g84">
<path
   d="m -2208.5604,754.70553 h 247.301 v -70 h -247.301 z"
   fill="#ffffff"
   stroke="none"
   id="path84" />
</g><g
   transform="matrix(0.50379042,0,0,0.49658037,1289.3117,14.266164)"
   stroke="#000000"
   stroke-width="0.60087"
   opacity="1"
   fill="none"
   id="g85">
<path
   d="m -2208.5604,754.70553 h 247.301 v -70 h -247.301 z"
   id="path85" />
</g><g
   transform="matrix(0.50379042,0,0,0.49658037,1289.3117,14.266164)"
   stroke="#ffffff"
   stroke-width="0.60087"
   opacity="1"
   fill="none"
   id="g86">
<path
   d="m -1783.3613,754.70553 h 247.3011 v -70 h -247.3011 z"
   fill="#ffffff"
   stroke="none"
   id="path86" />
</g><g
   transform="matrix(0.50379042,0,0,0.49658037,1289.3117,14.266164)"
   stroke="#000000"
   stroke-width="0.60087"
   opacity="1"
   fill="none"
   id="g87">
<path
   d="m -1783.3613,754.70553 h 247.3011 v -70 h -247.3011 z"
   id="path87" />
</g><g
   transform="matrix(0.50379042,0,0,0.49658037,1289.3117,14.266164)"
   stroke="#ffffff"
   stroke-width="0.60087"
   opacity="1"
   fill="none"
   id="g88">
<path
   d="m -1783.3613,554.65279 h 247.3011 v -70 h -247.3011 z"
   fill="#ffffff"
   stroke="none"
   id="path88" />
</g><g
   transform="matrix(0.50379042,0,0,0.49658037,1289.3117,14.266164)"
   stroke="#000000"
   stroke-width="0.60087"
   opacity="1"
   fill="none"
   id="g89">
<path
   d="m -1783.3613,554.65279 h 247.3011 v -70 h -247.3011 z"
   id="path89" />
</g><g
   transform="matrix(0.50379042,0,0,0.49658037,1289.3117,14.266164)"
   stroke="#ffffff"
   stroke-width="0.60087"
   opacity="1"
   fill="none"
   id="g90">
<path
   d="m -1228.0867,1823.4071 v 80.1662 h 275.99998 v -80.1662 z"
   fill="#ffffff"
   stroke="none"
   id="path90" />
</g><g
   transform="matrix(0.50379042,0,0,0.49658037,1289.3117,14.266164)"
   stroke="#000000"
   stroke-width="0.60087"
   opacity="1"
   fill="none"
   id="g95">
<path
   d="m -1228.0867,1823.4071 v 80.1662 h 275.99998 v -80.1662 z"
   id="path91" />

<path
   d="m -1228.0867,1827.4071 h 275.99998"
   id="path92" />

<path
   d="m -1228.0867,1899.5733 h 275.99998"
   id="path93" />

<line
   x1="-1228.0867"
   y1="1863.4901"
   x2="-952.08673"
   y2="1863.4901"
   id="line93" />

<line
   x1="-967.08673"
   y1="1853.4901"
   x2="-952.08673"
   y2="1863.4901"
   id="line94" />

<line
   x1="-967.08673"
   y1="1873.4901"
   x2="-952.08673"
   y2="1863.4901"
   id="line95" />
</g><g
   transform="matrix(0.50379042,0,0,0.49658037,1289.3117,14.266164)"
   stroke="#ffffff"
   stroke-width="0.60087"
   opacity="1"
   fill="none"
   id="g96">
<path
   d="m -1228.0867,2047.5733 v 82.2769 h 275.99998 v -82.2769 z"
   fill="#ffffff"
   stroke="none"
   id="path95" />
</g><g
   transform="matrix(0.50379042,0,0,0.49658037,1289.3117,14.266164)"
   stroke="#000000"
   stroke-width="0.60087"
   opacity="1"
   fill="none"
   id="g124">
<path
   d="m -1228.0867,2047.5733 v 82.2769 h 275.99998 v -82.2769 z"
   id="path96" />

<path
   d="m -1228.0867,2051.5733 h 275.99998"
   id="path97" />

<path
   d="m -1228.0867,2125.8502 h 275.99998"
   id="path98" />

<line
   x1="-1228.0867"
   y1="2088.7117"
   x2="-952.08673"
   y2="2088.7117"
   id="line98" />

<line
   x1="-967.08673"
   y1="2078.7117"
   x2="-952.08673"
   y2="2088.7117"
   id="line99" />

<line
   x1="-967.08673"
   y1="2098.7117"
   x2="-952.08673"
   y2="2088.7117"
   id="line100" />

<path
   d="m -1415.6233,3169.7433 v -5 h -61.5058 c 0,-31.2073 23.0599,-56.5058 51.5058,-56.5058 -28.4459,0 -51.5058,-25.2985 -51.5058,-56.5058 h 61.5058 v -5"
   id="path100" />

<line
   x1="-1425.6233"
   y1="3169.7434"
   x2="-1425.6233"
   y2="3046.7317"
   id="line101" />

<line
   x1="-1425.6233"
   y1="3159.7434"
   x2="-1476.8859"
   y2="3159.7434"
   id="line102" />

<line
   x1="-1425.6233"
   y1="3056.7317"
   x2="-1476.8859"
   y2="3056.7317"
   id="line103" />

<path
   d="m -1229.0873,277.07194 v 98.01853"
   id="path103" />

<path
   d="m -1239.0873,375.09047 v -5 h 10"
   id="path104" />

<path
   d="m -1239.0873,277.07194 v 5 h 10 88.0185 c 0,48.61129 -39.4073,88.01853 -88.0185,88.01853"
   id="path105" />

<line
   x1="-1229.0873"
   y1="287.07193"
   x2="-1141.2109"
   y2="287.07193"
   id="line105" />

<path
   d="m -1284.5313,1537.3791 h -5 v 45.266 c -22.2382,0 -40.2659,-15.7892 -40.2659,-35.266 0,19.4768 -18.0277,35.266 -40.266,35.266 v -45.266 h -5"
   id="path106" />

<line
   x1="-1284.5312"
   y1="1547.379"
   x2="-1375.0632"
   y2="1547.379"
   id="line106" />

<line
   x1="-1294.5312"
   y1="1547.379"
   x2="-1294.5312"
   y2="1582.2888"
   id="line107" />

<line
   x1="-1365.0632"
   y1="1547.379"
   x2="-1365.0632"
   y2="1582.2888"
   id="line108" />

<path
   d="m -1081.1947,1233.6089 v -97.6104"
   id="path108" />

<path
   d="m -1091.1947,1135.9985 v 5 h 10"
   id="path109" />

<path
   d="m -1091.1947,1233.6089 v -5 h 10 87.61049 c 0,-48.3859 -39.22449,-87.6104 -87.61049,-87.6104"
   id="path110" />

<line
   x1="-1081.1947"
   y1="1223.6089"
   x2="-993.72699"
   y2="1223.6089"
   id="line110" />

<path
   d="m -1213.3871,1106.6208 h 96.2859"
   id="path111" />

<path
   d="m -1117.1012,1116.6208 h -5 v -10"
   id="path112" />

<path
   d="m -1213.3871,1116.6208 h 5 v -10 -86.2859 c 47.6544,0 86.2859,38.6315 86.2859,86.2859"
   id="path113" />

<line
   x1="-1203.3871"
   y1="1106.6208"
   x2="-1203.3871"
   y2="1020.4799"
   id="line113" />

<path
   d="m -1239.0867,2451.3802 v -5 h 49.9999 c 0,-24.8527 -17.9086,-44.9999 -39.9999,-44.9999 22.0913,0 39.9999,-20.1471 39.9999,-44.9999 h -49.9999 v -5"
   id="path114" />

<line
   x1="-1229.0867"
   y1="2451.3801"
   x2="-1229.0867"
   y2="2351.3804"
   id="line114" />

<line
   x1="-1229.0867"
   y1="2441.3801"
   x2="-1189.4005"
   y2="2441.3801"
   id="line115" />

<line
   x1="-1229.0867"
   y1="2361.3804"
   x2="-1189.4005"
   y2="2361.3804"
   id="line116" />

<path
   d="m -1049.5989,1426.782 v -5 h -61.6849 c 0,-31.3063 23.1401,-56.6849 51.6849,-56.6849 -28.5448,0 -51.6849,-25.3787 -51.6849,-56.6849 h 61.6849 v -5"
   id="path116" />

<line
   x1="-1059.5989"
   y1="1426.782"
   x2="-1059.5989"
   y2="1303.4121"
   id="line117" />

<line
   x1="-1059.5989"
   y1="1416.782"
   x2="-1111.0414"
   y2="1416.782"
   id="line118" />

<line
   x1="-1059.5989"
   y1="1313.4121"
   x2="-1111.0414"
   y2="1313.4121"
   id="line119" />

<path
   d="m -1517.0368,3189.9236 h -95.2579"
   id="path119" />

<path
   d="m -1612.2945,3179.9216 5,10e-5 -2e-4,10"
   id="path120" />

<path
   d="m -1517.0366,3179.9236 -5,-2e-4 -2e-4,10 v 85.258 c -47.0866,-10e-4 -85.2571,-38.1731 -85.2561,-85.2597"
   id="path121" />

<line
   x1="-1527.0367"
   y1="3189.9233"
   x2="-1527.0386"
   y2="3275.0347"
   id="line121" />

<path
   d="m -1048.4403,2624.0577 v -5 h -57.6176 c 0,-29.0599 21.3191,-52.6176 47.6176,-52.6176 -26.2985,0 -47.6176,-23.5577 -47.6176,-52.6176 h 57.6176 v -5"
   id="path122" />

<line
   x1="-1058.4403"
   y1="2624.0576"
   x2="-1058.4403"
   y2="2508.8225"
   id="line122" />

<line
   x1="-1058.4403"
   y1="2614.0576"
   x2="-1105.7947"
   y2="2614.0576"
   id="line123" />

<line
   x1="-1058.4403"
   y1="2518.8225"
   x2="-1105.7947"
   y2="2518.8225"
   id="line124" />
</g><g
   transform="matrix(0.50379042,0,0,0.49658037,1289.3117,14.266164)"
   stroke="#ffffff"
   stroke-width="0.60087"
   opacity="1"
   fill="none"
   id="g125">
<path
   d="m -759.81007,2352.8197 h -140 v 300 h 140 z"
   fill="#ffffff"
   stroke="none"
   id="path124" />
</g><g
   transform="matrix(0.50379042,0,0,0.49658037,1289.3117,14.266164)"
   stroke="#000000"
   stroke-width="0.60087"
   opacity="1"
   fill="none"
   id="g140">
<path
   d="m -759.81007,2352.8197 h -140 v 300 h 140 z"
   id="path125" />

<path
   d="m -763.81007,2352.8197 v 300"
   id="path126" />

<path
   d="m -895.81007,2352.8197 v 300"
   id="path127" />

<line
   x1="-759.81006"
   y1="2627.8196"
   x2="-899.81006"
   y2="2627.8196"
   id="line127" />

<line
   x1="-759.81006"
   y1="2602.8196"
   x2="-899.81006"
   y2="2602.8196"
   id="line128" />

<line
   x1="-759.81006"
   y1="2577.8196"
   x2="-899.81006"
   y2="2577.8196"
   id="line129" />

<line
   x1="-759.81006"
   y1="2552.8196"
   x2="-899.81006"
   y2="2552.8196"
   id="line130" />

<line
   x1="-759.81006"
   y1="2527.8196"
   x2="-899.81006"
   y2="2527.8196"
   id="line131" />

<line
   x1="-759.81006"
   y1="2502.8196"
   x2="-899.81006"
   y2="2502.8196"
   id="line132" />

<line
   x1="-759.81006"
   y1="2477.8196"
   x2="-899.81006"
   y2="2477.8196"
   id="line133" />

<line
   x1="-759.81006"
   y1="2452.8196"
   x2="-899.81006"
   y2="2452.8196"
   id="line134" />

<line
   x1="-759.81006"
   y1="2427.8196"
   x2="-899.81006"
   y2="2427.8196"
   id="line135" />

<line
   x1="-759.81006"
   y1="2402.8196"
   x2="-899.81006"
   y2="2402.8196"
   id="line136" />

<line
   x1="-759.81006"
   y1="2377.8196"
   x2="-899.81006"
   y2="2377.8196"
   id="line137" />

<line
   x1="-829.81006"
   y1="2352.8196"
   x2="-829.81006"
   y2="2652.8196"
   id="line138" />

<line
   x1="-819.81006"
   y1="2637.8196"
   x2="-829.81006"
   y2="2652.8196"
   id="line139" />

<line
   x1="-839.81006"
   y1="2637.8196"
   x2="-829.81006"
   y2="2652.8196"
   id="line140" />
</g><g
   transform="matrix(0.50379042,0,0,0.49658037,1289.3117,14.266164)"
   stroke="#ffffff"
   stroke-width="0.60087"
   opacity="1"
   fill="none"
   id="g141">
<path
   d="m -619.81007,1429.5733 h -140 v 301.8452 h 140 z"
   fill="#ffffff"
   stroke="none"
   id="path140" />
</g><g
   transform="matrix(0.50379042,0,0,0.49658037,1289.3117,14.266164)"
   stroke="#000000"
   stroke-width="0.60087"
   opacity="1"
   fill="none"
   id="g156">
<path
   d="m -619.81007,1429.5733 h -140 v 301.8452 h 140 z"
   id="path141" />

<path
   d="m -623.81007,1429.5733 v 301.8452"
   id="path142" />

<path
   d="m -755.81007,1429.5733 v 301.8452"
   id="path143" />

<line
   x1="-619.81006"
   y1="1706.2648"
   x2="-759.81006"
   y2="1706.2648"
   id="line143" />

<line
   x1="-619.81006"
   y1="1681.111"
   x2="-759.81006"
   y2="1681.111"
   id="line144" />

<line
   x1="-619.81006"
   y1="1655.9572"
   x2="-759.81006"
   y2="1655.9572"
   id="line145" />

<line
   x1="-619.81006"
   y1="1630.8035"
   x2="-759.81006"
   y2="1630.8035"
   id="line146" />

<line
   x1="-619.81006"
   y1="1605.6497"
   x2="-759.81006"
   y2="1605.6497"
   id="line147" />

<line
   x1="-619.81006"
   y1="1580.4958"
   x2="-759.81006"
   y2="1580.4958"
   id="line148" />

<line
   x1="-619.81006"
   y1="1555.342"
   x2="-759.81006"
   y2="1555.342"
   id="line149" />

<line
   x1="-619.81006"
   y1="1530.1884"
   x2="-759.81006"
   y2="1530.1884"
   id="line150" />

<line
   x1="-619.81006"
   y1="1505.0345"
   x2="-759.81006"
   y2="1505.0345"
   id="line151" />

<line
   x1="-619.81006"
   y1="1479.8809"
   x2="-759.81006"
   y2="1479.8809"
   id="line152" />

<line
   x1="-619.81006"
   y1="1454.7271"
   x2="-759.81006"
   y2="1454.7271"
   id="line153" />

<line
   x1="-689.81006"
   y1="1429.5732"
   x2="-689.81006"
   y2="1731.4185"
   id="line154" />

<line
   x1="-679.81006"
   y1="1716.4185"
   x2="-689.81006"
   y2="1731.4185"
   id="line155" />

<line
   x1="-699.81006"
   y1="1716.4185"
   x2="-689.81006"
   y2="1731.4185"
   id="line156" />
</g><g
   transform="matrix(0.50379042,0,0,0.49658037,1289.3117,14.266164)"
   stroke="#ffffff"
   stroke-width="0.60087"
   opacity="1"
   fill="none"
   id="g157">
<path
   d="m -899.81007,1731.4185 h 140 v -301.8452 h -140 z"
   fill="#ffffff"
   stroke="none"
   id="path156" />
</g><g
   transform="matrix(0.50379042,0,0,0.49658037,1289.3117,14.266164)"
   stroke="#000000"
   stroke-width="0.60087"
   opacity="1"
   fill="none"
   id="g172">
<path
   d="m -899.81007,1731.4185 h 140 v -301.8452 h -140 z"
   id="path157" />

<path
   d="M -895.81007,1731.4185 V 1429.5733"
   id="path158" />

<path
   d="M -763.81007,1731.4185 V 1429.5733"
   id="path159" />

<line
   x1="-899.81006"
   y1="1454.7271"
   x2="-759.81006"
   y2="1454.7271"
   id="line159" />

<line
   x1="-899.81006"
   y1="1479.8809"
   x2="-759.81006"
   y2="1479.8809"
   id="line160" />

<line
   x1="-899.81006"
   y1="1505.0345"
   x2="-759.81006"
   y2="1505.0345"
   id="line161" />

<line
   x1="-899.81006"
   y1="1530.1884"
   x2="-759.81006"
   y2="1530.1884"
   id="line162" />

<line
   x1="-899.81006"
   y1="1555.342"
   x2="-759.81006"
   y2="1555.342"
   id="line163" />

<line
   x1="-899.81006"
   y1="1580.4958"
   x2="-759.81006"
   y2="1580.4958"
   id="line164" />

<line
   x1="-899.81006"
   y1="1605.6497"
   x2="-759.81006"
   y2="1605.6497"
   id="line165" />

<line
   x1="-899.81006"
   y1="1630.8035"
   x2="-759.81006"
   y2="1630.8035"
   id="line166" />

<line
   x1="-899.81006"
   y1="1655.9572"
   x2="-759.81006"
   y2="1655.9572"
   id="line167" />

<line
   x1="-899.81006"
   y1="1681.111"
   x2="-759.81006"
   y2="1681.111"
   id="line168" />

<line
   x1="-899.81006"
   y1="1706.2648"
   x2="-759.81006"
   y2="1706.2648"
   id="line169" />

<line
   x1="-829.81006"
   y1="1731.4185"
   x2="-829.81006"
   y2="1429.5732"
   id="line170" />

<line
   x1="-839.81006"
   y1="1444.5732"
   x2="-829.81006"
   y2="1429.5732"
   id="line171" />

<line
   x1="-819.81006"
   y1="1444.5732"
   x2="-829.81006"
   y2="1429.5732"
   id="line172" />
</g><g
   transform="matrix(0.50379042,0,0,0.49658037,1289.3117,14.266164)"
   stroke="#ffffff"
   stroke-width="0.60087"
   opacity="1"
   fill="none"
   id="g173">
<path
   d="m -759.81007,2652.8197 h 140 v -300 h -140 z"
   fill="#ffffff"
   stroke="none"
   id="path172" />
</g><g
   transform="matrix(0.50379042,0,0,0.49658037,1289.3117,14.266164)"
   stroke="#000000"
   stroke-width="0.60087"
   opacity="1"
   fill="none"
   id="g188">
<path
   d="m -759.81007,2652.8197 h 140 v -300 h -140 z"
   id="path173" />

<path
   d="m -755.81007,2652.8197 v -300"
   id="path174" />

<path
   d="m -623.81007,2652.8197 v -300"
   id="path175" />

<line
   x1="-759.81006"
   y1="2377.8196"
   x2="-619.81006"
   y2="2377.8196"
   id="line175" />

<line
   x1="-759.81006"
   y1="2402.8196"
   x2="-619.81006"
   y2="2402.8196"
   id="line176" />

<line
   x1="-759.81006"
   y1="2427.8196"
   x2="-619.81006"
   y2="2427.8196"
   id="line177" />

<line
   x1="-759.81006"
   y1="2452.8196"
   x2="-619.81006"
   y2="2452.8196"
   id="line178" />

<line
   x1="-759.81006"
   y1="2477.8196"
   x2="-619.81006"
   y2="2477.8196"
   id="line179" />

<line
   x1="-759.81006"
   y1="2502.8196"
   x2="-619.81006"
   y2="2502.8196"
   id="line180" />

<line
   x1="-759.81006"
   y1="2527.8196"
   x2="-619.81006"
   y2="2527.8196"
   id="line181" />

<line
   x1="-759.81006"
   y1="2552.8196"
   x2="-619.81006"
   y2="2552.8196"
   id="line182" />

<line
   x1="-759.81006"
   y1="2577.8196"
   x2="-619.81006"
   y2="2577.8196"
   id="line183" />

<line
   x1="-759.81006"
   y1="2602.8196"
   x2="-619.81006"
   y2="2602.8196"
   id="line184" />

<line
   x1="-759.81006"
   y1="2627.8196"
   x2="-619.81006"
   y2="2627.8196"
   id="line185" />

<line
   x1="-689.81006"
   y1="2652.8196"
   x2="-689.81006"
   y2="2352.8196"
   id="line186" />

<line
   x1="-699.81006"
   y1="2367.8196"
   x2="-689.81006"
   y2="2352.8196"
   id="line187" />

<line
   x1="-679.81006"
   y1="2367.8196"
   x2="-689.81006"
   y2="2352.8196"
   id="line188" />
</g><g
   transform="matrix(0.50379042,0,0,0.49658037,1289.3117,14.266164)"
   stroke="#ffffff"
   stroke-width="0.60087"
   opacity="1"
   fill="none"
   id="g189">
<path
   d="m -1140.0867,2593.3219 v -60 h 30 v 60 h -28.5 v -1.5 h 27 v -57 h -27 v 58.5 z"
   fill="#ffffff"
   stroke="none"
   id="path188" />
</g><g
   transform="matrix(0.50379042,0,0,0.49658037,1289.3117,14.266164)"
   stroke="#ff0001"
   stroke-width="0.60087"
   opacity="1"
   fill="none"
   id="g190">
<path
   d="m -1138.5867,2591.8219 v -57 h 27 v 57 z"
   fill="#ff0001"
   stroke="none"
   id="path189" />
</g><g
   transform="matrix(0.50379042,0,0,0.49658037,1289.3117,14.266164)"
   stroke="#ffffff"
   stroke-width="0.60087"
   opacity="1"
   fill="none"
   id="g191">
<path
   d="m -1135.5867,2580.4104 h 13.671 v 1.3504 l 2.877,1.6581 v -3.0085 h 2.562 l 1.89,2.1709 v -10.1026 l -1.428,-1.2649 v -1.9316 l 1.428,1.47 v -2.4273 l -1.932,-2 h -19.068 z"
   fill="#ffffff"
   stroke="none"
   id="path190" />
</g><g
   transform="matrix(0.50379042,0,0,0.49658037,1289.3117,14.266164)"
   stroke="#ff0001"
   stroke-width="0.60087"
   opacity="1"
   fill="none"
   id="g192">
<path
   d="m -1130.8827,2571.3676 v 6.171 l 3.423,2.0341 0.714,-1.1623 -2.793,-1.6753 v -2.6495 l 3.78,2 4.41,0.8205 v 4.4615 l 1.701,1.0257 v -6.9231 l -4.788,-0.9744 7.875,-3.8461 v -1.9316 l -8.673,4.188 -3.213,-1.8291 2.163,-2.0513 v -2.7008 h -1.386 v 2.1197 z"
   fill="#ff0001"
   stroke="none"
   id="path191" />

<circle
   cx="-1132.8357"
   cy="2571.1455"
   fill="#ff0001"
   id="ellipse191"
   r="1.638" />
</g><g
   transform="matrix(0.50379042,0,0,0.49658037,1289.3117,14.266164)"
   stroke="#ffffff"
   stroke-width="0.60087"
   opacity="1"
   fill="none"
   id="g193">
<path
   d="m -1116.6868,2555.0559 10e-5,-11.831 h -11.8311 l -4.9689,4.969 8.4397,0.079 -8.2268,8.2268 3.3127,3.3127 8.2268,-8.2269 0.079,8.4398 z"
   fill="#ffffff"
   stroke="none"
   id="path192" />
</g><g
   transform="matrix(0.50379042,0,0,0.49658037,234.63762,1844.0733)"
   stroke="#000000"
   stroke-width="0.60087"
   opacity="1"
   fill="none"
   id="g194">
<text
   y="-20"
   font-size="100px"
   stroke="none"
   fill="#8800cc"
   text-anchor="middle"
   id="text193">Dining</text>

<text
   y="-120"
   font-size="100px"
   stroke="none"
   fill="#8800cc"
   text-anchor="middle"
   id="text194">Reserved</text>
</g><g
   transform="matrix(0,0.49658037,-0.50379042,0,494.01993,1478.778)"
   stroke="#000000"
   stroke-width="0.60087"
   opacity="1"
   fill="none"
   id="g195">
<text
   y="-20"
   font-size="100px"
   stroke="none"
   fill="#8800cc"
   text-anchor="middle"
   id="text195">Kitchen</text>
</g><g
   transform="matrix(0,-0.49658037,0.50379042,0,267.5788,1394.2242)"
   stroke="#000000"
   stroke-width="0.60087"
   opacity="1"
   fill="none"
   id="g196">
<text
   y="-20"
   font-size="100px"
   stroke="none"
   fill="#8800cc"
   text-anchor="middle"
   id="text196">Dining area</text>
</g><g
   transform="matrix(0,-0.49658037,0.50379042,0,107.50062,201.28317)"
   stroke="#000000"
   stroke-width="0.60087"
   opacity="1"
   fill="none"
   id="g197">
<text
   y="-20"
   font-size="100px"
   stroke="none"
   fill="#8800cc"
   text-anchor="middle"
   id="text197">Dining area</text>
</g><g
   transform="matrix(0,-0.49658037,0.50379042,0,455.8823,884.7859)"
   stroke="#000000"
   stroke-width="0.60087"
   opacity="1"
   fill="none"
   id="g198">
<text
   y="-60"
   font-size="300px"
   stroke="none"
   fill="#8800cc"
   text-anchor="middle"
   id="text198">Cafeteria</text>
</g><g
   transform="matrix(0,0.49658037,-0.50379042,0,488.39314,993.0799)"
   stroke="#000000"
   stroke-width="0.60087"
   opacity="1"
   fill="none"
   id="g199">
<text
   y="-15"
   font-size="77px"
   stroke="none"
   fill="#8800cc"
   text-anchor="middle"
   id="text199">Snacks &amp; Beverages</text>
</g><g
   transform="matrix(0.50379042,0,0,0.49658037,839.55066,157.0396)"
   stroke="#000000"
   stroke-width="0.60087"
   opacity="1"
   fill="none"
   id="g200">
<text
   y="-20"
   font-size="100px"
   stroke="none"
   fill="#8800cc"
   text-anchor="middle"
   id="text200">Handwash</text>
</g><g
   transform="matrix(0.50379042,0,0,0.49658037,823.86471,455.9918)"
   stroke="#000000"
   stroke-width="0.60087"
   opacity="1"
   fill="none"
   id="g201">
<text
   y="-20"
   font-size="100px"
   stroke="none"
   fill="#8800cc"
   text-anchor="middle"
   id="text201">Male facility</text>
</g><g
   transform="matrix(0.50379042,0,0,0.49658037,881.8006,619.24395)"
   stroke="#000000"
   stroke-width="0.60087"
   opacity="1"
   fill="none"
   id="g202">
<text
   y="-11"
   font-size="56px"
   stroke="none"
   fill="#8800cc"
   text-anchor="middle"
   id="text202">Female facility</text>
</g><g
   transform="matrix(0.50379042,0,0,0.49658037,845.06116,709.12635)"
   stroke="#000000"
   stroke-width="0.60087"
   opacity="1"
   fill="none"
   id="g203">
<text
   y="-11"
   font-size="56px"
   stroke="none"
   fill="#8800cc"
   text-anchor="middle"
   id="text203">Way to stairs</text>
</g><g
   transform="matrix(0.50379042,0,0,0.49658037,728.3809,953.46736)"
   stroke="#000000"
   stroke-width="0.60087"
   opacity="1"
   fill="none"
   id="g204">
<text
   y="-11"
   font-size="56px"
   stroke="none"
   fill="#8800cc"
   text-anchor="middle"
   id="text204">Lift 1</text>
</g><g
   transform="matrix(0.50379042,0,0,0.49658037,728.3809,1064.8363)"
   stroke="#000000"
   stroke-width="0.60087"
   opacity="1"
   fill="none"
   id="g205">
<text
   y="-11"
   font-size="56px"
   stroke="none"
   fill="#8800cc"
   text-anchor="middle"
   id="text205">Lift 2</text>
</g><g
   transform="matrix(0,0.49658037,-0.50379042,0,696.76104,1291.8087)"
   stroke="#000000"
   stroke-width="0.60087"
   opacity="1"
   fill="none"
   id="g206">
<text
   y="-4"
   font-size="21px"
   stroke="none"
   fill="#8800cc"
   text-anchor="middle"
   id="text206">Fire Exit</text>
</g><g
   transform="matrix(0,0.49658037,-0.50379042,0,657.73066,1208.3414)"
   stroke="#000000"
   stroke-width="0.60087"
   opacity="1"
   fill="none"
   id="g207">
<text
   y="-3"
   font-size="15px"
   stroke="none"
   fill="#8800cc"
   text-anchor="middle"
   id="text207">Fire hose door</text>
</g><g
   transform="matrix(0,-0.49658037,0.50379042,0,472.99948,201.28317)"
   stroke="#000000"
   stroke-width="0.60087"
   opacity="1"
   fill="none"
   id="g208">
<text
   y="-20"
   font-size="100px"
   stroke="none"
   fill="#8800cc"
   text-anchor="middle"
   id="text208">Dining area</text>
</g><g
   transform="matrix(0.50379042,0,0,0.49658037,1289.3117,14.266164)"
   stroke="#006600"
   stroke-width="1.8026"
   opacity="1"
   fill="none"
   id="g209">
<line
   x1="-2563.0105"
   y1="-42.166698"
   x2="-572.55469"
   y2="-42.166698"
   id="line208" />
</g><g
   transform="matrix(0.50379042,0,0,0.49658037,1289.3117,14.266164)"
   stroke="#ffffff"
   stroke-width="0.60087"
   opacity="1"
   fill="none"
   id="g210">
<line
   x1="-2563.0105"
   y1="-42.166698"
   x2="-572.55469"
   y2="-42.166698"
   id="line209" />
</g><g
   transform="matrix(0.50379042,0,0,0.49658037,1289.3117,14.266164)"
   stroke="#006600"
   stroke-width="1.8026"
   opacity="1"
   fill="none"
   id="g211">
<line
   x1="-2560.5105"
   y1="-32.166698"
   x2="-2560.5105"
   y2="-44.666698"
   id="line210" />
</g><g
   transform="matrix(0.50379042,0,0,0.49658037,1289.3117,14.266164)"
   stroke="#ffffff"
   stroke-width="0.60087"
   opacity="1"
   fill="none"
   id="g212">
<line
   x1="-2560.5105"
   y1="-32.166698"
   x2="-2560.5105"
   y2="-44.666698"
   id="line211" />
</g><g
   transform="matrix(0.50379042,0,0,0.49658037,1289.3117,14.266164)"
   stroke="#006600"
   stroke-width="1.8026"
   opacity="1"
   fill="none"
   id="g213">
<line
   x1="-2561.7605"
   y1="-43.416698"
   x2="-2559.2605"
   y2="-40.916698"
   id="line212" />
</g><g
   transform="matrix(0.50379042,0,0,0.49658037,1289.3117,14.266164)"
   stroke="#ffffff"
   stroke-width="0.60087"
   opacity="1"
   fill="none"
   id="g214">
<line
   x1="-2561.7605"
   y1="-43.416698"
   x2="-2559.2605"
   y2="-40.916698"
   id="line213" />
</g><g
   transform="matrix(0.50379042,0,0,0.49658037,1289.3117,14.266164)"
   stroke="#006600"
   stroke-width="1.8026"
   opacity="1"
   fill="none"
   id="g215">
<line
   x1="-2545.2312"
   y1="-32.166698"
   x2="-2545.2312"
   y2="-44.666698"
   id="line214" />
</g><g
   transform="matrix(0.50379042,0,0,0.49658037,1289.3117,14.266164)"
   stroke="#ffffff"
   stroke-width="0.60087"
   opacity="1"
   fill="none"
   id="g216">
<line
   x1="-2545.2312"
   y1="-32.166698"
   x2="-2545.2312"
   y2="-44.666698"
   id="line215" />
</g><g
   transform="matrix(0.50379042,0,0,0.49658037,1289.3117,14.266164)"
   stroke="#006600"
   stroke-width="1.8026"
   opacity="1"
   fill="none"
   id="g217">
<line
   x1="-2546.4812"
   y1="-43.416698"
   x2="-2543.9812"
   y2="-40.916698"
   id="line216" />
</g><g
   transform="matrix(0.50379042,0,0,0.49658037,1289.3117,14.266164)"
   stroke="#ffffff"
   stroke-width="0.60087"
   opacity="1"
   fill="none"
   id="g218">
<line
   x1="-2546.4812"
   y1="-43.416698"
   x2="-2543.9812"
   y2="-40.916698"
   id="line217" />
</g><g
   transform="matrix(0.50379042,0,0,0.49658037,3.1997158,-7.2937199)"
   stroke="#ffffff"
   stroke-width="0.60087"
   opacity="1"
   fill="none"
   id="g219">
<text
   y="-1"
   font-size="5px"
   stroke="#000000"
   stroke-width="0.30043"
   fill="#ffffff"
   text-anchor="middle"
   id="text218">0.2</text>
</g><g
   transform="matrix(0.50379042,0,0,0.49658037,1289.3117,14.266164)"
   stroke="#006600"
   stroke-width="1.8026"
   opacity="1"
   fill="none"
   id="g220">
<line
   x1="-590.29474"
   y1="-32.166698"
   x2="-590.29474"
   y2="-44.666698"
   id="line219" />
</g><g
   transform="matrix(0.50379042,0,0,0.49658037,1289.3117,14.266164)"
   stroke="#ffffff"
   stroke-width="0.60087"
   opacity="1"
   fill="none"
   id="g221">
<line
   x1="-590.29474"
   y1="-32.166698"
   x2="-590.29474"
   y2="-44.666698"
   id="line220" />
</g><g
   transform="matrix(0.50379042,0,0,0.49658037,1289.3117,14.266164)"
   stroke="#006600"
   stroke-width="1.8026"
   opacity="1"
   fill="none"
   id="g222">
<line
   x1="-591.54474"
   y1="-43.416698"
   x2="-589.04474"
   y2="-40.916698"
   id="line221" />
</g><g
   transform="matrix(0.50379042,0,0,0.49658037,1289.3117,14.266164)"
   stroke="#ffffff"
   stroke-width="0.60087"
   opacity="1"
   fill="none"
   id="g223">
<line
   x1="-591.54474"
   y1="-43.416698"
   x2="-589.04474"
   y2="-40.916698"
   id="line222" />
</g><g
   transform="matrix(0.50379042,0,0,0.49658037,499.48773,-7.2937199)"
   stroke="#ffffff"
   stroke-width="0.60087"
   opacity="1"
   fill="none"
   id="g224">
<text
   y="-1"
   font-size="5px"
   stroke="#000000"
   stroke-width="0.30043"
   fill="#ffffff"
   text-anchor="middle"
   id="text223">19.5</text>
</g><g
   transform="matrix(0.50379042,0,0,0.49658037,1289.3117,14.266164)"
   stroke="#006600"
   stroke-width="1.8026"
   opacity="1"
   fill="none"
   id="g225">
<line
   x1="-575.05469"
   y1="-32.166698"
   x2="-575.05469"
   y2="-44.666698"
   id="line224" />
</g><g
   transform="matrix(0.50379042,0,0,0.49658037,1289.3117,14.266164)"
   stroke="#ffffff"
   stroke-width="0.60087"
   opacity="1"
   fill="none"
   id="g226">
<line
   x1="-575.05469"
   y1="-32.166698"
   x2="-575.05469"
   y2="-44.666698"
   id="line225" />
</g><g
   transform="matrix(0.50379042,0,0,0.49658037,1289.3117,14.266164)"
   stroke="#006600"
   stroke-width="1.8026"
   opacity="1"
   fill="none"
   id="g227">
<line
   x1="-576.30469"
   y1="-43.416698"
   x2="-573.80469"
   y2="-40.916698"
   id="line226" />
</g><g
   transform="matrix(0.50379042,0,0,0.49658037,1289.3117,14.266164)"
   stroke="#ffffff"
   stroke-width="0.60087"
   opacity="1"
   fill="none"
   id="g228">
<line
   x1="-576.30469"
   y1="-43.416698"
   x2="-573.80469"
   y2="-40.916698"
   id="line227" />
</g><g
   transform="matrix(0.50379042,0,0,0.49658037,995.7658,-7.2937199)"
   stroke="#ffffff"
   stroke-width="0.60087"
   opacity="1"
   fill="none"
   id="g229">
<text
   y="-1"
   font-size="5px"
   stroke="#000000"
   stroke-width="0.30043"
   fill="#ffffff"
   text-anchor="middle"
   id="text228">0.2</text>
</g><g
   transform="matrix(0.50379042,0,0,0.49658037,1289.3117,14.266164)"
   stroke="#006600"
   stroke-width="1.8026"
   opacity="1"
   fill="none"
   id="g230">
<line
   x1="-2563.0105"
   y1="4013.0168"
   x2="-572.55469"
   y2="4013.0168"
   id="line229" />
</g><g
   transform="matrix(0.50379042,0,0,0.49658037,1289.3117,14.266164)"
   stroke="#ffffff"
   stroke-width="0.60087"
   opacity="1"
   fill="none"
   id="g231">
<line
   x1="-2563.0105"
   y1="4013.0168"
   x2="-572.55469"
   y2="4013.0168"
   id="line230" />
</g><g
   transform="matrix(0.50379042,0,0,0.49658037,1289.3117,14.266164)"
   stroke="#006600"
   stroke-width="1.8026"
   opacity="1"
   fill="none"
   id="g232">
<line
   x1="-2560.5105"
   y1="4003.0168"
   x2="-2560.5105"
   y2="4015.5168"
   id="line231" />
</g><g
   transform="matrix(0.50379042,0,0,0.49658037,1289.3117,14.266164)"
   stroke="#ffffff"
   stroke-width="0.60087"
   opacity="1"
   fill="none"
   id="g233">
<line
   x1="-2560.5105"
   y1="4003.0168"
   x2="-2560.5105"
   y2="4015.5168"
   id="line232" />
</g><g
   transform="matrix(0.50379042,0,0,0.49658037,1289.3117,14.266164)"
   stroke="#006600"
   stroke-width="1.8026"
   opacity="1"
   fill="none"
   id="g234">
<line
   x1="-2561.7605"
   y1="4011.7668"
   x2="-2559.2605"
   y2="4014.2668"
   id="line233" />
</g><g
   transform="matrix(0.50379042,0,0,0.49658037,1289.3117,14.266164)"
   stroke="#ffffff"
   stroke-width="0.60087"
   opacity="1"
   fill="none"
   id="g235">
<line
   x1="-2561.7605"
   y1="4011.7668"
   x2="-2559.2605"
   y2="4014.2668"
   id="line234" />
</g><g
   transform="matrix(0.50379042,0,0,0.49658037,1289.3117,14.266164)"
   stroke="#006600"
   stroke-width="1.8026"
   opacity="1"
   fill="none"
   id="g236">
<line
   x1="-2545.2312"
   y1="4003.0168"
   x2="-2545.2312"
   y2="4015.5168"
   id="line235" />
</g><g
   transform="matrix(0.50379042,0,0,0.49658037,1289.3117,14.266164)"
   stroke="#ffffff"
   stroke-width="0.60087"
   opacity="1"
   fill="none"
   id="g237">
<line
   x1="-2545.2312"
   y1="4003.0168"
   x2="-2545.2312"
   y2="4015.5168"
   id="line236" />
</g><g
   transform="matrix(0.50379042,0,0,0.49658037,1289.3117,14.266164)"
   stroke="#006600"
   stroke-width="1.8026"
   opacity="1"
   fill="none"
   id="g238">
<line
   x1="-2546.4812"
   y1="4011.7668"
   x2="-2543.9812"
   y2="4014.2668"
   id="line237" />
</g><g
   transform="matrix(0.50379042,0,0,0.49658037,1289.3117,14.266164)"
   stroke="#ffffff"
   stroke-width="0.60087"
   opacity="1"
   fill="none"
   id="g239">
<line
   x1="-2546.4812"
   y1="4011.7668"
   x2="-2543.9812"
   y2="4014.2668"
   id="line238" />
</g><g
   transform="matrix(0.50379042,0,0,0.49658037,3.1997158,2006.4308)"
   stroke="#ffffff"
   stroke-width="0.60087"
   opacity="1"
   fill="none"
   id="g240">
<text
   y="-1"
   font-size="5px"
   stroke="#000000"
   stroke-width="0.30043"
   fill="#ffffff"
   text-anchor="middle"
   id="text239">0.2</text>
</g><g
   transform="matrix(0.50379042,0,0,0.49658037,1289.3117,14.266164)"
   stroke="#006600"
   stroke-width="1.8026"
   opacity="1"
   fill="none"
   id="g241">
<line
   x1="-590.29474"
   y1="4003.0168"
   x2="-590.29474"
   y2="4015.5168"
   id="line240" />
</g><g
   transform="matrix(0.50379042,0,0,0.49658037,1289.3117,14.266164)"
   stroke="#ffffff"
   stroke-width="0.60087"
   opacity="1"
   fill="none"
   id="g242">
<line
   x1="-590.29474"
   y1="4003.0168"
   x2="-590.29474"
   y2="4015.5168"
   id="line241" />
</g><g
   transform="matrix(0.50379042,0,0,0.49658037,1289.3117,14.266164)"
   stroke="#006600"
   stroke-width="1.8026"
   opacity="1"
   fill="none"
   id="g243">
<line
   x1="-591.54474"
   y1="4011.7668"
   x2="-589.04474"
   y2="4014.2668"
   id="line242" />
</g><g
   transform="matrix(0.50379042,0,0,0.49658037,1289.3117,14.266164)"
   stroke="#ffffff"
   stroke-width="0.60087"
   opacity="1"
   fill="none"
   id="g244">
<line
   x1="-591.54474"
   y1="4011.7668"
   x2="-589.04474"
   y2="4014.2668"
   id="line243" />
</g><g
   transform="matrix(0.50379042,0,0,0.49658037,499.48773,2006.4308)"
   stroke="#ffffff"
   stroke-width="0.60087"
   opacity="1"
   fill="none"
   id="g245">
<text
   y="-1"
   font-size="5px"
   stroke="#000000"
   stroke-width="0.30043"
   fill="#ffffff"
   text-anchor="middle"
   id="text244">19.5</text>
</g><g
   transform="matrix(0.50379042,0,0,0.49658037,1289.3117,14.266164)"
   stroke="#006600"
   stroke-width="1.8026"
   opacity="1"
   fill="none"
   id="g246">
<line
   x1="-575.05469"
   y1="4003.0168"
   x2="-575.05469"
   y2="4015.5168"
   id="line245" />
</g><g
   transform="matrix(0.50379042,0,0,0.49658037,1289.3117,14.266164)"
   stroke="#ffffff"
   stroke-width="0.60087"
   opacity="1"
   fill="none"
   id="g247">
<line
   x1="-575.05469"
   y1="4003.0168"
   x2="-575.05469"
   y2="4015.5168"
   id="line246" />
</g><g
   transform="matrix(0.50379042,0,0,0.49658037,1289.3117,14.266164)"
   stroke="#006600"
   stroke-width="1.8026"
   opacity="1"
   fill="none"
   id="g248">
<line
   x1="-576.30469"
   y1="4011.7668"
   x2="-573.80469"
   y2="4014.2668"
   id="line247" />
</g><g
   transform="matrix(0.50379042,0,0,0.49658037,1289.3117,14.266164)"
   stroke="#ffffff"
   stroke-width="0.60087"
   opacity="1"
   fill="none"
   id="g249">
<line
   x1="-576.30469"
   y1="4011.7668"
   x2="-573.80469"
   y2="4014.2668"
   id="line248" />
</g><g
   transform="matrix(0.50379042,0,0,0.49658037,995.7658,2006.4308)"
   stroke="#ffffff"
   stroke-width="0.60087"
   opacity="1"
   fill="none"
   id="g250">
<text
   y="-1"
   font-size="5px"
   stroke="#000000"
   stroke-width="0.30043"
   fill="#ffffff"
   text-anchor="middle"
   id="text249">0.2</text>
</g><g
   transform="matrix(0.50379042,0,0,0.49658037,1289.3117,14.266164)"
   stroke="#006600"
   stroke-width="1.8026"
   opacity="1"
   fill="none"
   id="g251">
<line
   x1="-2575.0105"
   y1="-30.1667"
   x2="-2575.0105"
   y2="4001.0168"
   id="line250" />
</g><g
   transform="matrix(0.50379042,0,0,0.49658037,1289.3117,14.266164)"
   stroke="#ffffff"
   stroke-width="0.60087"
   opacity="1"
   fill="none"
   id="g252">
<line
   x1="-2575.0105"
   y1="-30.1667"
   x2="-2575.0105"
   y2="4001.0168"
   id="line251" />
</g><g
   transform="matrix(0.50379042,0,0,0.49658037,1289.3117,14.266164)"
   stroke="#006600"
   stroke-width="1.8026"
   opacity="1"
   fill="none"
   id="g253">
<line
   x1="-2565.0105"
   y1="-27.6667"
   x2="-2577.5105"
   y2="-27.6667"
   id="line252" />
</g><g
   transform="matrix(0.50379042,0,0,0.49658037,1289.3117,14.266164)"
   stroke="#ffffff"
   stroke-width="0.60087"
   opacity="1"
   fill="none"
   id="g254">
<line
   x1="-2565.0105"
   y1="-27.6667"
   x2="-2577.5105"
   y2="-27.6667"
   id="line253" />
</g><g
   transform="matrix(0.50379042,0,0,0.49658037,1289.3117,14.266164)"
   stroke="#006600"
   stroke-width="1.8026"
   opacity="1"
   fill="none"
   id="g255">
<line
   x1="-2573.7605"
   y1="-28.9167"
   x2="-2576.2605"
   y2="-26.4167"
   id="line254" />
</g><g
   transform="matrix(0.50379042,0,0,0.49658037,1289.3117,14.266164)"
   stroke="#ffffff"
   stroke-width="0.60087"
   opacity="1"
   fill="none"
   id="g256">
<line
   x1="-2573.7605"
   y1="-28.9167"
   x2="-2576.2605"
   y2="-26.4167"
   id="line255" />
</g><g
   transform="matrix(0.50379042,0,0,0.49658037,1289.3117,14.266164)"
   stroke="#006600"
   stroke-width="1.8026"
   opacity="1"
   fill="none"
   id="g257">
<line
   x1="-2565.0105"
   y1="-12.42674"
   x2="-2577.5105"
   y2="-12.42674"
   id="line256" />
</g><g
   transform="matrix(0.50379042,0,0,0.49658037,1289.3117,14.266164)"
   stroke="#ffffff"
   stroke-width="0.60087"
   opacity="1"
   fill="none"
   id="g258">
<line
   x1="-2565.0105"
   y1="-12.42674"
   x2="-2577.5105"
   y2="-12.42674"
   id="line257" />
</g><g
   transform="matrix(0.50379042,0,0,0.49658037,1289.3117,14.266164)"
   stroke="#006600"
   stroke-width="1.8026"
   opacity="1"
   fill="none"
   id="g259">
<line
   x1="-2573.7605"
   y1="-13.67674"
   x2="-2576.2605"
   y2="-11.17674"
   id="line258" />
</g><g
   transform="matrix(0.50379042,0,0,0.49658037,1289.3117,14.266164)"
   stroke="#ffffff"
   stroke-width="0.60087"
   opacity="1"
   fill="none"
   id="g260">
<line
   x1="-2573.7605"
   y1="-13.67674"
   x2="-2576.2605"
   y2="-11.17674"
   id="line259" />
</g><g
   transform="matrix(0,-0.49658037,0.50379042,0,-8.5837714,4.311357)"
   stroke="#ffffff"
   stroke-width="0.60087"
   opacity="1"
   fill="none"
   id="g261">
<text
   y="-1"
   font-size="5px"
   stroke="#000000"
   stroke-width="0.30043"
   fill="#ffffff"
   text-anchor="middle"
   id="text260">0.2</text>
</g><g
   transform="matrix(0.50379042,0,0,0.49658037,1289.3117,14.266164)"
   stroke="#006600"
   stroke-width="1.8026"
   opacity="1"
   fill="none"
   id="g262">
<line
   x1="-2565.0105"
   y1="3983.2769"
   x2="-2577.5105"
   y2="3983.2769"
   id="line261" />
</g><g
   transform="matrix(0.50379042,0,0,0.49658037,1289.3117,14.266164)"
   stroke="#ffffff"
   stroke-width="0.60087"
   opacity="1"
   fill="none"
   id="g263">
<line
   x1="-2565.0105"
   y1="3983.2769"
   x2="-2577.5105"
   y2="3983.2769"
   id="line262" />
</g><g
   transform="matrix(0.50379042,0,0,0.49658037,1289.3117,14.266164)"
   stroke="#006600"
   stroke-width="1.8026"
   opacity="1"
   fill="none"
   id="g264">
<line
   x1="-2573.7605"
   y1="3982.0269"
   x2="-2576.2605"
   y2="3984.5269"
   id="line263" />
</g><g
   transform="matrix(0.50379042,0,0,0.49658037,1289.3117,14.266164)"
   stroke="#ffffff"
   stroke-width="0.60087"
   opacity="1"
   fill="none"
   id="g265">
<line
   x1="-2573.7605"
   y1="3982.0269"
   x2="-2576.2605"
   y2="3984.5269"
   id="line264" />
</g><g
   transform="matrix(0,-0.49658037,0.50379042,0,-8.5837714,1000.1893)"
   stroke="#ffffff"
   stroke-width="0.60087"
   opacity="1"
   fill="none"
   id="g266">
<text
   y="-1"
   font-size="5px"
   stroke="#000000"
   stroke-width="0.30043"
   fill="#ffffff"
   text-anchor="middle"
   id="text265">40</text>
</g><g
   transform="matrix(0.50379042,0,0,0.49658037,1289.3117,14.266164)"
   stroke="#006600"
   stroke-width="1.8026"
   opacity="1"
   fill="none"
   id="g267">
<line
   x1="-2565.0105"
   y1="3998.5168"
   x2="-2577.5105"
   y2="3998.5168"
   id="line266" />
</g><g
   transform="matrix(0.50379042,0,0,0.49658037,1289.3117,14.266164)"
   stroke="#ffffff"
   stroke-width="0.60087"
   opacity="1"
   fill="none"
   id="g268">
<line
   x1="-2565.0105"
   y1="3998.5168"
   x2="-2577.5105"
   y2="3998.5168"
   id="line267" />
</g><g
   transform="matrix(0.50379042,0,0,0.49658037,1289.3117,14.266164)"
   stroke="#006600"
   stroke-width="1.8026"
   opacity="1"
   fill="none"
   id="g269">
<line
   x1="-2573.7605"
   y1="3997.2668"
   x2="-2576.2605"
   y2="3999.7668"
   id="line268" />
</g><g
   transform="matrix(0.50379042,0,0,0.49658037,1289.3117,14.266164)"
   stroke="#ffffff"
   stroke-width="0.60087"
   opacity="1"
   fill="none"
   id="g270">
<line
   x1="-2573.7605"
   y1="3997.2668"
   x2="-2576.2605"
   y2="3999.7668"
   id="line269" />
</g><g
   transform="matrix(0,-0.49658037,0.50379042,0,-8.5837714,1996.0673)"
   stroke="#ffffff"
   stroke-width="0.60087"
   opacity="1"
   fill="none"
   id="g271">
<text
   y="-1"
   font-size="5px"
   stroke="#000000"
   stroke-width="0.30043"
   fill="#ffffff"
   text-anchor="middle"
   id="text270">0.2</text>
</g><g
   transform="matrix(0.50379042,0,0,0.49658037,1289.3117,14.266164)"
   stroke="#006600"
   stroke-width="1.8026"
   opacity="1"
   fill="none"
   id="g272">
<line
   x1="-560.55469"
   y1="-30.1667"
   x2="-560.55469"
   y2="4001.0168"
   id="line271" />
</g><g
   transform="matrix(0.50379042,0,0,0.49658037,1289.3117,14.266164)"
   stroke="#ffffff"
   stroke-width="0.60087"
   opacity="1"
   fill="none"
   id="g273">
<line
   x1="-560.55469"
   y1="-30.1667"
   x2="-560.55469"
   y2="4001.0168"
   id="line272" />
</g><g
   transform="matrix(0.50379042,0,0,0.49658037,1289.3117,14.266164)"
   stroke="#006600"
   stroke-width="1.8026"
   opacity="1"
   fill="none"
   id="g274">
<line
   x1="-570.55469"
   y1="-27.6667"
   x2="-558.05469"
   y2="-27.6667"
   id="line273" />
</g><g
   transform="matrix(0.50379042,0,0,0.49658037,1289.3117,14.266164)"
   stroke="#ffffff"
   stroke-width="0.60087"
   opacity="1"
   fill="none"
   id="g275">
<line
   x1="-570.55469"
   y1="-27.6667"
   x2="-558.05469"
   y2="-27.6667"
   id="line274" />
</g><g
   transform="matrix(0.50379042,0,0,0.49658037,1289.3117,14.266164)"
   stroke="#006600"
   stroke-width="1.8026"
   opacity="1"
   fill="none"
   id="g276">
<line
   x1="-559.30469"
   y1="-28.9167"
   x2="-561.80469"
   y2="-26.4167"
   id="line275" />
</g><g
   transform="matrix(0.50379042,0,0,0.49658037,1289.3117,14.266164)"
   stroke="#ffffff"
   stroke-width="0.60087"
   opacity="1"
   fill="none"
   id="g277">
<line
   x1="-559.30469"
   y1="-28.9167"
   x2="-561.80469"
   y2="-26.4167"
   id="line276" />
</g><g
   transform="matrix(0.50379042,0,0,0.49658037,1289.3117,14.266164)"
   stroke="#006600"
   stroke-width="1.8026"
   opacity="1"
   fill="none"
   id="g278">
<line
   x1="-570.55469"
   y1="-12.42674"
   x2="-558.05469"
   y2="-12.42674"
   id="line277" />
</g><g
   transform="matrix(0.50379042,0,0,0.49658037,1289.3117,14.266164)"
   stroke="#ffffff"
   stroke-width="0.60087"
   opacity="1"
   fill="none"
   id="g279">
<line
   x1="-570.55469"
   y1="-12.42674"
   x2="-558.05469"
   y2="-12.42674"
   id="line278" />
</g><g
   transform="matrix(0.50379042,0,0,0.49658037,1289.3117,14.266164)"
   stroke="#006600"
   stroke-width="1.8026"
   opacity="1"
   fill="none"
   id="g280">
<line
   x1="-559.30469"
   y1="-13.67674"
   x2="-561.80469"
   y2="-11.17674"
   id="line279" />
</g><g
   transform="matrix(0.50379042,0,0,0.49658037,1289.3117,14.266164)"
   stroke="#ffffff"
   stroke-width="0.60087"
   opacity="1"
   fill="none"
   id="g281">
<line
   x1="-559.30469"
   y1="-13.67674"
   x2="-561.80469"
   y2="-11.17674"
   id="line280" />
</g><g
   transform="matrix(0,-0.49658037,0.50379042,0,1006.2797,4.311357)"
   stroke="#ffffff"
   stroke-width="0.60087"
   opacity="1"
   fill="none"
   id="g282">
<text
   y="-1"
   font-size="5px"
   stroke="#000000"
   stroke-width="0.30043"
   fill="#ffffff"
   text-anchor="middle"
   id="text281">0.2</text>
</g><g
   transform="matrix(0.50379042,0,0,0.49658037,1289.3117,14.266164)"
   stroke="#006600"
   stroke-width="1.8026"
   opacity="1"
   fill="none"
   id="g283">
<line
   x1="-570.55469"
   y1="3983.2769"
   x2="-558.05469"
   y2="3983.2769"
   id="line282" />
</g><g
   transform="matrix(0.50379042,0,0,0.49658037,1289.3117,14.266164)"
   stroke="#ffffff"
   stroke-width="0.60087"
   opacity="1"
   fill="none"
   id="g284">
<line
   x1="-570.55469"
   y1="3983.2769"
   x2="-558.05469"
   y2="3983.2769"
   id="line283" />
</g><g
   transform="matrix(0.50379042,0,0,0.49658037,1289.3117,14.266164)"
   stroke="#006600"
   stroke-width="1.8026"
   opacity="1"
   fill="none"
   id="g285">
<line
   x1="-559.30469"
   y1="3982.0269"
   x2="-561.80469"
   y2="3984.5269"
   id="line284" />
</g><g
   transform="matrix(0.50379042,0,0,0.49658037,1289.3117,14.266164)"
   stroke="#ffffff"
   stroke-width="0.60087"
   opacity="1"
   fill="none"
   id="g286">
<line
   x1="-559.30469"
   y1="3982.0269"
   x2="-561.80469"
   y2="3984.5269"
   id="line285" />
</g><g
   transform="matrix(0,-0.49658037,0.50379042,0,1006.2797,1000.1893)"
   stroke="#ffffff"
   stroke-width="0.60087"
   opacity="1"
   fill="none"
   id="g287">
<text
   y="-1"
   font-size="5px"
   stroke="#000000"
   stroke-width="0.30043"
   fill="#ffffff"
   text-anchor="middle"
   id="text286">40</text>
</g><g
   transform="matrix(0.50379042,0,0,0.49658037,1289.3117,14.266164)"
   stroke="#006600"
   stroke-width="1.8026"
   opacity="1"
   fill="none"
   id="g288">
<line
   x1="-570.55469"
   y1="3998.5168"
   x2="-558.05469"
   y2="3998.5168"
   id="line287" />
</g><g
   transform="matrix(0.50379042,0,0,0.49658037,1289.3117,14.266164)"
   stroke="#ffffff"
   stroke-width="0.60087"
   opacity="1"
   fill="none"
   id="g289">
<line
   x1="-570.55469"
   y1="3998.5168"
   x2="-558.05469"
   y2="3998.5168"
   id="line288" />
</g><g
   transform="matrix(0.50379042,0,0,0.49658037,1289.3117,14.266164)"
   stroke="#006600"
   stroke-width="1.8026"
   opacity="1"
   fill="none"
   id="g290">
<line
   x1="-559.30469"
   y1="3997.2668"
   x2="-561.80469"
   y2="3999.7668"
   id="line289" />
</g><g
   transform="matrix(0.50379042,0,0,0.49658037,1289.3117,14.266164)"
   stroke="#ffffff"
   stroke-width="0.60087"
   opacity="1"
   fill="none"
   id="g291">
<line
   x1="-559.30469"
   y1="3997.2668"
   x2="-561.80469"
   y2="3999.7668"
   id="line290" />
</g><g
   transform="matrix(0,-0.49658037,0.50379042,0,1006.2797,1996.0673)"
   stroke="#ffffff"
   stroke-width="0.60087"
   opacity="1"
   fill="none"
   id="g292">
<text
   y="-1"
   font-size="5px"
   stroke="#000000"
   stroke-width="0.30043"
   fill="#ffffff"
   text-anchor="middle"
   id="text291">0.2</text></g></g>
</svg>
