<?xml version="1.0" encoding="UTF-8" standalone="no"?>
<svg
   xml:space="preserve"
   width="1000pt"
   height="2000pt"
   viewBox="0 0 1000 2000"
   version="1.1"
   id="svg303"
   sodipodi:docname="floor-7.svg"
   inkscape:version="1.4.2 (f4327f4, 2025-05-13)"
   xmlns:inkscape="http://www.inkscape.org/namespaces/inkscape"
   xmlns:sodipodi="http://sodipodi.sourceforge.net/DTD/sodipodi-0.dtd"
   xmlns="http://www.w3.org/2000/svg"
   xmlns:svg="http://www.w3.org/2000/svg"><defs
   id="defs303" /><sodipodi:namedview
   id="namedview303"
   pagecolor="#ffffff"
   bordercolor="#000000"
   borderopacity="0.25"
   inkscape:showpageshadow="2"
   inkscape:pageopacity="0.0"
   inkscape:pagecheckerboard="0"
   inkscape:deskcolor="#d1d1d1"
   inkscape:document-units="pt"
   inkscape:zoom="3.0647085"
   inkscape:cx="-73.090149"
   inkscape:cy="32.792678"
   inkscape:window-width="1920"
   inkscape:window-height="974"
   inkscape:window-x="-11"
   inkscape:window-y="-11"
   inkscape:window-maximized="1"
   inkscape:current-layer="g303" />
<g
   font-family="sans-serif"
   font-weight="bold"
   id="g303">
<g
   transform="matrix(0.50431399,0,0,0.49665294,3167.5512,3570.565)"
   stroke="#773dde"
   fill="none"
   id="g1">
<path
   d="m -4298.2576,-3161.5903 h -1981.0815 v -4026.1836 h 1981.0815 z"
   fill="#773dde"
   stroke="none"
   id="path1" />
</g><g
   transform="matrix(0.50431399,0,0,0.49665294,3167.5512,3570.565)"
   stroke="#fff6e8"
   fill="none"
   id="g2">
<path
   d="m -4313.4976,-3176.8303 v -3995.7036 h -1950.6015 v 1314.7936 h -15.24 v 1395.7611 h 15.24 v 1285.1489 z"
   fill="#fff6e8"
   stroke="none"
   id="path2" />
</g><g
   transform="matrix(0.50431399,0,0,0.49665294,3167.5512,3570.565)"
   stroke="#773dde"
   stroke-width="1.8023"
   fill="none"
   id="g45">
<path
   d="m -4951.2892,-6593.0342 h -12.002 v -191.9824 h 12.002 z m 0,-290.001 h -12.002 v -290.001 h 12.002 z"
   fill="#773dde"
   stroke="none"
   id="path3" />

<path
   d="m -4313.4873,-6604.5349 -0.01,12.002 -649.7946,-0.5013 0.01,-12.002 z"
   fill="#773dde"
   stroke="none"
   id="path4" />

<path
   d="m -4313.4966,-5859.4853 h -649.7939 v -50.002 h 649.7939 z"
   fill="#773dde"
   stroke="none"
   id="path5" />

<path
   d="m -4951.2892,-6054.4853 -12.002,6e-4 -0.028,-539.3688 12.002,-6e-4 z"
   fill="#773dde"
   stroke="none"
   id="path6" />

<path
   d="m -4951.2885,-5256.5329 h -12.002 v -80.002 h 12.002 z"
   fill="#773dde"
   stroke="none"
   id="path7" />

<path
   d="m -4663.2885,-5718.5329 h -300.002 v -12.002 h 300.002 z"
   fill="#773dde"
   stroke="none"
   id="path8" />

<path
   d="m -4803.3965,-5909.4853 h -12.002 v -17.0129 h 12.002 z m 0,-114.6233 h -12.002 v -30.3787 h 12.002 z"
   fill="#773dde"
   stroke="none"
   id="path9" />

<path
   d="m -4936.5899,-6042.4853 h -26.7006 v -12.002 h 26.7006 z m 623.2519,0 h -526.966 v -12.002 h 526.966 z"
   fill="#773dde"
   stroke="none"
   id="path10" />

<path
   d="m -4663.2885,-5336.5329 h -300.002 v -12.002 h 300.002 z"
   fill="#773dde"
   stroke="none"
   id="path11" />

<path
   d="m -4951.2885,-4655.5329 h -12.002 v -53.194 h 12.002 z m 0,-153.1938 h -12.002 v -211.8082 h 12.002 z"
   fill="#773dde"
   stroke="none"
   id="path12" />

<path
   d="m -4771.8007,-5730.5329 h -12.002 v -2.7923 h 12.002 z m 0,-126.1621 h -12.002 v -2.7923 h 12.002 z"
   fill="#773dde"
   stroke="none"
   id="path13" />

<path
   d="m -4951.2885,-5348.5329 h -12.002 v -370.002 h 12.002 z"
   fill="#773dde"
   stroke="none"
   id="path14" />

<path
   d="m -4663.2885,-5244.5329 h -300.002 v -12.002 h 300.002 z"
   fill="#773dde"
   stroke="none"
   id="path15" />

<path
   d="m -4663.2885,-5256.5329 h -12.002 v -80.002 h 12.002 z"
   fill="#773dde"
   stroke="none"
   id="path16" />

<path
   d="m -4951.2885,-5124.5329 h -12.002 v -120.002 h 12.002 z"
   fill="#773dde"
   stroke="none"
   id="path17" />

<path
   d="m -4663.2885,-5112.5329 h -300.002 v -12.002 h 300.002 z"
   fill="#773dde"
   stroke="none"
   id="path18" />

<path
   d="m -4663.2885,-5020.5329 h -300.002 v -12.002 h 300.002 z"
   fill="#773dde"
   stroke="none"
   id="path19" />

<path
   d="m -4951.2885,-5032.5329 h -12.002 v -80.002 h 12.002 z"
   fill="#773dde"
   stroke="none"
   id="path20" />

<path
   d="m -4663.2885,-5032.5329 h -12.002 v -80.002 h 12.002 z"
   fill="#773dde"
   stroke="none"
   id="path21" />

<path
   d="m -4863.2885,-4807.2864 h -100.002 v -12.002 h 100.002 z"
   fill="#773dde"
   stroke="none"
   id="path22" />

<path
   d="m -4863.2885,-4707.2864 h -12.002 v -100.002 h 12.002 z"
   fill="#773dde"
   stroke="none"
   id="path23" />

<path
   d="m -4662.4118,-4657.2864 h -300.002 v -50.002 h 300.002 z"
   fill="#773dde"
   stroke="none"
   id="path24" />

<path
   d="m -4663.2885,-4277.2864 h -12.002 v -82.4075 h 12.002 z m 0,-181.3399 h -12.002 v -18.6621 h 12.002 z"
   fill="#773dde"
   stroke="none"
   id="path25" />

<path
   d="m -4663.2885,-4480.1696 h -300.002 v -50.002 h 300.002 z"
   fill="#773dde"
   stroke="none"
   id="path26" />

<path
   d="m -4663.2885,-4265.2864 h -300.002 v -12.002 h 300.002 z"
   fill="#773dde"
   stroke="none"
   id="path27" />

<path
   d="m -4951.2885,-4337.2884 -0.2081,432.3482 -12.002,-0.01 0.2081,-432.3482 z"
   fill="#773dde"
   stroke="none"
   id="path28" />

<path
   d="m -4304.5146,-4465.2864 h -358.7759 v -12.002 h 358.7759 z"
   fill="#773dde"
   stroke="none"
   id="path29" />

<path
   d="m -4313.4966,-4265.2864 h -358.7759 v -12.002 h 358.7759 z"
   fill="#773dde"
   stroke="none"
   id="path30" />

<path
   d="m -4663.2885,-5348.5329 h -12.002 v -370.002 h 12.002 z"
   fill="#773dde"
   stroke="none"
   id="path31" />

<path
   d="m -4662.4118,-4675.5541 -12.002,0.017 -0.8767,-601.8168 12.0019,-0.017 z"
   fill="#773dde"
   stroke="none"
   id="path32" />

<path
   d="m -4304.5146,-3894.946 h -658.984 v -10.002 h 658.984 z"
   fill="#773dde"
   stroke="none"
   id="path33" />

<path
   d="m -6114.9847,-5857.7087 h -149.1154 v -10.002 h 149.1154 z"
   fill="#773dde"
   stroke="none"
   id="path34" />

<path
   d="m -6120.9409,-4461.8919 -7e-4,10.002 -143.6295,-0.011 7e-4,-10.002 z"
   fill="#773dde"
   stroke="none"
   id="path35" />

<path
   d="m -6114.9847,-5867.7107 -5.9569,1415.8208 -10.0019,-0.042 5.9568,-1415.8208 z"
   fill="#773dde"
   stroke="none"
   id="path36" />

<path
   d="m -5486.4248,-4881.9259 h -10.002 v -270.002 h 10.002 z"
   fill="#773dde"
   stroke="none"
   id="path37" />

<path
   d="m -5636.4248,-4881.9259 h -10.002 v -270.002 h 10.002 z"
   fill="#773dde"
   stroke="none"
   id="path38" />

<path
   d="m -5486.4248,-4881.9259 h -160.002 v -10.002 h 160.002 z"
   fill="#773dde"
   stroke="none"
   id="path39" />

<path
   d="m -5486.4248,-5141.9259 h -160.002 v -10.002 h 160.002 z"
   fill="#773dde"
   stroke="none"
   id="path40" />

<path
   d="m -5486.4248,-5481.9259 h -10.002 v -274.2184 h 10.002 z"
   fill="#773dde"
   stroke="none"
   id="path41" />

<path
   d="m -5486.4248,-5481.9259 h -160.002 v -10.002 h 160.002 z"
   fill="#773dde"
   stroke="none"
   id="path42" />

<path
   d="m -5636.4248,-5481.9259 h -10.002 v -265.9175 h 10.002 z"
   fill="#773dde"
   stroke="none"
   id="path43" />

<path
   d="m -5486.8442,-5746.1423 h -159.5826 v -10.002 h 159.5826 z"
   fill="#773dde"
   stroke="none"
   id="path44" />

<path
   d="m -4771.8007,-4530.1696 h -10.002 v -3.748 h 10.002 z m 0,-122.8303 h -10.002 v -4.2885 h 10.002 z"
   fill="#773dde"
   stroke="none"
   id="path45" />
</g><g
   transform="matrix(0.50431399,0,0,0.49665294,3167.5512,3570.565)"
   stroke="#111111"
   stroke-width="1.8023"
   fill="none"
   id="g46">
<path
   d="m -4298.2576,-3161.5903 h -1981.0815 v -1300.3889 h 15.24 v 0.076 l 133.1975,0.01 5.8726,-1395.816 h -139.0711 v -0.032 h -15.239 v -1330.0336 h 1981.0815 z m -1965.8415,-15.24 h 1950.6015 v -718.1157 h -650.001 v -10.002 l 0.2081,-432.3462 12.002,0.01 -0.029,60 h 276.0269 v -82.4055 h 12.002 v 82.4055 h 349.7909 v -187.998 h -349.7909 v 6.6601 h -12.002 v -18.6621 h 361.7929 v -1382.1969 h -458.3031 v 2.7903 h -12.002 v -2.7903 h -179.4878 v -50.002 h 147.892 v -17.0109 h 12.002 v 17.0109 h 489.8989 v -132.998 h -489.8989 v 18.3767 h -12.002 v -18.3767 h -24.9055 v -12.002 h 526.8064 v -538.0456 l -637.8195,-0.4921 0.028,538.5377 h 14.6993 v 12.002 h -26.7006 v -11.9994 h -7e-4 l -0.028,-539.3688 h 0.028 v -191.1631 h 12.002 v 179.9897 l 637.7916,0.492 v -567.999 h -637.7916 v 289.4987 h -12.002 v -289.4987 h -1300.8079 v 1304.8232 h 139.1122 l 2e-4,-0.042 10.002,0.042 v 10.002 h -0.042 l -5.9148,1405.8188 -143.1575,-0.011 z m 1312.6025,-728.1177 h 637.999 v -360.3384 h -637.8256 z m 179.6959,-625.2236 h 108.5122 v 50.002 h -300.002 v -50.002 h 181.4878 v -3.746 h 10.002 z m 109.3427,-177.1168 h 0.046 v 50.002 h -109.3889 v 4.2865 h -10.002 v -4.2865 h -169.4858 v 1.7535 h -12.002 v -53.194 h 12.002 v 1.4385 h 75.998 v -99.998 h -88 v -923.2485 h 179.4878 v -2.7903 h 12.002 v 2.7903 h 108.5122 v 453.2326 z m -12.0021,0 -0.4563,-313.2445 h -276.3721 v 201.2445 h 88 v 112 z m -971.9667,-174.6375 v -270.002 h 160.002 v 270.002 z m 10.002,-260 v 249.998 h 139.998 v -249.998 z m 685.1363,29.393 v 79.998 h 275.998 v -79.998 z m 0,-132 v 119.998 h 276.2206 l -0.1748,-119.998 z m 0,-92 v 79.998 h 275.998 v -79.998 z m 0,-382 v 369.998 h 275.998 v -369.998 z m -695.1383,236.607 v -274.2184 h 160.002 v 274.2184 z m 10.002,-264.2164 v 254.2144 h 139.998 v -254.2144 z"
   id="path46" />
</g><g
   transform="matrix(0.50431399,0,0,0.49665294,3167.5512,3570.565)"
   stroke="#000000"
   stroke-width="0.60077"
   fill="none"
   id="g47">
<path
   d="m -4325.1318,-4569.7824 h -140 v 62.5 h -140.01 v -237.51 h 140 v -62.5 h 140.01 z m -350.1527,-466.2162 h -276.01 v -76.5403 h 276.01 z m 4.2649,-223.5417 h -280.2384 v -76.9986 h 280.2384 z m 328.0117,-169.1433 h -140.01 v -239.3553 h 140.01 z m -159.7527,-64.3453 h -140.01 v -237.51 h 140.01 z"
   id="path47" />
</g><g
   transform="matrix(0.50431399,0,0,0.49665294,3167.5512,3570.565)"
   stroke="#000000"
   stroke-width="0.60077"
   stroke-dasharray="5, 5"
   fill="none"
   id="g100">
<line
   x1="-4465.1367"
   y1="-4532.2876"
   x2="-4605.1367"
   y2="-4532.2876"
   id="line47" />

<line
   x1="-4465.1367"
   y1="-4557.2876"
   x2="-4605.1367"
   y2="-4557.2876"
   id="line48" />

<line
   x1="-4465.1367"
   y1="-4582.2876"
   x2="-4605.1367"
   y2="-4582.2876"
   id="line49" />

<line
   x1="-4465.1367"
   y1="-4607.2876"
   x2="-4605.1367"
   y2="-4607.2876"
   id="line50" />

<line
   x1="-4465.1367"
   y1="-4632.2876"
   x2="-4605.1367"
   y2="-4632.2876"
   id="line51" />

<line
   x1="-4465.1367"
   y1="-4657.2876"
   x2="-4605.1367"
   y2="-4657.2876"
   id="line52" />

<line
   x1="-4465.1367"
   y1="-4682.2876"
   x2="-4605.1367"
   y2="-4682.2876"
   id="line53" />

<line
   x1="-4465.1367"
   y1="-4707.2876"
   x2="-4605.1367"
   y2="-4707.2876"
   id="line54" />

<line
   x1="-4465.1367"
   y1="-4732.2876"
   x2="-4605.1367"
   y2="-4732.2876"
   id="line55" />

<line
   x1="-4535.1367"
   y1="-4744.7876"
   x2="-4535.1367"
   y2="-4507.2876"
   id="line56" />

<line
   x1="-4525.1367"
   y1="-4522.2876"
   x2="-4535.1367"
   y2="-4507.2876"
   id="line57" />

<line
   x1="-4545.1367"
   y1="-4522.2876"
   x2="-4535.1367"
   y2="-4507.2876"
   id="line58" />

<line
   x1="-4343.0127"
   y1="-5453.8423"
   x2="-4483.0127"
   y2="-5453.8423"
   id="line59" />

<line
   x1="-4343.0127"
   y1="-5478.9961"
   x2="-4483.0127"
   y2="-5478.9961"
   id="line60" />

<line
   x1="-4343.0127"
   y1="-5504.1499"
   x2="-4483.0127"
   y2="-5504.1499"
   id="line61" />

<line
   x1="-4343.0127"
   y1="-5529.3037"
   x2="-4483.0127"
   y2="-5529.3037"
   id="line62" />

<line
   x1="-4343.0127"
   y1="-5554.4575"
   x2="-4483.0127"
   y2="-5554.4575"
   id="line63" />

<line
   x1="-4343.0127"
   y1="-5579.6113"
   x2="-4483.0127"
   y2="-5579.6113"
   id="line64" />

<line
   x1="-4343.0127"
   y1="-5604.7651"
   x2="-4483.0127"
   y2="-5604.7651"
   id="line65" />

<line
   x1="-4343.0127"
   y1="-5629.9189"
   x2="-4483.0127"
   y2="-5629.9189"
   id="line66" />

<line
   x1="-4343.0127"
   y1="-5655.0728"
   x2="-4483.0127"
   y2="-5655.0728"
   id="line67" />

<line
   x1="-4413.0127"
   y1="-5668.0337"
   x2="-4413.0127"
   y2="-5428.6885"
   id="line68" />

<line
   x1="-4403.0127"
   y1="-5443.6885"
   x2="-4413.0127"
   y2="-5428.6885"
   id="line69" />

<line
   x1="-4423.0127"
   y1="-5443.6885"
   x2="-4413.0127"
   y2="-5428.6885"
   id="line70" />

<line
   x1="-4642.7656"
   y1="-5705.5337"
   x2="-4502.7656"
   y2="-5705.5337"
   id="line71" />

<line
   x1="-4642.7656"
   y1="-5680.5337"
   x2="-4502.7656"
   y2="-5680.5337"
   id="line72" />

<line
   x1="-4642.7656"
   y1="-5655.5337"
   x2="-4502.7656"
   y2="-5655.5337"
   id="line73" />

<line
   x1="-4642.7656"
   y1="-5630.5337"
   x2="-4502.7656"
   y2="-5630.5337"
   id="line74" />

<line
   x1="-4642.7656"
   y1="-5605.5337"
   x2="-4502.7656"
   y2="-5605.5337"
   id="line75" />

<line
   x1="-4642.7656"
   y1="-5580.5337"
   x2="-4502.7656"
   y2="-5580.5337"
   id="line76" />

<line
   x1="-4642.7656"
   y1="-5555.5337"
   x2="-4502.7656"
   y2="-5555.5337"
   id="line77" />

<line
   x1="-4642.7656"
   y1="-5530.5337"
   x2="-4502.7656"
   y2="-5530.5337"
   id="line78" />

<line
   x1="-4642.7656"
   y1="-5505.5337"
   x2="-4502.7656"
   y2="-5505.5337"
   id="line79" />

<line
   x1="-4572.7656"
   y1="-5493.0337"
   x2="-4572.7656"
   y2="-5730.5337"
   id="line80" />

<line
   x1="-4582.7656"
   y1="-5715.5337"
   x2="-4572.7656"
   y2="-5730.5337"
   id="line81" />

<line
   x1="-4562.7656"
   y1="-5715.5337"
   x2="-4572.7656"
   y2="-5730.5337"
   id="line82" />

<line
   x1="-4465.1367"
   y1="-4782.2876"
   x2="-4325.1367"
   y2="-4782.2876"
   id="line83" />

<line
   x1="-4465.1367"
   y1="-4757.2876"
   x2="-4325.1367"
   y2="-4757.2876"
   id="line84" />

<line
   x1="-4465.1367"
   y1="-4732.2876"
   x2="-4325.1367"
   y2="-4732.2876"
   id="line85" />

<line
   x1="-4465.1367"
   y1="-4707.2876"
   x2="-4325.1367"
   y2="-4707.2876"
   id="line86" />

<line
   x1="-4465.1367"
   y1="-4682.2876"
   x2="-4325.1367"
   y2="-4682.2876"
   id="line87" />

<line
   x1="-4465.1367"
   y1="-4657.2876"
   x2="-4325.1367"
   y2="-4657.2876"
   id="line88" />

<line
   x1="-4465.1367"
   y1="-4632.2876"
   x2="-4325.1367"
   y2="-4632.2876"
   id="line89" />

<line
   x1="-4465.1367"
   y1="-4607.2876"
   x2="-4325.1367"
   y2="-4607.2876"
   id="line90" />

<line
   x1="-4465.1367"
   y1="-4582.2876"
   x2="-4325.1367"
   y2="-4582.2876"
   id="line91" />

<line
   x1="-4395.1367"
   y1="-4569.7876"
   x2="-4395.1367"
   y2="-4807.2876"
   id="line92" />

<line
   x1="-4405.1367"
   y1="-4792.2876"
   x2="-4395.1367"
   y2="-4807.2876"
   id="line93" />

<line
   x1="-4385.1367"
   y1="-4792.2876"
   x2="-4395.1367"
   y2="-4807.2876"
   id="line94" />

<line
   x1="-4951.2896"
   y1="-5074.2686"
   x2="-4675.2896"
   y2="-5074.2686"
   id="line95" />

<line
   x1="-4690.2896"
   y1="-5084.2686"
   x2="-4675.2896"
   y2="-5074.2686"
   id="line96" />

<line
   x1="-4690.2896"
   y1="-5064.2686"
   x2="-4675.2896"
   y2="-5074.2686"
   id="line97" />

<line
   x1="-4951.2529"
   y1="-5298.0396"
   x2="-4671.0244"
   y2="-5298.0396"
   id="line98" />

<line
   x1="-4686.0244"
   y1="-5308.0396"
   x2="-4671.0244"
   y2="-5298.0396"
   id="line99" />

<line
   x1="-4686.0244"
   y1="-5288.0396"
   x2="-4671.0244"
   y2="-5298.0396"
   id="line100" />
</g><g
   transform="matrix(0.50431399,0,0,0.49665294,3167.5512,3570.565)"
   stroke="#8a8889"
   stroke-width="0.60077"
   opacity="1"
   fill="none"
   id="g101">
<path
   d="m -5949.9492,-5159.6579 c 0,-391.0559 -37.8722,-708.0692 -84.5899,-708.0692 -46.7178,0 -84.59,317.0133 -84.59,708.0692 0,391.0558 37.8722,708.0691 84.59,708.0691 46.7177,0 84.5899,-317.0133 84.5899,-708.0691"
   fill="#8a8889"
   stroke="none"
   id="path100" />
</g><g
   transform="matrix(0.50431399,0,0,0.49665294,3167.5512,3570.565)"
   stroke="#000000"
   stroke-width="0.60077"
   opacity="1"
   fill="none"
   id="g102">
<path
   d="m -5949.9492,-5159.6579 c 0,-391.0559 -37.8722,-708.0692 -84.5899,-708.0692 -46.7178,0 -84.59,317.0133 -84.59,708.0692 0,391.0558 37.8722,708.0691 84.59,708.0691 46.7177,0 84.5899,-317.0133 84.5899,-708.0691"
   id="path101" />
</g><g
   transform="matrix(0.50431399,0,0,0.49665294,3167.5512,3570.565)"
   stroke="#ffffff"
   stroke-width="0.60077"
   opacity="1"
   fill="none"
   id="g103">
<path
   d="m -6108.8644,-5141.3931 v -37.3166 h 25 v 37.3166 z"
   fill="#ffffff"
   stroke="none"
   id="path102" />
</g><g
   transform="matrix(0.50431399,0,0,0.49665294,3167.5512,3570.565)"
   stroke="#3d3d3d"
   stroke-width="0.60077"
   opacity="1"
   fill="none"
   id="g104">
<path
   d="m -6099.3644,-5113.4057 v -93.2914 h 6 v 93.2914 z"
   fill="#3d3d3d"
   stroke="none"
   id="path103" />

<path
   d="m -6099.3644,-5123.4057 -3,-3 v -67.2914 l 3,-3"
   fill="#3d3d3d"
   stroke="none"
   id="path104" />
</g><g
   transform="matrix(0.50431399,0,0,0.49665294,3167.5512,3570.565)"
   stroke="#000000"
   stroke-width="0.60077"
   opacity="1"
   fill="none"
   id="g108">
<path
   d="m -6099.3644,-5113.4057 v -93.2914 h 6 v 93.2914 z"
   id="path105" />

<path
   d="m -6099.3644,-5123.4057 -3,-3 v -67.2914 l 3,-3"
   id="path106" />

<path
   d="m -6102.3644,-5141.3931 h -6.5 v -37.3166 h 6.5"
   id="path107" />

<path
   d="m -6093.3644,-5141.3931 h 9.5 v -37.3166 h -9.5"
   id="path108" />
</g><g
   transform="matrix(0.50431399,0,0,0.49665294,3167.5512,3570.565)"
   stroke="#ffffff"
   stroke-width="0.60077"
   opacity="1"
   fill="none"
   id="g109">
<path
   d="m -4951.2895,-5112.5339 v 76.5303 h 276 v -76.5303 z"
   fill="#ffffff"
   stroke="none"
   id="path109" />
</g><g
   transform="matrix(0.50431399,0,0,0.49665294,3167.5512,3570.565)"
   stroke="#000000"
   stroke-width="0.60077"
   opacity="1"
   fill="none"
   id="g114">
<path
   d="m -4951.2895,-5112.5339 v 76.5303 h 276 v -76.5303 z"
   id="path110" />

<path
   d="m -4951.2895,-5108.5339 h 276"
   id="path111" />

<path
   d="m -4951.2895,-5040.0036 h 276"
   id="path112" />

<line
   x1="-4951.2896"
   y1="-5074.2686"
   x2="-4675.2896"
   y2="-5074.2686"
   id="line112" />

<line
   x1="-4690.2896"
   y1="-5084.2686"
   x2="-4675.2896"
   y2="-5074.2686"
   id="line113" />

<line
   x1="-4690.2896"
   y1="-5064.2686"
   x2="-4675.2896"
   y2="-5074.2686"
   id="line114" />
</g><g
   transform="matrix(0.50431399,0,0,0.49665294,3167.5512,3570.565)"
   stroke="#ffffff"
   stroke-width="0.60077"
   opacity="1"
   fill="none"
   id="g115">
<path
   d="m -4951.253,-5336.5339 v 76.9886 h 280.2284 v -76.9886 z"
   fill="#ffffff"
   stroke="none"
   id="path114" />
</g><g
   transform="matrix(0.50431399,0,0,0.49665294,3167.5512,3570.565)"
   stroke="#000000"
   stroke-width="0.60077"
   opacity="1"
   fill="none"
   id="g138">
<path
   d="m -4951.253,-5336.5339 v 76.9886 h 280.2284 v -76.9886 z"
   id="path115" />

<path
   d="m -4951.253,-5332.5339 h 280.2284"
   id="path116" />

<path
   d="m -4951.253,-5263.5453 h 280.2284"
   id="path117" />

<line
   x1="-4951.2529"
   y1="-5298.0396"
   x2="-4671.0244"
   y2="-5298.0396"
   id="line117" />

<line
   x1="-4686.0244"
   y1="-5308.0396"
   x2="-4671.0244"
   y2="-5298.0396"
   id="line118" />

<line
   x1="-4686.0244"
   y1="-5288.0396"
   x2="-4671.0244"
   y2="-5298.0396"
   id="line119" />

<path
   d="m -4952.2902,-6883.0352 v 98.0186"
   id="path119" />

<path
   d="m -4962.2902,-6785.0166 v -5 h 10"
   id="path120" />

<path
   d="m -4962.2902,-6883.0352 v 5 h 10 88.0186 c 0,48.6113 -39.4073,88.0186 -88.0186,88.0186"
   id="path121" />

<line
   x1="-4952.29"
   y1="-6873.0352"
   x2="-4864.4136"
   y2="-6873.0352"
   id="line121" />

<path
   d="m -4804.3975,-5926.4982 v -97.6104"
   id="path122" />

<path
   d="m -4814.3975,-6024.1086 v 5 h 10"
   id="path123" />

<path
   d="m -4814.3975,-5926.4982 v -5 h 10 87.6105 c 0,-48.3859 -39.2246,-87.6104 -87.6105,-87.6104"
   id="path124" />

<line
   x1="-4804.3975"
   y1="-5936.498"
   x2="-4716.9297"
   y2="-5936.498"
   id="line124" />

<path
   d="m -4936.5899,-6053.4863 h 96.2859"
   id="path125" />

<path
   d="m -4840.304,-6043.4863 h -5 v -10"
   id="path126" />

<path
   d="m -4936.5899,-6043.4863 h 5 v -10 -86.2859 c 47.6544,0 86.2859,38.6315 86.2859,86.2859"
   id="path127" />

<line
   x1="-4926.5898"
   y1="-6053.4863"
   x2="-4926.5898"
   y2="-6139.6274"
   id="line127" />

<path
   d="m -4962.2895,-4708.7269 v -5 h 49.9999 c 0,-24.8528 -17.9086,-44.9999 -39.9999,-44.9999 22.0913,0 39.9999,-20.1471 39.9999,-44.9999 h -49.9999 v -5"
   id="path128" />

<line
   x1="-4952.2896"
   y1="-4708.7271"
   x2="-4952.2896"
   y2="-4808.7266"
   id="line128" />

<line
   x1="-4952.2896"
   y1="-4718.7271"
   x2="-4912.6035"
   y2="-4718.7271"
   id="line129" />

<line
   x1="-4952.2896"
   y1="-4798.7266"
   x2="-4912.6035"
   y2="-4798.7266"
   id="line130" />

<path
   d="m -4782.8017,-5733.3252 v -5 h 61.6849 c 0,-31.3062 -23.1401,-56.6849 -51.6849,-56.6849 28.5448,0 51.6849,-25.3787 51.6849,-56.6849 h -61.6849 v -5"
   id="path130" />

<line
   x1="-4772.8018"
   y1="-5733.3252"
   x2="-4772.8018"
   y2="-5856.6948"
   id="line131" />

<line
   x1="-4772.8018"
   y1="-5743.3252"
   x2="-4721.3594"
   y2="-5743.3252"
   id="line132" />

<line
   x1="-4772.8018"
   y1="-5846.6948"
   x2="-4721.3594"
   y2="-5846.6948"
   id="line133" />

<path
   d="m -4664.2895,-4359.6939 v -98.9324"
   id="path133" />

<path
   d="m -4674.2895,-4458.6263 v 5 h 10"
   id="path134" />

<path
   d="m -4674.2895,-4359.6939 v -5 h 10 88.9324 c 0,-49.116 -39.8164,-88.9324 -88.9324,-88.9324"
   id="path135" />

<line
   x1="-4664.2896"
   y1="-4369.6938"
   x2="-4575.4976"
   y2="-4369.6938"
   id="line135" />

<path
   d="m -4781.8017,-4652.9999 v 5 h 59.5411 c 0,30.1222 -22.1803,54.5411 -49.5411,54.5411 27.3608,0 49.5411,24.4189 49.5411,54.5412 h -59.5411 v 5"
   id="path136" />

<line
   x1="-4771.8018"
   y1="-4653"
   x2="-4771.8018"
   y2="-4533.9175"
   id="line136" />

<line
   x1="-4771.8018"
   y1="-4643"
   x2="-4722.5137"
   y2="-4643"
   id="line137" />

<line
   x1="-4771.8018"
   y1="-4543.9175"
   x2="-4722.5137"
   y2="-4543.9175"
   id="line138" />
</g><g
   transform="matrix(0.50431399,0,0,0.49665294,3167.5512,3570.565)"
   stroke="#ffffff"
   stroke-width="0.60077"
   opacity="1"
   fill="none"
   id="g139">
<path
   d="m -4465.1368,-4807.2874 h -140 v 300 h 140 z"
   fill="#ffffff"
   stroke="none"
   id="path138" />
</g><g
   transform="matrix(0.50431399,0,0,0.49665294,3167.5512,3570.565)"
   stroke="#000000"
   stroke-width="0.60077"
   opacity="1"
   fill="none"
   id="g154">
<path
   d="m -4465.1368,-4807.2874 h -140 v 300 h 140 z"
   id="path139" />

<path
   d="m -4469.1368,-4807.2874 v 300"
   id="path140" />

<path
   d="m -4601.1368,-4807.2874 v 300"
   id="path141" />

<line
   x1="-4465.1367"
   y1="-4532.2876"
   x2="-4605.1367"
   y2="-4532.2876"
   id="line141" />

<line
   x1="-4465.1367"
   y1="-4557.2876"
   x2="-4605.1367"
   y2="-4557.2876"
   id="line142" />

<line
   x1="-4465.1367"
   y1="-4582.2876"
   x2="-4605.1367"
   y2="-4582.2876"
   id="line143" />

<line
   x1="-4465.1367"
   y1="-4607.2876"
   x2="-4605.1367"
   y2="-4607.2876"
   id="line144" />

<line
   x1="-4465.1367"
   y1="-4632.2876"
   x2="-4605.1367"
   y2="-4632.2876"
   id="line145" />

<line
   x1="-4465.1367"
   y1="-4657.2876"
   x2="-4605.1367"
   y2="-4657.2876"
   id="line146" />

<line
   x1="-4465.1367"
   y1="-4682.2876"
   x2="-4605.1367"
   y2="-4682.2876"
   id="line147" />

<line
   x1="-4465.1367"
   y1="-4707.2876"
   x2="-4605.1367"
   y2="-4707.2876"
   id="line148" />

<line
   x1="-4465.1367"
   y1="-4732.2876"
   x2="-4605.1367"
   y2="-4732.2876"
   id="line149" />

<line
   x1="-4465.1367"
   y1="-4757.2876"
   x2="-4605.1367"
   y2="-4757.2876"
   id="line150" />

<line
   x1="-4465.1367"
   y1="-4782.2876"
   x2="-4605.1367"
   y2="-4782.2876"
   id="line151" />

<line
   x1="-4535.1367"
   y1="-4807.2876"
   x2="-4535.1367"
   y2="-4507.2876"
   id="line152" />

<line
   x1="-4525.1367"
   y1="-4522.2876"
   x2="-4535.1367"
   y2="-4507.2876"
   id="line153" />

<line
   x1="-4545.1367"
   y1="-4522.2876"
   x2="-4535.1367"
   y2="-4507.2876"
   id="line154" />
</g><g
   transform="matrix(0.50431399,0,0,0.49665294,3167.5512,3570.565)"
   stroke="#ffffff"
   stroke-width="0.60077"
   opacity="1"
   fill="none"
   id="g155">
<path
   d="m -4343.0129,-5730.5339 h -140 v 301.8453 h 140 z"
   fill="#ffffff"
   stroke="none"
   id="path154" />
</g><g
   transform="matrix(0.50431399,0,0,0.49665294,3167.5512,3570.565)"
   stroke="#000000"
   stroke-width="0.60077"
   opacity="1"
   fill="none"
   id="g170">
<path
   d="m -4343.0129,-5730.5339 h -140 v 301.8453 h 140 z"
   id="path155" />

<path
   d="m -4347.0129,-5730.5339 v 301.8453"
   id="path156" />

<path
   d="m -4479.0129,-5730.5339 v 301.8453"
   id="path157" />

<line
   x1="-4343.0127"
   y1="-5453.8423"
   x2="-4483.0127"
   y2="-5453.8423"
   id="line157" />

<line
   x1="-4343.0127"
   y1="-5478.9961"
   x2="-4483.0127"
   y2="-5478.9961"
   id="line158" />

<line
   x1="-4343.0127"
   y1="-5504.1499"
   x2="-4483.0127"
   y2="-5504.1499"
   id="line159" />

<line
   x1="-4343.0127"
   y1="-5529.3037"
   x2="-4483.0127"
   y2="-5529.3037"
   id="line160" />

<line
   x1="-4343.0127"
   y1="-5554.4575"
   x2="-4483.0127"
   y2="-5554.4575"
   id="line161" />

<line
   x1="-4343.0127"
   y1="-5579.6113"
   x2="-4483.0127"
   y2="-5579.6113"
   id="line162" />

<line
   x1="-4343.0127"
   y1="-5604.7651"
   x2="-4483.0127"
   y2="-5604.7651"
   id="line163" />

<line
   x1="-4343.0127"
   y1="-5629.9189"
   x2="-4483.0127"
   y2="-5629.9189"
   id="line164" />

<line
   x1="-4343.0127"
   y1="-5655.0728"
   x2="-4483.0127"
   y2="-5655.0728"
   id="line165" />

<line
   x1="-4343.0127"
   y1="-5680.2266"
   x2="-4483.0127"
   y2="-5680.2266"
   id="line166" />

<line
   x1="-4343.0127"
   y1="-5705.3799"
   x2="-4483.0127"
   y2="-5705.3799"
   id="line167" />

<line
   x1="-4413.0127"
   y1="-5730.5337"
   x2="-4413.0127"
   y2="-5428.6885"
   id="line168" />

<line
   x1="-4403.0127"
   y1="-5443.6885"
   x2="-4413.0127"
   y2="-5428.6885"
   id="line169" />

<line
   x1="-4423.0127"
   y1="-5443.6885"
   x2="-4413.0127"
   y2="-5428.6885"
   id="line170" />
</g><g
   transform="matrix(0.50431399,0,0,0.49665294,3167.5512,3570.565)"
   stroke="#ffffff"
   stroke-width="0.60077"
   opacity="1"
   fill="none"
   id="g171">
<path
   d="m -4642.7656,-5430.5339 h 140 v -300 h -140 z"
   fill="#ffffff"
   stroke="none"
   id="path170" />
</g><g
   transform="matrix(0.50431399,0,0,0.49665294,3167.5512,3570.565)"
   stroke="#000000"
   stroke-width="0.60077"
   opacity="1"
   fill="none"
   id="g186">
<path
   d="m -4642.7656,-5430.5339 h 140 v -300 h -140 z"
   id="path171" />

<path
   d="m -4638.7656,-5430.5339 v -300"
   id="path172" />

<path
   d="m -4506.7656,-5430.5339 v -300"
   id="path173" />

<line
   x1="-4642.7656"
   y1="-5705.5337"
   x2="-4502.7656"
   y2="-5705.5337"
   id="line173" />

<line
   x1="-4642.7656"
   y1="-5680.5337"
   x2="-4502.7656"
   y2="-5680.5337"
   id="line174" />

<line
   x1="-4642.7656"
   y1="-5655.5337"
   x2="-4502.7656"
   y2="-5655.5337"
   id="line175" />

<line
   x1="-4642.7656"
   y1="-5630.5337"
   x2="-4502.7656"
   y2="-5630.5337"
   id="line176" />

<line
   x1="-4642.7656"
   y1="-5605.5337"
   x2="-4502.7656"
   y2="-5605.5337"
   id="line177" />

<line
   x1="-4642.7656"
   y1="-5580.5337"
   x2="-4502.7656"
   y2="-5580.5337"
   id="line178" />

<line
   x1="-4642.7656"
   y1="-5555.5337"
   x2="-4502.7656"
   y2="-5555.5337"
   id="line179" />

<line
   x1="-4642.7656"
   y1="-5530.5337"
   x2="-4502.7656"
   y2="-5530.5337"
   id="line180" />

<line
   x1="-4642.7656"
   y1="-5505.5337"
   x2="-4502.7656"
   y2="-5505.5337"
   id="line181" />

<line
   x1="-4642.7656"
   y1="-5480.5337"
   x2="-4502.7656"
   y2="-5480.5337"
   id="line182" />

<line
   x1="-4642.7656"
   y1="-5455.5337"
   x2="-4502.7656"
   y2="-5455.5337"
   id="line183" />

<line
   x1="-4572.7656"
   y1="-5430.5337"
   x2="-4572.7656"
   y2="-5730.5337"
   id="line184" />

<line
   x1="-4582.7656"
   y1="-5715.5337"
   x2="-4572.7656"
   y2="-5730.5337"
   id="line185" />

<line
   x1="-4562.7656"
   y1="-5715.5337"
   x2="-4572.7656"
   y2="-5730.5337"
   id="line186" />
</g><g
   transform="matrix(0.50431399,0,0,0.49665294,3167.5512,3570.565)"
   stroke="#ffffff"
   stroke-width="0.60077"
   opacity="1"
   fill="none"
   id="g187">
<path
   d="m -4465.1368,-4507.2874 h 140 v -300 h -140 z"
   fill="#ffffff"
   stroke="none"
   id="path186" />
</g><g
   transform="matrix(0.50431399,0,0,0.49665294,3167.5512,3570.565)"
   stroke="#000000"
   stroke-width="0.60077"
   opacity="1"
   fill="none"
   id="g202">
<path
   d="m -4465.1368,-4507.2874 h 140 v -300 h -140 z"
   id="path187" />

<path
   d="m -4461.1368,-4507.2874 v -300"
   id="path188" />

<path
   d="m -4329.1368,-4507.2874 v -300"
   id="path189" />

<line
   x1="-4465.1367"
   y1="-4782.2876"
   x2="-4325.1367"
   y2="-4782.2876"
   id="line189" />

<line
   x1="-4465.1367"
   y1="-4757.2876"
   x2="-4325.1367"
   y2="-4757.2876"
   id="line190" />

<line
   x1="-4465.1367"
   y1="-4732.2876"
   x2="-4325.1367"
   y2="-4732.2876"
   id="line191" />

<line
   x1="-4465.1367"
   y1="-4707.2876"
   x2="-4325.1367"
   y2="-4707.2876"
   id="line192" />

<line
   x1="-4465.1367"
   y1="-4682.2876"
   x2="-4325.1367"
   y2="-4682.2876"
   id="line193" />

<line
   x1="-4465.1367"
   y1="-4657.2876"
   x2="-4325.1367"
   y2="-4657.2876"
   id="line194" />

<line
   x1="-4465.1367"
   y1="-4632.2876"
   x2="-4325.1367"
   y2="-4632.2876"
   id="line195" />

<line
   x1="-4465.1367"
   y1="-4607.2876"
   x2="-4325.1367"
   y2="-4607.2876"
   id="line196" />

<line
   x1="-4465.1367"
   y1="-4582.2876"
   x2="-4325.1367"
   y2="-4582.2876"
   id="line197" />

<line
   x1="-4465.1367"
   y1="-4557.2876"
   x2="-4325.1367"
   y2="-4557.2876"
   id="line198" />

<line
   x1="-4465.1367"
   y1="-4532.2876"
   x2="-4325.1367"
   y2="-4532.2876"
   id="line199" />

<line
   x1="-4395.1367"
   y1="-4507.2876"
   x2="-4395.1367"
   y2="-4807.2876"
   id="line200" />

<line
   x1="-4405.1367"
   y1="-4792.2876"
   x2="-4395.1367"
   y2="-4807.2876"
   id="line201" />

<line
   x1="-4385.1367"
   y1="-4792.2876"
   x2="-4395.1367"
   y2="-4807.2876"
   id="line202" />
</g><g
   transform="matrix(0.50431399,0,0,0.49665294,3167.5512,3570.565)"
   stroke="#ffffff"
   stroke-width="0.60077"
   opacity="1"
   fill="none"
   id="g203">
<path
   d="m -4811.8017,-4563.6951 v -60 h 30 v 60 h -28.5 v -1.5 h 27 v -57 h -27 v 58.5 z"
   fill="#ffffff"
   stroke="none"
   id="path202" />
</g><g
   transform="matrix(0.50431399,0,0,0.49665294,3167.5512,3570.565)"
   stroke="#ff0001"
   stroke-width="0.60077"
   opacity="1"
   fill="none"
   id="g204">
<path
   d="m -4810.3017,-4565.1951 v -57 h 27 v 57 z"
   fill="#ff0001"
   stroke="none"
   id="path203" />
</g><g
   transform="matrix(0.50431399,0,0,0.49665294,3167.5512,3570.565)"
   stroke="#ffffff"
   stroke-width="0.60077"
   opacity="1"
   fill="none"
   id="g205">
<path
   d="m -4807.3017,-4576.6066 h 13.671 v 1.3504 l 2.877,1.6581 v -3.0085 h 2.562 l 1.89,2.1709 v -10.1026 l -1.428,-1.2649 v -1.9316 l 1.428,1.47 v -2.4273 l -1.932,-2 h -19.068 z"
   fill="#ffffff"
   stroke="none"
   id="path204" />
</g><g
   transform="matrix(0.50431399,0,0,0.49665294,3167.5512,3570.565)"
   stroke="#ff0001"
   stroke-width="0.60077"
   opacity="1"
   fill="none"
   id="g206">
<path
   d="m -4802.5977,-4585.6494 v 6.171 l 3.423,2.0341 0.714,-1.1623 -2.793,-1.6753 v -2.6495 l 3.78,2 4.41,0.8205 v 4.4615 l 1.701,1.0257 v -6.9231 l -4.788,-0.9744 7.875,-3.8461 v -1.9316 l -8.673,4.188 -3.213,-1.8291 2.163,-2.0513 v -2.7008 h -1.386 v 2.1197 z"
   fill="#ff0001"
   stroke="none"
   id="path205" />

<circle
   cx="-4804.5508"
   cy="-4585.8716"
   fill="#ff0001"
   id="ellipse205"
   r="1.638" />
</g><g
   transform="matrix(0.50431399,0,0,0.49665294,3167.5512,3570.565)"
   stroke="#ffffff"
   stroke-width="0.60077"
   opacity="1"
   fill="none"
   id="g207">
<path
   d="m -4788.4017,-4601.9611 v -11.831 h -11.831 l -4.969,4.969 8.4398,0.079 -8.2269,8.2268 3.3127,3.3127 8.2268,-8.2269 0.079,8.4398 z"
   fill="#ffffff"
   stroke="none"
   id="path206" />
</g><g
   transform="matrix(0,0.49665294,-0.50431399,0,352.88674,780.07272)"
   stroke="#000000"
   stroke-width="0.60077"
   opacity="1"
   fill="none"
   id="g208">
<text
   y="-6"
   font-size="33px"
   stroke="none"
   fill="#8800cc"
   text-anchor="middle"
   id="text207">Robo Kabaddi</text>
</g><g
   transform="matrix(0,0.49665294,-0.50431399,0,353.89537,1079.3341)"
   stroke="#000000"
   stroke-width="0.60077"
   opacity="1"
   fill="none"
   id="g209">
<text
   y="-5"
   font-size="29px"
   stroke="none"
   fill="#8800cc"
   text-anchor="middle"
   id="text208">ROBO SOCCER</text>
</g><g
   transform="matrix(0,0.49665294,-0.50431399,0,680.06764,1385.3207)"
   stroke="#000000"
   stroke-width="0.60077"
   opacity="1"
   fill="none"
   id="g210">
<text
   y="-4"
   font-size="21px"
   stroke="none"
   fill="#8800cc"
   text-anchor="middle"
   id="text209">Cooler</text>

<text
   y="-25"
   font-size="21px"
   stroke="none"
   fill="#8800cc"
   text-anchor="middle"
   id="text210">Water </text>
</g><g
   transform="matrix(0,0.49665294,-0.50431399,0,660.72567,1207.8924)"
   stroke="#000000"
   stroke-width="0.60077"
   opacity="1"
   fill="none"
   id="g211">
<text
   y="-2"
   font-size="13px"
   stroke="none"
   fill="#8800cc"
   text-anchor="middle"
   id="text211">Fire hose door</text>
</g><g
   transform="matrix(0.50431399,0,0,0.49665294,850.10755,432.8434)"
   stroke="#000000"
   stroke-width="0.60077"
   opacity="1"
   fill="none"
   id="g212">
<text
   y="-6"
   font-size="33px"
   stroke="none"
   fill="#8800cc"
   text-anchor="middle"
   id="text212">Male facility</text>
</g><g
   transform="matrix(0.50431399,0,0,0.49665294,866.45203,610.95635)"
   stroke="#000000"
   stroke-width="0.60077"
   opacity="1"
   fill="none"
   id="g213">
<text
   y="-5"
   font-size="29px"
   stroke="none"
   fill="#8800cc"
   text-anchor="middle"
   id="text213">Female facility</text>
</g><g
   transform="matrix(0.50431399,0,0,0.49665294,706.81943,1304.0339)"
   stroke="#000000"
   stroke-width="0.60077"
   opacity="1"
   fill="none"
   id="g214">
<text
   y="-4"
   font-size="23px"
   stroke="none"
   fill="#8800cc"
   text-anchor="middle"
   id="text214">Fire Exit</text>
</g><g
   transform="matrix(0.50431399,0,0,0.49665294,847.83814,702.99149)"
   stroke="#000000"
   stroke-width="0.60077"
   opacity="1"
   fill="none"
   id="g215">
<text
   y="-6"
   font-size="33px"
   stroke="none"
   fill="#8800cc"
   text-anchor="middle"
   id="text215">Way to stairs</text>
</g><g
   transform="matrix(0.50431399,0,0,0.49665294,919.37322,1401.8029)"
   stroke="#000000"
   stroke-width="0.60077"
   opacity="1"
   fill="none"
   id="g216">
<text
   y="-3"
   font-size="19px"
   stroke="none"
   fill="#8800cc"
   text-anchor="middle"
   id="text216">Accessible washroom</text>
</g><g
   transform="matrix(0.50431399,0,0,0.49665294,739.74443,1067.1408)"
   stroke="#000000"
   stroke-width="0.60077"
   opacity="1"
   fill="none"
   id="g217">
<text
   y="-6"
   font-size="33px"
   stroke="none"
   fill="#8800cc"
   text-anchor="middle"
   id="text217">Lift 2</text>
</g><g
   transform="matrix(0.50431399,0,0,0.49665294,739.74443,946.73154)"
   stroke="#000000"
   stroke-width="0.60077"
   opacity="1"
   fill="none"
   id="g218">
<text
   y="-6"
   font-size="33px"
   stroke="none"
   fill="#8800cc"
   text-anchor="middle"
   id="text218">Lift 1</text>
</g><g
   transform="matrix(0.50431399,0,0,0.49665294,3167.5512,3570.565)"
   stroke="#006600"
   stroke-width="1.8023"
   opacity="1"
   fill="none"
   id="g219">
<line
   x1="-6281.8389"
   y1="-7202.2739"
   x2="-4295.7578"
   y2="-7202.2739"
   id="line218" />
</g><g
   transform="matrix(0.50431399,0,0,0.49665294,3167.5512,3570.565)"
   stroke="#ffffff"
   stroke-width="0.60077"
   opacity="1"
   fill="none"
   id="g220">
<line
   x1="-6281.8389"
   y1="-7202.2739"
   x2="-4295.7578"
   y2="-7202.2739"
   id="line219" />
</g><g
   transform="matrix(0.50431399,0,0,0.49665294,3167.5512,3570.565)"
   stroke="#006600"
   stroke-width="1.8023"
   opacity="1"
   fill="none"
   id="g221">
<line
   x1="-6279.3389"
   y1="-7192.2739"
   x2="-6279.3389"
   y2="-7204.7739"
   id="line220" />
</g><g
   transform="matrix(0.50431399,0,0,0.49665294,3167.5512,3570.565)"
   stroke="#ffffff"
   stroke-width="0.60077"
   opacity="1"
   fill="none"
   id="g222">
<line
   x1="-6279.3389"
   y1="-7192.2739"
   x2="-6279.3389"
   y2="-7204.7739"
   id="line221" />
</g><g
   transform="matrix(0.50431399,0,0,0.49665294,3167.5512,3570.565)"
   stroke="#006600"
   stroke-width="1.8023"
   opacity="1"
   fill="none"
   id="g223">
<line
   x1="-6280.5889"
   y1="-7203.5239"
   x2="-6278.0889"
   y2="-7201.0239"
   id="line222" />
</g><g
   transform="matrix(0.50431399,0,0,0.49665294,3167.5512,3570.565)"
   stroke="#ffffff"
   stroke-width="0.60077"
   opacity="1"
   fill="none"
   id="g224">
<line
   x1="-6280.5889"
   y1="-7203.5239"
   x2="-6278.0889"
   y2="-7201.0239"
   id="line223" />
</g><g
   transform="matrix(0.50431399,0,0,0.49665294,3167.5512,3570.565)"
   stroke="#006600"
   stroke-width="1.8023"
   opacity="1"
   fill="none"
   id="g225">
<line
   x1="-6264.0991"
   y1="-7192.2739"
   x2="-6264.0991"
   y2="-7204.7739"
   id="line224" />
</g><g
   transform="matrix(0.50431399,0,0,0.49665294,3167.5512,3570.565)"
   stroke="#ffffff"
   stroke-width="0.60077"
   opacity="1"
   fill="none"
   id="g226">
<line
   x1="-6264.0991"
   y1="-7192.2739"
   x2="-6264.0991"
   y2="-7204.7739"
   id="line225" />
</g><g
   transform="matrix(0.50431399,0,0,0.49665294,3167.5512,3570.565)"
   stroke="#006600"
   stroke-width="1.8023"
   opacity="1"
   fill="none"
   id="g227">
<line
   x1="-6265.3491"
   y1="-7203.5239"
   x2="-6262.8491"
   y2="-7201.0239"
   id="line226" />
</g><g
   transform="matrix(0.50431399,0,0,0.49665294,3167.5512,3570.565)"
   stroke="#ffffff"
   stroke-width="0.60077"
   opacity="1"
   fill="none"
   id="g228">
<line
   x1="-6265.3491"
   y1="-7203.5239"
   x2="-6262.8491"
   y2="-7201.0239"
   id="line227" />
</g><g
   transform="matrix(0.50431399,0,0,0.49665294,4.635538,-7.0863462)"
   stroke="#ffffff"
   stroke-width="0.60077"
   opacity="1"
   fill="none"
   id="g229">
<text
   y="-1"
   font-size="5px"
   stroke="#000000"
   stroke-width="0.30038"
   fill="#ffffff"
   text-anchor="middle"
   id="text228">0.2</text>
</g><g
   transform="matrix(0.50431399,0,0,0.49665294,3167.5512,3570.565)"
   stroke="#006600"
   stroke-width="1.8023"
   opacity="1"
   fill="none"
   id="g230">
<line
   x1="-4313.4976"
   y1="-7192.2739"
   x2="-4313.4976"
   y2="-7204.7739"
   id="line229" />
</g><g
   transform="matrix(0.50431399,0,0,0.49665294,3167.5512,3570.565)"
   stroke="#ffffff"
   stroke-width="0.60077"
   opacity="1"
   fill="none"
   id="g231">
<line
   x1="-4313.4976"
   y1="-7192.2739"
   x2="-4313.4976"
   y2="-7204.7739"
   id="line230" />
</g><g
   transform="matrix(0.50431399,0,0,0.49665294,3167.5512,3570.565)"
   stroke="#006600"
   stroke-width="1.8023"
   opacity="1"
   fill="none"
   id="g232">
<line
   x1="-4314.7476"
   y1="-7203.5239"
   x2="-4312.2476"
   y2="-7201.0239"
   id="line231" />
</g><g
   transform="matrix(0.50431399,0,0,0.49665294,3167.5512,3570.565)"
   stroke="#ffffff"
   stroke-width="0.60077"
   opacity="1"
   fill="none"
   id="g233">
<line
   x1="-4314.7476"
   y1="-7203.5239"
   x2="-4312.2476"
   y2="-7201.0239"
   id="line232" />
</g><g
   transform="matrix(0.50431399,0,0,0.49665294,500.33624,-7.0863462)"
   stroke="#ffffff"
   stroke-width="0.60077"
   opacity="1"
   fill="none"
   id="g234">
<text
   y="-1"
   font-size="5px"
   stroke="#000000"
   stroke-width="0.30038"
   fill="#ffffff"
   text-anchor="middle"
   id="text233">19.5</text>
</g><g
   transform="matrix(0.50431399,0,0,0.49665294,3167.5512,3570.565)"
   stroke="#006600"
   stroke-width="1.8023"
   opacity="1"
   fill="none"
   id="g235">
<line
   x1="-4298.2578"
   y1="-7192.2739"
   x2="-4298.2578"
   y2="-7204.7739"
   id="line234" />
</g><g
   transform="matrix(0.50431399,0,0,0.49665294,3167.5512,3570.565)"
   stroke="#ffffff"
   stroke-width="0.60077"
   opacity="1"
   fill="none"
   id="g236">
<line
   x1="-4298.2578"
   y1="-7192.2739"
   x2="-4298.2578"
   y2="-7204.7739"
   id="line235" />
</g><g
   transform="matrix(0.50431399,0,0,0.49665294,3167.5512,3570.565)"
   stroke="#006600"
   stroke-width="1.8023"
   opacity="1"
   fill="none"
   id="g237">
<line
   x1="-4299.5078"
   y1="-7203.5239"
   x2="-4297.0078"
   y2="-7201.0239"
   id="line236" />
</g><g
   transform="matrix(0.50431399,0,0,0.49665294,3167.5512,3570.565)"
   stroke="#ffffff"
   stroke-width="0.60077"
   opacity="1"
   fill="none"
   id="g238">
<line
   x1="-4299.5078"
   y1="-7203.5239"
   x2="-4297.0078"
   y2="-7201.0239"
   id="line237" />
</g><g
   transform="matrix(0.50431399,0,0,0.49665294,996.0369,-7.0863462)"
   stroke="#ffffff"
   stroke-width="0.60077"
   opacity="1"
   fill="none"
   id="g239">
<text
   y="-1"
   font-size="5px"
   stroke="#000000"
   stroke-width="0.30038"
   fill="#ffffff"
   text-anchor="middle"
   id="text238">0.2</text>
</g><g
   transform="matrix(0.50431399,0,0,0.49665294,3167.5512,3570.565)"
   stroke="#006600"
   stroke-width="1.8023"
   opacity="1"
   fill="none"
   id="g240">
<line
   x1="-6281.8389"
   y1="-3147.0903"
   x2="-4295.7578"
   y2="-3147.0903"
   id="line239" />
</g><g
   transform="matrix(0.50431399,0,0,0.49665294,3167.5512,3570.565)"
   stroke="#ffffff"
   stroke-width="0.60077"
   opacity="1"
   fill="none"
   id="g241">
<line
   x1="-6281.8389"
   y1="-3147.0903"
   x2="-4295.7578"
   y2="-3147.0903"
   id="line240" />
</g><g
   transform="matrix(0.50431399,0,0,0.49665294,3167.5512,3570.565)"
   stroke="#006600"
   stroke-width="1.8023"
   opacity="1"
   fill="none"
   id="g242">
<line
   x1="-6279.3389"
   y1="-3157.0903"
   x2="-6279.3389"
   y2="-3144.5903"
   id="line241" />
</g><g
   transform="matrix(0.50431399,0,0,0.49665294,3167.5512,3570.565)"
   stroke="#ffffff"
   stroke-width="0.60077"
   opacity="1"
   fill="none"
   id="g243">
<line
   x1="-6279.3389"
   y1="-3157.0903"
   x2="-6279.3389"
   y2="-3144.5903"
   id="line242" />
</g><g
   transform="matrix(0.50431399,0,0,0.49665294,3167.5512,3570.565)"
   stroke="#006600"
   stroke-width="1.8023"
   opacity="1"
   fill="none"
   id="g244">
<line
   x1="-6280.5889"
   y1="-3148.3403"
   x2="-6278.0889"
   y2="-3145.8403"
   id="line243" />
</g><g
   transform="matrix(0.50431399,0,0,0.49665294,3167.5512,3570.565)"
   stroke="#ffffff"
   stroke-width="0.60077"
   opacity="1"
   fill="none"
   id="g245">
<line
   x1="-6280.5889"
   y1="-3148.3403"
   x2="-6278.0889"
   y2="-3145.8403"
   id="line244" />
</g><g
   transform="matrix(0.50431399,0,0,0.49665294,3167.5512,3570.565)"
   stroke="#006600"
   stroke-width="1.8023"
   opacity="1"
   fill="none"
   id="g246">
<line
   x1="-6264.0991"
   y1="-3157.0903"
   x2="-6264.0991"
   y2="-3144.5903"
   id="line245" />
</g><g
   transform="matrix(0.50431399,0,0,0.49665294,3167.5512,3570.565)"
   stroke="#ffffff"
   stroke-width="0.60077"
   opacity="1"
   fill="none"
   id="g247">
<line
   x1="-6264.0991"
   y1="-3157.0903"
   x2="-6264.0991"
   y2="-3144.5903"
   id="line246" />
</g><g
   transform="matrix(0.50431399,0,0,0.49665294,3167.5512,3570.565)"
   stroke="#006600"
   stroke-width="1.8023"
   opacity="1"
   fill="none"
   id="g248">
<line
   x1="-6265.3491"
   y1="-3148.3403"
   x2="-6262.8491"
   y2="-3145.8403"
   id="line247" />
</g><g
   transform="matrix(0.50431399,0,0,0.49665294,3167.5512,3570.565)"
   stroke="#ffffff"
   stroke-width="0.60077"
   opacity="1"
   fill="none"
   id="g249">
<line
   x1="-6265.3491"
   y1="-3148.3403"
   x2="-6262.8491"
   y2="-3145.8403"
   id="line248" />
</g><g
   transform="matrix(0.50431399,0,0,0.49665294,4.635538,2006.9326)"
   stroke="#ffffff"
   stroke-width="0.60077"
   opacity="1"
   fill="none"
   id="g250">
<text
   y="-1"
   font-size="5px"
   stroke="#000000"
   stroke-width="0.30038"
   fill="#ffffff"
   text-anchor="middle"
   id="text249">0.2</text>
</g><g
   transform="matrix(0.50431399,0,0,0.49665294,3167.5512,3570.565)"
   stroke="#006600"
   stroke-width="1.8023"
   opacity="1"
   fill="none"
   id="g251">
<line
   x1="-4313.4976"
   y1="-3157.0903"
   x2="-4313.4976"
   y2="-3144.5903"
   id="line250" />
</g><g
   transform="matrix(0.50431399,0,0,0.49665294,3167.5512,3570.565)"
   stroke="#ffffff"
   stroke-width="0.60077"
   opacity="1"
   fill="none"
   id="g252">
<line
   x1="-4313.4976"
   y1="-3157.0903"
   x2="-4313.4976"
   y2="-3144.5903"
   id="line251" />
</g><g
   transform="matrix(0.50431399,0,0,0.49665294,3167.5512,3570.565)"
   stroke="#006600"
   stroke-width="1.8023"
   opacity="1"
   fill="none"
   id="g253">
<line
   x1="-4314.7476"
   y1="-3148.3403"
   x2="-4312.2476"
   y2="-3145.8403"
   id="line252" />
</g><g
   transform="matrix(0.50431399,0,0,0.49665294,3167.5512,3570.565)"
   stroke="#ffffff"
   stroke-width="0.60077"
   opacity="1"
   fill="none"
   id="g254">
<line
   x1="-4314.7476"
   y1="-3148.3403"
   x2="-4312.2476"
   y2="-3145.8403"
   id="line253" />
</g><g
   transform="matrix(0.50431399,0,0,0.49665294,500.33624,2006.9326)"
   stroke="#ffffff"
   stroke-width="0.60077"
   opacity="1"
   fill="none"
   id="g255">
<text
   y="-1"
   font-size="5px"
   stroke="#000000"
   stroke-width="0.30038"
   fill="#ffffff"
   text-anchor="middle"
   id="text254">19.5</text>
</g><g
   transform="matrix(0.50431399,0,0,0.49665294,3167.5512,3570.565)"
   stroke="#006600"
   stroke-width="1.8023"
   opacity="1"
   fill="none"
   id="g256">
<line
   x1="-4298.2578"
   y1="-3157.0903"
   x2="-4298.2578"
   y2="-3144.5903"
   id="line255" />
</g><g
   transform="matrix(0.50431399,0,0,0.49665294,3167.5512,3570.565)"
   stroke="#ffffff"
   stroke-width="0.60077"
   opacity="1"
   fill="none"
   id="g257">
<line
   x1="-4298.2578"
   y1="-3157.0903"
   x2="-4298.2578"
   y2="-3144.5903"
   id="line256" />
</g><g
   transform="matrix(0.50431399,0,0,0.49665294,3167.5512,3570.565)"
   stroke="#006600"
   stroke-width="1.8023"
   opacity="1"
   fill="none"
   id="g258">
<line
   x1="-4299.5078"
   y1="-3148.3403"
   x2="-4297.0078"
   y2="-3145.8403"
   id="line257" />
</g><g
   transform="matrix(0.50431399,0,0,0.49665294,3167.5512,3570.565)"
   stroke="#ffffff"
   stroke-width="0.60077"
   opacity="1"
   fill="none"
   id="g259">
<line
   x1="-4299.5078"
   y1="-3148.3403"
   x2="-4297.0078"
   y2="-3145.8403"
   id="line258" />
</g><g
   transform="matrix(0.50431399,0,0,0.49665294,996.0369,2006.9326)"
   stroke="#ffffff"
   stroke-width="0.60077"
   opacity="1"
   fill="none"
   id="g260">
<text
   y="-1"
   font-size="5px"
   stroke="#000000"
   stroke-width="0.30038"
   fill="#ffffff"
   text-anchor="middle"
   id="text259">0.2</text>
</g><g
   transform="matrix(0.50431399,0,0,0.49665294,3167.5512,3570.565)"
   stroke="#006600"
   stroke-width="1.8023"
   opacity="1"
   fill="none"
   id="g261">
<line
   x1="-6293.8389"
   y1="-7190.2739"
   x2="-6293.8389"
   y2="-3159.0903"
   id="line260" />
</g><g
   transform="matrix(0.50431399,0,0,0.49665294,3167.5512,3570.565)"
   stroke="#ffffff"
   stroke-width="0.60077"
   opacity="1"
   fill="none"
   id="g262">
<line
   x1="-6293.8389"
   y1="-7190.2739"
   x2="-6293.8389"
   y2="-3159.0903"
   id="line261" />
</g><g
   transform="matrix(0.50431399,0,0,0.49665294,3167.5512,3570.565)"
   stroke="#006600"
   stroke-width="1.8023"
   opacity="1"
   fill="none"
   id="g263">
<line
   x1="-6283.8389"
   y1="-7187.7739"
   x2="-6296.3389"
   y2="-7187.7739"
   id="line262" />
</g><g
   transform="matrix(0.50431399,0,0,0.49665294,3167.5512,3570.565)"
   stroke="#ffffff"
   stroke-width="0.60077"
   opacity="1"
   fill="none"
   id="g264">
<line
   x1="-6283.8389"
   y1="-7187.7739"
   x2="-6296.3389"
   y2="-7187.7739"
   id="line263" />
</g><g
   transform="matrix(0.50431399,0,0,0.49665294,3167.5512,3570.565)"
   stroke="#006600"
   stroke-width="1.8023"
   opacity="1"
   fill="none"
   id="g265">
<line
   x1="-6292.5889"
   y1="-7189.0239"
   x2="-6295.0889"
   y2="-7186.5239"
   id="line264" />
</g><g
   transform="matrix(0.50431399,0,0,0.49665294,3167.5512,3570.565)"
   stroke="#ffffff"
   stroke-width="0.60077"
   opacity="1"
   fill="none"
   id="g266">
<line
   x1="-6292.5889"
   y1="-7189.0239"
   x2="-6295.0889"
   y2="-7186.5239"
   id="line265" />
</g><g
   transform="matrix(0.50431399,0,0,0.49665294,3167.5512,3570.565)"
   stroke="#006600"
   stroke-width="1.8023"
   opacity="1"
   fill="none"
   id="g267">
<line
   x1="-6283.8389"
   y1="-7172.5337"
   x2="-6296.3389"
   y2="-7172.5337"
   id="line266" />
</g><g
   transform="matrix(0.50431399,0,0,0.49665294,3167.5512,3570.565)"
   stroke="#ffffff"
   stroke-width="0.60077"
   opacity="1"
   fill="none"
   id="g268">
<line
   x1="-6283.8389"
   y1="-7172.5337"
   x2="-6296.3389"
   y2="-7172.5337"
   id="line267" />
</g><g
   transform="matrix(0.50431399,0,0,0.49665294,3167.5512,3570.565)"
   stroke="#006600"
   stroke-width="1.8023"
   opacity="1"
   fill="none"
   id="g269">
<line
   x1="-6292.5889"
   y1="-7173.7837"
   x2="-6295.0889"
   y2="-7171.2837"
   id="line268" />
</g><g
   transform="matrix(0.50431399,0,0,0.49665294,3167.5512,3570.565)"
   stroke="#ffffff"
   stroke-width="0.60077"
   opacity="1"
   fill="none"
   id="g270">
<line
   x1="-6292.5889"
   y1="-7173.7837"
   x2="-6295.0889"
   y2="-7171.2837"
   id="line269" />
</g><g
   transform="matrix(0,-0.49665294,0.50431399,0,-7.1502741,4.5204428)"
   stroke="#ffffff"
   stroke-width="0.60077"
   opacity="1"
   fill="none"
   id="g271">
<text
   y="-1"
   font-size="5px"
   stroke="#000000"
   stroke-width="0.30038"
   fill="#ffffff"
   text-anchor="middle"
   id="text270">0.2</text>
</g><g
   transform="matrix(0.50431399,0,0,0.49665294,3167.5512,3570.565)"
   stroke="#006600"
   stroke-width="1.8023"
   opacity="1"
   fill="none"
   id="g272">
<line
   x1="-6283.8389"
   y1="-3176.8303"
   x2="-6296.3389"
   y2="-3176.8303"
   id="line271" />
</g><g
   transform="matrix(0.50431399,0,0,0.49665294,3167.5512,3570.565)"
   stroke="#ffffff"
   stroke-width="0.60077"
   opacity="1"
   fill="none"
   id="g273">
<line
   x1="-6283.8389"
   y1="-3176.8303"
   x2="-6296.3389"
   y2="-3176.8303"
   id="line272" />
</g><g
   transform="matrix(0.50431399,0,0,0.49665294,3167.5512,3570.565)"
   stroke="#006600"
   stroke-width="1.8023"
   opacity="1"
   fill="none"
   id="g274">
<line
   x1="-6292.5889"
   y1="-3178.0803"
   x2="-6295.0889"
   y2="-3175.5803"
   id="line273" />
</g><g
   transform="matrix(0.50431399,0,0,0.49665294,3167.5512,3570.565)"
   stroke="#ffffff"
   stroke-width="0.60077"
   opacity="1"
   fill="none"
   id="g275">
<line
   x1="-6292.5889"
   y1="-3178.0803"
   x2="-6295.0889"
   y2="-3175.5803"
   id="line274" />
</g><g
   transform="matrix(0,-0.49665294,0.50431399,0,-7.1502741,1000.5439)"
   stroke="#ffffff"
   stroke-width="0.60077"
   opacity="1"
   fill="none"
   id="g276">
<text
   y="-1"
   font-size="5px"
   stroke="#000000"
   stroke-width="0.30038"
   fill="#ffffff"
   text-anchor="middle"
   id="text275">40</text>
</g><g
   transform="matrix(0.50431399,0,0,0.49665294,3167.5512,3570.565)"
   stroke="#006600"
   stroke-width="1.8023"
   opacity="1"
   fill="none"
   id="g277">
<line
   x1="-6283.8389"
   y1="-3161.5903"
   x2="-6296.3389"
   y2="-3161.5903"
   id="line276" />
</g><g
   transform="matrix(0.50431399,0,0,0.49665294,3167.5512,3570.565)"
   stroke="#ffffff"
   stroke-width="0.60077"
   opacity="1"
   fill="none"
   id="g278">
<line
   x1="-6283.8389"
   y1="-3161.5903"
   x2="-6296.3389"
   y2="-3161.5903"
   id="line277" />
</g><g
   transform="matrix(0.50431399,0,0,0.49665294,3167.5512,3570.565)"
   stroke="#006600"
   stroke-width="1.8023"
   opacity="1"
   fill="none"
   id="g279">
<line
   x1="-6292.5889"
   y1="-3162.8403"
   x2="-6295.0889"
   y2="-3160.3403"
   id="line278" />
</g><g
   transform="matrix(0.50431399,0,0,0.49665294,3167.5512,3570.565)"
   stroke="#ffffff"
   stroke-width="0.60077"
   opacity="1"
   fill="none"
   id="g280">
<line
   x1="-6292.5889"
   y1="-3162.8403"
   x2="-6295.0889"
   y2="-3160.3403"
   id="line279" />
</g><g
   transform="matrix(0,-0.49665294,0.50431399,0,-7.1502741,1996.5674)"
   stroke="#ffffff"
   stroke-width="0.60077"
   opacity="1"
   fill="none"
   id="g281">
<text
   y="-1"
   font-size="5px"
   stroke="#000000"
   stroke-width="0.30038"
   fill="#ffffff"
   text-anchor="middle"
   id="text280">0.2</text>
</g><g
   transform="matrix(0.50431399,0,0,0.49665294,3167.5512,3570.565)"
   stroke="#006600"
   stroke-width="1.8023"
   opacity="1"
   fill="none"
   id="g282">
<line
   x1="-4283.7578"
   y1="-7190.2739"
   x2="-4283.7578"
   y2="-3159.0903"
   id="line281" />
</g><g
   transform="matrix(0.50431399,0,0,0.49665294,3167.5512,3570.565)"
   stroke="#ffffff"
   stroke-width="0.60077"
   opacity="1"
   fill="none"
   id="g283">
<line
   x1="-4283.7578"
   y1="-7190.2739"
   x2="-4283.7578"
   y2="-3159.0903"
   id="line282" />
</g><g
   transform="matrix(0.50431399,0,0,0.49665294,3167.5512,3570.565)"
   stroke="#006600"
   stroke-width="1.8023"
   opacity="1"
   fill="none"
   id="g284">
<line
   x1="-4293.7578"
   y1="-7187.7739"
   x2="-4281.2578"
   y2="-7187.7739"
   id="line283" />
</g><g
   transform="matrix(0.50431399,0,0,0.49665294,3167.5512,3570.565)"
   stroke="#ffffff"
   stroke-width="0.60077"
   opacity="1"
   fill="none"
   id="g285">
<line
   x1="-4293.7578"
   y1="-7187.7739"
   x2="-4281.2578"
   y2="-7187.7739"
   id="line284" />
</g><g
   transform="matrix(0.50431399,0,0,0.49665294,3167.5512,3570.565)"
   stroke="#006600"
   stroke-width="1.8023"
   opacity="1"
   fill="none"
   id="g286">
<line
   x1="-4282.5078"
   y1="-7189.0239"
   x2="-4285.0078"
   y2="-7186.5239"
   id="line285" />
</g><g
   transform="matrix(0.50431399,0,0,0.49665294,3167.5512,3570.565)"
   stroke="#ffffff"
   stroke-width="0.60077"
   opacity="1"
   fill="none"
   id="g287">
<line
   x1="-4282.5078"
   y1="-7189.0239"
   x2="-4285.0078"
   y2="-7186.5239"
   id="line286" />
</g><g
   transform="matrix(0.50431399,0,0,0.49665294,3167.5512,3570.565)"
   stroke="#006600"
   stroke-width="1.8023"
   opacity="1"
   fill="none"
   id="g288">
<line
   x1="-4293.7578"
   y1="-7172.5337"
   x2="-4281.2578"
   y2="-7172.5337"
   id="line287" />
</g><g
   transform="matrix(0.50431399,0,0,0.49665294,3167.5512,3570.565)"
   stroke="#ffffff"
   stroke-width="0.60077"
   opacity="1"
   fill="none"
   id="g289">
<line
   x1="-4293.7578"
   y1="-7172.5337"
   x2="-4281.2578"
   y2="-7172.5337"
   id="line288" />
</g><g
   transform="matrix(0.50431399,0,0,0.49665294,3167.5512,3570.565)"
   stroke="#006600"
   stroke-width="1.8023"
   opacity="1"
   fill="none"
   id="g290">
<line
   x1="-4282.5078"
   y1="-7173.7837"
   x2="-4285.0078"
   y2="-7171.2837"
   id="line289" />
</g><g
   transform="matrix(0.50431399,0,0,0.49665294,3167.5512,3570.565)"
   stroke="#ffffff"
   stroke-width="0.60077"
   opacity="1"
   fill="none"
   id="g291">
<line
   x1="-4282.5078"
   y1="-7173.7837"
   x2="-4285.0078"
   y2="-7171.2837"
   id="line290" />
</g><g
   transform="matrix(0,-0.49665294,0.50431399,0,1006.5619,4.5204428)"
   stroke="#ffffff"
   stroke-width="0.60077"
   opacity="1"
   fill="none"
   id="g292">
<text
   y="-1"
   font-size="5px"
   stroke="#000000"
   stroke-width="0.30038"
   fill="#ffffff"
   text-anchor="middle"
   id="text291">0.2</text>
</g><g
   transform="matrix(0.50431399,0,0,0.49665294,3167.5512,3570.565)"
   stroke="#006600"
   stroke-width="1.8023"
   opacity="1"
   fill="none"
   id="g293">
<line
   x1="-4293.7578"
   y1="-3176.8303"
   x2="-4281.2578"
   y2="-3176.8303"
   id="line292" />
</g><g
   transform="matrix(0.50431399,0,0,0.49665294,3167.5512,3570.565)"
   stroke="#ffffff"
   stroke-width="0.60077"
   opacity="1"
   fill="none"
   id="g294">
<line
   x1="-4293.7578"
   y1="-3176.8303"
   x2="-4281.2578"
   y2="-3176.8303"
   id="line293" />
</g><g
   transform="matrix(0.50431399,0,0,0.49665294,3167.5512,3570.565)"
   stroke="#006600"
   stroke-width="1.8023"
   opacity="1"
   fill="none"
   id="g295">
<line
   x1="-4282.5078"
   y1="-3178.0803"
   x2="-4285.0078"
   y2="-3175.5803"
   id="line294" />
</g><g
   transform="matrix(0.50431399,0,0,0.49665294,3167.5512,3570.565)"
   stroke="#ffffff"
   stroke-width="0.60077"
   opacity="1"
   fill="none"
   id="g296">
<line
   x1="-4282.5078"
   y1="-3178.0803"
   x2="-4285.0078"
   y2="-3175.5803"
   id="line295" />
</g><g
   transform="matrix(0,-0.49665294,0.50431399,0,1006.5619,1000.5439)"
   stroke="#ffffff"
   stroke-width="0.60077"
   opacity="1"
   fill="none"
   id="g297">
<text
   y="-1"
   font-size="5px"
   stroke="#000000"
   stroke-width="0.30038"
   fill="#ffffff"
   text-anchor="middle"
   id="text296">40</text>
</g><g
   transform="matrix(0.50431399,0,0,0.49665294,3167.5512,3570.565)"
   stroke="#006600"
   stroke-width="1.8023"
   opacity="1"
   fill="none"
   id="g298">
<line
   x1="-4293.7578"
   y1="-3161.5903"
   x2="-4281.2578"
   y2="-3161.5903"
   id="line297" />
</g><g
   transform="matrix(0.50431399,0,0,0.49665294,3167.5512,3570.565)"
   stroke="#ffffff"
   stroke-width="0.60077"
   opacity="1"
   fill="none"
   id="g299">
<line
   x1="-4293.7578"
   y1="-3161.5903"
   x2="-4281.2578"
   y2="-3161.5903"
   id="line298" />
</g><g
   transform="matrix(0.50431399,0,0,0.49665294,3167.5512,3570.565)"
   stroke="#006600"
   stroke-width="1.8023"
   opacity="1"
   fill="none"
   id="g300">
<line
   x1="-4282.5078"
   y1="-3162.8403"
   x2="-4285.0078"
   y2="-3160.3403"
   id="line299" />
</g><g
   transform="matrix(0.50431399,0,0,0.49665294,3167.5512,3570.565)"
   stroke="#ffffff"
   stroke-width="0.60077"
   opacity="1"
   fill="none"
   id="g301">
<line
   x1="-4282.5078"
   y1="-3162.8403"
   x2="-4285.0078"
   y2="-3160.3403"
   id="line300" />
</g><g
   transform="matrix(0,-0.49665294,0.50431399,0,1006.5619,1996.5674)"
   stroke="#ffffff"
   stroke-width="0.60077"
   opacity="1"
   fill="none"
   id="g302">
<text
   y="-1"
   font-size="5px"
   stroke="#000000"
   stroke-width="0.30038"
   fill="#ffffff"
   text-anchor="middle"
   id="text301">0.2</text></g></g>
</svg>
