<svg width="24" height="24" viewBox="0 0 24 24" fill="none" xmlns="http://www.w3.org/2000/svg">
<path d="M6.99986 12H19.9999C20.2651 12 20.5194 12.1054 20.707 12.2929C20.8945 12.4804 20.9999 12.7348 20.9999 13C20.9999 14.3261 20.4731 15.5979 19.5354 16.5355C18.5977 17.4732 17.3259 18 15.9999 18H15.4019C15.3126 18 15.225 18.0239 15.1481 18.0692C15.0712 18.1145 15.0078 18.1796 14.9645 18.2576C14.9213 18.3357 14.8997 18.4239 14.902 18.5131C14.9044 18.6023 14.9306 18.6893 14.9779 18.765L16.5219 21.235C16.5692 21.3107 16.5953 21.3977 16.5977 21.4869C16.6 21.5761 16.5784 21.6643 16.5352 21.7424C16.4919 21.8204 16.4285 21.8855 16.3516 21.9308C16.2747 21.9761 16.1871 22 16.0979 22H5.40186C5.3126 22 5.22498 21.9761 5.14808 21.9308C5.07118 21.8855 5.0078 21.8204 4.96453 21.7424C4.92127 21.6643 4.89969 21.5761 4.90203 21.4869C4.90437 21.3977 4.93055 21.3107 4.97786 21.235L6.99986 18" stroke="#155DFC" stroke-width="2" stroke-linecap="round" stroke-linejoin="round"/>
<path d="M8 18C6.67392 18 5.40215 17.4732 4.46447 16.5355C3.52678 15.5979 3 14.3261 3 13V4C3 3.46957 3.21071 2.96086 3.58579 2.58579C3.96086 2.21071 4.46957 2 5 2H13C13.5304 2 14.0391 2.21071 14.4142 2.58579C14.7893 2.96086 15 3.46957 15 4V12" stroke="#155DFC" stroke-width="2" stroke-linecap="round" stroke-linejoin="round"/>
</svg>
